<svg width="92" height="27" viewBox="0 0 92 27" fill="none" xmlns="http://www.w3.org/2000/svg">
<path d="M31.2043 6.65633V10.3133C32.1789 10.116 33.1669 10.0239 34.1549 10.0371C35.9038 10.0371 37.2256 10.5106 38.1602 11.4577C39.0948 12.4049 39.5487 13.7072 39.5487 15.3778C39.5487 17.0879 39.0814 18.4297 38.1468 19.4031C37.2256 20.3765 36.0374 20.8633 34.542 20.8633C32.5794 20.8633 30.6168 20.7186 28.6675 20.4555V5.69605C28.6675 5.60396 28.7076 5.51188 28.7877 5.45926C28.8812 5.40665 28.988 5.40665 29.0814 5.45926L31.2043 6.65633ZM33.8211 12.1286C32.9399 12.1286 32.0587 12.2207 31.2043 12.418V18.6138C32.1255 18.7454 33.0467 18.8111 33.9679 18.8243C34.9826 18.8243 35.7303 18.5217 36.2777 17.9166C36.8251 17.3115 37.0921 16.4696 37.0921 15.3778C37.0921 13.2073 35.9973 12.1286 33.8211 12.1286ZM47.279 9.89235C49.0013 9.89235 50.4032 10.4054 51.4713 11.4183C52.5393 12.4312 53.0867 13.7598 53.0867 15.391C53.0867 17.0747 52.5527 18.4297 51.4713 19.4426C50.3898 20.4686 48.9879 20.9816 47.279 20.9816C45.5567 20.9816 44.1548 20.4686 43.06 19.4426C41.992 18.4297 41.4446 17.0747 41.4446 15.391C41.4446 13.7598 41.9786 12.4312 43.06 11.4183C44.1415 10.3922 45.5434 9.89235 47.279 9.89235ZM47.279 18.7059C48.2403 18.7059 49.028 18.4034 49.6155 17.7851C50.2029 17.1668 50.51 16.3644 50.51 15.3778C50.51 14.4175 50.2163 13.6283 49.6155 13.0363C49.028 12.4443 48.2403 12.1418 47.279 12.1418C46.3044 12.1418 45.5033 12.4443 44.9025 13.0363C44.3017 13.6283 43.9946 14.4044 43.9946 15.3646C43.9946 16.3644 44.2884 17.1668 44.9025 17.7719C45.5167 18.3902 46.3044 18.7059 47.279 18.7059ZM57.773 5.45926C57.8531 5.40665 57.9599 5.40665 58.04 5.45926C58.1201 5.51188 58.1735 5.60396 58.1735 5.69605V20.6133H55.6368V6.97204C55.6502 6.77472 55.757 6.59056 55.9305 6.49847L57.773 5.45926ZM64.1815 14.1676H65.0494L68.5874 10.4843C68.6942 10.3922 68.8411 10.3396 68.9879 10.3528H71.2042C71.3511 10.3528 71.4846 10.4712 71.4846 10.629C71.4846 10.6948 71.4579 10.7606 71.4045 10.8132L67.7062 14.7201L72.1922 20.6133H69.2149L66.2109 16.7722C66.1041 16.6275 65.9439 16.5486 65.7703 16.5354H64.1815V20.6133H61.6448V5.69605C61.6448 5.53819 61.7783 5.4198 61.9385 5.4198C61.9919 5.4198 62.032 5.43295 62.0721 5.45926L63.9012 6.49847C64.0747 6.59056 64.1815 6.77472 64.1815 6.97204V14.1676ZM78.1468 10.0107C79.6288 10.0107 80.8437 10.4317 81.7783 11.2604C82.7262 12.0892 83.2069 13.181 83.2202 14.5359C83.2202 14.9963 83.1935 15.4699 83.1401 15.9303C83.1001 16.2065 82.8731 16.417 82.5794 16.4039H75.3698C75.5166 17.0879 75.9305 17.693 76.518 18.0876C77.0921 18.4954 77.7997 18.6928 78.6675 18.6928C79.4018 18.6928 80.6568 18.5086 82.4058 18.1403L82.7663 20.1661C81.0707 20.6791 79.6955 20.929 78.6141 20.929C76.7049 20.929 75.2363 20.416 74.2082 19.4031C73.1802 18.3902 72.6595 17.0747 72.6728 15.4699C72.6728 13.8124 73.1802 12.497 74.2082 11.5104C75.2363 10.5106 76.5447 10.0107 78.1468 10.0107ZM78.1869 11.9839C77.4792 11.9708 76.785 12.2207 76.2509 12.6943C75.7303 13.1547 75.4098 13.7861 75.2897 14.5754H80.9372C80.9105 13.7861 80.6435 13.181 80.1361 12.7074C79.6154 12.2207 78.9078 11.9576 78.1869 11.9839ZM86.4779 16.3118V11.8129H84.7423V10.0107C84.769 9.83973 84.9158 9.72134 85.076 9.70819H86.3177C86.3711 9.70819 86.4779 9.69503 86.4779 9.62926V6.97204C86.4645 6.77472 86.5714 6.59056 86.7316 6.49847L88.5073 5.48557C88.5874 5.43295 88.6808 5.43295 88.7609 5.48557C88.841 5.53819 88.8811 5.63027 88.8811 5.72235V9.62926C88.8811 9.68188 88.9612 9.70819 89.0146 9.70819H91.4178V11.8129H88.8811V15.7724L91.0039 20.6265H88.3204L86.4779 16.3118Z" fill="#00B993"/>
<path d="M10.1202 4.05173C10.3471 3.92019 10.6141 3.92019 10.8411 4.05173L14.9933 6.41955L13.1108 7.48507L10.8545 6.19593C10.6275 6.06438 10.3338 6.06438 10.1068 6.20908H10.0934L4.93992 9.14255V12.1549L3.07076 13.2468V8.07703L10.1202 4.05173ZM20.6542 15.562L4.96662 24.4808L1.88251 22.7312H1.86916V7.4193L10.1068 2.73628H10.1202C10.3471 2.60473 10.6275 2.60473 10.8411 2.73628L16.235 5.80129C16.5821 5.99861 16.7023 6.43271 16.502 6.77473C16.4352 6.89312 16.3284 6.9852 16.2083 7.05097L3.07076 14.5359V22.0866L4.96662 23.1653L20.5741 14.2728L20.6675 14.2202C20.4673 13.352 19.8932 12.6154 19.0921 12.2076L16.1682 10.5501L14.2857 11.6288L16.7824 13.0626C17.1295 13.2599 17.2497 13.694 17.0494 14.036C16.9826 14.1413 16.8892 14.2334 16.7824 14.2991L4.95327 21.0211H4.93992V16.0224C4.93992 15.7724 5.08678 15.5357 5.31375 15.4041L18.251 8.03757C19.1589 7.52454 19.4659 6.39325 18.9452 5.49873C18.785 5.20933 18.5447 4.97255 18.251 4.8147L10.8411 0.592082C10.7343 0.526309 10.6141 0.5 10.4806 0.5C10.3471 0.5 10.227 0.526309 10.1068 0.592082L0 6.34063V23.8099L4.57944 26.4013C4.8064 26.5329 5.08678 26.5329 5.31375 26.4013L18.7183 18.7717C19.279 18.456 19.7196 17.9693 19.9866 17.3905C20.2537 16.7985 20.4806 16.1802 20.6542 15.562Z" fill="#00B993"/>
</svg>
