<svg width="161" height="60" viewBox="0 0 161 60" fill="none" xmlns="http://www.w3.org/2000/svg">
<g clip-path="url(#clip0_313_111)">
<path d="M76.9543 49.7685C76.4633 49.4949 75.843 49.3577 75.0935 49.3569H69.8311V59.8172H71.555V55.9437H75.0316C75.7597 55.9437 76.3776 55.8065 76.8853 55.5322C77.3826 55.269 77.7875 54.8623 78.0465 54.366C78.3064 53.8262 78.4433 53.2363 78.4474 52.6382C78.4515 52.0401 78.3228 51.4484 78.0703 50.9052C77.8209 50.4245 77.4323 50.0287 76.9543 49.7685ZM76.2404 53.9922C75.9271 54.3153 75.4992 54.4768 74.9566 54.4768H71.555V50.8214H74.9566C75.293 50.809 75.6269 50.8825 75.9263 51.0349C76.1773 51.1755 76.3787 51.3891 76.5034 51.6469C76.6447 51.9553 76.7131 52.2916 76.7032 52.6303C76.7064 53.2136 76.5517 53.6675 76.2392 53.9922H76.2404ZM87.4172 49.7685C86.624 49.3754 85.6754 49.1789 84.5713 49.1789C83.4838 49.1789 82.5427 49.3754 81.7479 49.7685C80.9608 50.1578 80.3195 50.7856 79.9168 51.5608C79.4925 52.3594 79.2799 53.3684 79.2791 54.5877C79.2783 55.8069 79.4909 56.8131 79.9168 57.6063C80.3175 58.3846 80.9592 59.0152 81.7479 59.4057C82.5411 59.7987 83.4822 59.9952 84.5713 59.9952C85.6817 59.9952 86.6304 59.7987 87.4172 59.4057C88.2006 59.0128 88.8371 58.3825 89.234 57.6063C89.66 56.8037 89.8729 55.7975 89.8729 54.5877C89.8729 53.3778 89.66 52.3689 89.234 51.5608C88.8348 50.7876 88.1982 50.16 87.416 49.7685H87.4172ZM88.1097 54.7704C88.1194 55.3332 88.0391 55.894 87.8717 56.4318C87.733 56.8745 87.4964 57.281 87.1793 57.6216C86.8714 57.9392 86.4917 58.1797 86.0716 58.3232C85.5881 58.4829 85.0808 58.5603 84.5713 58.552C84.0668 58.5597 83.5647 58.4823 83.0864 58.3232C82.6661 58.18 82.2864 57.9395 81.9787 57.6216C81.6621 57.2819 81.4281 56.875 81.2946 56.4318C81.1316 55.8932 81.0537 55.3327 81.0638 54.7704V54.4344C81.0524 53.8619 81.1303 53.2912 81.2946 52.7423C81.4277 52.2995 81.6608 51.8926 81.9763 51.5525C82.2838 51.2346 82.6636 50.9944 83.084 50.8521C83.5622 50.6924 84.0644 50.6151 84.5689 50.6233C85.0785 50.6145 85.5859 50.6918 86.0692 50.8521C86.4895 50.9947 86.8693 51.2349 87.1769 51.5525C87.4938 51.8933 87.7303 52.2997 87.8693 52.7423C88.038 53.2904 88.1183 53.8614 88.1073 54.4344L88.1097 54.7704ZM90.9402 59.8172H92.663V49.3569H90.939L90.9402 59.8172ZM101.063 55.9142V56.7832H100.987C100.943 56.6879 100.891 56.5961 100.833 56.5085C100.761 56.3906 100.687 56.2845 100.61 56.1724C100.548 56.0803 100.478 55.9939 100.401 55.9142L95.5863 49.3569H93.9206V59.8172H95.5863V52.2848H95.6588C95.7207 52.3862 95.8123 52.5312 95.9361 52.7199C96.0598 52.9085 96.1609 53.0618 96.243 53.1845L101.121 59.8172H102.721V49.3569H101.056L101.063 55.9142ZM103.693 50.8214H107.185V59.8172H108.908V50.8214H112.435V49.3569H103.693V50.8214ZM121.421 55.6005C121.226 55.2723 120.961 54.9906 120.644 54.7751C120.305 54.5433 119.938 54.3536 119.552 54.2103C119.146 54.0586 118.73 53.9242 118.305 53.8071C117.88 53.6899 117.465 53.5779 117.059 53.471C116.688 53.3771 116.323 53.2589 115.967 53.1173C115.68 53.0079 115.416 52.845 115.19 52.6373C115.093 52.5434 115.017 52.4305 114.967 52.3059C114.917 52.1812 114.893 52.0475 114.898 51.9133C114.896 51.7868 114.92 51.6613 114.969 51.5445C115.019 51.4276 115.091 51.322 115.183 51.2341C115.42 51.0209 115.706 50.869 116.016 50.792C116.463 50.6764 116.924 50.6229 117.385 50.6328C117.798 50.6249 118.209 50.6867 118.601 50.8155C118.914 50.9144 119.195 51.0929 119.416 51.3332C119.614 51.5629 119.718 51.857 119.709 52.1586V52.3567H121.416V52.1739C121.429 51.7072 121.321 51.2452 121.101 50.8321C120.892 50.4566 120.593 50.1374 120.231 49.9017C119.837 49.6466 119.399 49.4634 118.939 49.3605C118.426 49.2363 117.899 49.1725 117.37 49.1706C116.785 49.1642 116.202 49.2255 115.632 49.3534C115.163 49.4578 114.715 49.6409 114.309 49.8946C113.955 50.1168 113.664 50.4238 113.463 50.7872C113.263 51.1626 113.162 51.5821 113.17 52.0065C113.157 52.4282 113.255 52.8461 113.454 53.2187C113.644 53.5486 113.907 53.831 114.224 54.0441C114.565 54.2715 114.931 54.4579 115.316 54.5994C115.727 54.7543 116.145 54.887 116.57 54.9968C117.001 55.1092 117.419 55.2209 117.824 55.3317C118.197 55.4328 118.562 55.5601 118.917 55.7126C119.209 55.8336 119.471 56.0158 119.685 56.2467C119.879 56.471 119.981 56.7593 119.971 57.0544C119.975 57.2515 119.927 57.4462 119.832 57.6193C119.737 57.7854 119.605 57.9284 119.447 58.0379C119.27 58.1617 119.076 58.2594 118.87 58.3279C118.635 58.4087 118.392 58.4656 118.146 58.4977C117.87 58.5347 117.591 58.5528 117.313 58.552C116.841 58.5596 116.371 58.4923 115.921 58.3527C115.554 58.2491 115.224 58.0447 114.969 57.7631C114.741 57.495 114.621 57.1535 114.63 56.8033C114.63 56.762 114.63 56.7113 114.638 56.65C114.647 56.5887 114.645 56.5439 114.645 56.5132H112.924C112.924 56.5533 112.921 56.6016 112.917 56.6582C112.911 56.7162 112.908 56.7745 112.908 56.8328C112.894 57.3361 113.018 57.8339 113.265 58.2737C113.502 58.6772 113.834 59.0175 114.234 59.2654C114.669 59.5343 115.148 59.7251 115.65 59.829C116.197 59.9476 116.755 60.0065 117.315 60.0047C118.084 60.0169 118.85 59.909 119.585 59.6851C120.197 59.5035 120.741 59.1451 121.146 58.6557C121.526 58.1841 121.716 57.5713 121.716 56.8174C121.728 56.3925 121.625 55.9721 121.416 55.6005H121.421Z" fill="#D9E021"/>
<path d="M153.406 45.6427C157.6 45.6427 161 42.2729 161 38.1161C161 33.9593 157.6 30.5896 153.406 30.5896C149.212 30.5896 145.812 33.9593 145.812 38.1161C145.812 42.2729 149.212 45.6427 153.406 45.6427Z" fill="#D9E021"/>
<path d="M88.2813 46.2381C84.3788 46.2381 81.0431 45.577 78.274 44.2547C75.5752 42.9977 73.35 40.922 71.9206 38.3283C70.454 35.7012 69.7207 32.4534 69.7207 28.585C69.7207 24.6843 70.4544 21.4279 71.9218 18.8157C73.3892 16.2035 75.507 14.2382 78.2752 12.9199C81.0435 11.5946 84.3788 10.9319 88.2813 10.9319C92.2171 10.9319 95.5695 11.593 98.3385 12.9152C101.108 14.2374 103.225 16.2027 104.692 18.811C106.16 21.424 106.894 24.6804 106.894 28.5803C106.894 32.4479 106.16 35.6957 104.692 38.3236C103.262 40.9168 101.037 42.9923 98.3385 44.25C95.5687 45.5754 92.2163 46.2381 88.2813 46.2381ZM88.2813 38.0559C89.4814 38.0559 90.5403 37.8657 91.458 37.4852C92.3402 37.131 93.1281 36.5798 93.7602 35.8745C94.395 35.1474 94.8641 34.2931 95.1356 33.37C95.4454 32.3322 95.5974 31.2544 95.5866 30.1721V27.0026C95.5974 25.9199 95.4454 24.8417 95.1356 23.8035C94.8641 22.8804 94.395 22.0261 93.7602 21.299C93.1274 20.5944 92.3398 20.0434 91.458 19.6883C90.5403 19.3078 89.4814 19.1176 88.2813 19.1176C87.0812 19.1176 86.0223 19.3078 85.1046 19.6883C84.2277 20.0392 83.4472 20.5912 82.8273 21.299C82.2065 22.0318 81.7466 22.8847 81.4769 23.8035C81.1669 24.8417 81.0141 25.9199 81.0236 27.0026V30.1757C81.0145 31.2568 81.1672 32.3333 81.4769 33.37C81.7466 34.2888 82.2065 35.1417 82.8273 35.8745C83.4466 36.583 84.2272 37.1351 85.1046 37.4852C86.0223 37.8665 87.0812 38.0567 88.2813 38.0559Z" fill="white"/>
<path d="M110.649 45.6426V11.5273H132.214C134.782 11.5273 136.923 12.0383 138.639 13.0602C140.355 14.0822 141.647 15.4209 142.517 17.0764C143.383 18.7302 143.83 20.5686 143.817 22.4321C143.817 24.6136 143.301 26.5556 142.27 28.2583C141.244 29.954 139.797 31.362 138.068 32.3488L144.822 45.6379H132.415L127.161 34.1836H121.714V45.6379L110.649 45.6426ZM121.714 26.6016H129.469C130.336 26.6016 131.069 26.2628 131.67 25.5852C132.272 24.9076 132.572 24.0067 132.571 22.8826C132.584 22.2484 132.448 21.62 132.171 21.0478C131.921 20.539 131.541 20.1034 131.07 19.7838C130.597 19.4681 130.039 19.3035 129.469 19.3121H121.714V26.6016Z" fill="white"/>
<path opacity="0.5" d="M104.164 17.9491C102.732 15.7669 100.788 14.089 98.3342 12.9153C96.4401 12.0089 94.2707 11.4135 91.8261 11.1289L84.2924 20.0905C84.5537 19.9378 84.8252 19.8031 85.105 19.6872C86.0227 19.3067 87.0816 19.1165 88.2817 19.1165C89.4818 19.1165 90.5407 19.3067 91.4585 19.6872C92.3402 20.0423 93.1279 20.5934 93.7607 21.2979C94.3955 22.0251 94.8646 22.8793 95.1361 23.8024C95.446 24.841 95.598 25.9196 95.587 27.0027V28.1535L104.164 17.9491ZM82.8278 35.8722C82.2072 35.1402 81.7473 34.288 81.4774 33.3701C81.1673 32.3323 81.0146 31.2545 81.0241 30.1722V27.0027C81.0134 25.9201 81.165 24.842 81.4738 23.8036C81.5404 23.5867 81.6166 23.3779 81.6975 23.174L70.8848 36.035C71.1665 36.8262 71.5131 37.5932 71.9211 38.3284C73.3505 40.9221 75.5757 42.9978 78.2745 44.2548C79.1979 44.6927 80.1571 45.052 81.1419 45.3291L87.2978 38.0089C86.5444 37.9452 85.8051 37.7687 85.105 37.4853C84.2279 37.1348 83.4474 36.5827 82.8278 35.8746V35.8722Z" fill="#B3B3B3"/>
<path d="M98.3121 0L47.9463 59.8172H61.0053L111.372 0H98.3121Z" fill="#D9E021"/>
<path d="M17.0139 46.238C14.7932 46.25 12.5754 46.0757 10.3844 45.7168C8.33164 45.3702 6.52952 44.7755 4.97804 43.9328C3.4552 43.1167 2.19075 41.8978 1.32542 40.4118C0.441805 38.9072 0 37.0147 0 34.7342V34.4618C0.00117009 34.3361 0.0179532 34.2109 0.0499708 34.0892H10.507C10.4749 34.2109 10.4582 34.3361 10.457 34.4618V34.7849C10.457 35.7754 10.6906 36.5356 11.1578 37.0654C11.625 37.5952 12.2837 37.949 13.134 38.1266C14.0806 38.3176 15.0449 38.4089 16.0109 38.399C16.4107 38.399 16.8366 38.3919 17.2863 38.3742C17.7236 38.3599 18.1589 38.3102 18.588 38.2257C18.9856 38.1498 19.372 38.025 19.7385 37.8542C20.0678 37.7059 20.3524 37.4751 20.5642 37.1845C20.7735 36.8705 20.8784 36.4993 20.864 36.1232C20.864 35.4944 20.5804 34.9987 20.0133 34.6363C19.4462 34.2739 18.6792 33.9595 17.7123 33.693C16.7438 33.4281 15.6595 33.1801 14.4594 32.949C13.2593 32.7179 12.0089 32.4451 10.708 32.1306C9.42709 31.823 8.1724 31.4166 6.95546 30.9149C5.78406 30.4377 4.68844 29.7951 3.7026 29.0071C2.7233 28.2156 1.93642 27.2157 1.40037 26.0816C0.833243 24.9071 0.550076 23.4922 0.550869 21.8366C0.550869 19.8533 0.967689 18.1675 1.80133 16.7792C2.63837 15.3868 3.81709 14.2267 5.2279 13.4069C6.7641 12.5137 8.43774 11.8764 10.1821 11.5202C12.0986 11.1168 14.0529 10.9172 16.0121 10.9248C17.9727 10.9135 19.9284 11.1215 21.842 11.545C23.5466 11.9132 25.1779 12.5583 26.6701 13.454C28.0212 14.2649 29.1543 15.3875 29.973 16.7262C30.7725 18.0492 31.1893 19.6214 31.2234 21.4428V22.0324H20.864V21.8343C20.865 21.243 20.7099 20.6617 20.4143 20.1481C20.0785 19.5871 19.5813 19.1384 18.9865 18.8593C18.3353 18.5291 17.4763 18.3636 16.4095 18.3628C15.4093 18.3628 14.5673 18.4619 13.8836 18.66C13.1998 18.8581 12.691 19.1309 12.3571 19.4783C12.0223 19.8258 11.8554 20.198 11.8562 20.595C11.8562 21.2239 12.1397 21.7348 12.7069 22.1279C13.274 22.5209 14.0414 22.8515 15.0091 23.1196C15.9752 23.3853 17.0591 23.6333 18.2608 23.8636C19.4624 24.0939 20.7125 24.3541 22.011 24.6442C23.2891 24.9191 24.5437 25.292 25.7635 25.7597C26.9313 26.2031 28.0278 26.8124 29.0188 27.5685C29.9812 28.3068 30.7673 29.2465 31.321 30.3206C31.8873 31.4117 32.1709 32.7505 32.1717 34.3368C32.1717 37.1479 31.5129 39.4276 30.1955 41.1759C28.878 42.9242 27.0766 44.2052 24.7915 45.0188C22.5063 45.8308 19.9138 46.2372 17.0139 46.238Z" fill="white"/>
<path d="M35.6729 45.6426V11.5273H46.7307V26.1052L58.9854 11.5273H72.6953L60.337 25.5593L72.9487 45.6414H59.8885L52.588 32.8983L46.7342 38.5005V45.6414L35.6729 45.6426Z" fill="white"/>
</g>
<defs>
<clipPath id="clip0_313_111">
<rect width="161" height="60" fill="white"/>
</clipPath>
</defs>
</svg>
