<svg width="230" height="49" viewBox="0 0 230 49" fill="none" xmlns="http://www.w3.org/2000/svg">
<path d="M61.6274 14.1526C55.873 14.1526 51.2119 18.7831 51.2119 24.4999C51.2119 30.2166 55.873 34.8471 61.6274 34.8471C64.1017 34.8471 66.346 33.9896 68.1298 32.5604V48.5101H72.0428V24.4999C72.1003 18.7831 67.3817 14.1526 61.6274 14.1526ZM61.6274 30.9598C58.0596 30.9598 55.1249 28.0442 55.1249 24.4999C55.1249 20.9555 58.0596 18.04 61.6274 18.04C65.1951 18.04 68.1298 20.9555 68.1298 24.4999C68.1298 28.0442 65.2526 30.9598 61.6274 30.9598Z" fill="white"/>
<path d="M110.885 14.1526C105.131 14.1526 100.47 18.7831 100.47 24.4999C100.47 30.2166 105.131 34.8471 110.885 34.8471C113.36 34.8471 115.604 33.9896 117.388 32.5604V34.8471H121.301V24.4999C121.301 18.7831 116.64 14.1526 110.885 14.1526ZM110.885 30.9598C107.317 30.9598 104.383 28.0442 104.383 24.4999C104.383 20.9555 107.317 18.04 110.885 18.04C114.453 18.04 117.388 20.9555 117.388 24.4999C117.388 28.0442 114.51 30.9598 110.885 30.9598Z" fill="white"/>
<path d="M142.074 3.80542V16.4394C140.29 15.0102 138.046 14.1527 135.572 14.1527C129.817 14.1527 125.156 18.7832 125.156 24.5C125.156 30.2167 129.817 34.8472 135.572 34.8472C141.326 34.8472 145.987 30.2167 145.987 24.5V3.80542H142.074ZM135.572 30.9599C132.004 30.9599 129.069 28.0443 129.069 24.5C129.069 20.9556 132.004 18.0401 135.572 18.0401C139.139 18.0401 142.074 20.9556 142.074 24.5C142.074 28.0443 139.139 30.9599 135.572 30.9599Z" fill="white"/>
<path d="M92.7587 14.1526V16.4393V24.4999C92.7587 28.0442 89.824 30.9598 86.2563 30.9598C82.6885 30.9598 79.7538 28.0442 79.7538 24.4999V16.4393V14.1526H75.8408V24.4999C75.8408 27.7584 77.337 30.6739 79.7538 32.5604C81.5377 33.9896 83.7819 34.8471 86.2563 34.8471C88.7306 34.8471 90.9749 33.9896 92.7587 32.5604C95.118 30.6739 96.6717 27.7584 96.6717 24.4999V14.1526H92.7587Z" fill="white"/>
<path d="M172.86 14.1526C167.105 14.1526 162.444 18.7831 162.444 24.4999C162.444 30.2166 167.105 34.8471 172.86 34.8471C175.334 34.8471 177.578 33.9896 179.362 32.5604V34.8471H183.275V24.4999C183.275 18.7831 178.614 14.1526 172.86 14.1526ZM172.86 30.9598C169.292 30.9598 166.357 28.0442 166.357 24.4999C166.357 20.9555 169.292 18.04 172.86 18.04C176.427 18.04 179.362 20.9555 179.362 24.4999C179.362 28.0442 176.427 30.9598 172.86 30.9598Z" fill="white"/>
<path d="M220.563 35.0187C217.226 35.0187 214.521 33.8182 211.816 31.1313L213.888 28.273C214.866 29.7593 216.477 31.7602 220.563 31.7602C222.577 31.7602 225.569 30.3882 225.569 28.5016C225.569 26.4436 222.577 26.0434 220.333 25.9291C217.168 25.7004 211.816 24.6143 211.816 20.0981C211.816 15.9249 216.765 14.0383 220.333 14.0383H220.506C223.153 14.0955 225.512 15.0102 227.641 16.7824L225.454 19.2406C223.843 17.8685 222.347 17.2969 220.563 17.2969C217.859 17.2969 215.499 18.4402 215.499 19.9837C215.499 21.0699 216.823 22.3276 220.678 22.5562C224.649 22.7849 229.252 23.7568 229.252 28.7303C229.137 31.9888 224.994 35.0187 220.563 35.0187Z" fill="white"/>
<path d="M207.904 24.4999C207.904 18.7831 203.243 14.1526 197.489 14.1526C194.669 14.1526 192.482 15.2959 190.986 17.0681V14.1526H187.073V34.8471H190.986V24.4999C190.986 20.9555 193.921 18.04 197.489 18.04C201.056 18.04 203.991 20.9555 203.991 24.4999V32.5604V34.8471H207.904V24.4999Z" fill="white"/>
<path d="M160.315 18.04L162.616 14.4384C161.811 14.2669 161.005 14.1526 160.2 14.1526C157.207 14.1526 155.078 15.4103 153.697 17.4111V14.1526H149.784V34.8471H153.697V31.5886V24.4427C153.755 20.8983 156.632 18.04 160.2 18.04C160.2 18.04 160.257 18.04 160.315 18.04Z" fill="white"/>
<path d="M6.73047 17.2969C6.73047 22.8421 9.43503 27.8156 13.6933 30.8455C10.6435 28.5017 8.68696 24.7858 8.68696 20.6697C8.68696 13.581 14.4413 7.80711 21.6343 7.80711C28.8273 7.80711 34.5817 13.581 34.5817 20.6697C34.5817 26.6723 30.4385 31.703 24.8568 33.1322C32.395 31.4743 38.0343 24.7858 38.0343 16.7824C38.0343 9.12196 32.8554 2.66206 25.835 0.661209C25.087 0.546874 24.3964 0.546875 23.6484 0.546875C14.2687 0.546875 6.73047 8.03578 6.73047 17.2969Z" fill="#4B64D8"/>
<path d="M23.5916 0.546976C24.3396 0.546976 25.0877 0.604143 25.7782 0.66131C24.3972 0.261139 22.901 0.0324707 21.3474 0.0324707C21.2898 0.0324707 21.1747 0.0324707 21.1172 0.0324707C19.6786 0.0324707 18.2975 0.203973 17.0316 0.546976C9.7235 2.37633 4.25684 8.95056 4.25684 16.7825C4.25684 25.3004 10.6442 32.332 18.9305 33.4181C19.6786 33.5325 20.3691 33.5325 21.1172 33.5325C21.1747 33.5325 21.2898 33.5325 21.3474 33.5325C19.6786 33.4753 18.0674 33.1323 16.6288 32.5606C15.593 32.1033 14.5572 31.5316 13.6365 30.8456C9.43578 27.8157 6.67368 22.8422 6.67368 17.297C6.73122 8.03588 14.2695 0.546976 23.5916 0.546976Z" fill="#2FAFD0"/>
<path d="M21.692 33.5324C23.0155 33.5324 24.339 33.6468 25.605 33.9326C28.5973 34.5043 31.3594 35.7048 33.7762 37.4198C39.0127 33.6468 42.4078 27.587 42.4078 20.6698C42.4078 13.8097 39.0703 7.75001 33.8913 4.03414C32.7404 3.17663 31.4745 2.43346 30.0934 1.86178C27.5039 0.718439 24.6268 0.0895996 21.6345 0.0895996C21.5769 0.0895996 21.4618 0.0895996 21.4043 0.0895996C22.958 0.0895996 24.3966 0.318269 25.8352 0.718439C32.8555 2.66213 38.0345 9.12202 38.0345 16.7824C38.0345 24.7858 32.3952 31.4744 24.8569 33.1323C23.7636 33.3609 22.6127 33.5324 21.4043 33.5324C21.4618 33.5324 21.5194 33.5324 21.5769 33.5324C21.5769 33.5324 21.5769 33.5324 21.692 33.5324C21.6345 33.5324 21.6345 33.5324 21.692 33.5324Z" fill="#6719E0"/>
<path d="M33.7764 37.4197C30.3813 34.9616 26.1806 33.5324 21.6922 33.5324H21.6347H21.5771C21.5196 33.5324 21.462 33.5324 21.4045 33.5324C21.3469 33.5324 21.2319 33.5324 21.1743 33.5324C20.4262 33.5324 19.6782 33.4752 18.9876 33.418C10.7013 32.3319 4.31396 25.3003 4.31396 16.7824C4.31396 8.95046 9.72308 2.37623 17.0887 0.546875C7.82413 2.6049 0.861328 10.837 0.861328 20.6697C0.861328 27.587 4.25642 33.6467 9.49291 37.4197C12.888 39.8779 17.0887 41.3071 21.5771 41.3071H21.6347H21.6922C26.9287 41.3071 31.4747 44.4513 33.4887 48.9675L39.1855 43.0793C37.7469 40.9069 35.9055 38.9633 33.7764 37.4197Z" fill="#13FAC8"/>
</svg>
