<svg width="300" height="115" viewBox="0 0 300 115" fill="none" xmlns="http://www.w3.org/2000/svg">
<g clip-path="url(#clip0_15_2)">
<g clip-path="url(#clip1_15_2)">
<path d="M243.728 114.365H0V56.1467L56.4047 0V57.886L300 58.2179L243.728 114.365Z" fill="#D84532"/>
<path d="M29.5929 82.8991C29.513 81.0669 29.3401 80.2969 28.8744 79.2746C28.1957 77.7345 26.7587 76.845 24.949 76.845C21.4895 76.845 19.7996 80.0048 19.7996 86.3908C19.7996 92.7769 21.4495 95.2994 25.0821 95.2994C27.8631 95.2994 29.4731 93.5469 30.1118 89.9224L36.4855 90.3074C36.0996 93.1221 35.5939 94.5294 34.3698 96.2288C32.294 99.1231 29.0473 100.703 25.0422 100.703C17.4045 100.703 12.4546 94.9542 12.4546 86.0456C12.4546 81.8635 13.559 78.3319 15.7545 75.6501C18.0299 72.7956 21.1169 71.4281 25.1752 71.4281C29.2336 71.4281 32.1477 72.7956 34.0904 75.4775C35.4875 77.3893 36.033 79.0621 36.4988 82.4211L29.6195 82.8858L29.5929 82.8991Z" fill="#15262C"/>
<path d="M59.332 75.5704C61.4078 78.4249 62.5388 82.1822 62.5388 86.2714C62.5388 89.9755 61.3546 93.9452 59.4119 96.5873C57.4293 99.2293 54.2225 100.716 50.4169 100.716C46.6114 100.716 43.7905 99.309 41.7546 96.6271C39.639 93.8125 38.5079 90.1083 38.5079 85.966C38.5079 81.8237 39.6523 78.2125 41.6748 75.5704C43.7505 72.8886 46.8243 71.4414 50.6298 71.4414C54.4354 71.4414 57.2962 72.8089 59.332 75.5704V75.5704ZM46.6247 79.3277C45.8662 80.9474 45.4005 83.4169 45.4005 86.0589C45.4005 92.2458 47.1303 95.3127 50.6431 95.3127C54.1559 95.3127 55.6728 92.2857 55.6728 86.112C55.6728 79.9384 54.0229 76.8583 50.6032 76.8583C48.7403 76.8583 47.4363 77.6681 46.638 79.3277H46.6247Z" fill="#15262C"/>
<path d="M87.4745 100.291H81.8194L70.8019 81.0669C70.8419 81.5316 70.8419 81.9166 70.8419 82.0494C70.8818 82.6866 70.9217 83.1115 70.9217 83.2841V100.291H65.8121V71.8662H72.9043L82.4847 88.6213C82.4049 87.7317 82.3517 87.2936 82.3517 86.7493V71.8795H87.4612V100.305L87.4745 100.291Z" fill="#15262C"/>
<path d="M106.968 80.0048C105.957 77.4424 104.733 76.6325 102.071 76.6325C99.623 76.6325 98.2259 77.5752 98.2259 79.1418C98.2259 80.8014 99.2371 81.5316 102.284 82.129C106.502 83.0186 108.232 83.5762 109.669 84.5587C112.038 86.1784 113.302 88.5682 113.302 91.2899C113.302 94.2771 111.692 97.2113 109.164 98.8708C107.354 100.066 104.693 100.703 101.725 100.703C98.4255 100.703 95.7775 99.8931 93.6619 98.2734C91.8921 96.8661 91.0805 95.5915 90.2821 92.8167L96.363 91.4094C97.1614 94.1311 98.9444 95.3791 102.058 95.3791C104.839 95.3791 106.582 94.224 106.582 92.3918C106.582 90.6924 105.438 89.9224 101.685 89.1524C98.5585 88.5151 96.7489 87.9176 95.1788 86.9352C92.9832 85.6075 91.7591 83.2708 91.7591 80.4562C91.7591 77.8141 92.7304 75.597 94.6332 73.8975C96.536 72.1981 98.8513 71.4281 102.018 71.4281C105.185 71.4281 107.514 72.1583 109.403 73.6055C110.88 74.7074 111.638 75.8227 112.53 78.1195L106.955 79.9915L106.968 80.0048Z" fill="#15262C"/>
<path d="M139.062 89.5905C139.062 94.2374 138.424 96.2819 136.441 98.0743C134.459 99.8666 131.664 100.716 127.912 100.716C123.947 100.716 121.073 99.7737 119.09 97.9017C117.32 96.1093 116.602 93.7727 116.602 89.5905V71.853H123.734V89.5905C123.734 91.8874 123.947 92.8699 124.532 93.7196C125.251 94.7419 126.688 95.2995 128.497 95.2995C130.307 95.2995 131.917 94.702 132.636 93.7594C133.274 92.9495 133.434 92.0069 133.434 89.5773V71.8397H139.049V89.5773L139.062 89.5905Z" fill="#15262C"/>
<path d="M162.002 94.6621V100.291H144.145V71.8662H150.812V94.6754H162.002V94.6621Z" fill="#15262C"/>
<path d="M179.513 77.4822H172.541V100.291H165.874V77.4822H158.862V71.8529H179.513V77.4822V77.4822Z" fill="#15262C"/>
<path d="M188.841 100.291H182.254V71.8662H188.841V100.291Z" fill="#15262C"/>
<path d="M215.905 100.291H210.25L199.233 81.0669C199.273 81.5316 199.273 81.9166 199.273 82.0494C199.313 82.6866 199.352 83.1115 199.352 83.2841V100.291H194.243V71.8662H201.335L210.915 88.6213C210.836 87.7317 210.782 87.2936 210.782 86.7493V71.8795H215.892V100.305L215.905 100.291Z" fill="#15262C"/>
<path d="M242.97 100.291H239.976C239.643 98.8045 239.55 98.5389 239.005 97.0121C236.596 99.7869 234.654 100.716 231.314 100.716C224.222 100.716 219.698 95.1799 219.698 86.4307C219.698 77.23 224.474 71.4281 231.992 71.4281C237.994 71.4281 241.959 74.9198 242.97 81.1864L236.716 82.0361C236.503 80.589 236.29 79.9915 235.878 79.1816C235.079 77.6947 233.602 76.8317 231.873 76.8317C228.373 76.8317 226.43 80.2039 226.43 86.2979C226.43 92.3919 228.453 95.2861 232.179 95.2861C233.696 95.2861 235.013 94.6887 235.851 93.5336C236.53 92.591 236.743 91.8741 236.743 90.3738H231.42V85.0499H242.997V100.265L242.97 100.291Z" fill="#15262C"/>
<path d="M300 0H56.4047V58.2179H300V0Z" fill="white"/>
<path d="M84.8266 13.7147C88.4724 13.7147 90.4151 14.2192 92.2115 15.6929C94.1009 17.1666 95.0723 19.2378 95.0723 21.6409C95.0723 25.0928 93.2759 27.31 89.4837 28.4518C91.4264 28.9563 92.3445 29.3678 93.409 30.337C94.9791 31.7709 95.8973 33.8421 95.8973 36.0061C95.8973 38.3561 94.8328 40.6131 93.0763 42.1266C91.1869 43.7331 88.6454 44.4235 84.8132 44.4235H70.4559V13.7147H84.8132H84.8266ZM77.6679 25.8761H83.1101C84.8665 25.8761 85.6515 25.6902 86.3435 25.1857C87.1684 24.5883 87.6874 23.5261 87.6874 22.4242C87.6874 21.455 87.3148 20.5389 86.6229 19.9813C85.8378 19.2378 85.279 19.1581 82.6044 19.1581H77.6679V25.8894V25.8761ZM77.6679 38.7677H83.2032C85.0927 38.7677 85.9709 38.5818 86.7559 38.1171C87.7273 37.4666 88.366 36.2318 88.366 34.9838C88.366 32.687 86.6096 31.3461 83.5226 31.3461H77.6545V38.7677H77.6679Z" fill="#15262C"/>
<path d="M125.051 44.4368H117.293L115.404 38.1304H105.478L103.535 44.4368H97.2145L107.048 13.7147H115.404L125.051 44.4368V44.4368ZM113.741 32.4613L110.467 21.6807L107.194 32.4613H113.754H113.741Z" fill="#15262C"/>
<path d="M151.956 44.4368H145.769L133.713 23.6589C133.753 24.1634 133.753 24.575 133.753 24.721C133.793 25.4114 133.846 25.8761 133.846 26.062V44.4368H128.258V13.7147H136.015L146.5 31.824C146.407 30.8548 146.367 30.3901 146.367 29.7927V13.7147H151.956V44.4368V44.4368Z" fill="#15262C"/>
<path d="M165.235 28.1729L174.882 13.7147H181.762L174.377 24.6812L183.611 44.4368H175.667L169.573 31.1203L165.235 37.3869V44.4368H158.17V13.7147H165.235V28.1729V28.1729Z" fill="#15262C"/>
<path d="M206.485 38.3561V44.4368H186.951V13.7147H194.243V38.3561H206.471H206.485Z" fill="#15262C"/>
<path d="M217.183 19.5564V25.8628H228.719V31.6249H217.183V38.3561H231.859V44.4368H209.838V13.7147H231.859V19.5697H217.183V19.5564Z" fill="#15262C"/>
<path d="M252.124 22.5038C251.02 19.7423 249.676 18.8661 246.775 18.8661C244.101 18.8661 242.571 19.8751 242.571 21.5878C242.571 23.3801 243.675 24.1634 247.002 24.814C251.619 25.7832 253.508 26.3806 255.078 27.4427C257.66 29.1953 259.044 31.7709 259.044 34.7183C259.044 37.9445 257.287 41.1176 254.52 42.9233C252.537 44.2111 249.623 44.9015 246.39 44.9015C242.784 44.9015 239.883 44.0252 237.568 42.2727C235.625 40.7592 234.747 39.3651 233.868 36.3779L240.522 34.8644C241.4 37.8118 243.342 39.1527 246.749 39.1527C249.796 39.1527 251.685 37.9047 251.685 35.9265C251.685 34.081 250.435 33.2579 246.336 32.4215C242.917 31.7311 240.934 31.0805 239.231 30.0317C236.836 28.5978 235.492 26.0753 235.492 23.0349C235.492 20.1804 236.556 17.7774 238.632 15.9452C240.708 14.0998 243.249 13.2766 246.709 13.2766C250.168 13.2766 252.71 14.0599 254.786 15.6266C256.396 16.8215 257.234 18.0164 258.205 20.5124L252.111 22.5437L252.124 22.5038Z" fill="#15262C"/>
<path d="M279.695 22.5038C278.59 19.7423 277.247 18.8661 274.346 18.8661C271.671 18.8661 270.141 19.8751 270.141 21.5878C270.141 23.3801 271.245 24.1634 274.572 24.814C279.189 25.7832 281.079 26.3806 282.649 27.4427C285.23 29.1953 286.614 31.7709 286.614 34.7183C286.614 37.9445 284.858 41.1176 282.09 42.9233C280.107 44.2111 277.193 44.9015 273.96 44.9015C270.354 44.9015 267.453 44.0252 265.138 42.2727C263.195 40.7592 262.317 39.3651 261.439 36.3779L268.092 34.8644C268.97 37.8118 270.913 39.1527 274.319 39.1527C277.366 39.1527 279.256 37.9047 279.256 35.9265C279.256 34.081 278.005 33.2579 273.907 32.4215C270.487 31.7311 268.504 31.0805 266.801 30.0317C264.406 28.5978 263.062 26.0753 263.062 23.0349C263.062 20.1804 264.127 17.7774 266.202 15.9452C268.278 14.0998 270.82 13.2766 274.279 13.2766C277.739 13.2766 280.28 14.0599 282.356 15.6266C283.966 16.8215 284.804 18.0164 285.776 20.5124L279.682 22.5437L279.695 22.5038Z" fill="#15262C"/>
</g>
</g>
<defs>
<clipPath id="clip0_15_2">
<rect width="300" height="115" fill="white"/>
</clipPath>
<clipPath id="clip1_15_2">
<rect width="300" height="114.365" fill="white"/>
</clipPath>
</defs>
</svg>
