<svg width="86" height="86" viewBox="0 0 86 86" fill="none" xmlns="http://www.w3.org/2000/svg">
<g clip-path="url(#clip0_313_110)">
<path d="M16.1145 0.954057L25.6011 23.9998C25.7461 24.3537 25.5775 24.7549 25.2269 24.8999C24.8729 25.0448 24.4684 24.8763 24.3234 24.5257L14.4019 0.428146C14.294 0.168561 14.0445 0 13.7613 0H0.691102C0.310153 0 0 0.310153 0 0.691102V27.044C0 27.4249 0.310153 27.7351 0.691102 27.7351H10.8216C11.3138 27.7351 11.6476 27.2361 11.4622 26.781L2.04296 3.90725C1.898 3.55664 2.06656 3.1521 2.41717 3.00713C2.77115 2.86217 3.1757 3.02736 3.32066 3.38134L13.1714 27.3069C13.2793 27.5665 13.5287 27.7351 13.8119 27.7351H26.9563C27.3373 27.7351 27.6474 27.4249 27.6474 27.044V0.691102C27.6441 0.310153 27.3339 0 26.953 0H16.7516C16.2628 0 15.9257 0.498942 16.1145 0.954057Z" fill="white"/>
<path d="M3.09479 76.0482C3.09479 75.6673 3.40494 75.3538 3.78926 75.3538H12.0184C12.3994 75.3538 12.7129 75.0436 12.7129 74.6593V58.9325C12.7129 58.5516 12.4027 58.238 12.0184 58.238H0.694473C0.313524 58.238 0 58.5482 0 58.9325V85.282C0 85.663 0.310153 85.9765 0.694473 85.9765H26.953C27.3339 85.9765 27.6474 85.6663 27.6474 85.282V77.4304C27.6474 77.0495 27.3373 76.736 26.953 76.736H3.78926C3.40494 76.7393 3.09479 76.4292 3.09479 76.0482Z" fill="white"/>
<path d="M68.9245 47.6118C69.2785 47.4668 69.683 47.6354 69.828 47.986L73.3037 56.4275C73.4116 56.6871 73.6645 56.8557 73.9443 56.8557H84.9513C85.4402 56.8557 85.7773 56.3601 85.5919 55.905L81.9004 46.7622C81.7756 46.4554 81.8903 46.1048 82.1667 45.9228C86.2088 43.2865 86.1818 36.5002 83.6096 32.9368C81.5397 30.0713 78.0504 29.1037 74.6657 29.1206C73.1015 29.1206 71.5372 29.1206 69.9763 29.1206H59.03C58.649 29.1206 58.3389 29.4307 58.3389 29.8117V36.9823C58.3389 37.3632 58.649 37.6734 59.03 37.6734H76.1322C76.5132 37.6734 76.8233 37.9835 76.8233 38.3645V38.3679C76.8233 38.7488 76.5132 39.059 76.1322 39.059H59.03C58.649 39.059 58.3389 39.3691 58.3389 39.7501V56.1646C58.3389 56.5455 58.649 56.8557 59.03 56.8557H70.9574C71.4496 56.8557 71.7833 56.3567 71.5979 55.9016L68.5537 48.5152C68.4054 48.1613 68.5705 47.7567 68.9245 47.6118Z" fill="white"/>
<path d="M58.3291 0.694473V8.72136C58.3291 9.10568 58.6393 9.41584 59.0236 9.41584H76.0213C76.4056 9.41584 76.7158 9.72599 76.7158 10.1103C76.7158 10.4946 76.4056 10.8048 76.0213 10.8048H66.6291C66.2447 10.8048 65.9346 11.1149 65.9346 11.4993V27.044C65.9346 27.4283 66.2447 27.7385 66.6291 27.7385H79.106C79.4903 27.7385 79.8004 27.4283 79.8004 27.044V10.1541C79.8004 9.76982 80.1106 9.45966 80.4949 9.45966H85.2787C85.663 9.45966 85.9732 9.14951 85.9732 8.76519V0.694473C85.9732 0.310153 85.663 0 85.2787 0H59.0202C58.6393 0 58.3291 0.310153 58.3291 0.694473Z" fill="white"/>
<path d="M56.9469 19.6071V11.4959C56.9469 11.1116 56.6367 10.8014 56.2524 10.8014H32.8089C32.4246 10.8014 32.1144 10.4913 32.1144 10.1069C32.1144 9.72262 32.4246 9.41247 32.8089 9.41247H56.2524C56.6367 9.41247 56.9469 9.10231 56.9469 8.71799V0.694473C56.9469 0.310153 56.6367 0 56.2524 0H29.7175C29.3365 0 29.0264 0.310153 29.0264 0.694473V27.044C29.0264 27.4283 29.3365 27.7385 29.7208 27.7385H41.21C41.5909 27.7385 41.9011 27.4283 41.9011 27.044V22.3782C41.9011 21.9939 41.5909 21.6837 41.2066 21.6837H32.8123C32.4279 21.6837 32.1178 21.3736 32.1178 20.9893C32.1178 20.6049 32.4279 20.2948 32.8123 20.2948H56.2558C56.6367 20.2982 56.9469 19.988 56.9469 19.6071Z" fill="white"/>
<path d="M24.9741 42.6595C24.6808 42.3966 24.674 41.9415 24.9538 41.6616C25.5337 41.0784 26.009 40.3941 26.3596 39.6456C27.4924 37.1745 27.2024 33.9955 25.4224 31.8986C23.6862 29.8522 21.1477 29.2724 18.5923 29.1241C18.5788 29.1241 18.5653 29.1241 18.5519 29.1241H0.691102C0.310153 29.1207 0 29.4308 0 29.8118V56.1175C0 56.4984 0.310153 56.8086 0.691102 56.8086H9.43944H12.0151C12.396 56.8086 12.7062 56.4984 12.7062 56.1175V43.5664C12.7062 43.1854 13.0163 42.8753 13.3973 42.8753C13.7782 42.8753 14.0884 43.1854 14.0884 43.5664V56.1242C14.0884 56.5052 14.3951 56.8119 14.7727 56.8153C15.3661 56.8221 15.9594 56.8322 16.5527 56.8456C19.4756 56.9164 22.6951 56.6838 25.0684 54.7723C28.7127 51.8461 28.3149 45.6633 24.9741 42.6595ZM13.4006 41.4863C13.0197 41.4863 12.7095 41.1762 12.7095 40.7952V32.0739C12.7095 31.6929 13.0197 31.3828 13.4006 31.3828C13.7816 31.3828 14.0917 31.6929 14.0917 32.0739V40.7952C14.0917 41.1762 13.7816 41.4863 13.4006 41.4863Z" fill="white"/>
<path d="M51.1478 76.7427L48.7509 76.7393C48.3699 76.7393 48.0564 76.4291 48.0564 76.0448C48.0564 75.6639 48.3666 75.3503 48.7509 75.3503H50.4534C50.8343 75.3503 51.1478 75.0402 51.1478 74.6559V67.4954C51.1478 67.1144 51.458 66.8009 51.8423 66.8009H56.2552C56.6362 66.8009 56.9497 66.4908 56.9497 66.1064V58.9291C56.9497 58.5481 56.6396 58.2346 56.2552 58.2346H29.7169C29.336 58.2346 29.0225 58.5448 29.0225 58.9291V66.0963C29.0225 66.4773 29.3326 66.7908 29.7169 66.7908H37.6697C38.0506 66.7908 38.3641 67.1009 38.3641 67.4853C38.3641 67.8662 38.054 68.1797 37.6697 68.1797H35.9638C35.5829 68.1797 35.2693 68.4899 35.2693 68.8742V76.0482C35.2693 76.4291 34.9592 76.7427 34.5749 76.7427H29.7169C29.336 76.7427 29.0225 77.0528 29.0225 77.4371V85.2853C29.0225 85.6663 29.3326 85.9798 29.7169 85.9798H56.2519C56.6328 85.9798 56.9463 85.6697 56.9463 85.2853V77.4371C56.9463 77.0562 56.6362 76.7427 56.2519 76.7427H51.1478Z" fill="white"/>
<path d="M74.4436 59.1953L83.9302 82.241C84.0752 82.595 83.9066 82.9962 83.556 83.1445C83.202 83.2895 82.7975 83.1209 82.6525 82.7703L72.731 58.6728C72.6231 58.4132 72.3736 58.2446 72.0904 58.2446H59.0202C58.6393 58.2446 58.3291 58.5548 58.3291 58.9357V85.2886C58.3291 85.6696 58.6393 85.9797 59.0202 85.9797H69.1507C69.6429 85.9797 69.9767 85.4808 69.7913 85.0257L60.3754 62.1519C60.2305 61.8013 60.399 61.3967 60.7496 61.2518C61.1036 61.1068 61.5082 61.272 61.6531 61.626L71.5039 85.5516C71.6117 85.8112 71.8612 85.9797 72.1444 85.9797H85.2854C85.6664 85.9797 85.9765 85.6696 85.9765 85.2886V58.9357C85.9765 58.5548 85.6664 58.2446 85.2854 58.2446H75.0841C74.5885 58.2413 74.2548 58.7436 74.4436 59.1953Z" fill="white"/>
<path d="M32.1172 47.6118C32.1172 47.2275 32.4274 46.9173 32.8117 46.9173H56.2552C56.6396 46.9173 56.9497 46.6072 56.9497 46.2228V39.7501C56.9497 39.3658 56.6396 39.0556 56.2552 39.0556H32.8117C32.4274 39.0556 32.1172 38.7455 32.1172 38.3611C32.1172 37.9768 32.4274 37.6667 32.8117 37.6667H56.2552C56.6396 37.6667 56.9497 37.3565 56.9497 36.9722V29.8151C56.9497 29.4308 56.6396 29.1206 56.2552 29.1206H29.7169C29.3326 29.1206 29.0225 29.4308 29.0225 29.8151V56.1612C29.0225 56.5455 29.3326 56.8557 29.7169 56.8557H56.2519C56.6362 56.8557 56.9463 56.5455 56.9463 56.1612V48.9974C56.9463 48.613 56.6362 48.3029 56.2519 48.3029H32.8117C32.4274 48.3063 32.1172 47.9961 32.1172 47.6118Z" fill="white"/>
</g>
<defs>
<clipPath id="clip0_313_110">
<rect width="86" height="86" fill="white"/>
</clipPath>
</defs>
</svg>
