<svg width="96" height="96" viewBox="0 0 96 96" fill="none" xmlns="http://www.w3.org/2000/svg">
<path d="M17.5549 0L28.8788 27.5097L27.4533 28.1024L15.885 0H0V30.9669H13.235L1.98524 3.64862L3.41389 3.05904L14.9048 30.9669H30.8672V0H17.5549Z" fill="#00FF00"/>
<path d="M3.45407 85.6869V84.1373H14.1936V65.033H0V95.9999H30.8672V85.6869H3.45407Z" fill="#00FF00"/>
<path d="M76.2496 53.4575L77.6782 52.8649L82.0476 63.4835H96L91.2069 51.5992C96.269 48.9261 96.3494 40.9127 93.3715 36.7825C91.0585 33.5815 87.1622 32.5042 83.3865 32.5227C81.6394 32.5227 79.8923 32.5227 78.1482 32.5227H65.1606V42.0702H85.7985V43.6137H65.1606V63.4835H80.3839L76.2496 53.4575Z" fill="#00FF00"/>
<path d="M65.1328 0V10.5137H85.6656V12.0602H73.6273V30.9669H89.1104V10.56H96V0H65.1328Z" fill="#00FF00"/>
<path d="M63.5865 22.6665V12.0602H35.8612V10.5137H63.5865V0H32.4102V30.9669H46.7862V24.213H35.8642V22.6665H63.5865Z" fill="#00FF00"/>
<path d="M27.2214 47.0987C28.1634 46.3338 28.9185 45.3647 29.4292 44.265C30.6971 41.5054 30.357 37.9586 28.3841 35.6219C26.4359 33.3315 23.591 32.6833 20.7338 32.5351H0V63.4341H14.1874V47.8766H15.7335V63.4341C16.6612 63.4341 17.5673 63.4341 18.4857 63.4712C21.7511 63.5514 25.3444 63.289 27.9975 61.1561C32.2896 57.705 31.5506 50.1917 27.2214 47.0987ZM15.7335 46.3239H14.1874V35.0354H15.7335V46.3239Z" fill="#00FF00"/>
<path d="M57.1144 85.6869H53.6634V84.1373H57.1144V74.5928H63.5865V65.033H32.4102V74.5805H42.8342V76.1301H39.3863V85.6869H32.4102V95.9999H63.5865V85.6869H57.1144Z" fill="#00FF00"/>
<path d="M82.6846 65.033L94.0116 92.5427L92.5861 93.1323L81.0179 65.033H65.1328V95.9999H78.3678L67.1181 68.6816L68.5467 68.0889L80.0376 95.9999H96V65.033H82.6846Z" fill="#00FF00"/>
<path d="M35.8642 53.9359V52.3863H63.5865V43.6136H35.8642V42.064H63.5865V32.5165H32.4102V63.4834H63.5865V53.9359H35.8642Z" fill="#00FF00"/>
</svg>
