<?xml version="1.0" encoding="utf-8"?>
<!-- Generator: Adobe Illustrator 25.4.1, SVG Export Plug-In . SVG Version: 6.00 Build 0)  -->
<svg version="1.1" id="Livello_1" xmlns="http://www.w3.org/2000/svg" xmlns:xlink="http://www.w3.org/1999/xlink" x="0px" y="0px"
	 viewBox="0 0 512 512" style="enable-background:new 0 0 512 512;" xml:space="preserve">
<style type="text/css">
	.st0{fill:#FFFFFF;}
</style>
<g>
	<path class="st0" d="M268.1,507.2c-0.6-7.5-1.4-11.9-1.4-16.4c-0.1-31.1,0.2-62.3-0.2-93.4c-0.2-12.1,4.6-20,15-25.9
		c34.3-19.4,68.1-39.7,102.5-59c11.6-6.5,16.2-15.3,16.1-28.2c-0.3-38.6,0.3-77.1-0.3-115.7c-0.2-13.6,4.3-22.6,16.4-29.3
		c26.8-14.7,53.1-30.5,79.7-45.7c13.2-7.5,15.8-5.8,15.8,9.5c0.1,82.2-0.1,164.5,0.2,246.7c0.1,12.7-4.7,20.9-15.5,27.1
		c-71.6,41.1-143,82.5-214.5,123.8C278.6,502.8,274.7,504.2,268.1,507.2z"/>
	<path class="st0" d="M242.4,352.3c-6.3-3-11.3-4.9-15.9-7.6c-32.6-18.7-65.1-37.6-97.6-56.3c-13.5-7.8-16.8-5.8-16.9,10
		c-0.2,37.2,0,74.4-0.1,111.5c0,5.4-0.5,10.9-0.9,18.9c-6.3-2.3-11-3.3-15-5.6c-27-15.4-53.8-31.1-80.8-46.5
		c-10.3-5.8-15-13.8-15-26c0.3-82.7,0.1-165.5,0.2-248.2c0-14.5,2.8-16.3,15.1-9.2C87.7,135.1,160,176.8,232,219.2
		c5.9,3.5,12.4,11.8,12.6,18.1c1.2,35.7,0.5,71.5,0.4,107.3C244.9,346.3,243.8,348,242.4,352.3z"/>
	<path class="st0" d="M364.1,143.1c-5.1,3.9-8.5,7-12.3,9.2c-26.8,15.6-53.9,30.8-80.6,46.7c-10.3,6.1-19.1,6.6-29.7,0.5
		C170.2,157.9,98.7,116.8,27.4,75.5c-3.9-2.2-7.3-5.2-12.8-9.2c5.3-4.2,8.9-7.6,13-10c26.8-15.7,53.8-30.9,80.5-46.8
		c9.8-5.8,18.7-6.3,28.6-0.5C208.8,51.1,281,92.8,353.1,134.7C356.5,136.6,359.4,139.4,364.1,143.1z"/>
	<path class="st0" d="M497.3,66.3c-5.4,3.9-8.8,6.9-12.7,9.1c-26.9,15.6-53.9,31-80.7,46.7c-8.6,5.1-17.1,7.1-26.2,1.8
		c-29.3-17-58.6-33.9-87.9-51c-2.6-1.5-4.5-4.1-8.2-7.6c4.5-3.4,7.8-6.4,11.5-8.6c27.2-15.9,54.6-31.5,81.8-47.5
		c8.7-5.1,17.1-6.5,26.2-1.2c28.9,16.8,57.8,33.5,86.6,50.3C490.6,60,492.8,62.5,497.3,66.3z"/>
	<path class="st0" d="M267.7,351.8c-0.4-7.6-1-13.1-1-18.5c-0.1-30.2,0.2-60.3-0.1-90.5c-0.1-11.5,4.3-19.2,14.3-24.8
		c27.8-15.7,55.3-32.1,83-47.9c11-6.3,14.3-4.6,14.4,7.7c0.3,32.9,0.7,65.9-0.4,98.8c-0.2,7.1-5.2,16.8-11,20.4
		c-28.6,18-58.2,34.4-87.5,51.2C276.7,349.7,273.5,350.1,267.7,351.8z"/>
	<path class="st0" d="M135.8,319.6c4.3,1.3,7.1,1.7,9.4,3c29.8,17.1,59.7,34,88.9,51.9c5.1,3.1,10.4,10.8,10.5,16.5
		c1,35.8,0.5,71.5,0.4,107.3c0,2.1-1.4,4.2-2.7,7.7c-4.3-1.7-8.1-2.8-11.5-4.8c-27.8-15.9-55.4-32.1-83.2-47.9
		c-9.4-5.4-14-12.7-14-23.7c0.2-32.1,0-64.1,0.1-96.2C133.7,329.2,135,324.8,135.8,319.6z"/>
</g>
</svg>
