<?xml version="1.0" encoding="UTF-8"?>
<svg id="Livello_1" data-name="Livello 1" xmlns="http://www.w3.org/2000/svg" xmlns:xlink="http://www.w3.org/1999/xlink" viewBox="0 0 1300 695">
  <defs>
    <style>
      .cls-1, .cls-2 {
        fill: #fff;
      }

      .cls-3 {
        fill: none;
        filter: url(#drop-shadow-1);
      }

      .cls-2 {
        fill-rule: evenodd;
      }
    </style>
    <filter id="drop-shadow-1" filterUnits="userSpaceOnUse">
      <feOffset dx="2" dy="1"/>
      <feGaussianBlur result="blur" stdDeviation="1"/>
      <feFlood flood-color="#000" flood-opacity=".75"/>
      <feComposite in2="blur" operator="in"/>
      <feComposite in="SourceGraphic"/>
    </filter>
  </defs>
  <g>
    <path class="cls-1" d="m189.74,125.29v15.47h-22.26v117.22h-19.08v-117.22h-22.26v-15.47h63.59Z"/>
    <path class="cls-1" d="m253.33,125.29h19.08v132.7h-19.08v-58.29h-28.19v58.29h-19.08V125.29h19.08v58.93h28.19v-58.93Z"/>
    <path class="cls-1" d="m317.98,242.51h38.37v15.47h-57.66V125.29h56.17v15.47h-36.88v40.91h30.52v15.47h-30.52v45.36Z"/>
    <path class="cls-1" d="m471.66,164.08h-19.29v-17.59c0-2.54-.42-4.2-1.27-4.98-.85-.78-2.54-1.17-5.09-1.17h-10.81c-2.54,0-4.24.39-5.09,1.17-.85.78-1.27,2.44-1.27,4.98v90.51c0,2.54.42,4.21,1.27,4.98.85.78,2.54,1.17,5.09,1.17h10.81c2.54,0,4.24-.39,5.09-1.17.85-.78,1.27-2.44,1.27-4.98v-32.43h-10.6v-14.84h29.89v49.6c0,12.58-6.57,18.87-19.71,18.87h-22.68c-13.14,0-19.71-6.29-19.71-18.87v-95.39c0-12.43,6.57-18.65,19.71-18.65h22.68c13.14,0,19.71,6.22,19.71,18.65v20.14Z"/>
    <path class="cls-1" d="m514.9,242.51h32.86v15.47h-51.93V125.29h19.08v117.22Z"/>
    <path class="cls-1" d="m612.62,257.98l-5.3-30.74h-27.98l-4.88,30.74h-19.08l23.53-132.7h27.77l25.22,132.7h-19.29Zm-30.95-46.21h23.11l-12.08-69.95-11.02,69.95Z"/>
    <path class="cls-1" d="m687.87,236.36v-32.43c0-2.54-.39-4.2-1.17-4.98-.78-.78-2.44-1.17-4.98-1.17h-15.69c-12.86,0-19.29-6.29-19.29-18.87v-34.98c0-12.43,6.57-18.65,19.71-18.65h20.77c13.14,0,19.71,6.22,19.71,18.65v19.5h-19.29v-16.53c0-2.54-.42-4.2-1.27-4.98-.85-.78-2.54-1.17-5.09-1.17h-8.9c-2.54,0-4.24.39-5.09,1.17-.85.78-1.27,2.44-1.27,4.98v29.46c0,2.54.42,4.21,1.27,4.98.85.78,2.54,1.17,5.09,1.17h15.47c13,0,19.5,6.22,19.5,18.65v38.16c0,12.44-6.64,18.65-19.93,18.65h-20.56c-13.14,0-19.71-6.22-19.71-18.65v-19.5h19.29v16.53c0,2.54.42,4.21,1.27,4.98.85.78,2.54,1.17,5.09,1.17h8.9c2.54,0,4.2-.39,4.98-1.17.78-.78,1.17-2.44,1.17-4.98Z"/>
    <path class="cls-1" d="m768.63,236.36v-32.43c0-2.54-.39-4.2-1.17-4.98-.78-.78-2.44-1.17-4.98-1.17h-15.69c-12.86,0-19.29-6.29-19.29-18.87v-34.98c0-12.43,6.57-18.65,19.71-18.65h20.77c13.14,0,19.71,6.22,19.71,18.65v19.5h-19.29v-16.53c0-2.54-.42-4.2-1.27-4.98-.85-.78-2.54-1.17-5.09-1.17h-8.9c-2.54,0-4.24.39-5.09,1.17-.85.78-1.27,2.44-1.27,4.98v29.46c0,2.54.42,4.21,1.27,4.98.85.78,2.54,1.17,5.09,1.17h15.47c13,0,19.5,6.22,19.5,18.65v38.16c0,12.44-6.64,18.65-19.93,18.65h-20.56c-13.14,0-19.71-6.22-19.71-18.65v-19.5h19.29v16.53c0,2.54.42,4.21,1.27,4.98.85.78,2.54,1.17,5.09,1.17h8.9c2.54,0,4.2-.39,4.98-1.17.78-.78,1.17-2.44,1.17-4.98Z"/>
  </g>
  <g class="cls-3">
    <path class="cls-2" d="m542.01,275.31c.22-.01.35.09.38.29-.11-.11-.37-.06-.38-.29Z"/>
    <path class="cls-2" d="m542.01,275.94c.08.14.36.07.37.29-.15-.07-.41-.02-.37-.29Z"/>
    <path class="cls-2" d="m543.49,276.23c.2.05.09.16.23.38-.14.02-.19-.07-.28-.1-.01-.13.08-.14.05-.28Z"/>
    <path class="cls-2" d="m549.85,277.82l.29.1c-.07.2.1.24.06.42-.26-.08-.38-.25-.35-.52Z"/>
    <path class="cls-2" d="m542.67,276.52c.04-.15.39,0,.36.16-.13.12-.13-.05-.35-.02.04-.06.08-.12,0-.14Z"/>
    <path class="cls-2" d="m550.41,278.51c.12.21.26.13.43.18-.08.17-.24.2-.45.14l.03-.32Z"/>
    <path class="cls-2" d="m545.67,278.11c.09-.16.38.12.27.35-.26.01-.04-.34-.27-.35Z"/>
    <path class="cls-2" d="m551.92,280.46c.06.08.07.28.13.15.15.07,0,.3.01.44.2.01.37.17.55.39-.34.16-.14.56-.11.93-.09-.18-.11-.39-.35-.49.23-.11.1-.17.09-.48-.06.01-.13.02-.22-.03.02-.21-.05-.36-.23-.47.02-.2.05-.39.14-.45Z"/>
    <path class="cls-2" d="m546.22,278.6l.28.07c-.05.05-.12.17-.01.22-.06.15-.37-.08-.27-.28Z"/>
    <path class="cls-2" d="m545.55,279.89c.13.1.18.26.15.47-.12-.12-.34-.33-.15-.47Z"/>
    <path class="cls-2" d="m554.89,285.39c.18.16.23.53.04.58-.03-.19-.11-.36-.04-.58Z"/>
    <path class="cls-2" d="m546.49,281.17c.11.14.4.17.27.46-.14-.12-.29-.24-.27-.46Z"/>
    <path class="cls-2" d="m551.66,285.38c.16.23-.04.26-.06.6-.03-.08-.06-.15-.15-.21.27-.18-.07-.4.21-.39Z"/>
    <path class="cls-2" d="m546.8,283.06c-.1.12-.27-.2-.52-.19.11-.24.37.1.52.19Z"/>
    <path class="cls-2" d="m547.85,284.59c.05.17.2.3.11.53-.13-.18-.22-.37-.41-.52.01-.2.28.19.3-.01Z"/>
    <path class="cls-2" d="m554.41,289.96c.28-.12.07.4.12.53-.23.1-.08-.4-.12-.53Z"/>
    <path class="cls-2" d="m553.46,290.54c-.19-.13.09-.32-.16-.44.12-.13.24-.15.37-.04-.22.21.02.47-.21.48Z"/>
    <path class="cls-2" d="m556.1,294.47c.1.27.14.54-.04.79,0-.26-.03-.52.04-.79Z"/>
    <path class="cls-2" d="m544.95,284.52c.19.01.12.15.28.18-.05.21-.21.15-.37.07l.1-.25Z"/>
    <path class="cls-2" d="m546.52,285.25c.24.05.24.19.31.3-.11.1-.47-.13-.31-.3Z"/>
    <path class="cls-2" d="m545.46,285.36c.06.01.05.05.04.09.38.26.26.7.56,1-.08.25-.27.17-.38.32-.2-.15.1-.2.03-.35-.17-.13-.24.02-.29-.14.24-.09.09-.32.17-.51-.21-.04-.2-.16-.34-.21,0-.23.22.04.22-.19Z"/>
    <path class="cls-2" d="m553.83,293.69c-.05-.14-.18.25-.16.33-.25.13.05-.25-.12-.33.12-.26.22-.09.33-.19.08.18.12.36.16.54-.16.17-.23-.17-.21-.34Z"/>
    <path class="cls-2" d="m540.41,284.62c.15.05.41.05.28.27-.11-.08-.31-.11-.28-.27Z"/>
    <path class="cls-2" d="m540.11,284.76c.11-.13.25.08.18.2-.27.05-.07-.16-.18-.2Z"/>
    <path class="cls-2" d="m540.71,285.01c-.04.14-.16.15-.22.25-.07-.03-.06-.11-.14-.13.08-.1.22-.12.36-.12Z"/>
    <path class="cls-2" d="m553.68,294.48c.29,0,.02.52.13.73-.33.15-.19-.51-.13-.73Z"/>
    <path class="cls-2" d="m537.44,285.5c.1.05.09.23-.04.5.02-.16-.09-.26.04-.5Z"/>
    <path class="cls-2" d="m553.6,296.99c-.14-.02-.29-.38-.1-.55.14.02.35.39.1.55Z"/>
    <path class="cls-2" d="m542.96,286.55c.23.06.22.54-.1.41.19-.19.05-.27.1-.41Z"/>
    <path class="cls-2" d="m546.66,288.64c.25-.02.32.43.1.66-.08-.09-.13-.03-.18.03-.25-.18.25-.49.08-.69Z"/>
    <path class="cls-2" d="m539.64,286.25c.27.02.32.14.28.31-.02-.14-.37-.12-.28-.31Z"/>
    <path class="cls-2" d="m553.45,298.22c-.01.1-.02.2.06.15-.3.36-.12.83-.44,1.18.19-.59-.27-1,.38-1.33Z"/>
    <path class="cls-2" d="m543.68,288.16c.22.04-.02.2-.07.3-.03-.05-.05-.1-.13-.13.07-.02.14-.08.2-.17Z"/>
    <path class="cls-2" d="m553.03,299.67c.21-.1-.01.2.1.29-.23-.19-.09.21-.37.36-.19-.21.29-.23.1-.44.1-.06.19-.13.17-.22Z"/>
    <path class="cls-2" d="m552.87,300.42c-.06.41.25.61-.05.86-.02-.43-.33,0-.36-.38.31.09.18-.34.41-.48Z"/>
    <path class="cls-2" d="m541.78,288.74c.09.15.01.39-.25.3.11-.16.06-.2.25-.3Z"/>
    <path class="cls-2" d="m552.13,302.48c.1.3-.17.47-.22.73.05.16.21.06.38-.06-.07.46-.48.26-.67.82-.13-.19-.04-.17-.1-.45.27-.18.01.11.14.26.21-.42.12-.95.48-1.3Z"/>
    <path class="cls-2" d="m547.6,295.21c.11.24-.14.46-.32.51.03-.22.06-.46.32-.51Z"/>
    <path class="cls-2" d="m544.58,291.96c.01.15.06.05.18.17-.11.07-.22.02-.32.04-.05-.07.08-.14.15-.2Z"/>
    <path class="cls-2" d="m544.66,295.94c0,.2-.02.39-.26.53.12-.16.02-.54.26-.53Z"/>
    <path class="cls-2" d="m539.7,292.71c.11.08.05.15.11.22-.1.09-.17-.18-.27-.09-.04-.06.09-.09.16-.13Z"/>
    <path class="cls-2" d="m537.18,291.28c.12.08.05.17-.16.25.06-.08-.05-.23.16-.25Z"/>
    <path class="cls-2" d="m544.35,300.97l.09.26c-.07-.02-.14-.03-.13.05-.17.02-.13-.31.04-.3Z"/>
    <path class="cls-2" d="m538.62,293.25c.14.15-.03.23.18.41-.12.03-.21-.06-.31-.09-.1.06.03.22-.18.17-.05-.08.17-.1,0-.2.34.01.09-.19.31-.28Z"/>
    <path class="cls-2" d="m542.97,301.3c-.04.07.01.18-.07.23-.18.07-.29-.16-.22-.27.18-.14.11.19.29.05Z"/>
    <path class="cls-2" d="m538.11,294.86c.22.08.15.5-.13.41.07-.13.25-.22.13-.41Z"/>
    <path class="cls-2" d="m536.64,294.13c.11.13.04.2-.17.23.07-.07.02-.18.17-.23Z"/>
    <path class="cls-2" d="m538.29,296.65c-.01.12.06.28-.13.32-.01-.13-.02-.26.13-.32Z"/>
    <path class="cls-2" d="m538.13,297.98c.03.11-.11.14-.08.25-.09,0-.11-.13-.15-.2l.24-.05Z"/>
    <path class="cls-2" d="m537.74,298.41c.1.17-.09.17-.06.31-.11-.01-.18-.35.06-.31Z"/>
    <path class="cls-2" d="m539.55,307.25c-.05.02-.06-.02-.07-.06-.08.02-.04.13-.05.21-.12.05-.29-.16-.34.04-.24.02.13-.23-.08-.19.13-.09.53-.35.54,0Z"/>
    <path class="cls-2" d="m538.96,307.46c.03.11-.05.13-.13.15,0,.09,0,.19.08.19-.02.09-.17.07-.27.1l-.02-.33c.19.03.17-.11.33-.1Z"/>
    <path class="cls-2" d="m538.89,308.88c-.04.14-.17.2-.33.24-.04-.21.14-.23.33-.24Z"/>
    <path class="cls-2" d="m537.21,300.56c-.05.18-.31-.02-.35-.13.11-.17.22.09.35.13Z"/>
    <path class="cls-2" d="m536.91,299.99c-.05.21-.09.54-.43.42.19-.11.04-.44.43-.42Z"/>
    <path class="cls-2" d="m537.02,300.77c-.11.09-.11.25-.29.29.03-.14.14-.23.13-.39.07,0,.07.11.15.1Z"/>
    <path class="cls-2" d="m537.31,301.8c-.26.26-.2.41-.45-.06.2-.07.31.03.45.06Z"/>
    <path class="cls-2" d="m537.85,309.94c0,.22-.12.33-.34.36.09-.14.12-.34.34-.36Z"/>
    <path class="cls-2" d="m536.45,311.98c-.52.15-.66.6-1.1.53.27-.25.54-.49.9-.65,0-.08-.12-.05-.2-.06.12-.36.39-.1.4.18Z"/>
    <path class="cls-2" d="m535.44,303.56c-.04.26-.32-.16-.31.02-.23-.18.27-.15.31-.02Z"/>
    <path class="cls-2" d="m535.21,303.64c-.04.14-.13.23-.36.21.04-.13.17-.2.36-.21Z"/>
    <path class="cls-2" d="m534.54,313.31l-.02.27c-.12,0-.14-.08-.27-.07.11-.05.12-.21.29-.2Z"/>
    <path class="cls-2" d="m534.16,306.63c-.13-.03-.13-.18-.33-.12.11-.19.54-.13.33.12Z"/>
    <path class="cls-2" d="m526.87,307.91c.01.35-.33.21-.46.08.1-.08.29-.07.46-.08Z"/>
    <path class="cls-2" d="m523.45,310.88c-.05.26-.28-.08-.36.21.03.2.21,0,.32.05-.08.2-.29.18-.47.06.09-.08.09-.15.03-.26-.3-.07-.24.33-.56.25.08-.07.2-.09.17-.3.35.03.48-.19.51-.38.11.13.04.39.35.38Z"/>
    <path class="cls-2" d="m522.01,311.85l-.04.26c-.24-.03-.19.05-.38-.06.04-.23.48-.06.16-.24.03-.16.22.01.26.04Z"/>
    <path class="cls-2" d="m521.6,312.46c-.07-.1-.27-.11-.44-.13l.03-.19c.07.02.12,0,.14-.05.11.14.03.13.25.1-.02.12.06.15.03.27Z"/>
    <path class="cls-2" d="m521.12,313.05c-.23-.06-.27.15-.49.11.1-.2.4-.14.41-.46.19.11.02.14.08.34Z"/>
    <path class="cls-2" d="m520.24,313.09c.17.01.28.07.23.24-.06.02-.12.05-.21.03-.04-.07-.04-.16-.02-.27Z"/>
    <path class="cls-2" d="m520.21,313.29c-.03.11.05.15.02.27-.11,0-.15-.14-.19-.03-.08-.04-.03-.17-.02-.27l.2.03Z"/>
    <path class="cls-2" d="m519.76,313.14c.08.06-.06.51-.27.41.08-.16.12-.37.27-.41Z"/>
    <path class="cls-2" d="m517.81,315.05c-.19-.08-.25.02-.4,0,0-.21.2-.09.19-.3.14.05.29.1.21.31Z"/>
    <path class="cls-2" d="m516.49,315.75c-.05.16-.16.23-.33.21l.06-.26.27.05Z"/>
    <path class="cls-2" d="m515.74,316.29c-.13.15-.3.26-.44.39-.19,0,.14-.34-.05-.35.08-.11.12.01.2.04.11,0,.11-.19.3-.08Z"/>
    <path class="cls-2" d="m514.92,316.21c-.05.13-.26.01-.31.14-.07-.16.02-.25.16-.38.12.03,0,.22.15.23Z"/>
    <path class="cls-2" d="m514.36,317.39c-.39-.07-.5.31-.74.47-.32-.14.13-.46.11-.73.18.2.13.26.45.15.07-.28-.03-.39.19-.51.18.2.11.31,0,.61Z"/>
    <path class="cls-2" d="m513.99,316.91c-.14.17-.38.18-.51.38-.05-.12.21-.51.51-.38Z"/>
    <path class="cls-2" d="m513,317.27c-.02.12-.11.12-.13.25-.19-.04-.05-.3-.27-.32.06-.08.17-.09.3-.08-.09.24-.15.14.1.16Z"/>
    <path class="cls-2" d="m511.79,317.99c0,.14-.09.17-.13.25-.02-.11-.19-.14-.13-.3.1.14.09.01.26.05Z"/>
    <path class="cls-2" d="m497.74,327.46c-.14.25-.41.27-.71.24.15-.17.27-.39.44-.51.12.07.17.19.27.27Z"/>
    <path class="cls-2" d="m493.16,329.03c0,.22-.21.09-.28.21-.13-.08.1-.34.28-.21Z"/>
    <path class="cls-2" d="m488.83,331.55c.09.16-.29.36-.52.28.14-.15.35-.18.52-.28Z"/>
    <path class="cls-2" d="m486.73,332.72c-.27,0-.65.19-.8.06.2-.12.61-.27.8-.06Z"/>
    <path class="cls-2" d="m482.23,334.53c-.11.18-.32.16-.46.28-.08-.12.23-.4.46-.28Z"/>
    <path class="cls-2" d="m477.91,337.33c-.06-.09-.22-.13-.28-.22.07-.07.18-.08.31-.05-.05.11.03.16-.03.27Z"/>
    <path class="cls-2" d="m468.5,358.54c-.32.28-.87.06-1.19.34.04-.4.79-.32,1.19-.34Z"/>
    <path class="cls-2" d="m467.21,358.78c-.1.2-.27.23-.5.12.14-.1.31-.14.5-.12Z"/>
    <path class="cls-2" d="m469.14,340.37c-.07-.05-.1-.12-.06-.23-.3.14-.37.2-.75.25.25-.24.54-.39.89-.42-.12.18-.02.25-.08.4Z"/>
    <path class="cls-2" d="m467.99,341.63c-.05-.13-.32-.16-.22-.36.18-.08.3.16.22.36Z"/>
    <path class="cls-2" d="m468.02,340.64c.08.05,0,.17-.04.27-.16-.03-.24-.09-.3-.17.07-.12.29.08.33-.1Z"/>
    <path class="cls-2" d="m456.83,344.35c-.14.15-.29-.01-.41-.07.08-.07.19-.07.31-.03-.02.06.06.08.1.11Z"/>
    <path class="cls-2" d="m455.91,344.1c-.09.13-.36-.07-.38-.14.19-.09.32-.02.38.14Z"/>
    <path class="cls-2" d="m455.21,344.71c-.35.27-.8.31-1.21.43,0-.24-.23-.09-.44-.16.55-.21,1.02-.11,1.65-.27Z"/>
    <path class="cls-2" d="m453.78,345.13c-.12.18-.37.06-.55.08.13-.15.3-.21.55-.08Z"/>
    <path class="cls-2" d="m453.05,345.28c-.18.08-.32.24-.54.23-.03-.16.28-.37.54-.23Z"/>
    <path class="cls-2" d="m452.68,345.79c-.22.1-.28.23-.38.36-.2-.13-.3-.1-.27-.39.16.27.41-.05.65.03Z"/>
    <path class="cls-2" d="m451.38,343.52c.14.17-.23.21-.36.15.03-.14.12-.15.17-.22.11.03.12.17.19.07Z"/>
    <path class="cls-2" d="m449.93,345.99c.06,0,.05.05.04.08l-.05.12c-.21-.15-.61.22-.99.06.04-.07.03-.11,0-.15.26.03.46-.08.74,0,.14-.31-.17-.11-.23-.3.05-.18.32.18.37,0,.09.02-.08.39.14.19Z"/>
    <path class="cls-2" d="m450.53,343.78c-.28.13-.58.22-.95.15.29-.12.61-.15.95-.15Z"/>
    <path class="cls-2" d="m448.68,346.31c-.15.04-.03.34-.25.41,0-.2-.07-.29-.32-.27.14-.17.37-.14.58-.14Z"/>
    <path class="cls-2" d="m448.24,346.14c-.17.18-.45.12-.71.09.28-.2.4-.07.71-.09Z"/>
    <path class="cls-2" d="m446.18,346.94c-.08-.05.06-.19-.04-.23.3-.13.78.18.98-.2.19.48-.7.16-.94.43Z"/>
    <path class="cls-2" d="m447.14,346.31c-.26.26-.7.11-1.08.09.26-.28.71-.08,1.08-.09Z"/>
    <path class="cls-2" d="m446.13,345.92c.12.22-.34.11-.49.1.1-.18.37.05.49-.1Z"/>
    <path class="cls-2" d="m446.05,346.25c-.23.16-.44.4-.82.18.34.1.48-.29.82-.18Z"/>
    <path class="cls-2" d="m444.86,347.08c.19-.31-.21-.37-.35-.21-.06.22.2.18.35.21-.04.25-.28,0-.33.23-.24-.35-1.01-.54-1.36-.6-.11-.31.71,0,.81.17-.07-.27.32-.19.1-.39.45.14.87.35,1.51.59-.16.21-.44.13-.74,0Z"/>
    <path class="cls-2" d="m443.44,347.1c.08.05-.02.17-.05.27-.14.01-.32-.1-.43-.02-.05-.07,0-.17-.13-.2.07-.08.16-.12.24-.19.17.07.18.37.38.15Z"/>
    <path class="cls-2" d="m443.03,347.66c-.15.03-.51.05-.35-.21.21.03.2.15.35.21Z"/>
    <path class="cls-2" d="m442.55,347.26c.17.17-.2.1-.2.28-.11-.15-.06-.18-.29-.18.1-.19.34-.03.49-.1Z"/>
    <path class="cls-2" d="m539.83,274.35c-.13.04,0,.27-.23.23-.02-.12-.11-.13-.13-.27.37.23.33-.79.35-.03.39.24.68.58,1.18.69.02.29.12.28.3.2,0,.07-.13.05-.12.14.08.2.16-.09.35,0-.11.19-.01.25-.06.69-.19-.06-.19-.35-.27-.55-.29.1-.29-.14-.38-.27-.52.11-.77-.39-1.03-.35-.06-.3.42-.12.48-.04-.03-.3-.41-.14-.44-.45Z"/>
    <path class="cls-2" d="m544.39,276.18c.28.14.45.38.59.65-.2-.09-.18.07-.35.02.22-.34-.18-.39-.24-.67Z"/>
    <path class="cls-2" d="m545.19,277.66c-.22-.27-.03.21-.28.1.11-.22,0-.48-.21-.32.12.29.03.46.27.61-.07-.01-.08.04-.14.05-.2-.03-.16-.43-.35-.26.15.36.57.49.66.9-.05.09-.26-.04-.28.09.22,0,.14.25.4.22.02-.08,0-.2.08-.2.14.16.31.64.1.66.21,0,.18.17.4.17.08-.28-.31-.22-.24-.49.34.18.29.3.74.33-.01.1.02.17.05.23-.15.08-.09-.03-.27-.07,0,.12-.07.17-.16.18-.05.25.17.31.15.55-.24.06-.29-.42-.34-.09.18.22.49.68.67.7-.14-.06-.11-.22-.08-.39.42.18.46.85.76.92-.01.13-.1.14-.23.07-.09.26.04.39.1.56.49.17.59.77.73,1.37.08-.11-.11-.37.1-.35.28.11.02.47.18.63.09-.03.1-.25.25-.11l-.08.28c.42.22.02.78.15,1.11.39.15.4.83.1.88-.03-.07.1-.48-.1-.31.16.18-.2-.04-.2.13.16.13.28.28.43.42.17-.3.14-.26.15-.57.34.41.46,1.02.29,1.28.08-.11.29.22.31.31-.32.14.18.46.12.71-.08.01-.33.31-.24.44.13-.05.26-.16.42-.03-.22.38.31.34.02.78-.04-.22-.12-.07-.24-.02.09.27.09.8.3.46-.1.35-.25.92-.03,1.39l-.17.23c.12.3.2-.23.32-.08-.04.47-.24.67-.21,1.17-.17-.13.05-.26-.13-.38.05.28-.22.83.01.93-.06-.08.02-.43.11-.33,0,.25.11.52-.12.77-.03-.15.03-.35-.18-.22.06.19-.08.41.17.33-.31.07-.12.26-.26.48-.08-.15-.09-.3-.25-.45.13-.1.02-.21.2-.31-.61-.41.24-1.21-.3-1.76.19-.33-.24-.62.04-.96-.12-.56-.33-1.09-.31-1.66-.1.04-.23-.07-.33,0,0-.14-.18-.25-.06-.41-.2-.18-.33-.07-.5-.1.09-.16.17-.36.29-.38-.09-.28-.3-.39-.39-.43.11-.14.19-.17.11-.35-.22.1-.12.43-.34.36.02-.18.09-.53-.21-.46.09-.15,0-.24.03-.37.15.02.28-.03.35-.27-.21-.12-.06.17-.32.05.09-.35-.24-.41-.32-.79-.11.31-.06.36-.31.38.13.06-.07.23-.08.34.15.14.17.32.22.49.15-.11-.06-.35.14-.3-.16.27.4.36.03.55.3.27.39.47.59.87-.05.11-.12.17-.19.2.06.05.12.11.05.19.15.23.15-.17.27-.06.16.19.04.37-.16.39.12.16.19.02.3.14.06.34-.19.46.21.79-.08.11-.19-.05-.26.14.13.29.17.33-.06.21-.01.15.18.28.18.43-.26.57.19,1.02.23,1.45-.19.19-.39.51-.57.31.12-.12.23-.06.24-.25-.09-.22-.18.12-.28-.09-.1-.75-.09-1.51-.47-2.21-.2.17,0,.29-.07.45-.2.08-.2-.18-.33,0,.07.06.14.07.2.07-.12.31-.26.35-.23.59.06-.31.18-.06.36-.22-.07-.07-.2-.14-.15-.22.12,0,.24-.17.37-.04-.38.05.03.23-.16.5-.15-.14-.28.2-.31.26.07.2.04.58.01.94-.05.36-.06.7.1.85-.11.07-.21-.15-.32.04.37.28.3.36.35.68.05-.23.29-.15.2-.37-.06.05-.13.09-.18,0,.08-.08.16-.31.33-.32-.12.17.15.86-.46.89.05.18-.07.34-.02.53.24-.1.22-.41.41-.25.12.19-.31.32-.21.51-.43-.16-.21.63-.5.65.17.08.13-.05.23-.01.08.16.05.4-.15.36.18.22-.1.23.15.37-.11.19-.23.38-.45.3-.11.22.3.07.17.29-.16-.06-.32,0-.27.33.06.1.17-.07.24,0-.05.19-.12.05-.26.08.08.1.01.17.08.27.21.12.07-.32.28-.18.06.3-.23.55-.48.37.19.21.3.58-.06.48-.06.19.08.1.18.21-.35.54-.23.94-.68,1.42.02.22.17.15.24.25-.23.29-.61.32-.36.6-.27.11-.2.36-.37.38.08-.02.1.07.13.17-.17.05-.82.62-.46.77-.31.14-.58.41-.8.42.23.49-.71,1.16-.19,1.13-.02.28-.33.03-.26.37.07.21.14-.32.26-.08-.03.24-.27.67-.54.43.1-.06.27-.37.13-.38-.14.33-.44.69-.37.99-.2.14-.09-.2-.29-.07.04.33-.12.19-.2.4-.02-.17-.05-.32-.14-.38.19-.11.36-.24.24-.54-.2.08-.08.37-.33.42-.03.3.3.48.05.61-.19.06-.23-.1-.41-.04l.02.13s-.08.03-.05.08c.2-.06.39-.09.48.03-.23.21.03.16.18.24-.07.28-.29.1-.5.26-.02.36-.39.88-.75.62,0,.3.38.11.45.33-.16-.04-.41.03-.55-.03-.04.23-.14.43-.42.49,0,.25.39,0,.31.36l-.47.08c.25.19-.04.33-.08.64-.09.01-.1-.07-.21-.04-.09.33-.39.7-.8.57.16.19-.14.49-.33.37.15.5-.41.39-.45.73-.16-.12-.07.03-.2.09,0-.09-.04-.15-.07-.2-.16.08-.38.1-.39.31.18-.02.3-.32.4-.04-.34.2-.27.78-.61,1-.19.08-.32.06-.41-.11.11-.42.37.09.48-.23-.29.04-.3-.23-.48-.31.16.27-.11.4-.21.61.17.05.37.07.34.32-.12.05-.28-.18-.34.02.08.03.15.06.2.12-.18.13-.39.23-.56.37.12.39-.56.62-.71.99-.01-.1-.15-.07-.2-.13-.06.1-.06.27-.28.22.13.45-.33.36-.59.54.19.07-.11.18.05.27.22.04.35-.02.42-.14.17.35-.29.6-.6.68.05-.17.28-.15.24-.41-.44.22-.73.6-1.23.74-.08-.01-.06-.11-.05-.2h-.34c-.06.24.23.17.17.41-.15.42-.45.06-.45.47-.28-.1-.03-.48.12-.54-.3-.09-.28.42-.49.2-.02.33.4.26.27.69-.31.04-.82.7-1.13.15.27-.04.47-.17.66-.31-.16-.16-.24.19-.34-.08-.2.36-.88.56-.93.83.02-.07.09-.1.15-.13,0,.21-.23.29.1.28.24,0-.22-.19.03-.2.38-.05,0,.14.18.21.17-.23.32.09.58-.18-.02.24-.2.28-.33.39-.15-.04-.35-.17-.42.05.08.07.25.08.25.22-.17.07-.33.18-.41-.02.22-.08-.09-.31.12-.4-.31-.08-.26.27-.4.39-.1-.02-.25.01-.26-.08.16-.04.23-.19.32-.32-.25-.15-.12.09-.42.05.15-.21.4-.3.55-.51-.08-.01-.2,0-.2-.08.15-.1.26-.18.34.02.15-.26.33-.45.54-.44-.19-.04.02-.21.15-.13.01-.09-.02-.15-.05-.2.09-.05.19-.08.35-.05-.03-.41.27-.45.52-.54-.13-.01-.02-.23-.11-.27.52-.01.58-.87,1.07-.67-.05-.27.21-.21.36-.27.06-.2-.05-.24-.04-.4.39.17.44-.58.73-.73.1.01.11.11.2.13.14-.22.2-.26.42-.49-.1-.13-.29.13-.33-.12.74.12.99-.76,1.3-1.07.06.09.1.21.27.19.03-.22.26-.25.35-.42-.17,0-.33-.02-.41-.11.56-.7,1.61-1.33,1.75-2.17-.05.1-.09.22-.26.23.05-.2-.1-.16-.08-.33.44.05.19-.34.31-.43.2-.07.21.09.41.02-.11-.25.01-.29.04-.47.13-.04.14.07.21.11.04-.2.52-.37.34-.53-.11.08-.08.26-.3.25.2-.36-.08-.23-.19-.52.2-.09.25.02.34.08.24-.16.42-.62.61-.97.18.13.32-.06.53-.09.02-.23-.28-.04-.25-.29.33,0,.47-.14.64-.25.05.11-.07.19.03.2,0-.22.25-.19.32-.07,0-.19.24-.23.18-.46-.22-.03-.14.14-.23.19,0-.23-.15-.08-.2-.02.12-.2.16-.4.03-.55.13.14-.18.24-.18.11.05-.36.55-.43.73-.71-.17.04-.39.15-.37-.12.3.04.8-.12.66-.42.04.07-.14.27-.18.11.13-.2.22-.42.41-.58-.02-.15-.08-.24-.15-.3.17-.13.14-.05.37-.11-.05-.12.03-.16-.01-.27-.03-.08-.13-.03-.16-.09.09-.56.55-.69.84-1.07-.17-.02-.32-.05-.46-.12.13-.12.09-.32.34-.39.06.17-.33.34,0,.35.15-.15.08-.4,0-.7.31-.15.09.21.3.24.02-.59.48-.96.72-1.33-.19.03-.07.17-.19.22-.03-.2-.22-.05-.25-.24.68-.32.32-1.02.6-1.48-.13.11-.22.08-.27-.08.23-.1.42-.21.46-.37-.07.02-.13-.01-.18-.05.27-.35.09-.81.45-1.14-.09.06-.17.04-.24,0,.28-.6.14-.55.06-1.07-.1.09-.2.12-.28.04.26-.16-.13-.17.04-.33.1-.1.2-.13.3-.13-.07-.09-.1-.18-.06-.26.09-.06.14.11.22.07-.07-.33-.15-.18-.12-.52.08.07.15.27.27.11-.34-.37-.11-1.09-.61-.87-.11-.2.11-.4.06-.6-.06.04-.13.12-.19.08.14-.23-.22-.21-.14-.43.19-.09.4.03.6-.05-.28-.08-.51-.46-.13-.56-.4-1.22-.65-2.41-1.23-3.5-.16.17.15.2.07.34-.16.04-.02.19-.24.15.04-.07-.07-.09-.05-.14.06-.06.14-.06.18-.18-.14-.13-.19.02-.29,0-.04-.08-.12-.15-.13-.24.06-.05.13-.09.21-.11.23.13.39.09.58.1-.13-.07,0-.23-.19-.27-.07.09-.1.28-.24.16.02-.33-.54-.43-.36-.82-.21,0-.23-.03-.06-.14-.22-.02-.22-.13-.3-.21-.06.19.09.3.02.49-.43-.1-.22-.45-.39-.66-.23.14-.21-.18-.37-.21-.14.1-.17.39-.37.38.14-.24-.08-.31-.1-.48.12-.21.1-.12.26-.3-.26,0-.21-.03-.47-.09-.07.17-.14.15-.32.29.02.12.24.15.09.36.45.14.4.49.69.78-.3.35.21.38.17.62-.07-.02-.14-.03-.17.06.19.03.03.19.27.2.11-.05.19-.2.35-.12-.03.05,0,.07,0,.12-.09.24-.33.08-.42.32.21.07.21.11.06.31.08.03.14.02.2.01,0,.1-.16.24-.11.32.37-.06.09-.31.09-.49.12.02.17-.17.32-.06-.09.2.07.33-.04.53.09.14.29.02.11.23.12.08.18-.03.31.07-.15.12-.07.19-.16.29.09.06.37,0,.33.15-.19-.03-.36-.07-.49.13.42,0,.09.18.5.2-.23.16-.13.14-.23.32-.12-.08.02-.38-.24-.32-.03.21.17.4.2.61-.34.02,0,.49-.11.71-.18-.18-.35-.69-.75-.51-.04-.06-.01-.13.05-.21.09.05.16.04.24,0-.22-.24.33-.2.2-.44-.09.11-.19.2-.3.15-.04-.05-.07-.1-.07-.16l.16-.16c-.14-.08-.13-.18-.29-.25-.21.14-.04.21-.17.33-.09-.05-.14-.11-.12-.17l.22-.24c.04.08.09.1.2.03-.22-.17-.21-.39-.3-.58.76-.53-.57-.83-.23-1.27-.08.18-.21.24-.34.3.27.12.68.34.35.55.27.05.25.19.24.31-.21.03-.08-.18-.35-.08.35-.26-.41-.23.04-.43-.38-.06-.23-.3-.44-.41-.08.12,0,.17-.19.17.07-.12-.17-.06-.22-.06.22-.07-.04-.13.13-.29.05.07.11.08.2,0-.17-.09-.06-.29-.4-.31-.05.07-.09.18-.17.17-.08-.16.11-.22.12-.4-.38.06-.21-.23-.64-.17.03-.18-.35-.23-.38-.31.13.03-.1.18-.16.19-.05-.1-.43-.13-.12-.22-.16-.12-.15.03-.33.07.1-.13-.18-.06-.15-.16.2-.15.15-.02.28.02.16-.08.02-.09.12-.25-.17.02-.2-.04-.11-.16-.18.1-.26-.14-.39.08.05.03.37-.09.19.22-.25-.12-.25.03-.51.07.16-.25-.32-.12-.25-.31-.11.15.03.15-.09.3.26-.03.27.1.3.21-.07,0-.18.07-.1.09.22-.06.19.3.12.49.12.03.17-.07.31-.02-.07.17.03.38.23.31.21-.17-.23-.04-.14-.16.15-.05.17-.32.36-.3.06.1-.08.08-.13.23.2.01.08.16.16.22.14.08.14-.14.28-.06-.21.1-.22.3-.13.37-.2.09-.24.12-.35.23.2.09.09.31.32.39.12-.07-.04-.17.14-.17-.06.19.22.1.11.32.15-.03.41.17.32.32.19.07.28-.12.49-.01-.25.08-.05.22-.3.32.17.02.03.11.13.14.06-.06.12-.14.22-.08-.08.07-.02.1-.1.17.15.07.24-.05.38-.02-.28.18,0,.24-.08.38-.15-.08-.23-.17-.32-.26-.09.22.32.35.18.58-.14-.22-.48-.39-.48-.63.09.02.18.06.23-.02-.2-.06-.19,0-.32-.1-.1.03-.19.12-.29.15.39.15.65.41.3.63.12-.08.26.07.07.13.14.09.23-.09.37-.05-.08.09.07.14.04.22-.1-.03-.15-.22-.3-.07-.15.07.27.08.12.15-.24.09-.21.06-.28.22-.13-.1-.22-.02-.33,0,.24.08-.15.15-.21.2.16.08.3-.11.46-.04-.12.13-.07.23-.02.35.1-.08.04-.14.22-.09,0,.12.16.06.29.15-.27.01-.02.16.17.25-.12.12-.17.21-.4.2.15.14.31.14.46.12-.26.11,0,.33-.28.34.04.06.29.13.18.18-.5-.02-.23-.51-.64-.53.06.14.18.28.23.42-.44-.1-.62.08-1.01.04.31.15-.02.39-.08.64.13-.1.23-.09.4-.22.26.27.41.57.16.78.46.33-.12.49.32.86-.17.02-.03.12-.13.16l.19.21c-.29.27.08.83-.01,1.09-.05-.05-.09-.14-.16-.12-.02.06-.27.11-.06.19-.08-.11.16-.03.17.06-.1.06,0,.69-.09.62.13-.01.18-.24.28-.15.06.18,0,.32-.02.48-.2-.02-.34-.15-.54-.14.35.17.78.48.34.73-.07-.14-.15-.08-.11-.21-.39.12-.24.41-.55.62.26.31-.31.44-.04.91-.2.01-.06.2-.31.18-.04-.06-.05-.16-.13-.16.16.34-.38.34-.33.73.3,0,.21-.44.43-.33,0,.3-.53.98-.14.95-.17.22-.58.43-.64.84.06.28.2.33.07.49.15.17.28-.03.4.07,0,.07-.04.1-.09.14-.14.02-.21-.08-.38,0,.02.23.29.07.37.2.04.29-.41-.05-.37.25.13-.03.2.02.23.16-.19.15-.18.01-.38-.01.12.19-.2.07-.08.26.11.14.17-.13.27.03.07.25-.38.12-.55.19.12-.1.12-.44-.15-.42-.14.29-.22.65-.55.81-.02-.05-.02-.12-.09-.12,0,.31.36.13.39.41-.31-.04-.02.38-.24.41-.09-.15.09-.37-.26-.42,0,.21.09.29.14.43l-.43.04c-.02.31-.33.4-.36.72.29.03-.07-.12.11-.13.09.01.09.13.15.18-.26.02-.65.2-.79.49-.03.2.19.11.16.31-.11.19-.07.28-.36.21-.04.24.15.2.22.31-.1.11-.23.19-.36.28.28,0,.12.11.15.32-.17-.06-.35.15-.17.2.38-.38.61-.9.91-1.35.04.15.27.07.34.17-.4.41-.68,1.49-1.38,1.24-.16.15.1.12.08.32-.23.04-.3.22-.45.33-.17-.11-.23.08-.33-.06.08-.13.09-.33.32-.33.01.08,0,.18.07.19,0-.17.2-.14.19-.32-.23-.03-.24-.28-.47-.32-.16.15.1.12.08.32-.43-.08-.22.72-.64.33-.02.08-.08.13-.19.13-.08.16.2.27,0,.32-.08,0-.06-.11-.13-.13-.11.19-.29.31-.38.52-.01-.23-.21.14-.19-.07.21-.07.23-.33.31-.52-.17.28-.35.23-.57.39.06.07.24.02.2.2-.08,0-.09.08-.19.06-.06-.11-.21-.13-.26-.26.22-.05.22-.33.5-.32.04-.2-.07-.24-.07-.39.35-.19.72,0,.76-.51-.08-.16-.26.15-.26-.13.26.06.3.03.45-.13-.06-.16-.39.18-.39-.13.23.07.28-.12.59.06.05-.39-.33.04-.34-.32.34.04.33-.24.46.06-.05-.36.09-.52.3-.32,0-.08,0-.15.11-.13,0-.13-.3-.25-.1-.38.13.03.21.13.33.18.09-.1.39-.31.21-.46,0,.18-.18.19-.22.33.03-.44.58-.59.15-.96.27-.03.18-.37.46-.4-.1.12.03.44-.27.39l.03.25h.25c-.02-.21.11-.39.18-.65-.1-.07-.29-.04-.29-.24.36-.02.39-.47.42-.59.21.11.36-.14.51.09,0-.05.04-.08.11-.07-.21-.18-.07-.36-.33-.41.11-.14.35-.01.45.09,0-.27.61-.56.14-.57,0-.11.28-.27.05-.38-.09.05-.05.2-.21.2-.15-.3.16-.25.16-.44h-.12s-.07-.05-.14-.04c0,.09.07.22,0,.25-.07,0-.17.02-.2-.05.09-.19.15-.49.49-.35.09-.29.18-.55.42-.72.09.15.22.23.38.26-.34-.3.1-.07.08-.38-.23-.12-.37.17-.51-.06.16-.27.16-.64.58-.74-.14-.41.28-.74.09-1.09-.11,0-.11.11-.17.03,0-.2-.36-.17-.2-.32.13.02.2.15.32.18.28-.08.25-.33.4-.48.07.14.11.33.26.3.08-.11.03-.29.15-.38-.13.04-.13-.14-.25-.13.1.19.1.33,0,.41-.03-.22.08-.2-.18-.26.1-.21.1-.47.19-.67-.18.05-.38-.14-.34-.28-.22-.01.09.24-.11.25-.17-.16-.24-.41.1-.47.16.18.12.18.28.17.05.21-.27.01-.15.26.13-.03.11-.12.29-.12.04-.34-.03-.84.33-.92-.05-.16-.18-.12-.24-.28.06-.01.04-.05.08-.07.07-.07.28.1.21-.05-.2-.21-.2-.77.18-.77-.04-.18-.2.02-.26-.09.07-.03-.04-.12-.09-.19.21,0,.13-.11.02-.21.07-.02.12.03.2,0-.11-.12,0-.16-.13-.28-.08.03-.16,0-.23-.04.05-.04.06-.09.12-.14.09.07.03.1.11.17.07-.1.08-.19.18-.21-.31,0-.01-.22-.32-.31.2-.24.2-.54-.11-.85.2-.06.09-.05-.04-.13.12-.14.18-.42-.08-.52.28-.08-.15-.35-.3-.38.03.02,0,.14-.09.08-.07-.06-.07-.12,0-.17.06.03.12.05.19,0-.09-.1.02-.19.05-.29-.31.23-.66.2-.37.38-.17.1-.03.22-.17.33.11.09.27.07.26.17.13,0,.03-.14.2-.07-.05.21-.04.5-.37.53.13.12.27.02.41.14-.31.05-.02.31-.06.4,0-.07.1-.12.23-.16-.21-.12-.17-.31.06-.26.18.18,0,.3.13.49l-.15.05c-.16-.06-.02-.17-.16-.14.09.07-.16.07-.21.11.31.28-.32.17-.21.39.17.02.15-.15.25-.07-.03.15.02.33-.09.47.06.13.17.09.23.19-.12.05-.22.13-.3.17.15.1.37-.04.53.02.1.1-.03.13-.02.21-.21-.12-.21.09-.19.15-.23-.12-.18.07-.29.02-.02-.03-.05-.05-.09-.03.08.18.25.02.33.18.06.22-.48.12-.37.3.11-.04.2-.03.28.05.12.32-.48.25-.56.27.12,0,.19.1.29.16.15-.02.27-.23.41-.14.04.37-.35.19-.56.38.05.09.13.1.17.18l-.32.06c-.06-.09.17-.22-.04-.26-.03.12.01.28-.14.35.02-.39.13-.74.2-1.1-.42.14-.02,1-.51.88-.15.03-.13.14-.14.24.07,0,.14-.03.19.02-.05.19,0,.47-.08.67.07,0,.16-.03.2.03-.16.03,0,.24-.18.25-.02-.1.06-.15-.01-.28-.29.11-.28.23-.68.2.07.25-.18,0-.1.4-.36,0-.38.61-.54.9.07,0,.16-.02.19.04-.04.02-.05.05-.02.12-.17-.14-.39-.1-.31.14.03.07.12.04.15.1-.15.02-.15-.08-.23.02.02.11.12.11.17.16-.1.02-.15-.05-.25-.04-.15.18-.09.66-.4.61,0,.21.28.03.3.22-.65.03-.63.49-.58.86-.01-.06.07-.05.07.06.1-.15.5-.16.63.08-.17.09-.26-.04-.33.14-.08-.1-.16-.2-.34-.16.03.2.26.11.31.29-.04.13.08.22-.11.31-.3-.07-.49.05-.66.2-.19.15-.36.33-.58.39.15-.01.3-.02.33.12-.17.17-.12.3-.42.13.05.4-.27-.11-.28.19.2-.03.28.1.39.18,0,.07-.06.1-.11.12-.08-.07-.14-.17-.32-.12.16.25-.09.28-.23.13-.23.79-1.14,1.03-1,1.79-.25-.05-.24.16-.49.11.06.37-.17.38-.42.3-.16.28-.1.47-.41.37-.09.25.27.03.26.2-.02.23-.26.12-.11.38-.21-.06-.28.04-.32.17.08.01.18,0,.19.07-.76.43-1.39,1.35-2.13,1.59.11-.21.54-.4.45-.61-.02.07-.11.15-.13.05.07-.15.15-.34.26-.11.2-.22-.1-.38-.31-.41-.07.38-.22.95-.58.66.06.24-.24.08-.19.31.14.1.24-.15.25.02,0,.2-.16.21-.32.23-.01-.05,0-.13-.06-.13-.02.22.12.31.37.29.07-.14-.02-.24.26-.24-.07.28.27.17.24.41-.13.01-.17.12-.26.18-.45-.32-1.04-.23-1.37,0,.25-.02.06.24-.02.26-.24-.17-.4.29-.55.46.09.02.24,0,.25.09-.09.25-.46-.09-.52.07.25.19-.17.17-.21.24.14.02,0,.28.03.4-.12-.03-.15.06-.26.04.11-.05.22-.19.02-.26-.07.23-.25.39-.4.15-.1.2.2.07.1.27-.35-.11-.14.09-.27.17-.16,0-.19-.12-.24-.23.17.16.27-.25.41-.35-.18.03-.12-.14-.24-.16-.09.1-.15.24-.34.22-.11-.14,0-.24.03-.39-.29.28-.24.42-.21.76-.29.02-.22.43-.34.6.09.11.29.13.37.25-.19.1-.3.32-.51.39-.12-.06-.25-.26-.32-.05.1.13.27-.06.23.23-.23-.14-.13,0-.28.09-.08-.08-.18-.13-.23-.23.06,0,.25-.21.1-.25-.09.08-.09.28-.29.22-.07-.16.2-.22.03-.26-.03.1-.15.02-.19-.03-.06.2-.02.33.08.41-.12.04-.14.22-.29.22-.03.19.17.51-.07.52-.26.02-.07-.3-.36-.25-.09.24.3.12.21.36-.25.25-.49.52-.93.52.21.22-.24.19-.32.27-.08.16.13.39-.08.45-.23-.06-.56-.17-.71-.19.05.1,0,.22-.07.39.08.22.26-.18.33.06-.18.13-.53.44-.72.27.06-.14.32-.12.19-.3-.46.07-.76.73-1.13.67-.33.42-.37.87-.81.73,0,.15.08.31-.13.31,0-.09-.07-.14-.01-.27l-.39-.07c.2.41-.61.23-.47.52.06-.17.23-.07.27.05-.19.01-.16.35-.41.26-.05-.25-.19.02-.42-.01-.13.19.2.09.07.28-.06,0-.13-.02-.15.04.13.17.52-.19.58.18-.35-.06-.47.62-.83.25-.05.12.04.16,0,.27-.23-.08-.37.23-.5.04.02-.17.27,0,.26-.22-.46.04-.58.27-.93.1-.02.18.21.2.19.38.06-.34.48-.19.48.02-.28-.01-.43.18-.68.21-.04-.09-.04-.19.01-.34-.29-.11-.37.09-.58.09-.11.2.06.22.05.35-.5-.11-.88.54-1.35.42.04.14.21.2.27.32-.23.24-.26-.2-.43.05.08.02.15.05.1.16-.12,0-.32.03-.4-.08.12-.08.25-.16.35-.28-.11-.04-.12-.14-.07-.29-.32.1-.55.35-.82.53-.33.03-.26-.2-.33-.34-.18.29.01.17-.05.47.55.07.62-.19.97-.29-.15.22-.06.24-.18.44.17.18.31.08.4.35.03-.15.4-.21.38-.13-.03.3-.53.27-.56.03,0,.25-.42.31-.46.19,0-.22.24-.05.26-.22-.07-.03-.05-.12-.02-.21-.8.15-1.65,1.58-2.06.77.04.17.33-.01.16-.11-.07.03-.31.22-.3.08.19-.16.48-.15.79-.12,0-.4.38-.19.46-.46-.2-.1-.18.14-.31.14-.04-.1-.15-.16-.13-.3-.27.04-.33-.16-.44.12.1.17.47-.05.41.29-.36-.1-.66-.06-.69-.27-.01-.16.36-.15.15-.31-.05.08-.12.12-.23.09.07.35-.46.4-.11.73-.28-.14-1.05.01-1.14.39,0-.08-.05-.12-.1-.16-.03.08-.06.15-.17.1,0,.15.05.25.2.31.18-.2.44-.28.66-.41,0,.13.24.1.13.3-.29-.16-.6.37-1.05.26.05-.16.18-.17,0-.27-.31.08-.71.61-.92.28.05.22.1.47-.3.34-.05.12.04.16,0,.27.19.13.11-.2.3-.07-.17.39.17,0,.16.17-.04.18-.23.12-.34.2.01-.32-.29-.11-.31-.41.02.2-.22.59-.46.38-.02.12-.11.13-.14.24.1.36.61-.13.56.26.46-.52,1.01-.5,1.54-.76-.03.38-.52.11-.41.46-.22.04-.27,0-.38-.15-.23.32-.14.09-.02.34-.21,0-.26.17-.33-.07-.27.2.24.29.29.47-.27,0-.32.35-.59.35,0-.1-.05-.18-.06-.29.2.1.23-.06.37-.06.07-.14-.1-.4-.21-.25.12-.02.25.19.1.16-.16-.01-.25-.07-.31-.14-.14.09-.41.45-.5.3.05-.23.32-.11.37-.33-.24-.13-.3.18-.41-.02.11.4-.66.79-.82.44-.12.22.08.37-.17.37-.09-.04-.08-.13-.16-.17-.06.2-.17.05-.28,0-.11.13-.2.3-.32.41.41-.02.85,0,1.12.25-.18.11-.21-.05-.31-.14-.04.28-.32.16-.39.4.14.04.1.19.04.35-.33-.14-.34.23-.42.25-.1-.03-.25-.03-.25-.12.04-.07.4-.09.21-.23-.05.06-.4.07-.35,0,.13.05.39-.17.22-.3-.37-.14-.43.23-.71.05-.06.12.05.15.08.22-.21.08-.49.4-.68.19-.19.43-.47.17-.79.31,0,0-.09.33-.23.09-.11.17.04.19-.03.34-.22-.21-.49.24-.77.24.11.04.12.15.06.29-.16.23-.17-.11-.28,0,.07.05.11.11.08.23-.2-.15-.1.21-.25.15-.16-.01-.02-.2-.14-.24-.24.24-.68.13-.9.4.11.02.15.09.16.18-.33-.06-.49,0-.36.26-.37.04-.85.09-.86.48-.24-.09-.3.14-.47.16-.11-.12-.2-.02-.38-.16,0,.2.02.24-.16.31.1.17.28-.01.43-.03-.03.23.21.31.36.43-.15.15-.32.26-.52.08-.23.2-.37.54-.82.35-.14.14.2.26-.01.27-.07-.02-.06-.07-.11-.1-.22.47-1.09.5-1.5.95.1-.29.13-.24.16-.51.19.13.11-.2.3-.06-.02.07-.13.08-.04.13.48-.13.52-.46.96-.59-.16-.02-.36.09-.22-.19-.24-.03-.32.07-.3.27-.16-.02-.73.02-.93.26.1.03.23.05.16.18-.06.16-.28.04-.39.11l.06-.19c-.4.25-.86.41-1.31.58-.11.17.04.19-.04.34l-.26-.07c-.06.12.05.15.07.23-.13-.03-.14.16-.3.06.01-.08.07-.18,0-.21-.09.13-.29.08-.36.26.1.03.23.05.16.18-.15-.07-.18.08-.35-.02.04-.11,0-.18-.07-.23-.06.47-.5.24-.71.44.01.1.25.08.22.2-.43.52-1.51.45-1.93,1.29-.1-.03,0-.18-.15-.18-.23.12.09.08-.02.27-.23.12-.02-.12-.24-.13-.08.15.07.17-.04.34-.26-.03-.36.22-.63.18.04-.11,0-.18-.07-.23-.04.07-.13.04-.22.01-.18.41-.55.19-.72.43.15.24.33-.07.52-.07-.02.06.03.09.02.15-.33.14-.64.34-.96.51.12-.22.28-.38.5-.42-.14-.02-.1-.12-.15-.18-.19.41-.22.07-.43.23,0,.15-.12.41-.3.48-.04-.23.03-.26,0-.42-.06.2-.27.13-.28.41-.1-.14-.43-.06-.35.18-.47-.07-.74.21-1.07.41-.24.03-.34-.27-.46-.13.21.19-.15.15-.09.47-.52-.23-.83.32-1.22.02-.06.21-.29.08-.42.16.43.39-.81.55-1.12.51.05.32.4,0,.46.13-.08.16-.16.34-.29.4,0-.28-.1-.04-.22,0-.07-.21-.12-.19-.26-.28-.13.2.2.17.17.33-.1.23-.33.32-.14.59-.2-.13-.29-.31-.5-.42,0,.26-.32.38-.36.59-.13-.16.11-.5.03-.69-.35.08-.12.72-.71.56.41-.29.2-.53.6-.87-.17.1-.62.22-.57.39.03-.05.08-.06.15-.03-.06.34-.23.48-.42.58.13.1.24.05.17.33-.12.02-.17.17-.33.11,0-.15.26-.15,0-.21-.2.17-.26.36-.55.12-.05.37-.56.51-.59.25l-.09.25c-.19-.18-.23-.01-.44.01-.06.23.09.28-.1.46-.27-.06-.55-.14-.76.13.16.09.43-.16.48.07-.19.05-.16.25-.25.28-.37-.03-.45.06-.74-.15-.31.48-1.11,0-1.32.66-.07-.1-.14-.12-.26-.08-.17.19.18.39-.1.46-.18-.03.04-.26-.19-.27-.31.11-.47.34-.79.17-.19.19.21.11.12.25-.23.12-.52.35-.77.11-.18.12-.32.32-.6.24-.06.15.04.22-.08.4-.28-.19-.25.25-.49.13-.02-.13-.15-.2-.25-.29-.09.26.37.27.22.56-.12-.06-.16.04-.24.06-.02-.11-.02-.23-.19-.27-.11.19.16.24-.06.33-.21-.07-.18-.25-.2-.42-.06.31-.13-.14-.24.06.1.06-.05.08-.07.19.1.06.2-.04.19.06-.06.25-.29.16-.44.21.03-.21.25,0,.25-.27-.36-.16-.48.23-.67-.14.08.2-.05.27-.02.42.08,0,.26.08.27.23-.16.09-.48.43-.64.15.19.06.36-.17.28-.34-.34-.02-.57.17-.96.05-.13.32-.56.1-.39.44-.31-.05-.44.09-.65,0,.15.28-.39.1-.43.36.21.11.25-.17.46-.07-.22.45.32-.04.34.25-.14.16-.28.14-.32.25-.34-.18-.72-.06-1.08-.21-.01.16.26.19.22.36.15.1.4-.15.41.07-.29.04-.6.04-.74.39-.26-.01-.58-.16-.67.2-.34.1-.64-.44-.85-.07.24-.03.26.13.4.28-.49-.05-1.06.46-1.32.2.07-.3.14.15.2-.14l-.32-.11c.04.29-.2.35-.4.44-.23-.29-.41-.02-.69-.09-.16.19-.06.28-.22.35-.38-.15.35-.57-.14-.55.13.28-.36.83-.7.83.05-.11.02-.18-.05-.23-.13.16.02.19-.06.33-.36.1-.43-.19-.58.16-.12-.06-.06-.21-.18-.27-.12.16.02.19-.06.34-.29-.08-.53-.06-.67.2-.24-.03.02-.28-.24-.3-.12.1-.3.06-.42.14.15.03.23.1.2.21-.88.23-1.48.37-2.31.76.03-.08.04-.15-.08-.17-.03.22-.22.07-.3.18.07.05.1.13.05.23-.26,0-.41.22-.71.11-.06.11.01.16-.04.27-.41-.19-.55.23-.89.19.03-.06-.02-.09-.01-.15.16,0,.27-.12.39-.22-.23.02-.48.04-.67-.16-.21.23.33.13.24.3-.66.15-2.01-.08-2.52.39-.17-.16-.19-.05-.37.01.12.32.7-.04.67.31-.4.16-.91.25-1.51.24-.14.2.01.26.06.02.02.14.56.06.61.3-.32.09-.9.03-1-.08.07.04.03.12-.02.21-.75-.08-1.35.17-2.25-.26-.08.18.04.28.12.4.07-.1-.03-.19.08-.18.12-.04.18,0,.16.13-.16.05-.27.2-.45.19.02-.09-.11-.12-.14-.19-.14,0-.14.35-.29.32-.07-.04-.19-.06-.16-.13.25-.08.22-.04.2-.29.17.02.3-.06.43-.13-.21-.1.26-.17.05-.27-.21.05-.1.05-.2.28-.43.24-.71-.06-1.05.04.23.19.6.32.53.63-.2.24-.65-.1-.9.02-.08.32-.33.22-.51.31-.06-.2-.69-.24-.65-.03.14-.06.43-.06.29.18-.19-.1-.29,0-.43-.02.04-.1-.14-.11-.04-.23-.46.02-.29.03-.8-.02-.24.55-.67-.11-.9.51-.19-.11-.27.02-.47-.11.16.3.32.46.59.66-.61.16-1.25.45-1.77-.04-.44.22-1.16.46-1.67.07.35-.67,1.49.08,1.74-.4-.09.11.2.31.29.18-.07-.06-.09-.13-.04-.23.32,0,.67.53,1.07.27-.31-.23-.96-.66-1.39-.54-.01.14.39.11.23.31-.4-.11-.7-.09-1.07-.42-.23.22-.5.33-.75.5-.42-.24-.63,0-.85-.41-.14.19.22.18.05.38-.31.13-.16.02-.14.31l-.56-.22c-.11.17-.26.23-.46.18.02-.22.17-.11.24-.19-.22-.05-.31-.15-.32-.27-.14.09-.36-.01-.42.26.14.08.28.16.14.34-.28-.17-.59-.34-.88-.5-.07.44-.59-.26-.67.16.1.18.25.03.26.25.08-.15.28,0,.4-.06-.02.09.03.15-.05.27l-.38-.15c.05.34-.3.11-.45.32.47.13.9-.22,1.25.36-.34.27-1.39-.34-1.31.41-.11.04-.25-.02-.4-.09.02-.08.09-.17.02-.21-.63.37-1.46.2-2.07.61.02-.09-.1-.13-.13-.2-.06.25-.3.03-.39.2.2.15.4-.02.34.22-.27.1-.54.23-.86.22-.13.15.01.19-.08.33-.07-.05-.08-.13-.22-.16-.07.14.02.22-.11.39-.24-.09-.21,0-.37-.16-.03.21.13.35.11.55-.21,0-.46-.1-.58.12l.12.05s-.02.07.03.09c.01-.22.36-.23.34-.08-.35.11-.59.2-.92.05.04.27-.23.14-.18.36-.04-.11-.19-.18-.28-.04.24.11.31.28.2.52.21,0,.4-.04.62-.03-.07.16.24.18.04.38-.35-.28-.65-.19-.99-.12-.04-.19-.28-.46-.5-.21.15.06.23-.03.4.1.02.15-.13.33-.18.36-.06-.05-.12-.34-.28-.19.08.01.13.27-.03.21-.2-.08-.08-.26-.37-.3-.09.12.03.41-.12.39.02-.14-.26-.43-.44-.33-.03.2.19.13.19.23-.23-.08-.02.31-.18.21,0-.4-.66-.36-.9-.17-.09-.1-.13-.22-.13-.35-.13.16-.27.16-.28-.05-.08.16-.26.04-.33.22.22.18.72.26,1.02.22-.03.06.01.09,0,.15-.88-.07-1.32.26-2.27.03-.03.19-.16.12-.21.27.37.23.89.08,1.26.48l-.06.12c-.64-.14-1.37-.53-1.75.03-.51-.03-1.25-.1-1.43.31-.04-.11-.17-.12-.27-.05.17.06.25.14.15.29-.13.01-.24.1-.3.3-.15-.06-.25.02-.21-.17.08.02.17.09.21.03-.13-.27-.43-.06-.69-.25.07.59-.59.72-.89,1.04.14.2-.1.42-.22.61.21.6,1.04.85,1.89.92-.03-.21-.2-.11-.24-.26.23-.22.49.13.79-.07.35.74,1.58-.04,2.1.2.48-.48,1.38-.4,1.76-.33-.11.08-.57-.03-.43.25.43,0,.71-.23,1.08-.05.31-.19.96-.39,1.12-.11.24-.09-.08-.09.06-.27.27-.03.66.27.84,0-.13-.11-.38.19-.37-.01.22-.11.62-.37.59.03.52-.34,1.15-.41,1.76-.51.23.33.92.47,1.32.4.02.19.05.38.01.59-.1.02-.21.01-.35-.07.07-.16.02-.27-.13-.35-.3.15-.59.3-.96.26-.07.11,0,.16-.06.27-.17-.21-.21.01-.44-.03,0-.05.06-.12,0-.15-.05.11-.11.18-.18.22.21.07.76.09.72.37-.46.07-.77-.19-1.09.06-.1.15.22.15.07.32-.23.14-.56.01-.75.27.16.06.31.12.25.25-.15.2-.46-.01-.56.35-.08-.04-.05-.11-.16-.14-.18.31-.45.42-.75.42-.14.39-.45.32-.62.62,1.3.11,2.36-.41,3.69-.21.3-.28.74-.21,1.19-.1.23-.34.84-.4,1.16-.04-.33-.02-.74-.27-.97-.03.54.06,1.14.27,1.54-.03-.02.24.37.21.54.15-.17-.12-.58-.14-.6-.32.41-.04.65.38,1.11.38.07-.11,0-.16.06-.27.19-.02.67.05.47-.18.06.03.1-.02.16-.01.05.15.3.21.36.36-.05.06-.12.07-.19.07-.16-.04-.08-.17-.29-.19-.02.28-.28-.09-.34.08.25.21.24.03.54.14.07.16-.09.35-.24.34.19.09.44.16.36.36-.36-.19-1.13-.65-1.2-.19-.16,0-.33-.02-.47.03,0-.08,0-.17-.04-.23-.09.13-.19.23-.34.23-1.51-.15-3.06.29-4.24.53.5.24.63.21.98.34-.3.09-.62.16-.94.19-.09.09-.11.39-.25.34-.19-.29-.45.27-.79.04-.08.23-.23.1-.44.26.18.09.26-.06.44.04-.05.15,0,.3-.19.36.65.31,1.34.39,2.12.52.46.08,1.55.3,2.02.09.75.32,1.77.14,2.53,0,.69.22,1.36.07,2.09-.05-.07-.04-.07-.11-.07-.17.26.09.74-.16.76.15l.18-.37c.85-.03,1.75.05,2.59.49.29-.17.59-.2.8.09.61-.7,1.64-1.08,2.38-1-.06.11-.23-.04-.28.11.18.18.3.1.46.32.15-.04.25-.19.48-.04.09-.22.22-.35.4-.36-.01.17.18.26.36.35.83-.77,1.85-1.09,3.05-.98.12-.41.58,0,.82-.14.12.52,1.04-.1.95.56.96-1.08,2.98-.57,3.84-1.1.39.18,1.16.12,1.56-.1.91.14,1.65-.13,2.37-.42.73.08,1.07-.05,1.73,0,.09-.1-.08-.33.14-.31.17.38.78.14,1.1.08-.09-.04-.25-.06-.24-.15.67.18,1.63-.02,2.09-.45-.17,0-1.09-.15-.88.28-.3.03-.68-.11-1-.12.04-.12.13-.11.18-.23-.23-.1-.55.26-.67-.01.33-.04.81-.31,1.12.02.52-.77,1.82-.23,2.5-.9.25.12.44-.13.46.15,0-.22.17-.12.24-.21-.07-.03-.19-.05-.17-.13.44.11.68-.23,1.11-.15-.05.07-.4.17-.11.25.2-.4.33-.08.46-.21-.28-.06.08-.13.07-.34.42,0,.64-.15.99-.04-.19.16.12.38-.01.21l.13-.32c.64-.08,1.25-.22,1.91-.26-.19-.08-.43.15-.4-.12.28-.13.65-.13.86-.09-.08-.03-.15-.07-.08-.17.23.13.3-.08.48-.06,0,.05-.05.12.01.15.18-.3.35.04.48-.06-.07-.05-.1-.12-.05-.23.61-.25,1.13-.55,1.69-.48.1-.15.17-.42.44-.16.06-.12-.02-.16.04-.28.23.13.77-.03.96-.36l.27.08c1.53-1.17,3.54-1.36,5.18-2.32.44,0,.77-.22,1.12-.4l.27.07c.2-.28.67-.39.87-.33-.09-.28.2-.07.41-.1.9-.71,2.14-.76,3.11-1.35l.2.05c3.85-1.56,7.66-3.11,11.48-4.66,3.78-1.65,7.58-3.28,11.25-5.31.07.13.29.05.38-.07-.11-.05-.21.06-.2-.04.21-.31.25.03.45-.05l.08-.26c1.09-.41,1.79-.84,2.86-1.27-.07-.03-.13-.14-.03-.14l.27.05c1.81-1.13,3.85-1.89,5.62-3.11.9-.39,1.78-.81,2.5-1.48.42.01.53-.44.98-.4.34-.54,1.1-.47,1.44-1.02.67-.21,1.21-.55,1.79-.94.58-.4,1.15-.8,1.83-1.06l.08-.27c1.06-.4,1.94-1.42,2.88-1.72.12-.48.8-.4.78-.81h.29c.14-.38.53-.45.91-.72.69-.49,1.61-1.51,2.02-1.49,1.47-1.35,3.17-2.41,4.54-3.96.07,0,.08.05.14.06.79-.87,1.53-1.77,2.55-2.47l.05-.44c.5-.21.73-.6.91-.92.1-.01.06.12.14.13.22-.17.16-.59.44-.71.93-.73,1.61-1.7,2.24-2.68-.16.19.02.14.14.19.68-1.27,1.65-2.37,2.51-3.53.02-.2-.14-.12-.09-.37.4-.07.36-.43.73-.52-.07-.52.39-.71.39-1.18.56-.33.89-1.46,1.33-2.15-.35-.26.68-1.06.63-1.65.18-.17.17.07.31,0,.04-.21-.09-.53.34-.74.05-.77.4-1.39.7-2.05-.02-.34-.37.21-.37-.2.5-.63.81-1.14,1.08-1.98-.19-.06-.17.26-.38.4-.02-.28-.23,0-.25-.28.3-.29.61-.73.49-1.07-.04.12-.13.57-.27.43.13-.41.17-.86.48-1.25-.04-.21-.18-.06-.21-.33.19-.34.1-.62.47-.76-.16-.61.2-1.16.27-1.75.14-.2.15.49.31.11-.03-.44-.42-.05-.31-.46.14.05.49-.15.3-.47-.09.09-.19.27-.26.19.03-.96.06-1.95.18-2.93-.2.11.11.56-.11.43-.03-.29-.07-.74-.09-1.13-.03-.4-.01-.74.14-.81-.11-.11-.04-.24-.06-.36-.07.11-.14.27-.23.09.23-.21-.08-.37.16-.59.05.14.06.28.11.42.24-.49-.42-.43-.19-.92.13.05.04.45.2.26-.11-.78-.16-1.64-.41-2.56-.17.49.38,1.17.02,1.45.23.25.28.54.19.84-.22-.19-.05-.43-.2-.62-.16.09,0,.45-.15.31-.16-.6-.26-1.2-.16-1.84-.07.07-.14.12-.22.12.05-.18-.08-.32-.03-.5.06-.1.15-.04.21-.12-.19-.22-.26-.47-.3-.72.06.09.29-.04.15-.19-.35.29-.16-.5-.4-.69-.12-.04-.13.39-.26.3.19-.37-.06-.61-.09-.91.29.22.11-.47,0-.59,0,.27-.08.5-.33.33,0-.14.19-.36.05-.45-.37.38-.65-.91-.83-1.28.08.04.17.08.17-.07-.33-.17-.05-.15-.15-.37l-.34-.22c0,.35-.2.17-.29.28.27.37.36.38.34.86.43.2.16.29.6.63-.19-.07-.21.32-.07.53.05-.11.06-.31.16-.27-.04.16.29.05.21.36-.13.14-.33.07-.42.36.23.17.22-.44.5-.1-.19.44.46.62.19,1.08-.16-.09-.36-.32-.45-.08.28.16.26.22.51.14-.21.76.22,1.35.31,2.03-.05-.03-.09,0-.13.09-.11-.12.03-.28-.15-.39-.15.42.33.41.34.7-.15.05-.27.1-.18.38.14-.46.16.09.4.21-.11.49.25,1.93-.21,2.23.1.29.19.05.28.12,0,.48.14.96-.06,1.44.1-.18.2-.24.28-.14-.05.18,0,.37-.21.55-.07-.09-.14-.28-.22-.21.09.18-.09.36.07.55.14-.24.26-.24.37,0-.38.55.25,1.33-.34,1.63,0,.18.03.25.15.29-.24.08-.09.53-.24.39-.03-.09.02-.27-.11-.22-.04.4.12.84.09,1.25-.05-.1-.13.04-.18-.03-.08-.13-.01-.23-.09-.36-.39.85-.05,1.81-.68,2.59.08.37.1-.17.18.04.04.59-.31,1.05-.36,1.61-.59.39-.07,1.5-.73,1.63.26.27-.36.58-.15,1.04-.37.15-.33.47-.47.71.31.14-.16,1.04-.63,1.12-.04.28.14.13.19.23-.22.1-.01.41-.23.52-.08-.11-.37-.07-.36.17.11,0,.36-.27.37-.1,0,.31-.47.38-.6.61.18.04.14.13.12.35-.38.16-.44.48-.83.62.07-.15.05-.22-.1-.2,0,.07.02.15-.05.19-.1,0-.05-.29-.18-.24-.09.6-.39.35-.43,1.01.17-.06.31-.62.37-.14.24-.03.25-.55.42-.39-.07.19-.3.3-.17.61-.33.04-.22.34-.49.42-.07-.18.13-.2.12-.35-.19.13-.15-.1-.24-.14-.24.07-.34.22-.34.43.11-.03.27-.12.3-.03-.1.04-.06.16-.13.2-.22.14-.16-.15-.38-.02-.13.62-.88,1.11-.63,1.76-.09.05-.27.38-.37.18-.06-.15.33-.33.06-.39-.09.34-.89.94-.34,1.06-.01.09-.08.14-.14.19-.23.12-.15-.17-.37-.05-.27.39-.58.85-.88,1.29-.31.42-.65.77-.97.98-.48.94-1.28,1.68-1.95,2.43-.01-.05,0-.14-.06-.13-.18.79-1.32,1.46-1.87,2.22-.1,0-.11-.11-.2-.12-.34.57-.91.88-1.27,1.42,0-.09,0-.17-.13-.13-.05.41-.34.8-.67.67-.29.73-1.15.85-1.46,1.54-.12-.2-.5.23-.19.28-.05-.21.36-.3.39-.14-.18.25-.02.26-.01.49-.46.22-.61-.16-.68-.28-.33.4-.82.62-1.25.91-.04.13.05.16.02.28-1.32.5-2.27,1.84-3.37,2.26-.12.28-.2.27-.25.48-.09,0-.08-.09-.2-.08-1.62,1.4-3.33,2.14-4.92,3.39-.24-.12-.62.27-.75.62-.45-.11-.54.3-.84.42-.25-.11-1.4.71-1.98.93.08.04.12.11.08.22-.62-.06-.8.6-1.19.43-.04.11-.04.21,0,.28-.11.07-.28.04-.34-.06-.16.28-.31,0-.16.32-.38.08-.6.4-1.04.38.08.02.16.05.1.16-.31.02-.43.35-.8.29.12-.03.03.33-.07.27-.24.05,0-.22-.24-.18-.22.42-.58.62-1.04.66-.06.32-.51.23-.92.47-.24.15-.6.69-.85.48-.86.91-1.96.85-2.82,1.68.01-.08.07-.18,0-.21-.15.11-.02.08-.08.26-.7-.03-1.64.89-2.57,1.1.05.03.06.07.03.15-.64.06-1.08.47-1.55.81-.76.13-1.59.45-1.86,1.09-.18-.04-.08-.24-.28-.27-.05.31-.41.11-.54.3.11.05.21-.06.21.04-.2.04-.25.1-.43-.02-1.01.84-2.45.94-3.44,1.82-.12-.06-.28-.09-.21-.26,7.82-3.7,15.44-7.81,22.89-12.33,3.81-2.39,7.54-5.02,11.05-8.05,3.49-3.07,6.8-6.54,9.54-10.65.46-.59,1.08-1.45,1.2-1.96.41-.24.5-.67.88-.92.03-.12-.12-.35.03-.39.26.13.36-.62.41-.81.13-.46.75-.83.59-1.06-.11.15-.26.27-.3.46-.26-.61.98-1.07.75-1.79.7-.47.55-1.91,1.15-2-.07-.16.09-.23-.03-.41.26-.04.48-.72.14-.82.21-.54.69-1.02.65-1.64-.08-.09-.31.23-.37.09.1-.08.28-.39.35-.16.34-.65.11-1.41.55-2.04-.21,0-.1-.44.15-.43-.05-.16-.14-.06-.22-.1.13-.31-.05-.78.32-.87-.02-.26.02-.52.02-.78-.4-.41.17-1.89-.27-2.71.46-.86-.44-1.63.05-2.51-.24-.12,0-.3-.19-.43-.16.52.02,1.13-.06,1.8-.11.03-.21.1-.32.08-.07-.18-.07-.37.11-.58-.16-.31-.26.41-.42-.03.23,0,0-.68.34-.53-.21-.31.07-.58-.16-.74.28.14.21-.12.44-.19-.31-.36-.19-.66-.09-.96-.12-.2-.18.03-.29-.07.05-.42-.15-1.13-.39-1.26.16.28.06.63.15.92-.17-.17-.26.07-.46-.21.19-.04.06-.22.19-.42-.33.18-.86-1.14-.65-1.48-.17-.23-.13.2-.3-.03.03-.07-.02-.12-.01-.19.18-.13.24-.3.5-.1-.13-.15-.15-.34-.21-.51.21.02.25.42.38.26-.29-.14-.02-.48-.34-.6-.17.2-.04.4-.23.47-.2-.16-.07-.45-.25-.62-.07.19-.28-.05-.35.13.03.17.05.61-.17.5-.1-.13.15-.39.03-.51-.12.28-.34-.31-.38.02-.1-.2-.16-.62.2-.39-.22.23.11.06.25.15,0,.06-.05.14.01.18.03-.15.12-.12.16-.25-.09-.26-.24,0-.47-.19,0-.11-.05-.19.02-.32.14,0,.16.34.26.15-.26-.34-.25-.8-.6-1.09.09.49,0,.71.11,1.23-.06-.04-.09.01-.15,0-.14-.46-.15-.99-.35-1.43-.13-.08-.15.03-.23.05.02-.07-.03-.11-.04-.17.02-.09.13-.01.17-.08-.06-.2-.18-.59-.41-.5-.07-.37.02-1.2-.37-1.17.04.11.05.5.1,1.06-.22-.33-.12-.85-.53-1.06.26.14.21-.26.39-.24-.11-.05-.03-.21-.19-.22.06.26-.1.44-.35.42.1-.39-.11-.4-.37-.43-.06-.78-.55-.9-.77-1.5-.24.23.29.59,0,.82-.33-.26-.22-.84-.84-.87-.06-.37-.32-.58-.52-.83,0-.17.12-.19.07-.42-.08-.03-.2-.02-.21-.11.19.04.24-.07.14-.19-.35-.06-.14.26-.14.48Zm7.19,21.19c.02-.24-.12-.5.12-.69.05.25.08.5-.12.69Zm-7.17,15.54c.08,0,.04.14.14.12.1-.04.07-.2.08-.31.33.08.26-.03.52-.03-.13.32-.3.61-.62.78-.03-.4-.16.01-.44.01-.09-.36.24-.36.32-.57Zm-108.84,42.22c.14-.26.16-.07.37,0-.08.19-.33.12-.37,0Zm-1.44-4.6c-.02.19.29-.02.19.22-.27.27-.81-.2-1.01.23-.3-.15-.49-.56-.14-.79,0,.2-.11.43.2.52,0-.27.03-.3.11-.54.15.08.3.15.34-.08.34.19.39.23.72.23.06.17-.21.25-.4.2Zm30.11-9.44c-.2,0-.28.26-.51.18.12-.18.27-.27.51-.18Zm14.12-5.92c.16.15-.16.26-.16.44-.26-.19.13-.2.16-.44Zm10-4.58c.01-.26.21-.17.3-.27.14.14-.15.34-.3.27Zm48.13-38.39c.13.15.1.26.07.37-.22-.07-.08-.27-.07-.37Zm2.11,3.46c.32,0,.1.64-.09.57-.16-.27.23-.31.09-.57Zm-.69-9.87c-.1,0-.07-.07-.19-.08.03-.1.11-.12.16-.18.19,0,.13.12.02.25Zm4.26,17.11c-.17.36-.27.53-.53.9.06-.38.21-.7.53-.9Zm3.5-8.25c.18.03.02.4.02.55-.23-.04-.05-.41-.02-.55Zm.47-4.49c.22.12-.11.29-.18.29-.1-.07.05-.37.18-.29Zm-1.42-13.03c.33-.05.07.35.4.3,0,.12-.13.16-.01.21-.13.09-.48-.22-.39-.52Zm4.82,6.61c.21.09.11.29.15.45-.03-.03-.3-.13-.15-.45Zm2.55,8.02c.17.22.15.63-.03.64-.07-.22-.17-.43.03-.64Zm-.28,1.7c.22.02.23.57.08.77-.21-.28,0-.51-.08-.77Zm-10.07-7.63c-.19-.2-.13-.49-.27-.71.22.04.43.41.27.71Zm12.06,13.99c.07.28-.08.73-.29.7-.04-.28-.02-.53.29-.7Zm-4.73-9.14c.14.18-.02.37-.02.56-.24.03-.12-.4.02-.56Zm-8.64-5.38c.21-.15.11.13.26.13-.21.19-.18-.06-.26-.13Zm.41.23l.18.05c-.13.22.01.11.09.27-.06.07-.18-.04-.23.04-.12-.1.06-.22-.21-.19.04-.11.11-.12.17-.18Zm.5.28c.23.05.11.23.12.35-.2-.07-.3-.16-.12-.35Zm5.87,4.99c.12.33-.32.18-.48.39-.03-.1.02-.2.1-.3.14.18.16-.19.37-.1Zm-5.57-3.77l.16.07-.14.18c-.05-.08-.18-.13-.02-.26Zm-3.51-.99c.16.06-.13.26.19.18-.16.27-.47-.09-.19-.18Zm8.92,5.52c-.14-.14-.25-.28-.08-.41.11.17.14.34.07.51.08.12.13-.15.1-.2.22.09.01.61-.09.86.3.15-.11.09.24.33-.27.44-.59.31-.71.78-.11-.2-.07-.53.21-.53-.41-.23.1-.57-.08-.91.25.01.19-.28.34-.43Zm4.1,7.01c-.03.19-.09.55-.31.49-.03-.21.13-.53.31-.49Zm-4.77-7.77c.07.1.02.2-.1.29l-.18-.2c.1-.21.18.12.28-.09Zm-7.7-4.05c.05.15.2-.01.36.04-.22.16.22.12.05.27-.1-.16-.66-.02-.41-.31Zm3.53,1.33c.21.08.04.22-.08.35-.19-.08.08-.24.08-.35Zm-2.14-.47c0,.07-.1.19-.27.22-.21-.1.03-.47.31-.43-.16.11-.27.25-.04.21Zm6.45,7.96c-.17-.3.08-.5.4-.7.06-.16-.09-.37-.07-.53-.03.07-.06.14-.11.08.01.26-.15.71-.45.73-.15-.24.16-.38.23-.57l-.17-.29c.24-.29.12-.9.66-.86-.05-.11-.12-.07-.18-.03-.1-.3.27-.25.38-.05-.3.23.01.09.1.28-.28.32-.01.73-.33,1.04.12.04.15.1.13.24-.2.07-.39.22-.16.28-.15.13-.33-.02-.42.38Zm-4.37-7l.16.09c-.13.16-.29.14-.42.27-.22-.05.09-.16-.13-.2.07-.1.2.04.28-.03l.12-.13Zm9.14,17.79c.11.19-.27.49-.35.33-.1-.23.21-.23.35-.33Zm-1.47-4.2c.06-.25.16.52-.18.52-.09-.24.15-.34.18-.52Zm-9.59-13.81c.06-.04.13.01.19.04l-.16.15c-.24-.09.04-.13-.03-.19Zm1.4.89c.08.1.21.2.25.31l-.22.19c-.08-.08-.16-.1-.23-.03.05-.15.18-.31.2-.47Zm-1.55-.67c.35-.02.11.3.27.42-.24.09-.17-.39-.44-.11-.17-.04-.03-.12-.13-.17.14-.01.28,0,.41-.08l-.1-.05Zm1.88,1.38c.14.16-.17.34.16.4-.35.1-.55-.3-.16-.4Zm.75.6c-.1.11-.19.01-.28.15.06.08.12.05.19,0,.09.09-.02.18-.14.26-.08-.1-.15-.02-.23.03l-.18-.16c.11-.06.22.04.33-.03.11-.1-.14-.02-.18-.16.17-.03.35-.28.51-.1Zm.63.74c.22.19.24.37.03.53-.1-.19-.17-.37-.03-.53Zm-2.93-2.14c.03.19.08.28-.11.42.12-.17-.18-.31-.08-.47.06.04.13.08.19.05Zm5.95,6.45l.1.18c-.22.08-.25.22-.1.4l-.24.14c.07-.24.02-.52.24-.72Zm-5.88-6.1c.14.09.05.19.16.29-.2.03-.32-.2-.16-.29Zm8.44,15.13c-.23.25-.2.63-.47.85.06-.32.15-.89.47-.85Zm-9.66-15.68c.49.07.34.52.3.65.15-.09.23-.04.25.14-.07.03-.15.03-.23-.02.08.18.3.51.04.6-.13-.21-.1-.33-.44-.44.03-.14-.08-.26.24-.42-.14.02-.27.08-.41.05-.05-.07-.05-.15-.02-.23.11-.04.21-.12.32-.11-.05-.12.11-.1-.04-.23Zm2.53,1.58c.13.21,0,.27-.24.32-.03-.24.24-.07.24-.32Zm-1.74-.76c-.13-.07-.09-.14-.16-.21.2-.1.32.12.16.21Zm5.96,7.79c.24-.08.17-.27.37-.37.09.19.06.35.07.52-.21.15-.35.08-.47-.05-.14.17-.3.33-.2.58-.16.13-.17-.06-.3,0,.29-.3.12-.46.44-.71l-.14-.31c.1-.06.13-.13.12-.23.17.09-.05.43.1.57Zm.14-.87c.13.22.12.39-.07.51,0-.18-.09-.38.07-.51Zm-5.55-6.51c.11.09.11.18,0,.26-.09-.15-.19.08-.28-.07,0-.08.16-.2.28-.19Zm7.88,17.76c.03.21-.16.28-.35.36.06-.16.12-.31.35-.36Zm-8.35-17.89c.15.07.19.15.05.22-.08-.06-.15-.03-.23-.1l.18-.13Zm3.23,3.36c.17.22.01.38-.08.55-.07-.02-.14-.08-.2-.17.25-.09.03-.28.28-.38Zm-2.82-2.68c.2.19-.14.35-.09.52-.17-.19.08-.35-.09-.53.06-.03.12.05.19,0Zm.91,1.15c-.11.01-.21-.09-.31-.14l.2-.12c.16.1-.06.16.11.27Zm-1.65-1.56c.18-.06.12.12.23.16l-.23.15c-.13-.16-.33-.01-.32-.16.13-.14.25.11.37.07.02-.07-.09-.15-.04-.22Zm5.9,8.1c.03.3-.24.16-.23.41-.26-.05,0-.36.23-.41Zm-4.24-6.21c.05.14-.05.27-.09.39-.03-.14-.15-.29.09-.39Zm5.64,18c.03.19-.15.23-.29.3-.07-.25.15-.41.29-.3Zm-5.09-16.75c.13.18.01.3.04.46-.15-.03-.24-.38-.04-.46Zm2.8,7.08c.08-.23.08-.49.21-.69.36.04.07.59-.21.69Zm-6.23-9.24c-.09-.04-.05.04-.15.07-.18-.09-.12-.15-.11-.21.24.06.09-.03.24-.12.08.01.16.05.23.11.07-.04-.12-.11-.04-.15-.08-.02-.15.02-.23-.05.38-.07.57-.22.83.07-.08.03-.15-.09-.23-.05,0,.15.06.21.27.33-.15.11.15.27-.14.36.17.06.03.23.21.19.05.19-.24.02-.32-.02-.11-.12,0-.21-.24-.34-.14.05.13.16-.07.2-.12-.07,0-.18-.18-.09-.04-.11-.08-.21-.06-.3Zm2.37,1.59c.08.33-.42.15-.74.35-.09.14.08.34-.05.46-.26-.13.07-.37-.23-.28-.07-.18.16-.33-.09-.45.09-.07.06-.2.23-.16.08.36.68.25.89.07Zm5.27,18.45c-.17.44-.24.48-.22,1.04-.36-.06-.58.07-.96-.02,0-.13.1-.17.08-.31.19-.01.2.19.52.04.07-.26-.24-.05-.29-.16.23-.34.59-.5.88-.6Zm-1.4-10.74c0,.23-.14.36-.34.34.11-.12.19-.25.34-.34Zm-6.36-9.69c-.09.06-.19-.06-.28-.02-.08-.13.33-.1.28.02Zm2.41,2.33c.08.07.01.1.06.16l-.42.2c-.09-.2.17-.44.36-.36Zm3.7,8.03c.09.16-.1.18-.07.32-.21.01-.1-.07-.13-.24l.2-.07Zm-1.9-4.67c.09.18-.21.51-.32.21.21-.03.12-.17.32-.21Zm-3.38-4.57c-.13.07-.32-.09-.31-.14.11-.04.21.04.31.14Zm4.93,9.3c0,.2-.11.33-.32.41,0-.09.05-.17.16-.2,0-.06-.04-.05-.08-.04,0-.1.15-.11.24-.16Zm-.71-.82c.07.22-.3.22-.23.44-.22-.09.03-.39.23-.44Zm-6.98-9.95c.09.15-.04.12.01.23-.11,0-.21.01-.32-.05.13.04.24-.08.04-.06.01-.06.13-.09.27-.11Zm6.73,24.19c-.09.13-.09.33-.32.33-.02-.22.09-.32.32-.33Zm-1.86-15.68c.07.15.06.27-.11.3-.07-.16-.06-.27.11-.3Zm1.36,6.02c.09.26-.28.35-.27.07.12-.15.09-.02.27-.07Zm-1.51-4.76c-.1.18-.45.2-.32.51-.21-.18-.06-.6.2-.68.16.05-.03.18.12.17Zm.3,16.42c-.05.3-.27.43-.49.56-.14-.22.24-.48.49-.56Zm-5.04-24.01c.19.02.17.22.21.3-.17-.02-.28-.27-.21-.3Zm2.05,3.78c.12.14,0,.16.08.29-.34-.01-.17.23-.39.28-.07-.18.09-.25-.08-.47.24-.03.18-.01.39-.1Zm2.06,8.74c-.18.17-.02.35-.09.5-.25.09-.31-.05-.3-.29.22,0,.13-.23.39-.21Zm-3.95-10.22c.01.14-.16.2-.35.24-.11-.19.15-.19.35-.24Zm1.95,4.93c.06.16.05.27-.12.28-.06-.16-.05-.27.12-.28Zm-.75-2.06c.09.22-.05.31-.24.36.05-.14.05-.3.24-.36Zm.26,1.71c.05.15-.03.08-.11.08-.2.25-.23.55-.58.48.06-.23.4-.28.36-.57.14-.05.24-.03.33,0Zm.73,4.59c-.12.21-.24.42-.54.49.12-.21.23-.42.54-.49Zm-3.46-8.76c.18,0,.28.14.45.15-.06.07-.07.17-.21.2-.05-.17-.19-.17-.23-.35Zm.11-.02c-.26-.28.23-.21.36-.39.09.18-.03.21.16.36-.21,0-.36-.1-.52.03Zm.82.53c0,.13-.09.22-.25.27-.03-.11-.09-.16-.19-.14-.13-.21,0-.29.06-.4.24.08-.1.18.03.33.13.14.24-.06.35-.06Zm.75,3.4c.08.18-.12.18-.1.33-.14-.03-.07-.34.1-.33Zm-.13-.23c.18-.08.14.18.3.14-.03.17-.32.06-.3-.14Zm.64,1.67c-.26.03-.23.11-.12.28-.23.03-.19-.04-.37.06.03-.12.13-.19.03-.39.12-.06.13-.18.33-.18.06.05.1.13.12.24Zm.91,9.66c.01.06-.03.07-.07.07v.14c-.15-.14-.25.08-.5.04.07-.25.35-.33.57-.25Zm-1.16,10.07c-.12-.14.05-.14.12-.29.21,0,.12.34-.12.29Zm-1.69-24.68c.05.14.04.26-.02.34-.08-.01-.24-.38.02-.34Zm2.29,12.54c-.05.23-.18.38-.4.46.05-.23.18-.38.4-.46Zm-2.29-11.34c.15.15.18.27.11.4-.23-.01-.09-.2-.23-.26-.27.06-.06.21-.11.36-.1.03-.19-.08-.18.02-.2-.22.11-.48.4-.52Zm1.75,9.83c-.21.05-.27.24-.52.25-.05-.32.29-.31.38-.51.12,0,.16.1.15.25Zm-1.14-5.32c-.05-.14-.03-.24,0-.32.19-.02.24.35,0,.32Zm-1.12-3.74c.06.13.06.22.04.29-.06-.02-.12-.05-.2-.04-.04-.15.01-.23.16-.25Zm1.03,3.94c.06.21-.25.13-.34.23.03-.14.15-.21.34-.23Zm-.22,1.38c.06.05.09.14.1.25-.26-.11-.08.11-.38.1-.03-.22.05-.34.28-.35Zm0,0c-.11-.31.29-.22.24-.48.18.15.05.53-.24.48Zm-.7-4.62c.05.15.17.36-.09.31.02-.11-.1-.31.09-.31Zm.64,3.85c-.1.07-.06.25-.28.22-.05-.2.11-.35.28-.22Zm-.72.71c-.13.04-.18-.03-.27-.05,0-.24-.05-.44.18-.59.12.04.03.11.03.19.12-.05.15-.17.35-.16.06.13.21.19.11.31-.22-.14-.27-.06-.57-.01.04.12.2.1.16.31Zm.44-.1c-.12.28-.31.51-.64.62.09-.33.29-.86.64-.62Zm-1.33-5.53c-.08.16-.08.38-.25.49-.07-.26.07-.39.25-.49Zm.56,2.21c0,.21-.2.09-.31.03-.02-.14.26-.06.31-.03Zm-.47-.86c-.07.19-.14.41-.43.45-.09-.2.2-.11.19-.25-.02-.16-.33.08-.29-.16.3.11.35-.12.53-.04Zm.78,6.09c-.28-.09-.4-.61,0-.65-.14.38-.06.42,0,.65Zm-.24-1.21c.08,0,.07.11.08.19l-.32.02c-.13-.24.28-.04.24-.21Zm-.56-2.56c.04.1-.04.11-.02.19-.12-.02-.27,0-.28-.17l.3-.02Zm-.31-.91c-.21,0-.35-.1-.43-.28.1-.1.41.02.43.28Zm.3,3.56c-.11-.09-.16-.43.09-.39-.02.24.22.36-.09.39Zm-.75-3.65c.04.24-.22.2-.03.43-.31-.09-.19.06-.39.15.04-.06.04-.14,0-.25.25-.02.17-.3.41-.33Zm-.4.7c.21.32-.45.41-.37.81-.41-.3.26-.61.37-.81Zm.09.49c.05.13-.02.16-.03.25-.17.05-.14-.12-.27-.11.05-.19.13-.04.3-.13Zm-1.15,1.27c-.03.13-.15.17-.29.19-.07-.19.16-.12.09-.32.08.02.11.11.2.12Zm-.47,4.42c.35.18-.13.36-.25.46-.15-.13.3-.22.25-.46Zm-.34,7.38c-.03.2-.43.16-.34-.08.2-.05.17.1.34.08Zm-.17-7.52c.03-.14.24.1.38.07-.03.13-.02.28-.19.26-.08-.1-.08-.27-.2-.33Zm.13.26c-.02.22-.41.12-.32-.13.21-.05.24.06.32.13Zm-.22-2.97c-.15.15-.29.32-.55.37-.07-.25.27-.1.17-.38h.38Zm-.11,2.38v.2s-.25,0-.25,0c.06-.09.05-.25.25-.19Zm-.44,1.87c.17-.2-.12-.46.22-.45.11.14-.05.4-.22.45Zm.19.14c.2.13-.09.31-.28.25v-.26c.05.02.26.17.28,0Zm-.63,6.93c-.03.13-.08.22-.17.26-.23.05-.06-.23-.24-.22-.24.09.12.17.02.34-.19-.07-.19.09-.35.05-.02-.24.12-.28.19-.4-.33-.06-.28.35-.59.31-.09.24.11.34-.07.48-.19-.07-.06-.11-.03-.28-.31-.07-.16.44-.53.3.43-.58.99-1,1.57-1.39-.05.12-.07.28-.18.33.04.15.28.13.38.22Zm.53-7.78c-.2,0-.26.13-.4.18.05.12.26.09.18.33-.25.13-.24-.09-.45-.15.06-.25.37-.24.35-.57.19,0,.36,0,.32.21Zm-.08-2.91c.01.22-.23.18-.43.18,0-.21.28-.13.43-.18Zm-.08,5.07v.2s-.28,0-.28,0c0-.18.1-.21.28-.19Zm-2.62.51c-.08-.12.27-.66.51-.42,0-.31-.5-.35-.59-.11-.17-.23.35-.26.38-.49.11.06,0,.12-.02.19.23,0,.34-.14.54-.16.02-.14-.22-.04-.32-.09.31-.21,1-.23.95-.74.33.11.59.06.98.04,0,.3-.44.04-.21.32-.12.03-.34-.01-.52-.15-.32.18-.61.38-.69.83l-.33-.02c-.09.17.15.73-.27.77,0-.11.06-.16.15-.19-.13-.33-.43.1-.56.22Zm-.39-.1c-.04-.16.26-.26.1-.32.1-.08.34-.11.4-.03-.14.15-.24.35-.5.35Zm2.3-4.73c.1-.21.23-.39.42-.51.14.23-.21.42-.42.51Zm.36,1.68c.07.21-.11.15-.14.25-.14-.03-.08-.38.14-.25Zm-.41.63c.2.15-.1.33-.27.31.05-.15.22-.16.27-.31Zm.05-2.25c0,.2-.23.27-.33.17.06-.11.12-.22.33-.17Zm-1.39,11.26c-.14-.26-.24.04-.4-.1.04-.2.52-.15.4.1Zm-.29.04l-.03.2c-.26-.09-.43.11-.55-.05.06-.22.34-.16.58-.15Zm.74-8.17c.2.16-.17.27-.27.32.01-.19.21-.18.27-.32Zm-.33-1.52c.01.17-.1.21-.26.18-.01-.17.1-.21.26-.18Zm-.9,3.67c-.13.19-.25.05-.47.03.08-.1.21-.15.29-.24.15,0,.05.19.18.21Zm-.09.86c.03.22-.13.2-.17.32-.15.02-.25-.43-.32-.09-.06,0-.06-.03-.06-.07h-.13c.06-.07.09-.15.09-.27.22.02.32.14.59.12Zm-.2-1.34c0,.35-.33.29-.45.49-.09-.03-.04-.17-.04-.27.23.06.21-.18.49-.22Zm-4.18,20.18c-.05.05-.1.1-.12.19-.2-.02-.38-.05-.29-.25.11-.08.35-.04.41.07Zm2.69-11.91c-.11.33-.33.05-.55.01.05-.22.15-.35.35-.38-.2.24-.02.3.21.37Zm-.09-6.02c-.24-.09-.37.07-.47-.05.02-.19.28-.33.29-.1.15-.1.05-.24.29-.1-.03-.07-.14-.08-.11-.21.17-.11.19-.11.33.03,0-.16-.03-.29-.16-.35.31-.04.75-.23.93-.65.09.39-.3.83-.69.87.1.07.17.23.03.34-.27-.14-.2-.02-.43.22Zm.71-5.26c-.12,0-.32-.1-.27.1-.24-.14-.43.07-.44-.24.12-.07.54.16.6-.13.11.03.14.12.11.27Zm-.69,4.67c-.11.09-.25.14-.43.15.13-.17.3-.29.4-.49.3.07-.08.34.03.34Zm.2-3.35c-.02.18-.32.12-.39.03.02-.14.28,0,.39-.03Zm-.11-1.11c.18.2-.16.36-.23.49-.18-.08-.06-.1-.04-.26-.19-.07-.2.09-.39.02.12-.3.43-.24.67-.25Zm-.92,5.5c-.22-.17.25-.09.18-.31.29.14-.04.27-.18.31Zm.4-2.54c-.18.08-.3.22-.49.28-.13-.19.39-.37.49-.28Zm.09-2.48c.15.12-.14.3-.16.44-.05-.04-.1-.08-.19-.09,0-.26.31-.14.35-.35Zm-1.07,4.82c.14.3.25.22.5.26-.11.31-.4.16-.21.51-.18,0-.15-.16-.16-.29-.33.19-.71.48-1.03.54.25-.43.95-.43.9-1.02Zm-4.05,19.11c-.03.27-.33.12-.43.28-.14-.17.28-.26.43-.28Zm2.89-11.48c-.15.29-.77.31-.76-.04.17.07.25,0,.25-.17.16.2.16.22.51.21Zm1.67-11.99l.19.02c-.21.17-.35.43-.63.52.1-.24.34-.3.43-.54Zm-.72,6.55c.13.23-.28.43-.43.56-.16-.28.34-.35.43-.56Zm-.4-.45c0,.18-.36.6-.7.59.11-.28.42-.3.5-.61.05.05.16.13.2.02Zm.68-5.48c.01.21-.19.15-.22.3-.09-.02,0-.2-.11-.21.02-.14.17-.12.33-.09Zm-.5.54c-.08.15-.19.26-.42.2.06-.18.27-.15.42-.2Zm-.78,4.94l-.02.13c-.05-.06-.14-.09-.25-.1.03-.3-.06-.51.28-.5-.15.2-.21.34,0,.47Zm.55-5.17c-.21.03-.19-.13-.31-.17-.18.07.22.18.08.4-.18.11-.3-.18-.52-.07.04-.34.37-.32.53-.51.1.1.24.17.22.36Zm-.33.54l.13.02c0,.21-.22.12-.18.37-.15,0-.25-.04-.32-.11.16-.17.37-.05.37-.28Zm-.83,4.75c.32.31-.45.3-.63.44.08-.32.54-.13.63-.44Zm-1.03,1.72c-.07.12-.21.15-.37.14.03-.21.29-.26.37-.14Zm0-1.01c.29.39-.51.51-.7.76-.04-.31.59-.4.7-.76Zm-1.07,2.54c-.08.11-.17.21-.37.15.06-.16.29-.27.37-.15Zm-.17-.5c-.26.19-.58.69-.87.54.14-.29.55-.18.55-.66.2-.02.15.12.32.12Zm-.72.16c-.21-.11-.08-.15-.38-.13.14-.36.5.13.6-.24.26.13-.09.3-.22.37Zm-.66.5c-.09.13-.22.2-.45.12,0-.28.35-.26.45-.12Zm.7-4.75c-.12.1-.17.3-.44.19.07-.18.28-.14.44-.19Zm-.21-.3c.16.13-.09.35-.26.29-.04-.27.22-.12.26-.29Zm-.17,1.24c-.01.17-.13.2-.3.15-.08-.06.04-.25-.08-.28.17-.2.21.15.38.13Zm-.02-.61c-.09.28-.45.18-.71.21.02-.16.05-.32.19-.3-.06-.19-.29-.21-.35-.26.24-.43.45.37.87.35Zm-1.6,5.95c.16.11-.08.35-.27.23,0-.22.21-.1.27-.23Zm.83-5.48c-.01.17-.13.2-.3.15.01-.17.13-.2.3-.15Zm-1.24,5.14l-.34-.06c0,.11.2.09.07.29-.22-.22-.34-.14-.52.11-.1-.15-.13.02-.33-.06l.07-.26c.2.26.35-.13.59-.1-.08-.25.33-.43.55-.52-.3.26-.02.24-.08.6Zm-.87.39c.08.04.08.13.17.17-.03.26-.65.41-.57.03.39.2.11-.05.4-.2Zm-.45.4c0,.15-.15.07-.18.17-.21-.06-.52-.07-.4-.35.28.22.27.01.59.18Zm-.65,1.18c-.04.21-.23.19-.4.2.06-.18.19-.26.4-.2Zm-7.12,17.4c-.06-.11-.3-.17-.36,0-.16-.18.22-.29.37-.27.03.07.03.16-.01.28Zm4.56-16.43c.23.32-.6.43-.5.04.24-.11.38.17.5-.04Zm-5.73,16.67c.06.16.21.27.12.51-.2-.04-.2-.47-.46-.17-.09-.36.47-.47.76-.53.13.23-.17.3-.43.18Zm-.63.35c-.07.15-.26.1-.36.2-.28-.11.24-.47.36-.2Zm4.39-20.48c-.08.18-.21.27-.41.26.08-.17.16-.35.41-.26Zm-.64.08c.13.27-.36.34-.53.45.57.47-.75.3-.91.57-.14-.06.04-.35.1-.39.15,0,.16.08.25.12.1-.3-.46-.18-.36-.48.14.07.44.09.46.37.13-.09.03-.45.33-.21-.03-.26.47-.51.66-.42Zm-.46-.09c-.2.13-.4.29-.69.28.12-.26.41-.26.69-.28Zm-7.61,22.11c-.12-.32.51-.2.65-.41.11.34-.45.28-.65.41Zm6.52-21.37c-.2-.15-.32-.14-.45.11-.08-.04-.01-.17,0-.27.2-.02.44-.14.45.16Zm-1.2,1.04c-.03-.26.22-.09.22-.29.22.09-.05.31-.22.29Zm.35-1.29c-.02.06-.09.03-.15.04-.08,0-.09.11-.12.18-.11-.04-.12-.14-.06-.29l.33.07Zm-6.81,22.2c-.07.12-.23.07-.25.3-.15,0-.16-.09-.25-.13.07-.22.28-.21.49-.17Zm5.53-20.36c-.17.22-.42.31-.63.48-.28-.07-.33-.33-.09-.43.08.04.07.14.16.17,0-.05.21-.18.14-.24.08-.04.2.03.42.02Zm-6.56,21.04l-.09.26c-.28,0-.15-.37.09-.26Zm5.19-20.17c-.09.14-.2.25-.4.19.05-.21.19-.26.35-.27-.03.05,0,.07.05.08Zm-7.19,21.1c-.01.19-.18.1-.23.22-.08-.06-.13-.14-.13-.24-.16-.02-.22.14-.07.19-.14.18-.15-.12-.25-.13.05-.16.18-.17.25-.29.29,0,.13.24.43.25Zm5.81-20.17c-.09-.16-.3-.1-.46-.1.03-.12.12-.12.14-.25-.13.08-.31.05-.4.19-.07-.22.42-.31.56-.5.09.2.15.41.16.66Zm-6.85,20.61c-.17-.03-.17-.15-.29-.21.15-.24.34.04.29.21Zm6.22-20.13s-.1.09-.12.18c-.17-.13-.29-.3-.18-.59.3.02.12.32.3.41Zm-6.47,20.21c-.04.18-.17.19-.34.13.04-.18.17-.19.34-.13Zm5.72-20.51c.03-.07.02-.12-.03-.14.18-.1.27-.06.53-.16-.16.24-.42.31-.67.4,0-.12.09-.11.17-.1Zm.05.08c.2.03.16.19.36.22-.18.24-.4.42-.74.39-.04-.06.01-.19-.08-.22.12-.18.33-.21.46-.38Zm-6.75,20.54c.22.1-.22.19.18.33-.1.13-.31.08-.38.25,0-.15-.19-.21-.43-.25.17-.18.51-.07.63-.33Zm6.18-20.25l-.06.19c-.09-.02-.19-.03-.18-.11-.08,0-.09.11-.12.18-.18-.02-.33-.05-.21-.25.05.02.05.08.11.09.04-.11-.04-.16,0-.28.18.16.11.13.44.17Zm-1.12.99c.15-.08.22-.27.42-.25.13.24-.16.37-.42.25Zm-.69.18c-.06-.02-.03-.09-.03-.14-.13.03-.16.24-.39.11.08-.16.26-.14.41-.18.02.06.04.12,0,.21Zm-.45.3c-.06.23-.29.16-.38.32-.14-.18.2-.36.38-.32Zm-.16.51c-.05.08-.15.07-.19.16-.11-.04-.12-.15-.05-.29.07.03.12.01.15-.03.07.03,0,.14.09.16Zm-.32.13c-.17.22-.39.37-.73.3.28-.05.4-.36.73-.3Zm-.44-.18c-.18.16-.43.35-.67.11.12-.21.38-.19.67-.11Zm-.88,1.24c-.08.29-.31.32-.58.27.07-.13,0-.18.01-.27.07.11.33.11.57,0Zm-3.29.78c.13.08-.08.38-.23.29-.04-.17.25-.2.08-.26.05-.09.1.09.15-.03Zm-17.97,8.99l-.07.19c-.19.06-.38.12-.66.01.04-.21.19-.22.27-.34.21.18.16.17.45.14Zm-1.52.38c.23.34-.2.1-.3.4-.15-.2.24-.25.3-.4Zm-12.17,20.85c-.21.11-.15.1-.23.35-.65-.23.34-.39-.23-.51.16-.22.37.05.46.15Zm-.02-.29c.26-.08.39.29.66.22-.08.15.08.2.09.32-.2.15-.23-.2-.34-.26-.08-.02-.11.1-.15.17-.27-.07-.24-.27-.25-.45Zm7.36-18.2c-.21-.13-.39,0-.45-.14.13-.08.23-.21.42-.15-.05.13.14.14.03.29Zm-8.05,18.9c-.05.23-.29.02-.37.16-.02-.16-.17-.26-.1-.46.23.18.24.14.47.3Zm7.54-18.71c-.14.21-.21-.1-.4.09-.19-.25.39-.2.4-.09Zm-8.15,18.72c-.09.05-.17,0-.26-.09.05-.14.14-.18.28-.12-.04.09-.09.17-.02.21Zm-5.5-14.17c-.12.17-.41-.03-.51.18-.11-.21.28-.34.51-.18Zm-.62.07c-.17.23-.44.23-.66.34.13-.32.36-.41.66-.34Zm-.73.17l-.08.19-.26-.09c.09-.07.15-.22.34-.09Zm-11.18,12.92c.07.04,0,.13-.03.21-.42-.06-.74.07-1.01.04-.2-.09-.36-.19-.26-.39.42,0,.98.01,1.3.14Zm-1.57.41c-.3.15-.67.11-1,.19-.07-.07-.05-.18,0-.29.35.06.66.04,1.01.11Zm4.4-10.67c-.14.16-.55.12-.65-.04.2-.02.38-.12.65.04Zm-5.66,10.76l-.12.24c-.33-.29-.71-.25-1.2-.33.47-.36,1.01.1,1.32.08Zm1.55-10.41c-.09.26-.34.13-.52.16.25-.33-.21-.38-.06-.67.08-.03.17-.01.28.04-.19.34,0,.6.3.48Zm-5.9,11.81c-.04.22-.2.15-.28.25-.03-.12-.23-.18-.13-.35.17.12.26.03.41.09Zm.08-3.98c0-.33-.19-.22-.44-.18.02-.07.07-.1.12-.1.02-.11-.17-.13,0-.29.1.07.3.34.41.24.05.11.03.29-.09.33Zm.69-5.32c-.04.22-.25,0-.3.17-.13-.14.15-.33.3-.17Zm-.85.53c-.18.23-.45.18-.74.13.17-.23.5-.06.74-.13Zm-1.26.42c-.06.22-.21.18-.37.14.08-.15.2-.2.37-.14Zm-.45-.62c-.02.18-.5.15-.34-.07.07.13.11.12.18-.07.04.05.07.1.16.14Zm-7.37,4.51c-.13.05-.41.03-.46-.13.09-.17.42.01.46.13Z"/>
    <path class="cls-2" d="m529.49,306.18c.1.03-.06.11.06.13-.66,0-.78.58-1.28.74.18-.4.51-.65.83-.89.08.02.05.12.06.19.1-.07.26-.06.32-.17Z"/>
    <path class="cls-2" d="m551.47,279.96c.2.13.11.43.21.63-.12-.18-.28-.34-.21-.63Z"/>
    <path class="cls-2" d="m553.42,291.59c.07-.17.15-.14.22-.21.05.11-.07.22-.12.34.06.01.12.03.19.12-.17.17-.19-.08-.29-.25Z"/>
    <path class="cls-2" d="m545.11,285.01c-.02-.2.14.26.37.15-.07.12-.19.11-.28.17-.21-.13.13-.18-.08-.32Z"/>
    <path class="cls-2" d="m548.79,287.2c.06-.15.15-.17.27-.07-.12.03-.13.17-.07.3-.09.14-.12-.18-.2-.23Z"/>
    <path class="cls-2" d="m547.57,286.9c-.08,0-.13.11-.23.02.06-.16.12-.23.21-.27.11.07-.05.23.08.29-.05.06-.07,0-.06-.04Z"/>
    <path class="cls-2" d="m554.67,294.81c.18.26-.14.16-.22.25-.13.18.14.04.15.28-.32.34-.31.69-.25,1.07-.1.05-.19.05-.3.1.19-.27.33-.89.25-1.39.23-.13.21-.32.37-.31Z"/>
    <path class="cls-2" d="m546.36,286.75c.13.57.25.94.12,1.54-.1-.05-.09-.19-.17-.11-.13-.18.04-.13.05-.35-.22.09-.21-.67-.35-.44-.19-.07.15-.48.34-.64Z"/>
    <path class="cls-2" d="m555.54,298.64c.13.24-.1,1.04-.32,1.45.1-.48.21-.97.32-1.45Z"/>
    <path class="cls-2" d="m537.12,285.45c.14-.09,0-.13.12-.31.19.11.05.2.05.31-.05.08-.06-.02-.17,0Z"/>
    <path class="cls-2" d="m546.68,287.95c0,.18.15.33,0,.54-.25-.12,0-.36,0-.54Z"/>
    <path class="cls-2" d="m553.33,297.33c.12-.16.15.06.24-.02.05.16-.1.29-.15.44-.16.09.13-.27-.09-.41Z"/>
    <path class="cls-2" d="m540.94,287.24s-.09.02-.14.02c-.09.11.04.13-.1.25-.1-.1-.25-.19-.07-.4.15.08.06.17.32.14Z"/>
    <path class="cls-2" d="m544.51,290.72c-.11.22.11.18.12.41-.21.11-.21.09-.36.18.11-.18.07-.52.24-.59Z"/>
    <path class="cls-2" d="m551.63,304.4c-.11-.17-.21.27-.36.12-.06-.19.25-.21.14-.42.15.13.38-.15.51.22-.16.12-.28.25-.3.43-.17.07.04-.25,0-.35Z"/>
    <path class="cls-2" d="m551.3,305.49c0,.32-.46.42-.33.81-.25.1-.02-.21-.18-.16.18-.21.28-.46.51-.65Z"/>
    <path class="cls-2" d="m550.46,306.53c-.01-.14-.11-.12-.12-.27.28-.25.41-.58.46-.94.32.23-.24.61-.07,1-.31.07-.28.32-.22.59-.24.29-.34.23-.62.44.02-.13.08-.24.1-.37.15-.11.12.1.23.06.06-.04.06-.11.13-.14-.05-.11-.23.04-.19-.24.09-.14.17-.17.28-.13Z"/>
    <path class="cls-2" d="m536.77,290.88c.06-.02.07,0,.05.02.06.03.13.05.19.03.05.03-.07.07-.13.11-.08-.05-.06-.1-.11-.16Z"/>
    <path class="cls-2" d="m538.03,293.17c.13-.03.32.42.02.5-.03-.05.17-.19-.06-.18-.08-.13.27-.17.04-.32Z"/>
    <path class="cls-2" d="m538.44,294.76c.04.15.35.31.06.42-.34-.15.05-.35-.35-.44.13-.11.15.13.29.02Z"/>
    <path class="cls-2" d="m541.04,304.97c.21.02-.05.19-.03.27-.11.03-.19-.08-.2.04-.06.02-.07-.01-.08-.05l-.02-.13c.02.08.42.01.2-.04,0-.11.13.04.12-.09Z"/>
    <path class="cls-2" d="m537.39,298.47c.15.08-.04.34-.04.49.26.1.28.47.31.62-.22-.14-.4-.37-.59-.57.41.21.05-.25.18-.45.11.05.16.03.15-.09Z"/>
    <path class="cls-2" d="m537.55,300.02c.13.15-.15.44-.19.64-.21.01.08-.28-.15-.29.09-.03.36-.13.34-.36Z"/>
    <path class="cls-2" d="m537.13,299.3c.17-.07.14.1.04.11.03.1.09.14.18.15,0,.08-.08.11-.07.19-.03-.1-.26-.31-.18.03-.09,0-.1-.14-.13-.22.15-.03.21-.12.16-.26Z"/>
    <path class="cls-2" d="m536.26,301.12c0-.08.08-.11.07-.19.17-.07.16.15.33.08-.08.1-.18.04-.4.11Z"/>
    <path class="cls-2" d="m533.59,301.32c.14.09.07,0,.24-.01,0,.19.22.06.19.29h-.18c-.05-.13-.12-.26-.19-.04-.16,0,.06-.11-.05-.24Z"/>
    <path class="cls-2" d="m534.1,305.79c.03-.13.1.07,0,.06.05.08.14.12.26.12-.05.15-.42.07-.39-.11.07,0,.11-.02.12-.07Z"/>
    <path class="cls-2" d="m534.3,313.72c-.02.08-.07.04-.07,0-.21-.01-.06.38-.36.27-.03-.28.21-.27.31-.4.07.02.04.13.13.14Z"/>
    <path class="cls-2" d="m530.52,304.4c-.02-.25.1-.37.28-.43.05.32-.14.4-.14.68-.3-.16-.37.17-.61.23.04-.02.25-.64.47-.48Z"/>
    <path class="cls-2" d="m530.37,305.02c-.13.19-.45.19-.47.49-.39-.34-.38.57-.8.59-.05-.05-.04-.18-.13-.2.16-.1.48-.05.37-.42.31-.06.4-.35.58-.54.09.02.06.16.08.26.15-.03.12-.24.36-.18Z"/>
    <path class="cls-2" d="m529.93,303.94c.31.38-.38,1.05-.67,1.03.25-.3.79-.56.67-1.03Z"/>
    <path class="cls-2" d="m528.02,306.53c-.09.16-.2.29-.32.42-.12-.14.18-.36.32-.42Z"/>
    <path class="cls-2" d="m526.39,308.24c-.1.32-.61.76-.97.99-.02-.32.31-.21.17-.5.24.24.24-.27.53-.2.05-.2-.31-.17-.11-.33.09.24.23.2.38.04Z"/>
    <path class="cls-2" d="m526.16,307.84c.16.19-.27.28-.35.41-.18-.07.09-.15.02-.32.24.05.24.12.33-.09Z"/>
    <path class="cls-2" d="m525.35,309.29c-.15.31-.37.54-.63.71-.24-.54.35-.6.63-.71Z"/>
    <path class="cls-2" d="m521.71,312.6c-.08.12-.22.15-.43.27l.03-.2c.23.11.2-.13.4-.07Z"/>
    <path class="cls-2" d="m519.15,313.56l.39.07c-.16.19-.37-.11-.5.18-.15-.04.11-.16.11-.25Z"/>
    <path class="cls-2" d="m517.03,315.25c.17.41-.37-.04-.32.48-.05-.04-.09-.09-.19-.1.06-.29.35-.24.51-.38Z"/>
    <path class="cls-2" d="m513.05,317.62c.08-.12.09.09-.02.06-.01.14.14.16.22.25-.13.1-.38,0-.41.26-.41-.28-.48.11-.74.2-.23.04,0-.22-.23-.18.3-.04.43-.36.77-.33.04-.12-.05-.15,0-.27.08.13.3.09.41.01Z"/>
    <path class="cls-2" d="m506.37,321.94c-.12.31-.58.05-.67.4-.08-.04,0-.17,0-.27.33.13.34-.26.67-.13Z"/>
    <path class="cls-2" d="m501.8,324.29c.09.15-.44.48-.52.37.17-.13.4-.15.52-.37Z"/>
    <path class="cls-2" d="m498,327.52c-.12-.07-.17-.19-.27-.27.08-.12.23-.13.39-.11,0,.18-.17.09-.26.15-.03.13.32-.07.14.24Z"/>
    <path class="cls-2" d="m480.67,335.26c.14.21-.29.22-.35.39-.06,0-.05-.04-.04-.08l.05-.13c.18.06.23-.13.35-.18Z"/>
    <path class="cls-2" d="m471.61,357.59c-.25.15-.54.2-.77.4-.22-.2-.52.07-.76.19-.05-.03-.04-.08-.1-.1.03-.05,0-.07-.04-.08.59-.05,1.06-.37,1.67-.4Z"/>
    <path class="cls-2" d="m453.55,344.83c-.29-.01-.04-.25-.33-.26.03-.04.09-.04.12-.1l.13.05c-.2.2.28.12.08.32Z"/>
    <path class="cls-2" d="m451.6,345.89c-.15.35-.11-.34-.32-.12-.15-.12.14-.24.27-.11-.08.12-.07.2.05.23Z"/>
  </g>
  <g>
    <path class="cls-1" d="m427.86,500.75c.54-.76.64-1.64.74-2.52,1.18-10.38,4.19-20.24,8.46-29.74,6.01-13.39,14.18-25.39,23.49-36.68,7.64-9.26,16.05-17.79,24.8-25.97,9.9-9.26,20.4-17.78,32.29-24.44,7.54-4.22,15.43-7.5,24.05-8.71,3.67-.51,7.35-.69,11.01.15,5.64,1.29,9.19,4.76,10.85,10.27,1.78,5.93,1.13,11.69-1.04,17.38-2.75,7.21-7,13.51-11.84,19.42-9.09,11.1-19.79,20.53-30.97,29.44-16.79,13.39-34.63,25.27-52.83,36.64-2.26,1.41-4.53,2.79-6.8,4.19-.76.47-1.58.93-1.58,1.98,0,4.06-.4,8.14.37,12.17,1.72,8.99,7.71,13.9,16.86,15.02,9.95,1.22,19.59-.52,29.08-3.35,11.14-3.32,21.34-8.64,31.26-14.61,20.22-12.18,39.78-25.35,58.61-39.59,11.56-8.75,22.82-17.86,33.78-27.35,4.75-4.11,9.6-8.11,14.44-12.12.92-.77,1.71-1.61,2.37-2.6,10.24-15.5,21.26-30.42,33.03-44.79,6.04-7.38,12.28-14.59,18.7-21.65,7.82-8.59,15.89-16.93,24.29-24.94,9.52-9.09,19.37-17.82,30.19-25.38,5.96-4.16,12.15-7.91,18.97-10.49,4.03-1.53,8.17-2.62,12.53-2.51.74.02,1.48.08,2.21.18,5.69.83,8.66,4.39,8.12,10.89-.53,6.4-3.25,12.09-6.41,17.57-4.97,8.63-11.17,16.35-17.66,23.85-7.7,8.89-15.83,17.39-24.31,25.53-7.78,7.48-15.63,14.88-23.62,22.14-7.94,7.2-15.97,14.3-24.15,21.23-9.14,7.74-18.43,15.3-27.92,22.61-8.26,6.37-16.61,12.61-25.16,18.58-.8.56-1.47,1.2-1.92,2.09-4.24,8.31-8.19,16.73-10.96,25.67-1.72,5.55-2.75,11.19-2.33,17.04.14,1.94.51,3.82,1.32,5.58,1.3,2.79,3.48,4.32,6.6,4.44,4.18.17,8.03-1.07,11.77-2.75,3.17-1.43,6.28-3.01,9.15-4.97,6.6-4.5,13.56-8.44,20.19-12.89,10.32-6.92,20.34-14.27,29.92-22.19,6.27-5.18,12.47-10.44,18.72-15.64.94-.79,1.5-1.82,2.11-2.82,5.24-8.67,10.65-17.23,16.66-25.4,2.85-3.88,5.86-7.63,9.21-11.07,2.37-2.43,4.92-4.69,8.04-6.2,2.62-1.27,5.25-1.39,7.97-.49,2.99.99,4.47,3.42,3.98,6.55-.24,1.56-.91,2.96-1.61,4.35-2.15,4.23-4.86,8.11-7.58,11.99-5.74,8.18-12.2,15.8-18.11,23.84-4.52,6.15-8.75,12.47-11.98,19.41-1.25,2.7-2.17,5.48-2.66,8.43-.27,1.66-.12,3.25.26,4.83.44,1.83,1.57,2.76,3.44,2.92,1.35.12,2.64-.12,3.9-.62,3.52-1.4,6.8-3.26,10.02-5.21,10.32-6.24,20.2-13.16,30.06-20.07,13.02-9.12,25.77-18.63,38.23-28.5,1.35-1.07,2.49-2.27,3.44-3.71,12.55-19.03,26.11-37.32,40.58-54.93,7.56-9.19,15.35-18.19,23.06-27.26,7.22-8.51,14.45-17.02,21.7-25.5,6.58-7.7,13.19-15.37,19.78-23.06,8.18-9.54,16.3-19.14,23.8-29.23,1.85-2.49,3.58-5.08,5.11-7.78.21-.38.55-.78.32-1.23-.3-.59-.91-.37-1.39-.32-10.44,1.05-20.88,2.06-31.31,3.27-11.67,1.35-23.33,2.84-34.94,4.65-10.01,1.56-19.97,3.36-29.86,5.56-4.54,1.01-9.1,2.02-13.69,2.79-4.27.72-5.07,2.75-5.69,5.77-.15.72-.14,1.47-.18,2.21-.16,2.74-1.03,3.84-3.71,4.47-3.28.78-6.63.63-9.93.25-6.12-.71-12.05-2.28-17.87-4.29-2.4-.83-4.63-1.96-6.66-3.48-1.95-1.46-3.42-3.3-3.88-5.75-.63-3.4.6-6.11,3.35-8.12,2.82-2.06,6.11-2.96,9.48-3.53,18.21-3.11,36.42-6.26,54.66-9.22,18.02-2.92,36.07-5.61,54.2-7.82,8.73-1.06,17.49-1.87,26.25-2.62,9.35-.8,18.69-1.75,28.04-2.46,7.88-.6,15.76-1.25,23.67-1.56,9.9-.39,19.8-.61,29.69-.91,7.61-.23,15.23-.19,22.84-.39,11.15-.29,22.3-.8,33.46-.88.59,0,1.19-.02,1.72-.33h59.9c1.04.52,2.17.31,3.26.36,5.51.25,11.01.59,16.41,1.8,4.8,1.07,8.57,3.45,10.06,8.49v6.21c-1.18,1.77-2.95,2.65-4.93,3.16-2.15.56-4.35.88-6.58.9-6.07.05-12.11-.45-18.16-.77-3.47-.18-6.94-.3-10.41-.49-7.82-.44-15.65-.7-23.47-1.06-9-.42-18.02-.75-27.01-1.34-11.23-.74-22.47-.3-33.7-.27-6.43.02-12.86.21-19.28.46-9.89.38-19.79.8-29.67,1.34-8.93.49-17.84,1.16-26.76,1.76-.81.05-1.61.19-2.42.29-1.89.23-1.95.3-1.49,2.22.57,2.37,1.04,4.78,1.8,7.09.8,2.41.27,4.49-.9,6.56-1.68,2.97-3.65,5.74-5.69,8.46-5.67,7.59-11.75,14.84-17.97,21.97-10.99,12.58-22.16,25-33.08,37.65-17.58,20.38-34.51,41.3-50.95,62.61-8.72,11.3-17.38,22.64-25.21,34.59-6.86,10.47-13.18,21.24-17.76,32.93-2.27,5.81-4.01,11.76-4.13,18.07-.04,2.14,0,4.29.76,6.34.98,2.59,2.63,3.69,5.4,3.8,2.37.09,4.49-.75,6.6-1.68,6.11-2.7,11.78-6.18,17.35-9.82,24.01-15.72,47.61-32.02,70.41-49.46,6.81-5.21,13.48-10.6,20.24-15.89,1.58-1.24,2.84-2.79,4.24-4.21,11.71-11.85,23.91-23.14,38.01-32.17,7.64-4.89,15.66-8.94,24.51-11.17,4.34-1.09,8.74-1.47,13.2-1.26,7.08.34,12.06,4.42,13.92,11.27,1.8,6.63.55,12.89-2.15,18.99-3.26,7.39-7.95,13.83-13.22,19.87-11.16,12.76-24.16,23.46-37.67,33.6-14.5,10.88-29.63,20.84-45.03,30.4-1.82,1.13-3.64,2.27-5.48,3.37-.82.49-1.4,1.07-1.38,2.09.05,3.91-.25,7.83.5,11.72,1.54,8,6.37,12.76,14.21,14.61,2.03.48,4.09.57,6.16.65,12.6.47,24.47-2.58,35.98-7.41,9.79-4.11,18.83-9.6,27.82-15.16,17.88-11.04,35.18-22.94,51.92-35.63,11.9-9.03,23.44-18.51,34.76-28.24,4.82-4.14,9.72-8.2,14.59-12.28,1.94-1.63,4.03-3.01,6.48-3.76.92-.28,1.84-.53,2.82-.57,3.57-.16,5.58,2,5.18,5.53-.14,1.18-1.02,1.76-1.8,2.41-3.24,2.69-6.5,5.36-9.77,8.02-18.93,15.4-38.08,30.52-57.74,44.98-17.64,12.97-35.53,25.57-54.42,36.68-14.01,8.24-28.65,15.08-44.32,19.56-8.62,2.47-17.39,4.05-26.37,4.64-5.58.37-11.08.28-16.52-1-7.53-1.77-13.4-5.78-16.75-12.94-1.94-4.14-2.8-8.56-2.96-13.11-.5-14.78,2.92-28.74,8.82-42.18,2.26-5.15,4.9-10.11,7.81-14.92.3-.49.73-.94.68-1.74-.87.09-1.42.72-2.02,1.17-21.83,16.12-44.08,31.66-66.82,46.48-8.3,5.41-16.74,10.6-25.69,14.91-2.47,1.19-4.96,2.31-7.55,3.19-4.2,1.43-8.44,1.37-12.66.17-6.56-1.87-10.09-6.44-10.42-13.25-.3-6.21.85-12.22,2.54-18.15,2.92-10.23,7.45-19.77,12.46-29.1,1.43-2.67,2.98-5.28,4.46-7.92.24-.43.67-.81.46-1.5-.75.14-1.27.68-1.83,1.1-17.5,13.03-35.37,25.53-53.66,37.43-7.13,4.64-14.37,9.1-22.2,12.51-3.6,1.57-7.25,2.35-11.22,1.56-6.23-1.23-9.92-4.95-9.27-12.59.49-5.75,2.73-11.02,5.01-16.25.56-1.28,1.13-2.54,1.71-3.86-.79-.24-1.04.34-1.4.62-11.41,8.94-22.76,17.96-34.84,25.99-7.94,5.28-15.44,11.21-23.81,15.84-7.95,4.4-16.19,7.94-25.32,9.04-2.97.35-5.92.3-8.82-.39-6.07-1.45-9.64-5.46-11.25-11.34-1.26-4.57-1.25-9.23-.7-13.87,1.13-9.57,4.34-18.54,8.14-27.32,2.56-5.9,5.55-11.6,8.6-17.53-.72.05-1.03.47-1.38.75-23.71,18.67-47.8,36.81-73.05,53.36-10.58,6.93-21.36,13.53-32.76,19.06-13.02,6.31-26.47,11.42-40.74,14.13-7.72,1.47-15.5,2.27-23.37,1.98-3.79-.14-7.5-.77-11.09-2.01-7.92-2.75-12.96-8.22-15.3-16.26-.55-1.91-.5-3.98-1.57-5.74v-13.76Zm224.5-62.68c.92-.65,1.64-1.14,2.34-1.66,8.54-6.36,16.85-13,24.97-19.89,13.59-11.53,26.57-23.7,39.08-36.39,9.08-9.22,17.92-18.65,26.48-28.35,6.95-7.87,13.7-15.9,19.82-24.45,3.4-4.75,6.63-9.62,8.83-15.08.64-1.59,1.12-3.22,1.24-4.93.12-1.67-.66-2.48-2.3-2.59-.82-.05-1.62.08-2.42.24-3.41.65-6.4,2.28-9.32,4.03-7.02,4.2-13.13,9.57-19.08,15.12-8.33,7.77-16.12,16.07-23.69,24.57-9.78,10.98-19.24,22.25-28.29,33.85-13.34,17.09-25.76,34.82-36.97,53.38-.33.54-.87,1.02-.69,2.16Zm-190.96,35.54c1.04.06,1.58-.51,2.19-.88,7.32-4.48,14.46-9.22,21.39-14.27,15.33-11.19,29.6-23.56,41.99-38,3.18-3.71,6.16-7.57,8.39-11.95,1.35-2.65,1.9-5.41,1.54-8.37-.51-4.12-2.81-6.21-6.94-6.28-2.86-.04-5.56.65-8.21,1.65-4.68,1.78-8.83,4.47-12.76,7.51-8.17,6.31-15.35,13.63-21.99,21.5-10.62,12.58-18.52,26.68-23.68,42.31-.73,2.21-1.53,4.42-1.92,6.79Zm467.94.1c.2,0,.36.05.47,0,.46-.24.91-.49,1.35-.76,10.26-6.33,20.21-13.11,29.7-20.54,12.42-9.73,24-20.35,34.23-32.4,3.11-3.67,5.97-7.52,8.02-11.92,1.33-2.86,1.69-5.78.96-8.84-.7-2.94-2.76-4.73-5.78-4.93-1.7-.11-3.39,0-5.06.39-5.74,1.33-10.7,4.24-15.36,7.67-8.13,5.99-15.18,13.14-21.79,20.73-12.31,14.15-21.16,30.2-26.36,48.24-.22.76-.59,1.51-.39,2.36Z"/>
    <path class="cls-1" d="m438.5,643.19c-.33-.16-.66-.35-1-.46-3.4-1.13-5.32-3.63-6.27-6.94-1.27-4.43-1-8.77.96-12.98,2.36-5.07,5.98-9.13,10.11-12.78,7.37-6.49,15.64-11.66,24.2-16.37,20.89-11.47,42.5-21.44,64.61-30.31,6.59-2.64,13.26-5.07,19.91-7.55,3.52-1.31,6.51.29,7.54,3.92,1.13,3.98.04,7.27-3.05,9.96-3.47,3.02-7.56,4.97-11.83,6.4-14.2,4.76-26.72,12.56-38.84,21.09-9.37,6.6-18.47,13.57-27.18,21.03-5.17,4.43-10.16,9.04-14.52,14.3-4.31,5.2-9.56,9-16.2,10.67h-8.43Z"/>
    <path class="cls-1" d="m786.54,387.77c-7.07-.22-11.34-7.12-8.37-13.58,1.78-3.87,4.48-7.12,7.25-10.3,2.04-2.34,4.26-4.47,6.78-6.34,4.22-3.13,11.3-1.4,13.32,4.35,1.09,3.11,1.25,6.24-.23,9.28-2.87,5.89-6.99,10.76-12.32,14.57-1.9,1.36-4.03,2.16-6.43,2.02Z"/>
  </g>
</svg>