<svg width="241" height="55" viewBox="0 0 241 55" fill="none" xmlns="http://www.w3.org/2000/svg">
<path d="M226.088 0C228.113 0 229.754 1.64396 229.754 3.67152C229.754 4.93189 229.152 6.02786 228.332 6.68545C227.949 6.95944 227.73 7.34303 227.73 7.83622C227.73 8.11022 227.839 8.43901 228.003 8.65821C228.277 9.0418 228.441 9.53498 228.441 10.0282C228.441 11.2885 227.402 12.3297 226.143 12.3297C224.885 12.3297 223.845 11.2885 223.845 10.0282C223.845 9.53498 224.009 9.0418 224.283 8.65821C224.447 8.43901 224.556 8.16502 224.556 7.83622C224.556 7.34303 224.283 6.95944 223.954 6.68545C223.024 6.02786 222.422 4.93189 222.422 3.67152C222.422 1.64396 224.064 0 226.088 0Z" fill="white"/>
<path d="M211.315 10.6858C211.971 8.7678 214.051 7.67182 215.966 8.32941C217.17 8.713 217.99 9.64458 218.264 10.6858C218.428 11.1241 218.756 11.4529 219.194 11.6173C219.468 11.7269 219.796 11.7269 220.07 11.6173C220.507 11.4529 221 11.4529 221.492 11.6173C222.696 12.0009 223.353 13.2613 222.969 14.4669C222.586 15.6724 221.328 16.33 220.124 15.9464C219.632 15.782 219.249 15.4532 218.975 15.0697C218.811 14.8505 218.537 14.6861 218.264 14.5765C217.826 14.4669 217.334 14.5217 217.005 14.7957C216.075 15.508 214.871 15.7272 213.668 15.3436C211.753 14.6861 210.658 12.6037 211.315 10.6858Z" fill="white"/>
<path d="M216.13 22.9059C214.926 24.5498 215.309 26.8514 216.951 28.057C218.592 29.2625 220.89 28.8789 222.094 27.235C222.805 26.2486 222.969 24.9882 222.586 23.8923C222.477 23.4539 222.532 23.0155 222.805 22.6319C222.969 22.3579 223.243 22.1935 223.517 22.1387C223.954 21.9743 224.392 21.7003 224.666 21.3167C225.432 20.2755 225.158 18.8508 224.173 18.1384C223.134 17.3712 221.711 17.6452 221 18.6316C220.671 19.07 220.562 19.5084 220.562 20.0015C220.562 20.2755 220.453 20.6043 220.288 20.8235C220.015 21.2071 219.577 21.4263 219.139 21.4263C217.99 21.3715 216.841 21.8647 216.13 22.9059Z" fill="white"/>
<path d="M235.117 28.057C233.475 29.2625 231.177 28.8789 229.973 27.235C229.262 26.2486 229.098 24.9882 229.481 23.8375C229.59 23.4539 229.535 22.9607 229.262 22.5771C229.098 22.3579 228.824 22.1935 228.551 22.0839C228.113 21.9743 227.73 21.7003 227.402 21.2619C226.635 20.2755 226.854 18.8508 227.894 18.0836C228.879 17.3164 230.301 17.5356 231.068 18.5768C231.396 18.9604 231.505 19.4536 231.505 19.9467C231.505 20.2207 231.615 20.4947 231.779 20.7687C232.052 21.1523 232.49 21.3715 232.928 21.3715C234.077 21.3715 235.226 21.9195 235.937 22.9059C237.141 24.5498 236.758 26.8514 235.117 28.057Z" fill="white"/>
<path d="M238.4 15.3985C240.315 14.7409 241.409 12.6585 240.752 10.7406C240.096 8.8226 238.017 7.72663 236.101 8.38421C234.898 8.7678 234.077 9.69938 233.749 10.7954C233.584 11.2337 233.311 11.5625 232.818 11.7269C232.545 11.8365 232.217 11.8365 231.943 11.7269C231.505 11.5625 231.013 11.5625 230.52 11.7269C229.317 12.1105 228.66 13.4257 229.043 14.5765C229.426 15.782 230.739 16.4396 231.888 16.056C232.381 15.8916 232.764 15.5628 233.037 15.1793C233.201 14.9601 233.475 14.7409 233.749 14.6861C234.186 14.5217 234.679 14.6313 235.007 14.9053C235.992 15.5081 237.25 15.782 238.4 15.3985Z" fill="white"/>
<path fill-rule="evenodd" clip-rule="evenodd" d="M120.267 2.79473C105.931 2.79473 94.3311 14.4121 94.3311 28.7693C94.3311 43.1266 105.931 54.744 120.267 54.744C134.602 54.744 146.202 43.1266 146.202 28.7693C146.202 14.4121 134.602 2.79473 120.267 2.79473ZM120.267 10.9597C130.061 10.9597 138.05 18.9604 138.05 28.7693C138.05 38.5783 130.061 46.5789 120.267 46.5789C110.472 46.5789 102.484 38.5783 102.484 28.7693C102.484 18.9604 110.418 10.9597 120.267 10.9597Z" fill="white"/>
<path d="M59.6956 45.3186V3.89071H50.9957V53.4836H90.4463V45.3186H59.6956Z" fill="white"/>
<path d="M41.4751 3.89071V11.9461H8.59048V26.413H39.1223V34.4684H8.59048V53.4836H0V3.89071H41.4751Z" fill="white"/>
<path d="M195.94 33.9204C193.696 41.2635 186.911 46.5789 178.923 46.5789C169.128 46.5789 161.14 38.5783 161.14 28.7693C161.14 18.9604 169.074 10.9597 178.923 10.9597C186.966 10.9597 193.751 16.2752 195.94 23.6183L203.764 21.2619C200.536 10.5762 190.632 2.79473 178.923 2.79473C164.587 2.79473 152.987 14.4121 152.987 28.7693C152.987 43.1266 164.587 54.744 178.923 54.744C190.632 54.744 200.536 46.9625 203.764 36.2768L195.94 33.9204Z" fill="white"/>
</svg>
