<?xml version="1.0" encoding="UTF-8"?><svg xmlns="http://www.w3.org/2000/svg" xmlns:xlink="http://www.w3.org/1999/xlink" viewBox="0 0 894.22 209.16"><defs><style>.f{fill:#fff;}.g{fill:#2f1f45;}.h{fill:#2a2141;}.i{stroke-width:3.68px;}.i,.j{fill:none;stroke:#4ff;stroke-miterlimit:10;}.k{fill:url(#d);}.l{fill:url(#e);}.j{stroke-width:1.04px;}</style><linearGradient id="d" x1="-1702.16" y1="-12844.8" x2="-1522.23" y2="-12844.8" gradientTransform="translate(-12740.22 1764.09) rotate(90)" gradientUnits="userSpaceOnUse"><stop offset="0" stop-color="#2660de"/><stop offset="1" stop-color="#90ffff"/></linearGradient><linearGradient id="e" x1="6.94" y1="497.32" x2="186.21" y2="497.32" gradientTransform="translate(601.9 -39.96) rotate(90)" gradientUnits="userSpaceOnUse"><stop offset="0" stop-color="#e60065"/><stop offset="1" stop-color="#2660de"/></linearGradient></defs><g id="a"/><g id="b"><g id="c"><g><g><path class="f" d="M283.66,87.42V34.77h15.37v52.64h-15.37Z"/><path class="f" d="M332.22,88.23c-2.51,0-4.7-.34-6.58-1.02-1.88-.68-3.61-1.62-5.19-2.82l-.74,3.03h-13.32V32.32h15.37v17.74c1.31-.71,2.85-1.25,4.62-1.63,1.77-.38,3.56-.57,5.35-.57,5.78,0,10.31,1.54,13.61,4.62,3.3,3.08,4.95,8.16,4.95,15.24s-1.63,12.07-4.9,15.45c-3.27,3.38-7.66,5.07-13.16,5.07Zm-4.41-11.12c2.4,0,4.13-.72,5.19-2.17,1.06-1.44,1.59-3.8,1.59-7.07s-.56-5.64-1.68-6.95c-1.12-1.31-2.82-1.96-5.11-1.96-2.51,0-4.52,.68-6.05,2.04v13.73c1.69,1.58,3.71,2.37,6.05,2.37Z"/><path class="f" d="M358.29,87.42v-27.55h-5.64l1.31-11.2h19.7v38.75h-15.37Zm-1.23-43.9v-11.12h16.59v11.12h-16.59Z"/><path class="f" d="M379.38,87.42v-8.42l16.27-18.56h-15.69v-11.77h35.23v8.67l-15.78,18.31h16.35v11.77h-36.38Z"/><path class="f" d="M431.94,88.23c-2.45,0-4.73-.44-6.83-1.31-2.1-.87-3.77-2.23-5.03-4.09-1.25-1.85-1.88-4.2-1.88-7.03,0-4.09,1.36-7.26,4.09-9.52,2.72-2.26,6.84-3.39,12.34-3.39h10.05v-.74c0-1.53-.63-2.64-1.88-3.35-1.25-.71-3.46-1.06-6.62-1.06-4.47,0-8.88,.68-13.24,2.04v-9.24c1.96-.76,4.41-1.4,7.36-1.92,2.94-.52,5.94-.78,8.99-.78,6.16,0,11.04,1.25,14.63,3.76,3.6,2.51,5.4,6.49,5.4,11.94v23.87h-13.41l-.74-3.11c-1.36,1.2-3.12,2.15-5.27,2.86-2.15,.71-4.81,1.06-7.97,1.06Zm5.23-8.99c1.74,0,3.23-.3,4.45-.9,1.23-.6,2.25-1.33,3.07-2.21v-4.82h-7.44c-3.38,0-5.07,1.34-5.07,4s1.66,3.92,4.99,3.92Z"/><path class="f" d="M494.56,87.42V46.22h-14.79v-11.45h44.96v11.45h-14.8v41.2h-15.37Z"/><path class="f" d="M543.69,88.23c-7.74,0-13.45-1.72-17.12-5.15-3.68-3.43-5.52-8.45-5.52-15.04s1.85-11.54,5.56-15c3.71-3.46,9.4-5.19,17.08-5.19s13.47,1.73,17.21,5.19c3.73,3.46,5.6,8.46,5.6,15s-1.85,11.61-5.56,15.04c-3.71,3.43-9.46,5.15-17.25,5.15Zm0-11.2c2.51,0,4.32-.71,5.44-2.12,1.12-1.42,1.68-3.71,1.68-6.87s-.56-5.38-1.68-6.83c-1.12-1.44-2.93-2.17-5.44-2.17s-4.22,.72-5.31,2.17c-1.09,1.44-1.63,3.72-1.63,6.83s.54,5.45,1.63,6.87c1.09,1.42,2.86,2.12,5.31,2.12Z"/><path class="f" d="M572.21,87.42V32.32h15.37v27.22l10.79-10.87h17.41l-15.45,16.35,16.35,22.4h-16.35l-9.56-14.39-3.19,3.19v11.2h-15.37Z"/><path class="f" d="M638.02,88.23c-4.52,0-8.52-.75-11.98-2.25-3.46-1.5-6.16-3.75-8.09-6.74-1.93-3-2.9-6.7-2.9-11.12,0-6.16,1.74-11.08,5.23-14.75,3.49-3.68,8.69-5.52,15.61-5.52,6.32,0,11.27,1.61,14.84,4.82,3.57,3.22,5.35,7.6,5.35,13.16v6.78h-26.89c.71,2.07,2.1,3.54,4.17,4.41,2.07,.87,4.88,1.31,8.42,1.31,2.23,0,4.48-.21,6.74-.61,2.26-.41,4.07-.88,5.44-1.43v9.24c-3.82,1.8-9.13,2.7-15.94,2.7Zm-8.83-23.95h13.65v-1.39c0-1.53-.48-2.78-1.43-3.76-.95-.98-2.63-1.47-5.03-1.47-2.67,0-4.54,.56-5.6,1.68-1.06,1.12-1.59,2.77-1.59,4.95Z"/><path class="f" d="M661.81,87.42V48.67h14.39l.41,2.94c1.47-.98,3.42-1.85,5.84-2.62,2.42-.76,5.03-1.14,7.81-1.14,4.85,0,8.39,1.2,10.63,3.6,2.23,2.4,3.35,6.11,3.35,11.12v24.85h-15.37v-23.3c0-1.74-.38-3-1.14-3.76-.76-.76-2.1-1.14-4.01-1.14-1.14,0-2.33,.27-3.56,.82-1.23,.54-2.22,1.2-2.98,1.96v25.42h-15.37Z"/><path class="f" d="M283.99,163.43v-45.26h8.22l21.43,30.15v-30.15h9.49v45.26h-8.22l-21.43-30.15v30.15h-9.49Z"/><path class="f" d="M331.14,163.43v-45.26h31.83v7.38h-22.35v11.6h19.75v7.31h-19.75v18.97h-9.49Z"/><path class="f" d="M379.27,163.43v-37.95h-13.91v-7.31h37.24v7.31h-13.84v37.95h-9.49Z"/><path class="f" d="M423.26,163.43v-45.26h9.56l13.28,27.2,13.28-27.2h9.49v45.26h-9.49v-29.44l-10.54,21.64h-5.48l-10.61-21.64v29.44h-9.49Z"/><path class="f" d="M475.47,163.43l17.29-45.26h10.4l17.22,45.26h-9.84l-4.29-10.89h-16.65l-4.22,10.89h-9.91Zm15.53-18.2h13.84l-6.96-18.2-6.89,18.2Z"/><path class="f" d="M526.98,163.43v-45.26h21.71c5.2,0,9.02,1.37,11.45,4.11,2.44,2.74,3.65,6.43,3.65,11.07,0,3.04-.79,5.67-2.35,7.87-1.57,2.2-3.78,3.79-6.64,4.78,.75,.61,1.35,1.27,1.79,1.97,.44,.7,.9,1.64,1.37,2.81l5.48,12.65h-9.84l-5.34-12.16c-.47-1.03-.98-1.76-1.55-2.18-.56-.42-1.5-.63-2.81-.63h-7.45v14.97h-9.49Zm9.49-22.84h9.77c2.48,0,4.43-.55,5.83-1.65,1.41-1.1,2.11-2.96,2.11-5.59s-.61-4.38-1.83-5.55c-1.22-1.17-3.07-1.76-5.55-1.76h-10.33v14.55Z"/><path class="f" d="M570.41,163.43v-45.26h9.49v19.19l17.43-19.19h10.89l-16.37,18.34,17.22,26.91h-10.12l-13-20.87-6.04,6.54v14.34h-9.49Z"/><path class="f" d="M615.66,163.43v-45.26h32.46v7.38h-22.98v11.6h20.38v7.31h-20.38v11.67h22.98v7.31h-32.46Z"/><path class="f" d="M665.84,163.43v-37.95h-13.91v-7.31h37.24v7.31h-13.84v37.95h-9.49Z"/><path class="f" d="M694.37,163.43v-45.26h21.22c3.56,0,6.48,.68,8.75,2.04,2.27,1.36,3.97,3.21,5.09,5.55,1.12,2.34,1.69,5.01,1.69,8.01s-.64,5.74-1.93,8.08c-1.29,2.34-3.12,4.16-5.48,5.45-2.37,1.29-5.17,1.93-8.4,1.93h-11.45v14.2h-9.49Zm9.49-21.71h9.49c2.72,0,4.77-.71,6.15-2.14,1.38-1.43,2.07-3.36,2.07-5.8,0-2.62-.66-4.63-1.97-6.01-1.31-1.38-3.28-2.07-5.9-2.07h-9.84v16.02Z"/><path class="f" d="M736.39,163.43v-45.26h9.49v37.95h22.28v7.31h-31.76Z"/><path class="f" d="M771.95,163.43l17.29-45.26h10.4l17.22,45.26h-9.84l-4.29-10.89h-16.65l-4.22,10.89h-9.91Zm15.53-18.2h13.84l-6.96-18.2-6.89,18.2Z"/><path class="f" d="M841.66,164.13c-7.59,0-13.4-2.05-17.43-6.15-4.03-4.1-6.04-9.69-6.04-16.76,0-7.49,1.96-13.33,5.87-17.5,3.91-4.17,9.76-6.26,17.53-6.26,2.72,0,5.17,.2,7.34,.6,2.18,.4,4.23,.95,6.15,1.65v8.29c-3.98-1.64-8.25-2.46-12.79-2.46-5.15,0-8.85,1.29-11.1,3.87-2.25,2.58-3.37,6.51-3.37,11.8,0,9.93,4.87,14.9,14.62,14.9,2.2,0,4.38-.2,6.54-.6,2.15-.4,4.22-.99,6.18-1.79v8.36c-1.92,.61-3.97,1.1-6.15,1.48-2.18,.37-4.63,.56-7.34,.56Z"/><path class="f" d="M861.75,163.43v-45.26h32.46v7.38h-22.98v11.6h20.38v7.31h-20.38v11.67h22.98v7.31h-32.46Z"/></g><g><rect class="h" x="0" y="0" width="209.16" height="209.16" rx="11.28" ry="11.28" transform="translate(0 209.16) rotate(-90)"/><rect class="k" x="60.29" y="61.93" width="88.57" height="179.93" rx="6.81" ry="6.81" transform="translate(256.47 47.31) rotate(90)"/><rect class="l" x="62.31" y="-33.02" width="84.54" height="179.27" rx="6.64" ry="6.64" transform="translate(47.96 161.19) rotate(-90)"/><g><polygon class="g" points="171.39 139.36 169.02 131.37 164.76 127.91 143.79 109.15 142.68 106.16 136.06 101.74 131.18 83.62 114.63 70.38 108.01 69.43 104.07 73.85 98.39 69.43 91.46 69.43 79.48 75.11 77.75 81.89 74.91 81.89 72.7 89.45 72.7 92.13 65.77 104.74 62.78 106.16 48.28 119.08 47.33 129.48 43.55 130.74 37.77 139.36 171.39 139.36"/><polyline class="j" points="155.51 138.28 164.76 128.06 133.77 138.28"/><path class="j" d="M92.64,123.47c.71,2.48,5.45,14.82,5.45,14.82"/><line class="j" x1="65.77" y1="104.74" x2="56.11" y2="125.59"/><polyline class="j" points="76.65 82.02 80.58 106.71 71.71 122.05 69.94 138.28"/><path class="j" d="M133.77,123.47v14.82l-10.8-14.82-1.29-1.77s-4.93-15.96-5.29-17.05c-.37-1.09,2.85-19.12,2.85-19.12l-5.7-15.01"/><polyline class="j" points="80.58 106.71 101.86 99.71 117.02 104.4 134.97 101.88 133.77 123.47 121.68 121.34"/><polyline class="j" points="97.3 69.57 92.64 78.08 101.86 99.71 92.64 123.47 76.72 139.72"/><polyline class="j" points="47.18 119.21 56.11 125.59 61.07 139.72"/><polygon class="i" points="171.39 139.51 169.02 131.53 164.76 128.06 143.79 109.3 142.68 106.31 136.06 101.9 131.18 83.77 114.63 70.53 108.01 69.59 104.07 74 98.39 69.59 91.46 69.59 79.48 75.26 77.75 82.04 74.91 82.04 72.7 89.6 72.7 92.28 65.77 104.89 62.78 106.31 48.28 119.23 47.33 129.64 43.55 130.9 37.77 139.51 171.39 139.51"/></g></g></g></g></g></svg>