<svg xmlns="http://www.w3.org/2000/svg" xmlns:xlink="http://www.w3.org/1999/xlink" viewBox="0 0 1023.2 186.97"><defs><style>.cls-1{fill:#fff;}.cls-2{mask:url(#mask);filter:url(#luminosity-invert-noclip);}.cls-3{mask:url(#mask-2);}.cls-4{fill:url(#linear-gradient);}.cls-5{fill:url(#linear-gradient-2);}.cls-6{fill:url(#linear-gradient-3);}.cls-7{fill:url(#linear-gradient-4);}.cls-8{fill:url(#linear-gradient-5);}.cls-9{fill:url(#linear-gradient-6);}.cls-10{fill:url(#linear-gradient-7);}.cls-11{fill:url(#linear-gradient-8);}.cls-12{fill:url(#linear-gradient-9);}.cls-13{fill:url(#linear-gradient-10);}.cls-14{fill:url(#linear-gradient-11);}</style><mask id="mask" x="-20.69" y="17.7" width="230.3" height="156.42" maskUnits="userSpaceOnUse"><circle class="cls-1" cx="93.48" cy="93.48" r="75.79"/></mask><filter id="luminosity-invert-noclip" x="-20.69" y="17.7" width="230.3" height="156.42" filterUnits="userSpaceOnUse" color-interpolation-filters="sRGB"><feColorMatrix values="-1 0 0 0 1 0 -1 0 0 1 0 0 -1 0 1 0 0 0 1 0" result="invert"/><feFlood flood-color="#fff" result="bg"/><feBlend in="invert" in2="bg"/></filter><mask id="mask-2" x="-20.69" y="17.7" width="230.3" height="156.42" maskUnits="userSpaceOnUse"><g class="cls-2"><rect class="cls-1" x="122.6" y="20.97" width="28.61" height="120.68" transform="translate(-16.38 38.23) rotate(-15.01)"/><path class="cls-1" d="M95.42,116.73l3.51,13.13L27.34,149.05,8.15,77.46l71.59-19.2,3.52,13.13L110.89,64l-4-14.87a21.48,21.48,0,0,0-26.3-15.18L-4.78,56.82A21.48,21.48,0,0,0-20,83.12L.17,158.2a21.47,21.47,0,0,0,26.3,15.18l85.39-22.89A21.48,21.48,0,0,0,127,124.19l-4-14.87Z"/><rect class="cls-1" x="133.31" y="18.1" width="28.61" height="120.68" transform="translate(185.15 -84.46) rotate(74.99)"/></g></mask><linearGradient id="linear-gradient" x1="145.17" y1="41.8" x2="44.52" y2="142.45" gradientUnits="userSpaceOnUse"><stop offset="0" stop-color="#23a9e1"/><stop offset="1" stop-color="#114d82"/></linearGradient><linearGradient id="linear-gradient-2" x1="14.62" y1="172.35" x2="129.97" y2="57" gradientUnits="userSpaceOnUse"><stop offset="0" stop-color="#fff"/><stop offset="1" stop-color="#fff" stop-opacity="0"/></linearGradient><linearGradient id="linear-gradient-3" x1="30.25" y1="156.71" x2="157.29" y2="29.68" xlink:href="#linear-gradient"/><linearGradient id="linear-gradient-4" x1="261.82" y1="56.64" x2="261.82" y2="132.17" xlink:href="#linear-gradient"/><linearGradient id="linear-gradient-5" x1="595.83" y1="56.64" x2="595.83" y2="132.17" xlink:href="#linear-gradient"/><linearGradient id="linear-gradient-6" x1="708.1" y1="56.64" x2="708.1" y2="132.17" xlink:href="#linear-gradient"/><linearGradient id="linear-gradient-7" x1="897.3" y1="56.64" x2="897.3" y2="132.17" xlink:href="#linear-gradient"/><linearGradient id="linear-gradient-8" x1="970.75" y1="56.64" x2="970.75" y2="132.17" xlink:href="#linear-gradient"/><linearGradient id="linear-gradient-9" x1="369.62" y1="56.64" x2="369.62" y2="132.17" xlink:href="#linear-gradient"/><linearGradient id="linear-gradient-10" x1="483.69" y1="56.64" x2="483.69" y2="132.17" xlink:href="#linear-gradient"/><linearGradient id="linear-gradient-11" x1="822.25" y1="56.64" x2="822.25" y2="132.17" xlink:href="#linear-gradient"/></defs><g id="Livello_2" data-name="Livello 2"><g id="Layer_1" data-name="Layer 1"><g class="cls-3"><circle class="cls-4" cx="93.48" cy="93.48" r="75.79"/><path class="cls-5" d="M93.48,23.69A69.8,69.8,0,0,0,27.28,71.4a69.81,69.81,0,0,1,93.8,86.2A69.8,69.8,0,0,0,93.48,23.69Z"/></g><path class="cls-6" d="M93.48,0A93.49,93.49,0,1,0,187,93.48,93.48,93.48,0,0,0,93.48,0Zm0,174A80.56,80.56,0,1,1,174,93.48,80.56,80.56,0,0,1,93.48,174Z"/><path class="cls-7" d="M217.84,130.66V56.31h20.29V114.1H305.8v16.56Z"/><path class="cls-8" d="M624.07,56.31A24.19,24.19,0,0,1,641,62.66,19.79,19.79,0,0,1,648,78v4.77h-20.3V81.54a7.9,7.9,0,0,0-2.76-6.18,8.78,8.78,0,0,0-6.79-2.5H573.55a9.61,9.61,0,0,0-6.78,2.55A7.72,7.72,0,0,0,564,81.54v23.88a8.16,8.16,0,0,0,2.82,6.19,10.13,10.13,0,0,0,6.73,2.49H618.1a10.48,10.48,0,0,0,6.79-2.55,8.16,8.16,0,0,0,2.76-6.13v-1.14H648V109a19.82,19.82,0,0,1-7,15.36,24.19,24.19,0,0,1-16.93,6.35H567.58a24.33,24.33,0,0,1-16.93-6.35A20.09,20.09,0,0,1,543.7,109V78a20,20,0,0,1,7-15.36,24.23,24.23,0,0,1,16.87-6.35Z"/><path class="cls-9" d="M678.07,56.31V84.15h60.07V56.31h20.29v74.35H738.14v-30H678.07v30h-20.3V56.31Z"/><path class="cls-10" d="M907.45,56.31v74.35h-20.3V56.31Z"/><path class="cls-11" d="M938.6,56.31l64.25,52.2V56.31h20.35v74.35h-20.35L938.6,78.5v52.16H918.31V56.31Z"/><polygon class="cls-12" points="379.71 56.31 359.52 56.31 312.31 130.66 334.13 130.66 369.67 74.76 405.05 130.66 426.92 130.66 379.71 56.31"/><path class="cls-13" d="M530.68,99.18a22.13,22.13,0,0,0-8.68-7.6,20.66,20.66,0,0,0,5.37-6.67,18.89,18.89,0,0,0-4.56-22.63,22.8,22.8,0,0,0-15.9-6H433.44V72.1h66.91a7.93,7.93,0,0,1,5.59,2.12,6.92,6.92,0,0,1,0,10.25,7.89,7.89,0,0,1-5.59,2.12H433.44v13.84h72a7.62,7.62,0,0,1,5.53,2.06,6.69,6.69,0,0,1,2.33,5.16A6.11,6.11,0,0,1,511,112.8a7.93,7.93,0,0,1-5.59,2.12h-72v15.74h77.65a23,23,0,0,0,16.17-6,19.35,19.35,0,0,0,6.68-14.76A18.9,18.9,0,0,0,530.68,99.18Z"/><polygon class="cls-14" points="832.35 56.31 812.16 56.31 764.95 130.66 786.76 130.66 822.31 74.76 857.69 130.66 879.56 130.66 832.35 56.31"/></g></g></svg>