<svg xmlns="http://www.w3.org/2000/svg" viewBox="0 0 605.39 292.98"><defs><style>.cls-1{fill:#f03c61;}.cls-2,.cls-4{fill:#fff;}.cls-2{opacity:0.9;}.cls-3{fill:#179eaf;}.cls-5{fill:#f33861;}</style></defs><g id="Livello_2" data-name="Livello 2"><g id="Light"><rect class="cls-1" x="359.12" y="77.07" width="78.35" height="38.67"/><rect class="cls-2" x="371.33" y="61.81" width="83.44" height="38.67"/><rect class="cls-1" x="340.81" y="136.09" width="78.35" height="38.67"/><rect class="cls-2" x="354.04" y="121.84" width="83.44" height="38.67"/><rect class="cls-3" x="458.84" y="61.81" width="7.12" height="38.67"/><polygon class="cls-4" points="321.47 144.97 321.47 151.36 371.33 203.03 371.33 196.6 321.47 144.97"/><polygon class="cls-4" points="321.47 171.8 321.47 178.19 371.33 229.87 371.33 223.44 321.47 171.8"/><polygon class="cls-4" points="321.47 158.38 321.47 164.78 371.33 216.45 371.33 210.02 321.47 158.38"/><polygon class="cls-4" points="321.47 131.55 321.47 137.94 371.33 189.62 371.33 183.19 321.47 131.55"/><polygon class="cls-4" points="342.28 232.76 322.49 212.26 322.49 218.62 336.14 232.76 342.28 232.76"/><polygon class="cls-4" points="321.47 118.13 321.47 124.52 371.33 176.2 371.33 169.77 321.47 118.13"/><polygon class="cls-4" points="322.49 198.84 322.49 205.2 349.08 232.76 355.24 232.76 322.49 198.84"/><polygon class="cls-4" points="322.49 185.42 322.49 191.78 362.03 232.76 368.2 232.76 322.49 185.42"/><polygon class="cls-4" points="322.49 225.68 322.49 232.76 329.33 232.76 322.49 225.68"/><polygon class="cls-4" points="332.82 61.81 326.68 61.81 371.33 109.38 371.33 102.98 332.82 61.81"/><polygon class="cls-4" points="358.73 61.81 352.57 61.81 371.33 82.54 371.33 76.15 358.73 61.81"/><polygon class="cls-4" points="345.77 61.81 339.62 61.81 371.33 95.96 371.33 89.56 345.77 61.81"/><polygon class="cls-4" points="371.33 69.12 371.33 61.81 365.51 61.81 371.33 69.12"/><polygon class="cls-4" points="321.47 104.71 321.47 111.1 371.33 162.78 371.33 156.35 321.47 104.71"/><polygon class="cls-4" points="321.47 91.29 321.47 97.69 371.33 149.36 371.33 142.93 321.47 91.29"/><polygon class="cls-4" points="321.47 64.45 321.47 70.85 371.33 122.53 371.33 116.09 321.47 64.45"/><polygon class="cls-4" points="321.47 77.87 321.47 84.27 371.33 135.94 371.33 129.51 321.47 77.87"/><rect class="cls-1" x="546.37" y="82.16" width="38.67" height="38.67"/><rect class="cls-2" x="566.72" y="61.81" width="38.67" height="38.67"/><rect class="cls-3" x="572.82" y="105.56" width="32.56" height="7.12"/><polygon class="cls-4" points="517.86 198.44 517.86 204.82 544.82 232.76 550.99 232.76 517.86 198.44"/><polygon class="cls-4" points="517.86 185.03 517.86 191.4 557.76 232.76 563.95 232.76 517.86 185.03"/><polygon class="cls-4" points="517.86 171.41 517.86 177.82 567.72 229.49 567.72 223.04 517.86 171.41"/><polygon class="cls-4" points="517.86 144.57 517.86 150.98 567.72 202.66 567.72 196.21 517.86 144.57"/><polygon class="cls-4" points="517.86 157.99 517.86 164.4 567.72 216.08 567.72 209.63 517.86 157.99"/><polygon class="cls-4" points="494.02 100.48 500.16 100.48 478.18 77.7 478.18 84.05 494.02 100.48"/><polygon class="cls-4" points="517.86 131.15 517.86 137.56 567.72 189.24 567.72 182.79 517.86 131.15"/><polygon class="cls-4" points="538.03 232.76 517.86 211.86 517.86 218.24 531.87 232.76 538.03 232.76"/><polygon class="cls-4" points="506.97 100.48 513.12 100.48 478.18 64.28 478.18 70.63 506.97 100.48"/><polygon class="cls-4" points="481.08 100.48 487.21 100.48 478.18 91.12 478.18 97.47 481.08 100.48"/><polygon class="cls-4" points="566.7 68.75 566.7 61.81 560.01 61.81 566.7 68.75"/><polygon class="cls-4" points="540.28 61.81 534.12 61.81 566.7 95.58 566.7 89.17 540.28 61.81"/><polygon class="cls-4" points="517.86 117.73 517.86 124.14 567.72 175.82 567.72 169.37 517.86 117.73"/><polygon class="cls-4" points="527.33 61.81 521.17 61.81 566.7 109 566.7 102.59 527.33 61.81"/><polygon class="cls-4" points="517.86 225.28 517.86 232.76 525.08 232.76 517.86 225.28"/><polygon class="cls-4" points="553.24 61.81 547.06 61.81 566.7 82.17 566.7 75.75 553.24 61.81"/><polygon class="cls-4" points="517.86 104.32 517.86 110.73 567.72 162.4 567.72 155.95 517.86 104.32"/><polygon class="cls-4" points="488.46 61.81 482.33 61.81 566.7 149.26 566.7 142.84 488.46 61.81"/><polygon class="cls-4" points="514.37 61.81 508.22 61.81 566.7 122.42 566.7 116.01 514.37 61.81"/><polygon class="cls-4" points="501.42 61.81 495.28 61.81 566.7 135.84 566.7 129.43 501.42 61.81"/><polygon class="cls-5" points="271.68 256.97 271.68 271.68 11.19 271.68 11.19 11.19 271.68 11.19 271.69 41.03 282.89 41.03 282.88 0 0 0 0 282.88 282.88 282.88 282.88 256.97 271.68 256.97"/><polygon class="cls-4" points="281.99 256.97 281.79 281.79 22.32 281.79 22.32 22.32 281.79 22.32 281.8 41.03 292.99 41.08 292.98 10.11 11.12 10.11 11.12 292.98 292.98 292.98 292.99 256.97 281.99 256.97"/><path class="cls-4" d="M54.6,41.76c0,.66-.45,1-1.34,1H51.67c-.88,0-1.33-.33-1.34-1a2.2,2.2,0,0,0-1-1.85,4,4,0,0,0-2.14-.6,3.57,3.57,0,0,0-2,.61,2.17,2.17,0,0,0-.95,2,5.49,5.49,0,0,0,.19,1.38,3.51,3.51,0,0,0,.67,1.37l9.07,13.63a14.71,14.71,0,0,1,1.65,3.07,8.28,8.28,0,0,1,.48,2.8,7.41,7.41,0,0,1-.73,3.36,7.3,7.3,0,0,1-2,2.46,8.42,8.42,0,0,1-3,1.48,13.65,13.65,0,0,1-3.75.5,14.54,14.54,0,0,1-3.87-.5A10,10,0,0,1,39.86,70a6.83,6.83,0,0,1-2.1-2.32A6.26,6.26,0,0,1,37,64.59c0-.75.44-1.13,1.34-1.13h1.52c.89,0,1.34.38,1.34,1.13a3.33,3.33,0,0,0,1.64,3,7.14,7.14,0,0,0,4,1.06,8.08,8.08,0,0,0,1.74-.2,4.84,4.84,0,0,0,1.61-.7,3.67,3.67,0,0,0,1.19-1.38,4.86,4.86,0,0,0,.46-2.23,6,6,0,0,0-.31-1.83A10,10,0,0,0,50.33,60L41.08,46.09a6.86,6.86,0,0,1-1-2.17,7.52,7.52,0,0,1-.24-1.76,5.59,5.59,0,0,1,.64-2.77,5.7,5.7,0,0,1,1.7-1.92,7.36,7.36,0,0,1,2.38-1.13A9.9,9.9,0,0,1,47.17,36a9.12,9.12,0,0,1,2.92.45,8.17,8.17,0,0,1,2.35,1.22A5.75,5.75,0,0,1,54,39.48,4.77,4.77,0,0,1,54.6,41.76Z"/><path class="cls-4" d="M78.2,37.46v1.26c0,.62-.46.92-1.38.92H72.33S71,40.25,71,40.92V71.15c0,.67-.42,1-1.32.59h-1.9c-.9.41-1.35.08-.92-.59V40.92A5.18,5.18,0,0,0,65,39.64H59.91c-.92,0-1.38-.3-1.38-.92V37.46c0-.61.46-.92,1.38-.92H76.82C77.74,36.54,78.2,36.85,78.2,37.46Z"/><path class="cls-4" d="M82.34,37.54c0-.67.46-1,1.39-1h2.39c.93,0,1.4.33,1.4,1V65.13a3.46,3.46,0,0,0,1.33,3,5.37,5.37,0,0,0,3.3,1,5.51,5.51,0,0,0,3.32-1,3.44,3.44,0,0,0,1.37-3V37.54c0-.67.46-1,1.39-1h1.36c.93,0,1.39.33,1.39,1V64.81a6.8,6.8,0,0,1-.79,3.35,7.09,7.09,0,0,1-2.11,2.38,9.3,9.3,0,0,1-3,1.43,12.36,12.36,0,0,1-3.43.48A12.14,12.14,0,0,1,88.29,72a9.3,9.3,0,0,1-3-1.43,7.4,7.4,0,0,1-2.14-2.38,6.6,6.6,0,0,1-.82-3.35Z"/><path class="cls-4" d="M60.42,108H58.7c-.81,0-1.21-.27-1.21-.8v-1.5c0-.54.4-.8,1.21-.8h1.72c.81,0,1.21.26,1.21.8v1.5C61.63,107.71,61.23,108,60.42,108Z"/><path class="cls-4" d="M37.9,108c-.75,0-1.12-.28-1.12-.84v-1.57s0-.43.17-.51a4.6,4.6,0,0,1,.65-.19,5.19,5.19,0,0,0,.66-.19c.19-.08.28-.25.59-.51V81c-.31-.26-.4-.42-.59-.5a5.16,5.16,0,0,0-.66-.2,3.57,3.57,0,0,1-.65-.19c-.19-.08-.17-.5-.17-.5V78.8c0-.56.37-.85,1.12-.85h7.9a9.46,9.46,0,0,1,2.73.41A7.53,7.53,0,0,1,51,79.57a6.15,6.15,0,0,1,1.74,2,5.76,5.76,0,0,1,.66,2.82v17.14a5.82,5.82,0,0,1-.66,2.82,6.36,6.36,0,0,1-1.74,2,7.53,7.53,0,0,1-2.42,1.21,9.45,9.45,0,0,1-2.73.4ZM43.1,80c-.76,0-1.14.28-1.14.86V104c0,.57.38.86,1.14.86h2.33a4.23,4.23,0,0,0,2.69-.86,3.09,3.09,0,0,0,1.09-2.55v-18a3.05,3.05,0,0,0-1.09-2.54A4.17,4.17,0,0,0,45.43,80Z"/><path class="cls-4" d="M82.34,105.74v1.39c0,.57-.39.85-1.16.85H66.94c-.78,0-1.17-.28-1.17-.85v-1.39c0-.58.39-.86,1.17-.86h3.88c.78,0,1.17-.29,1.17-.86V80.89c0-.58-.39-.86-1.17-.86H66.94q-1.17,0-1.17-.93V77.84c0-.61.39-.92,1.17-.92H81.18c.77,0,1.16.31,1.16.92v1.32c0,.58-.38.87-1.13.87H77.26c-.76,0-1.13.28-1.13.86V104c0,.57.37.86,1.13.86h3.95C82,104.88,82.34,105.16,82.34,105.74Z"/><path class="cls-4" d="M85.45,82.86c0-3.27,2-4.91,6.14-4.91h3.3Q101,78,101,82.86v20.25q0,4.88-6.09,4.87h-3.3c-4.1,0-6.14-1.62-6.14-4.87ZM89.59,103c0,1.22.69,1.84,2.07,1.84h3.11c1.38,0,2.07-.62,2.07-1.84V81.86q0-1.83-2.07-1.83H91.66q-2.07,0-2.07,1.83Z"/><polygon class="cls-5" points="243.12 71.35 243.12 171.17 157.65 74.29 157.65 144.4 243.12 241.28 243.12 241.28 243.12 241.28 292.98 241.28 292.98 71.35 243.12 71.35"/><polygon class="cls-2" points="259.4 62.21 259.4 158.69 173.93 61.81 173.93 136.28 259.4 233.16 309.26 233.16 309.26 62.21 259.4 62.21"/><polygon class="cls-4" points="124.07 144.9 124.07 151.3 173.93 202.97 173.93 196.54 124.07 144.9"/><polygon class="cls-4" points="124.07 171.74 124.07 178.13 173.93 229.81 173.93 223.38 124.07 171.74"/><polygon class="cls-4" points="124.07 158.32 124.07 164.72 173.93 216.39 173.93 209.96 124.07 158.32"/><polygon class="cls-4" points="124.07 131.49 124.07 137.88 173.93 189.55 173.93 183.12 124.07 131.49"/><polygon class="cls-4" points="143.86 232.76 124.07 212.26 124.07 218.62 137.72 232.76 143.86 232.76"/><polygon class="cls-4" points="124.07 118.07 124.07 124.46 173.93 176.14 173.93 169.71 124.07 118.07"/><polygon class="cls-4" points="124.07 198.84 124.07 205.2 150.66 232.76 156.82 232.76 124.07 198.84"/><polygon class="cls-4" points="124.07 185.42 124.07 191.78 163.61 232.76 169.78 232.76 124.07 185.42"/><polygon class="cls-4" points="124.07 225.68 124.07 232.76 130.91 232.76 124.07 225.68"/><polygon class="cls-4" points="135.41 61.81 129.27 61.81 173.93 109.38 173.93 102.98 135.41 61.81"/><polygon class="cls-4" points="161.32 61.81 155.16 61.81 173.93 82.54 173.93 76.15 161.32 61.81"/><polygon class="cls-4" points="148.37 61.81 142.22 61.81 173.93 95.96 173.93 89.56 148.37 61.81"/><polygon class="cls-4" points="173.93 69.12 173.93 61.81 168.11 61.81 173.93 69.12"/><polygon class="cls-4" points="124.07 104.65 124.07 111.04 173.93 162.72 173.93 156.29 124.07 104.65"/><polygon class="cls-4" points="124.07 91.23 124.07 97.62 173.93 149.3 173.93 142.87 124.07 91.23"/><polygon class="cls-4" points="124.07 64.39 124.07 70.79 173.93 122.46 173.93 116.03 124.07 64.39"/><polygon class="cls-4" points="124.07 77.81 124.07 84.61 173.93 136.29 173.93 129.45 124.07 77.81"/><polygon class="cls-3" points="219.54 96.51 214.35 100.89 180.36 61.98 188.52 61.81 219.54 96.51"/></g></g></svg>