<?xml version="1.0" encoding="iso-8859-1"?>
<!-- Generator: Adobe Illustrator 23.0.2, SVG Export Plug-In . SVG Version: 6.00 Build 0)  -->
<svg version="1.1" id="Livello_1" xmlns="http://www.w3.org/2000/svg" xmlns:xlink="http://www.w3.org/1999/xlink" x="0px" y="0px"
	 viewBox="0 0 427.463 117.204" style="enable-background:new 0 0 427.463 117.204;" xml:space="preserve">
<g>
	<g>
		<g>
			<path style="fill:#1E1C3B;" d="M157.101,88.074v5.085h6.759v1.592h-6.759v6.202h-1.654v-14.47h9.198v1.592H157.101z"/>
			<path style="fill:#1E1C3B;" d="M193.698,93.718c0,4.072-3.349,7.318-7.566,7.318c-4.237,0-7.587-3.246-7.587-7.318
				c0-4.093,3.35-7.276,7.587-7.276C190.35,86.441,193.698,89.646,193.698,93.718z M180.221,93.718c0,3.184,2.687,5.726,5.911,5.726
				c3.225,0,5.871-2.542,5.871-5.726s-2.646-5.705-5.871-5.705C182.908,88.013,180.221,90.534,180.221,93.718z"/>
			<path style="fill:#1E1C3B;" d="M221.368,94.999c0,3.762-2.274,6.036-6.056,6.036c-3.803,0-6.098-2.274-6.098-6.036v-8.517h1.654
				v8.517c0,2.811,1.695,4.444,4.444,4.444c2.749,0,4.403-1.633,4.403-4.444v-8.517h1.654V94.999z"/>
			<path style="fill:#1E1C3B;" d="M248.583,100.953l-8.682-11.617v11.617h-1.654v-14.47h1.716l8.682,11.638V86.482h1.633v14.47
				H248.583z"/>
			<path style="fill:#1E1C3B;" d="M273.359,86.482c4.217,0,7.442,3.122,7.442,7.235c0,4.114-3.246,7.235-7.504,7.235h-5.788v-14.47
				H273.359z M269.164,99.381h4.216c3.225,0,5.747-2.418,5.747-5.643c0-3.246-2.564-5.664-5.809-5.664h-4.154V99.381z"/>
			<path style="fill:#1E1C3B;" d="M297.555,97.294l-1.611,3.659h-1.758l6.491-14.47h1.716l6.471,14.47h-1.799l-1.613-3.659H297.555z
				 M301.483,88.364l-3.224,7.338h6.49L301.483,88.364z"/>
			<path style="fill:#1E1C3B;" d="M327.023,88.074v12.878h-1.654V88.074h-4.713v-1.592h11.1v1.592H327.023z"/>
			<path style="fill:#1E1C3B;" d="M346.981,100.953v-14.47h1.654v14.47H346.981z"/>
			<path style="fill:#1E1C3B;" d="M379.628,93.718c0,4.072-3.349,7.318-7.566,7.318c-4.237,0-7.587-3.246-7.587-7.318
				c0-4.093,3.35-7.276,7.587-7.276C376.279,86.441,379.628,89.646,379.628,93.718z M366.151,93.718
				c0,3.184,2.687,5.726,5.911,5.726c3.225,0,5.871-2.542,5.871-5.726s-2.646-5.705-5.871-5.705
				C368.838,88.013,366.151,90.534,366.151,93.718z"/>
			<path style="fill:#1E1C3B;" d="M405.81,100.953l-8.682-11.617v11.617h-1.654v-14.47h1.716l8.682,11.638V86.482h1.633v14.47
				H405.81z"/>
		</g>
	</g>
	<g>
		<g>
			<path style="fill:#ffffff;" d="M121.049,40.479c-9.999,0-18.105,8.106-18.105,18.105s8.106,18.105,18.105,18.105
				c4.295,0,8.239-1.499,11.343-3.998v27.937h6.762V58.583C139.154,48.584,131.048,40.479,121.049,40.479z M121.049,69.869
				c-6.233,0-11.286-5.053-11.286-11.286s5.053-11.286,11.286-11.286c6.233,0,11.286,5.053,11.286,11.286
				S127.283,69.869,121.049,69.869z"/>
			<path style="fill:#ffffff;" d="M206.635,40.479c-9.999,0-18.105,8.106-18.105,18.105s8.106,18.105,18.105,18.105
				c4.295,0,8.239-1.499,11.343-3.998v3.998h6.762V58.583C224.739,48.584,216.634,40.479,206.635,40.479z M206.635,69.869
				c-6.233,0-11.286-5.053-11.286-11.286s5.053-11.286,11.286-11.286c6.233,0,11.286,5.053,11.286,11.286
				S212.868,69.869,206.635,69.869z"/>
			<path style="fill:#ffffff;" d="M260.798,22.398v22.078c-3.104-2.499-7.048-3.998-11.343-3.998
				c-9.999,0-18.105,8.106-18.105,18.105s8.106,18.105,18.105,18.105s18.105-8.106,18.105-18.105V22.398H260.798z M249.456,69.869
				c-6.233,0-11.286-5.053-11.286-11.286s5.053-11.286,11.286-11.286s11.286,5.053,11.286,11.286S255.689,69.869,249.456,69.869z"/>
			<path style="fill:#ffffff;" d="M175.126,40.479v3.998v14.107c0,6.233-5.11,11.286-11.343,11.286s-11.343-5.053-11.343-11.286
				V44.477v-3.998h-6.762v18.105c0,5.704,2.64,10.788,6.762,14.107c3.104,2.499,7.047,3.998,11.343,3.998
				c4.295,0,8.239-1.499,11.343-3.998c4.122-3.318,6.762-8.403,6.762-14.107V40.479H175.126z"/>
			<path style="fill:#ffffff;" d="M314.303,40.479c-9.999,0-18.105,8.106-18.105,18.105s8.106,18.105,18.105,18.105
				c4.295,0,8.239-1.499,11.343-3.998v3.998h6.762V58.583C332.407,48.584,324.301,40.479,314.303,40.479z M314.303,69.869
				c-6.233,0-11.286-5.053-11.286-11.286s5.053-11.286,11.286-11.286c6.233,0,11.286,5.053,11.286,11.286
				S320.536,69.869,314.303,69.869z"/>
			<path style="fill:#ffffff;" d="M397.181,77.013c-5.758,0-10.478-2.087-15.226-6.752l3.566-5.047
				c1.669,2.579,4.537,6.107,11.609,6.107c3.498,0,8.686-2.385,8.686-5.68c0-3.583-5.197-4.289-9.106-4.507
				c-5.532-0.405-14.833-2.278-14.816-10.249c0.015-7.299,8.647-10.581,14.772-10.581l0.28,0.002
				c4.621,0.075,8.676,1.663,12.375,4.849l-3.762,4.316c-2.801-2.408-5.389-3.446-8.523-3.446c-4.696,0-8.787,1.981-8.787,4.714
				c0,1.895,2.327,4.096,8.955,4.507c6.934,0.437,14.894,2.053,14.894,10.755C412.099,71.662,404.85,77.013,397.181,77.013z"/>
			<path style="fill:#ffffff;" d="M375.25,58.583c-0.01-9.99-8.112-18.086-18.104-18.086c-4.908,0-8.699,1.956-11.291,5.127v-5.127
				h-6.762v36.209h6.762V58.602h0.005c0-6.233,5.053-11.286,11.286-11.286c6.233,0,11.343,5.053,11.343,11.286v14.107v3.979h6.762
				V58.602L375.25,58.583L375.25,58.583z"/>
			<path style="fill:#ffffff;" d="M292.502,47.306l3.976-6.335c-1.35-0.322-2.76-0.492-4.209-0.492
				c-5.217,0-8.926,2.21-11.283,5.741v-5.741h-6.762v36.209h6.762v-5.741V58.476c0.058-6.183,5.086-11.178,11.283-11.178
				C292.348,47.297,292.424,47.304,292.502,47.306z"/>
		</g>
		<g>
			<g>
				<path style="fill:#FF7BAC;" d="M51.369,88.009c0.033,0,0.066,0.001,0.099,0.001c0.033,0,0.066-0.001,0.099-0.001
					c-0.033,0-0.066-0.001-0.099-0.001C51.435,88.008,51.402,88.009,51.369,88.009z"/>
			</g>
			<g>
				<path style="fill:#7AC943;" d="M51.369,74.412c0.033,0,0.066,0.001,0.099,0.001s0.066-0.001,0.099-0.001
					c-0.033,0-0.066-0.001-0.099-0.001S51.402,74.411,51.369,74.412z"/>
			</g>
			<path style="fill:#4B64D8;" d="M25.597,45.982c0,9.736,4.749,18.361,12.056,23.69c-5.289-4.118-8.692-10.544-8.692-17.767
				c0-12.43,10.077-22.506,22.507-22.506c12.43,0,22.506,10.077,22.506,22.506c0,10.503-7.194,19.323-16.924,21.806
				C70.167,70.8,79.974,59.099,79.974,45.107c0-13.385-8.975-24.674-21.235-28.179c-1.256-0.164-2.537-0.25-3.838-0.25
				C38.718,16.678,25.597,29.798,25.597,45.982z"/>
			<path style="fill:#2FAFD0;" d="M54.902,16.678c1.301,0,2.582,0.086,3.838,0.25c-2.442-0.698-5.014-1.085-7.671-1.121
				c-0.133-0.002-0.266-0.005-0.399-0.005c-2.461,0-4.851,0.305-7.136,0.877c-12.736,3.187-22.169,14.705-22.169,28.428
				c0,14.884,11.096,27.175,25.467,29.055c1.256,0.164,2.537,0.25,3.838,0.25c0.134,0,0.267-0.003,0.4-0.005
				c-2.915-0.051-5.695-0.655-8.24-1.714c-1.835-0.83-3.567-1.846-5.177-3.02c-7.307-5.329-12.056-13.954-12.056-23.69
				C25.597,29.798,38.718,16.678,54.902,16.678z"/>
			<path style="fill:#6719E0;" d="M51.567,74.412c2.337,0.006,4.622,0.236,6.834,0.667c5.205,1.013,10.012,3.143,14.158,6.132
				c9.093-6.556,15.013-17.238,15.013-29.304c0-11.971-5.827-22.579-14.798-29.147c-2.002-1.543-4.209-2.834-6.574-3.823
				c-4.499-2.013-9.485-3.134-14.732-3.134c-0.133,0-0.266,0.004-0.399,0.005c2.657,0.036,5.229,0.423,7.671,1.121
				C71,20.433,79.974,31.721,79.974,45.107c0,13.993-9.808,25.693-22.923,28.606c-1.929,0.428-3.93,0.666-5.981,0.694
				c0.1,0.002,0.199,0.005,0.299,0.005c0.033,0,0.066-0.001,0.099-0.001S51.534,74.411,51.567,74.412z"/>
			<path style="fill:#13FAC8;" d="M72.559,81.21c-5.909-4.26-13.156-6.778-20.992-6.799c-0.033,0-0.066,0.001-0.099,0.001
				c-0.033,0-0.066-0.001-0.099-0.001c-0.1,0-0.2-0.003-0.299-0.005c-0.133,0.002-0.266,0.005-0.4,0.005
				c-1.301,0-2.582-0.086-3.838-0.25c-14.371-1.88-25.467-14.171-25.467-29.055c0-13.723,9.434-25.241,22.169-28.428
				c-16.123,3.616-28.17,18.014-28.17,35.227c0,12.066,5.92,22.748,15.013,29.304c5.909,4.26,13.156,6.778,20.992,6.799
				c0.033,0,0.066-0.001,0.099-0.001c0.033,0,0.066,0.001,0.099,0.001c9.143,0.04,16.993,5.533,20.479,13.393l9.896-10.252
				C79.471,87.271,76.282,83.894,72.559,81.21z"/>
		</g>
	</g>
</g>
</svg>
