<svg xmlns="http://www.w3.org/2000/svg" viewBox="0 0 204.71 1080"><defs><style>.cls-1{fill:none;stroke:#FFFFFF;stroke-miterlimit:10;stroke-width:0.2px;}</style></defs><g id="Livello_2" data-name="Livello 2"><g id="Livello_1-2" data-name="Livello 1"><path class="cls-1" d="M204.46,37.3c0,42.3-160.23,42.3-160.23,84.61s160.23,42.31,160.23,84.62S44.23,248.84,44.23,291.15s160.23,42.3,160.23,84.6S44.23,418.06,44.23,460.36,204.46,502.67,204.46,545,44.23,587.29,44.23,629.6s160.23,42.31,160.23,84.62S44.23,756.53,44.23,798.85s160.23,42.31,160.23,84.63S44.23,925.79,44.23,968.11"/><path class="cls-1" d="M200,55.94c0,42.31-160.23,42.31-160.23,84.62S200,182.87,200,225.18,39.72,267.48,39.72,309.79,200,352.1,200,394.4,39.72,436.7,39.72,479,200,521.32,200,563.63,39.72,605.94,39.72,648.25,200,690.56,200,732.87,39.72,775.18,39.72,817.49,200,859.81,200,902.13,39.72,944.44,39.72,986.76"/><path class="cls-1" d="M200,18.65C200,61,39.72,61,39.72,103.26S200,145.57,200,187.88,39.72,230.19,39.72,272.5,200,314.8,200,357.1,39.72,399.41,39.72,441.71,200,484,200,526.33,39.72,568.64,39.72,611,200,653.26,200,695.58,39.72,737.89,39.72,780.2,200,822.51,200,864.83,39.72,907.15,39.72,949.46"/><path class="cls-1" d="M190.49,0c0,42.31-160.23,42.31-160.23,84.61s160.23,42.31,160.23,84.62S30.26,211.54,30.26,253.85s160.23,42.3,160.23,84.61-160.23,42.3-160.23,84.6,160.23,42.31,160.23,84.62S30.26,550,30.26,592.3s160.23,42.32,160.23,84.63S30.26,719.24,30.26,761.55s160.23,42.32,160.23,84.63S30.26,888.5,30.26,930.81"/><path class="cls-1" d="M181.9,93.24c0,42.31-160.22,42.31-160.22,84.61S181.9,220.16,181.9,262.47,21.68,304.78,21.68,347.09,181.9,389.39,181.9,431.7,21.68,474,21.68,516.31s160.22,42.3,160.22,84.61S21.68,643.23,21.68,685.54,181.9,727.86,181.9,770.17,21.68,812.48,21.68,854.79,181.9,897.11,181.9,939.42,21.68,981.74,21.68,1024.06"/><path class="cls-1" d="M168.37,149.19c0,42.3-160.23,42.3-160.23,84.61s160.23,42.31,160.23,84.62S8.14,360.73,8.14,403s160.23,42.3,160.23,84.6S8.14,530,8.14,572.25s160.23,42.31,160.23,84.62S8.14,699.18,8.14,741.49s160.23,42.31,160.23,84.62S8.14,868.42,8.14,910.73s160.23,42.32,160.23,84.64S8.14,1037.68,8.14,1080"/><path class="cls-1" d="M168.37,111.89c0,42.31-160.23,42.31-160.23,84.61s160.23,42.31,160.23,84.62S8.14,323.43,8.14,365.74,168.37,408,168.37,450.35,8.14,492.65,8.14,535s160.23,42.31,160.23,84.62S8.14,661.88,8.14,704.19s160.23,42.31,160.23,84.63S8.14,831.13,8.14,873.44s160.23,42.31,160.23,84.63S8.14,1000.39,8.14,1042.7"/><path class="cls-1" d="M160.47,130.54c0,42.3-160.22,42.3-160.22,84.61s160.22,42.31,160.22,84.62S.25,342.08.25,384.39s160.22,42.3,160.22,84.6S.25,511.3.25,553.6s160.22,42.31,160.22,84.62S.25,680.53.25,722.84s160.22,42.31,160.22,84.62S.25,849.78.25,892.09s160.22,42.31,160.22,84.63S.25,1019,.25,1061.35"/><path class="cls-1" d="M190.49,74.59c0,42.31-160.23,42.31-160.23,84.62s160.23,42.3,160.23,84.61S30.26,286.13,30.26,328.44s160.23,42.31,160.23,84.61S30.26,455.35,30.26,497.66,190.49,540,190.49,582.28,30.26,624.59,30.26,666.9s160.23,42.31,160.23,84.62S30.26,793.83,30.26,836.14s160.23,42.32,160.23,84.63S30.26,963.09,30.26,1005.41"/></g></g></svg>