<svg xmlns="http://www.w3.org/2000/svg" viewBox="0 0 169.79 1080.1"><defs><style>.cls-1{fill:none;stroke:#FFFFFF;stroke-miterlimit:10;stroke-width:0.2px;}</style></defs><g id="Livello_2" data-name="Livello 2"><g id="Livello_1-2" data-name="Livello 1"><path class="cls-1" d="M89.18,120c0-30,12.68-30,12.68-60S89.18,30,89.18,0"/><path class="cls-1" d="M80.61,0c0,29.84-12.69,29.9-12.69,59.85s12.69,30,12.69,60V120"/><path class="cls-1" d="M95.74,120c0-30,25.37-30,25.37-60S95.74,30,95.74,0"/><path class="cls-1" d="M89.18,0c0,30,12.68,30,12.68,60S89.18,90,89.18,120"/><path class="cls-1" d="M105.47,120c0-30,31.72-30,31.72-60S105.47,30,105.47,0"/><path class="cls-1" d="M95.74,0c0,30,25.37,30,25.37,60S95.74,90,95.74,120"/><path class="cls-1" d="M64.31,120v-.15c0-30-31.72-30-31.72-60S64.2,29.84,64.31,0"/><path class="cls-1" d="M54.57,0c-.13,29.84-38,29.9-38,59.85s38.06,30,38.06,60c0,.05,0,.1,0,.15"/><path class="cls-1" d="M80.61,120v-.15c0-30-12.69-30-12.69-60S80.56,29.84,80.61,0"/><path class="cls-1" d="M74,0C74,29.84,48.67,29.9,48.67,59.85s25.38,30,25.38,60c0,.05,0,.1,0,.15"/><path class="cls-1" d="M74,120s0-.1,0-.15c0-30-25.38-30-25.38-60S74,29.84,74,0"/><path class="cls-1" d="M64.31,0C64.2,29.84,32.59,29.9,32.59,59.85s31.72,30,31.72,60V120"/><path class="cls-1" d="M54.57,120s0-.1,0-.15c0-30-38.06-30-38.06-60S54.44,29.84,54.57,0"/><path class="cls-1" d="M45,0C44.87,29.84.25,29.9.25,59.85s44.78,30,44.78,60V120"/><path class="cls-1" d="M115.21,120c0-30,38.06-30,38.06-60S115.21,30,115.21,0"/><path class="cls-1" d="M105.47,0c0,30,31.72,30,31.72,60s-31.72,30-31.72,60"/><path class="cls-1" d="M124.75,120c0-30,44.79-30,44.79-60S124.75,30,124.75,0"/><path class="cls-1" d="M115.21,0c0,30,38.06,30,38.06,60s-38.06,30-38.06,60"/><path class="cls-1" d="M89.18,360c0-30,12.68-30,12.68-60s-12.68-30-12.68-60"/><path class="cls-1" d="M80.61,240c0,29.84-12.69,29.9-12.69,59.85s12.69,30,12.69,60V360"/><path class="cls-1" d="M95.74,360c0-30,25.37-30,25.37-60s-25.37-30-25.37-60"/><path class="cls-1" d="M89.18,240c0,30,12.68,30,12.68,60s-12.68,30-12.68,60"/><path class="cls-1" d="M105.47,360c0-30,31.72-30,31.72-60s-31.72-30-31.72-60"/><path class="cls-1" d="M95.74,240c0,30,25.37,30,25.37,60s-25.37,30-25.37,60"/><path class="cls-1" d="M64.31,360v-.15c0-30-31.72-30-31.72-60s31.61-30,31.72-59.85"/><path class="cls-1" d="M54.57,240c-.13,29.84-38,29.9-38,59.85s38.06,30,38.06,60c0,0,0,.1,0,.15"/><path class="cls-1" d="M80.61,360v-.15c0-30-12.69-30-12.69-60s12.64-30,12.69-59.85"/><path class="cls-1" d="M74,240c-.09,29.84-25.37,29.9-25.37,59.85s25.38,30,25.38,60c0,0,0,.1,0,.15"/><path class="cls-1" d="M74,360c0-.05,0-.1,0-.15,0-30-25.38-30-25.38-60S74,269.84,74,240"/><path class="cls-1" d="M64.31,240c-.11,29.84-31.72,29.9-31.72,59.85s31.72,30,31.72,60V360"/><path class="cls-1" d="M54.57,360c0-.05,0-.1,0-.15,0-30-38.06-30-38.06-60s37.92-30,38.05-59.85"/><path class="cls-1" d="M45,240C44.87,269.84.25,269.9.25,299.85s44.78,30,44.78,60V360"/><path class="cls-1" d="M115.21,360c0-30,38.06-30,38.06-60s-38.06-30-38.06-60"/><path class="cls-1" d="M105.47,240c0,30,31.72,30,31.72,60s-31.72,30-31.72,60"/><path class="cls-1" d="M124.75,360c0-30,44.79-30,44.79-60s-44.79-30-44.79-60"/><path class="cls-1" d="M115.21,240c0,30,38.06,30,38.06,60s-38.06,30-38.06,60"/><path class="cls-1" d="M89.18,600c0-30,12.68-30,12.68-60s-12.68-30-12.68-60"/><path class="cls-1" d="M80.61,480c0,29.84-12.69,29.9-12.69,59.85s12.69,30,12.69,60V600"/><path class="cls-1" d="M95.74,600c0-30,25.37-30,25.37-60s-25.37-30-25.37-60"/><path class="cls-1" d="M89.18,480c0,30,12.68,30,12.68,60s-12.68,30-12.68,60"/><path class="cls-1" d="M105.47,600c0-30,31.72-30,31.72-60s-31.72-30-31.72-60"/><path class="cls-1" d="M95.74,480c0,30,25.37,30,25.37,60s-25.37,30-25.37,60"/><path class="cls-1" d="M64.31,600v-.15c0-30-31.72-30-31.72-60s31.61-30,31.72-59.85"/><path class="cls-1" d="M54.57,480c-.13,29.84-38,29.9-38,59.85s38.06,30,38.06,60c0,0,0,.1,0,.15"/><path class="cls-1" d="M80.61,600v-.15c0-30-12.69-30-12.69-60s12.64-30,12.69-59.85"/><path class="cls-1" d="M74,480c-.09,29.84-25.37,29.9-25.37,59.85s25.38,30,25.38,60c0,0,0,.1,0,.15"/><path class="cls-1" d="M74,600s0-.1,0-.15c0-30-25.38-30-25.38-60S74,509.84,74,480"/><path class="cls-1" d="M64.31,480c-.11,29.84-31.72,29.9-31.72,59.85s31.72,30,31.72,60V600"/><path class="cls-1" d="M54.57,600s0-.1,0-.15c0-30-38.06-30-38.06-60s37.92-30,38.05-59.85"/><path class="cls-1" d="M45,480C44.87,509.84.25,509.9.25,539.85s44.78,30,44.78,60V600"/><path class="cls-1" d="M115.21,600c0-30,38.06-30,38.06-60s-38.06-30-38.06-60"/><path class="cls-1" d="M105.47,480c0,30,31.72,30,31.72,60s-31.72,30-31.72,60"/><path class="cls-1" d="M124.75,600c0-30,44.79-30,44.79-60s-44.79-30-44.79-60"/><path class="cls-1" d="M115.21,480c0,30,38.06,30,38.06,60s-38.06,30-38.06,60"/><path class="cls-1" d="M89.18,480c0-30,12.68-30,12.68-60s-12.68-30-12.68-60"/><path class="cls-1" d="M80.61,360c0,29.84-12.69,29.9-12.69,59.85s12.69,30,12.69,60V480"/><path class="cls-1" d="M95.74,480c0-30,25.37-30,25.37-60s-25.37-30-25.37-60"/><path class="cls-1" d="M89.18,360c0,30,12.68,30,12.68,60s-12.68,30-12.68,60"/><path class="cls-1" d="M105.47,480c0-30,31.72-30,31.72-60s-31.72-30-31.72-60"/><path class="cls-1" d="M95.74,360c0,30,25.37,30,25.37,60s-25.37,30-25.37,60"/><path class="cls-1" d="M64.31,480v-.15c0-30-31.72-30-31.72-60s31.61-30,31.72-59.85"/><path class="cls-1" d="M54.57,360c-.13,29.84-38,29.9-38,59.85s38.06,30,38.06,60c0,0,0,.1,0,.15"/><path class="cls-1" d="M80.61,480v-.15c0-30-12.69-30-12.69-60s12.64-30,12.69-59.85"/><path class="cls-1" d="M74,360c-.09,29.84-25.37,29.9-25.37,59.85s25.38,30,25.38,60c0,0,0,.1,0,.15"/><path class="cls-1" d="M74,480c0-.05,0-.1,0-.15,0-30-25.38-30-25.38-60S74,389.84,74,360"/><path class="cls-1" d="M64.31,360c-.11,29.84-31.72,29.9-31.72,59.85s31.72,30,31.72,60V480"/><path class="cls-1" d="M54.57,480c0-.05,0-.1,0-.15,0-30-38.06-30-38.06-60s37.92-30,38.05-59.85"/><path class="cls-1" d="M45,360C44.87,389.84.25,389.9.25,419.85s44.78,30,44.78,60V480"/><path class="cls-1" d="M115.21,480c0-30,38.06-30,38.06-60s-38.06-30-38.06-60"/><path class="cls-1" d="M105.47,360c0,30,31.72,30,31.72,60s-31.72,30-31.72,60"/><path class="cls-1" d="M124.75,480c0-30,44.79-30,44.79-60s-44.79-30-44.79-60"/><path class="cls-1" d="M115.21,360c0,30,38.06,30,38.06,60s-38.06,30-38.06,60"/><path class="cls-1" d="M89.18,240c0-30,12.68-30,12.68-60s-12.68-30-12.68-60"/><path class="cls-1" d="M80.61,120c0,29.84-12.69,29.9-12.69,59.85s12.69,30,12.69,60V240"/><path class="cls-1" d="M95.74,240c0-30,25.37-30,25.37-60s-25.37-30-25.37-60"/><path class="cls-1" d="M89.18,120c0,30,12.68,30,12.68,60s-12.68,30-12.68,60"/><path class="cls-1" d="M105.47,240c0-30,31.72-30,31.72-60s-31.72-30-31.72-60"/><path class="cls-1" d="M95.74,120c0,30,25.37,30,25.37,60s-25.37,30-25.37,60"/><path class="cls-1" d="M64.31,240v-.15c0-30-31.72-30-31.72-60s31.61-30,31.72-59.85"/><path class="cls-1" d="M54.57,120c-.13,29.84-38,29.9-38,59.85s38.06,30,38.06,60c0,.05,0,.1,0,.15"/><path class="cls-1" d="M80.61,240v-.15c0-30-12.69-30-12.69-60s12.64-30,12.69-59.85"/><path class="cls-1" d="M74,120c-.09,29.84-25.37,29.9-25.37,59.85s25.38,30,25.38,60c0,.05,0,.1,0,.15"/><path class="cls-1" d="M74,240c0-.05,0-.1,0-.15,0-30-25.38-30-25.38-60S74,149.84,74,120"/><path class="cls-1" d="M64.31,120c-.11,29.84-31.72,29.9-31.72,59.85s31.72,30,31.72,60V240"/><path class="cls-1" d="M54.57,240c0-.05,0-.1,0-.15,0-30-38.06-30-38.06-60s37.92-30,38.05-59.85"/><path class="cls-1" d="M45,120C44.87,149.84.25,149.9.25,179.85s44.78,30,44.78,60V240"/><path class="cls-1" d="M115.21,240c0-30,38.06-30,38.06-60s-38.06-30-38.06-60"/><path class="cls-1" d="M105.47,120c0,30,31.72,30,31.72,60s-31.72,30-31.72,60"/><path class="cls-1" d="M124.75,240c0-30,44.79-30,44.79-60s-44.79-30-44.79-60"/><path class="cls-1" d="M115.21,120c0,30,38.06,30,38.06,60s-38.06,30-38.06,60"/><path class="cls-1" d="M89.18,720c0-30,12.68-30,12.68-60s-12.68-30-12.68-60"/><path class="cls-1" d="M80.61,600c0,29.84-12.69,29.9-12.69,59.85s12.69,30,12.69,60V720"/><path class="cls-1" d="M95.74,720c0-30,25.37-30,25.37-60s-25.37-30-25.37-60"/><path class="cls-1" d="M89.18,600c0,30,12.68,30,12.68,60s-12.68,30-12.68,60"/><path class="cls-1" d="M105.47,720c0-30,31.72-30,31.72-60s-31.72-30-31.72-60"/><path class="cls-1" d="M95.74,600c0,30,25.37,30,25.37,60s-25.37,30-25.37,60"/><path class="cls-1" d="M64.31,720v-.15c0-30-31.72-30-31.72-60s31.61-30,31.72-59.85"/><path class="cls-1" d="M54.57,600c-.13,29.84-38,29.9-38,59.85s38.06,30,38.06,60c0,0,0,.1,0,.15"/><path class="cls-1" d="M80.61,720v-.15c0-30-12.69-30-12.69-60s12.64-30,12.69-59.85"/><path class="cls-1" d="M74,600c-.09,29.84-25.37,29.9-25.37,59.85s25.38,30,25.38,60c0,0,0,.1,0,.15"/><path class="cls-1" d="M74,720s0-.1,0-.15c0-30-25.38-30-25.38-60S74,629.84,74,600"/><path class="cls-1" d="M64.31,600c-.11,29.84-31.72,29.9-31.72,59.85s31.72,30,31.72,60V720"/><path class="cls-1" d="M54.57,720s0-.1,0-.15c0-30-38.06-30-38.06-60s37.92-30,38.05-59.85"/><path class="cls-1" d="M45,600C44.87,629.84.25,629.9.25,659.85s44.78,30,44.78,60V720"/><path class="cls-1" d="M115.21,720c0-30,38.06-30,38.06-60s-38.06-30-38.06-60"/><path class="cls-1" d="M105.47,600c0,30,31.72,30,31.72,60s-31.72,30-31.72,60"/><path class="cls-1" d="M124.75,720c0-30,44.79-30,44.79-60s-44.79-30-44.79-60"/><path class="cls-1" d="M115.21,600c0,30,38.06,30,38.06,60s-38.06,30-38.06,60"/><path class="cls-1" d="M89.18,960c0-30,12.68-30,12.68-60s-12.68-30-12.68-60"/><path class="cls-1" d="M80.61,840c0,29.84-12.69,29.9-12.69,59.85s12.69,30,12.69,60V960"/><path class="cls-1" d="M95.74,960c0-30,25.37-30,25.37-60s-25.37-30-25.37-60"/><path class="cls-1" d="M89.18,840c0,30,12.68,30,12.68,60s-12.68,30-12.68,60"/><path class="cls-1" d="M105.47,960c0-30,31.72-30,31.72-60s-31.72-30-31.72-60"/><path class="cls-1" d="M95.74,840c0,30,25.37,30,25.37,60s-25.37,30-25.37,60"/><path class="cls-1" d="M64.31,960v-.15c0-30-31.72-30-31.72-60s31.61-30,31.72-59.85"/><path class="cls-1" d="M54.57,840c-.13,29.84-38,29.9-38,59.85s38.06,30,38.06,60c0,0,0,.1,0,.15"/><path class="cls-1" d="M80.61,960v-.15c0-30-12.69-30-12.69-60s12.64-30,12.69-59.85"/><path class="cls-1" d="M74,840c-.09,29.84-25.37,29.9-25.37,59.85s25.38,30,25.38,60c0,0,0,.1,0,.15"/><path class="cls-1" d="M74,960s0-.1,0-.15c0-30-25.38-30-25.38-60S74,869.84,74,840"/><path class="cls-1" d="M64.31,840c-.11,29.84-31.72,29.9-31.72,59.85s31.72,30,31.72,60V960"/><path class="cls-1" d="M54.57,960s0-.1,0-.15c0-30-38.06-30-38.06-60s37.92-30,38.05-59.85"/><path class="cls-1" d="M45,840C44.87,869.84.25,869.9.25,899.85s44.78,30,44.78,60V960"/><path class="cls-1" d="M115.21,960c0-30,38.06-30,38.06-60s-38.06-30-38.06-60"/><path class="cls-1" d="M105.47,840c0,30,31.72,30,31.72,60s-31.72,30-31.72,60"/><path class="cls-1" d="M124.75,960c0-30,44.79-30,44.79-60s-44.79-30-44.79-60"/><path class="cls-1" d="M115.21,840c0,30,38.06,30,38.06,60s-38.06,30-38.06,60"/><path class="cls-1" d="M89.18,1080c0-30,12.68-30,12.68-60s-12.68-30-12.68-60"/><path class="cls-1" d="M80.61,960c0,29.84-12.69,29.9-12.69,59.85s12.69,30,12.69,60v.15"/><path class="cls-1" d="M95.74,1080c0-30,25.37-30,25.37-60s-25.37-30-25.37-60"/><path class="cls-1" d="M89.18,960c0,30,12.68,30,12.68,60s-12.68,30-12.68,60"/><path class="cls-1" d="M105.47,1080c0-30,31.72-30,31.72-60s-31.72-30-31.72-60"/><path class="cls-1" d="M95.74,960c0,30,25.37,30,25.37,60s-25.37,30-25.37,60"/><path class="cls-1" d="M64.31,1080v-.15c0-30-31.72-30-31.72-60s31.61-30,31.72-59.85"/><path class="cls-1" d="M54.57,960c-.13,29.84-38,29.9-38,59.85s38.06,30,38.06,60c0,.05,0,.1,0,.15"/><path class="cls-1" d="M80.61,1080v-.15c0-30-12.69-30-12.69-60s12.64-30,12.69-59.85"/><path class="cls-1" d="M74,960c-.09,29.84-25.37,29.9-25.37,59.85s25.38,30,25.38,60c0,.05,0,.1,0,.15"/><path class="cls-1" d="M74,1080s0-.1,0-.15c0-30-25.38-30-25.38-60S74,989.84,74,960"/><path class="cls-1" d="M64.31,960c-.11,29.84-31.72,29.9-31.72,59.85s31.72,30,31.72,60v.15"/><path class="cls-1" d="M54.57,1080s0-.1,0-.15c0-30-38.06-30-38.06-60s37.92-30,38.05-59.85"/><path class="cls-1" d="M45,960C44.87,989.84.25,989.9.25,1019.85s44.78,30,44.78,60v.15"/><path class="cls-1" d="M115.21,1080c0-30,38.06-30,38.06-60s-38.06-30-38.06-60"/><path class="cls-1" d="M105.47,960c0,30,31.72,30,31.72,60s-31.72,30-31.72,60"/><path class="cls-1" d="M124.75,1080c0-30,44.79-30,44.79-60s-44.79-30-44.79-60"/><path class="cls-1" d="M115.21,960c0,30,38.06,30,38.06,60s-38.06,30-38.06,60"/><path class="cls-1" d="M89.18,840c0-30,12.68-30,12.68-60s-12.68-30-12.68-60"/><path class="cls-1" d="M80.61,720c0,29.84-12.69,29.9-12.69,59.85s12.69,30,12.69,60V840"/><path class="cls-1" d="M95.74,840c0-30,25.37-30,25.37-60s-25.37-30-25.37-60"/><path class="cls-1" d="M89.18,720c0,30,12.68,30,12.68,60s-12.68,30-12.68,60"/><path class="cls-1" d="M105.47,840c0-30,31.72-30,31.72-60s-31.72-30-31.72-60"/><path class="cls-1" d="M95.74,720c0,30,25.37,30,25.37,60s-25.37,30-25.37,60"/><path class="cls-1" d="M64.31,840v-.15c0-30-31.72-30-31.72-60s31.61-30,31.72-59.85"/><path class="cls-1" d="M54.57,720c-.13,29.84-38,29.9-38,59.85s38.06,30,38.06,60c0,0,0,.1,0,.15"/><path class="cls-1" d="M80.61,840v-.15c0-30-12.69-30-12.69-60s12.64-30,12.69-59.85"/><path class="cls-1" d="M74,720c-.09,29.84-25.37,29.9-25.37,59.85s25.38,30,25.38,60c0,0,0,.1,0,.15"/><path class="cls-1" d="M74,840s0-.1,0-.15c0-30-25.38-30-25.38-60S74,749.84,74,720"/><path class="cls-1" d="M64.31,720c-.11,29.84-31.72,29.9-31.72,59.85s31.72,30,31.72,60V840"/><path class="cls-1" d="M54.57,840s0-.1,0-.15c0-30-38.06-30-38.06-60s37.92-30,38.05-59.85"/><path class="cls-1" d="M45,720C44.87,749.84.25,749.9.25,779.85s44.78,30,44.78,60V840"/><path class="cls-1" d="M115.21,840c0-30,38.06-30,38.06-60s-38.06-30-38.06-60"/><path class="cls-1" d="M105.47,720c0,30,31.72,30,31.72,60s-31.72,30-31.72,60"/><path class="cls-1" d="M124.75,840c0-30,44.79-30,44.79-60s-44.79-30-44.79-60"/><path class="cls-1" d="M115.21,720c0,30,38.06,30,38.06,60s-38.06,30-38.06,60"/></g></g></svg>