<svg xmlns="http://www.w3.org/2000/svg" viewBox="0 0 95.79 1080.77"><defs><style>.cls-1{fill:none;stroke:#FFFFFF;stroke-miterlimit:10;stroke-width:0.2px;}</style></defs><g id="Livello_2" data-name="Livello 2"><g id="Livello_1-2" data-name="Livello 1"><path class="cls-1" d="M95.54.33c0,67.49-46.43,67.49-46.43,135s46.43,67.48,46.43,135-46.43,67.5-46.43,135,46.43,67.49,46.43,135-46.43,67.5-46.43,135,46.43,67.49,46.43,135-46.43,67.51-46.43,135,46.43,67.5,46.43,135"/><path class="cls-1" d="M47.89.34c0,67.5,46.43,67.5,46.43,135s-46.43,67.49-46.43,135,46.43,67.48,46.43,135-46.43,67.49-46.43,135,46.43,67.5,46.43,135-46.43,67.49-46.43,135,46.43,67.49,46.43,135-46.43,67.5-46.43,135"/><path class="cls-1" d="M71.71,137.2c-11.4,16.58-22.6,33.45-22.6,66.6s11.21,50,22.61,66.61c11.4-16.58,22.6-33.45,22.6-66.6S83.11,153.79,71.71,137.2Z"/><path class="cls-1" d="M71.72,270.41c-11.81,17.17-23.83,34-23.83,68.39s12,51.19,23.82,68.36C83.52,390,95.54,373.11,95.54,338.77S83.53,287.57,71.72,270.41Z"/><path class="cls-1" d="M71.71,407.16c-11.4,16.58-22.6,33.44-22.6,66.59s11.21,50,22.61,66.61c11.4-16.58,22.6-33.45,22.6-66.6S83.11,423.74,71.71,407.16Z"/><path class="cls-1" d="M71.72.44C59.91,17.62,47.89,34.49,47.89,68.83s12,51.2,23.82,68.37c11.81-17.17,23.83-34,23.83-68.38S83.52,17.61,71.72.44Z"/><path class="cls-1" d="M71.72,810.34c-11.81,17.17-23.83,34-23.83,68.38s12,51.21,23.83,68.39c11.8-17.18,23.82-34.05,23.82-68.39S83.52,827.51,71.72,810.34Z"/><path class="cls-1" d="M71.72,947.11c-11.4,16.58-22.61,33.45-22.61,66.61s11.2,50,22.6,66.61c11.4-16.58,22.61-33.45,22.61-66.62S83.12,963.69,71.72,947.11Z"/><path class="cls-1" d="M71.71,677.13c-11.39,16.58-22.6,33.44-22.6,66.6s11.21,50,22.61,66.61c11.4-16.58,22.6-33.45,22.6-66.61S83.11,693.71,71.71,677.13Z"/><path class="cls-1" d="M71.72,540.36c-11.81,17.18-23.83,34-23.83,68.39s12,51.2,23.82,68.38c11.81-17.18,23.83-34,23.83-68.39S83.52,557.53,71.72,540.36Z"/><path class="cls-1" d="M47.89.33c0,67.49-46.42,67.49-46.42,135s46.42,67.48,46.42,135-46.42,67.5-46.42,135,46.42,67.49,46.42,135-46.42,67.5-46.42,135,46.42,67.49,46.42,135-46.42,67.51-46.42,135,46.42,67.5,46.42,135"/><path class="cls-1" d="M.25.34c0,67.5,46.43,67.5,46.43,135S.25,202.82.25,270.31s46.43,67.48,46.43,135S.25,472.77.25,540.26s46.43,67.5,46.43,135S.25,742.74.25,810.24s46.43,67.49,46.43,135-46.43,67.5-46.43,135"/><path class="cls-1" d="M24.07,137.2c-11.4,16.58-22.6,33.45-22.6,66.6s11.21,50,22.61,66.61c11.4-16.58,22.6-33.45,22.6-66.6S35.47,153.79,24.07,137.2Z"/><path class="cls-1" d="M24.08,270.41C12.27,287.58.25,304.45.25,338.8s12,51.19,23.82,68.36c11.8-17.18,23.82-34.05,23.82-68.39S35.88,287.57,24.08,270.41Z"/><path class="cls-1" d="M24.07,407.16c-11.4,16.58-22.6,33.44-22.6,66.59s11.2,50,22.61,66.61c11.39-16.58,22.6-33.45,22.6-66.6S35.47,423.74,24.07,407.16Z"/><path class="cls-1" d="M24.08.44C12.27,17.62.25,34.49.25,68.83s12,51.2,23.82,68.37c11.81-17.17,23.82-34,23.82-68.38S35.88,17.61,24.08.44Z"/><path class="cls-1" d="M24.07,810.34C12.27,827.51.25,844.38.25,878.72s12,51.21,23.82,68.39c11.81-17.18,23.82-34.05,23.82-68.39S35.88,827.51,24.07,810.34Z"/><path class="cls-1" d="M24.07,947.11c-11.4,16.58-22.6,33.45-22.6,66.61s11.2,50,22.6,66.61c11.4-16.58,22.61-33.45,22.61-66.62S35.47,963.69,24.07,947.11Z"/><path class="cls-1" d="M24.07,677.13c-11.4,16.58-22.6,33.44-22.6,66.6s11.2,50,22.6,66.61c11.4-16.58,22.61-33.45,22.61-66.61S35.47,693.71,24.07,677.13Z"/><path class="cls-1" d="M24.08,540.36C12.27,557.54.25,574.41.25,608.75s12,51.2,23.82,68.38c11.81-17.18,23.82-34,23.82-68.39S35.88,557.53,24.08,540.36Z"/></g></g></svg>