<svg width="550" height="134" viewBox="0 0 550 134" fill="none" xmlns="http://www.w3.org/2000/svg">
<g clip-path="url(#clip0)">
<path d="M128.168 0H81.1307C79.7101 0 78.5263 1.1727 78.5263 2.57993V40.3407C78.5263 42.6079 75.7641 43.7025 74.1857 42.1389L31.5684 0.703617C31.1738 0.234539 30.4635 0 29.8321 0H5.76122C4.34064 0 3.15683 1.1727 3.15683 2.57993V45.5788C3.15683 46.986 4.34064 48.1587 5.76122 48.1587H60.848C62.5054 48.1587 63.847 49.4878 63.847 51.1295C63.847 52.7713 62.5054 54.1003 60.848 54.1003H5.76122C4.34064 53.944 3.15683 55.1167 3.15683 56.5239V99.5228C3.15683 100.93 4.34064 102.103 5.76122 102.103H76.0009C77.4214 102.103 78.6052 100.93 78.6052 99.5228V56.5239C78.6052 55.1167 77.4214 53.944 76.0009 53.944H72.4494C70.7921 53.944 69.4504 52.6149 69.4504 50.9732C69.4504 49.3314 70.7921 48.0023 72.4494 48.0023H78.5263H80.2626H128.168C129.588 48.0023 130.772 46.8296 130.772 45.4224V2.42357C130.772 1.1727 129.588 0 128.168 0Z" fill="white"/>
<path d="M490.888 48.0805H546.291C547.711 48.0805 548.895 46.9078 548.895 45.5006V2.50176C548.895 1.09452 547.711 -0.0781708 546.291 -0.0781708H423.805C422.385 -0.0781708 421.201 1.09452 421.201 2.50176V45.5006C421.201 46.9078 422.385 48.0805 423.805 48.0805H479.208C480.865 48.0805 482.207 49.4096 482.207 51.0514C482.207 52.6931 480.865 54.0222 479.208 54.0222H423.805C422.385 54.0222 421.201 55.1949 421.201 56.6021V99.6009C421.201 101.008 422.385 102.181 423.805 102.181H546.212C547.632 102.181 548.816 101.008 548.816 99.6009V56.6021C548.816 55.1949 547.632 54.0222 546.212 54.0222H490.888C489.231 54.0222 487.889 52.6931 487.889 51.0514C487.889 49.4096 489.231 48.0805 490.888 48.0805Z" fill="white"/>
<path d="M406.916 0H383.082C382.293 0 381.583 0.390898 381.03 1.01634L347.726 41.9825C346.7 43.3116 344.727 43.3116 343.701 41.9825L310.396 1.01634C309.922 0.390898 309.133 0 308.344 0H284.51C283.089 0 281.906 1.1727 281.906 2.57993V48.0805V99.5228C281.906 100.93 283.089 102.103 284.51 102.103H340.149C341.57 102.103 342.754 100.93 342.754 99.5228V51.0513C342.754 49.4096 344.095 48.0805 345.753 48.0805C347.41 48.0805 348.752 49.4096 348.752 51.0513V99.5228C348.752 100.93 349.935 102.103 351.356 102.103H406.995C408.416 102.103 409.6 100.93 409.6 99.5228V48.0805V2.57993C409.442 1.1727 408.337 0 406.916 0Z" fill="white"/>
<path d="M206.299 8.20887C230.055 8.20887 249.469 27.4411 249.469 50.9732C249.469 74.5052 230.133 93.8156 206.299 93.8156C182.544 93.8156 163.13 74.5834 163.13 51.0513C163.13 27.5193 182.544 8.20887 206.299 8.20887ZM267.542 0H145.136C143.715 0 142.531 1.1727 142.531 2.57993V99.5228C142.531 100.93 143.715 102.103 145.136 102.103H267.542C268.963 102.103 270.146 100.93 270.146 99.5228V2.57993C270.146 1.1727 268.963 0 267.542 0Z" fill="white"/>
<path fill-rule="evenodd" clip-rule="evenodd" d="M545.344 126.729C545.896 126.807 546.37 126.886 546.843 126.886C547.317 126.964 547.711 127.042 548.027 127.198C548.737 127.433 549.211 127.824 549.526 128.215C549.842 128.684 550 129.231 550 130.013C550 131.342 549.448 132.28 548.422 132.827C547.396 133.375 545.896 133.687 544.081 133.687H530.27C530.349 132.749 530.349 131.733 530.349 130.638C530.349 129.544 530.349 128.293 530.349 126.886C530.349 125.478 530.349 124.149 530.349 123.133C530.349 122.039 530.27 121.022 530.27 120.162H543.844C545.975 120.162 547.474 120.475 548.343 121.022C549.29 121.569 549.763 122.429 549.763 123.602C549.763 124.228 549.605 124.853 549.369 125.244C549.132 125.635 548.737 126.026 548.106 126.26C547.79 126.417 547.396 126.573 546.922 126.651C546.449 126.573 545.896 126.651 545.344 126.729ZM547.08 123.837C547.08 123.133 546.764 122.664 546.133 122.273C545.501 121.96 544.475 121.726 543.055 121.726C541.555 121.726 539.898 121.726 538.241 121.726C536.583 121.726 534.768 121.726 532.874 121.726C532.874 122.273 532.874 122.898 532.874 123.602V125.791C534.689 125.869 536.505 125.869 538.162 125.869C539.819 125.869 541.398 125.869 542.818 125.869C544.318 125.869 545.423 125.713 546.054 125.322C546.764 125.009 547.08 124.462 547.08 123.837ZM543.134 131.811C544.554 131.811 545.58 131.655 546.291 131.264C547.001 130.873 547.317 130.326 547.317 129.544C547.317 128.84 547.001 128.371 546.37 127.98C545.738 127.667 544.554 127.433 542.976 127.433H538.241C536.505 127.433 534.768 127.433 533.032 127.433C533.032 128.215 533.032 128.918 533.032 129.7C533.032 130.404 533.032 131.107 533.032 131.655C535.163 131.655 536.978 131.733 538.635 131.733C540.214 131.811 541.713 131.811 543.134 131.811ZM483.943 120.084H486.626C486.626 120.631 486.548 121.179 486.548 121.804C486.548 122.429 486.548 123.133 486.548 123.915C486.548 124.384 486.548 124.853 486.548 125.4C486.548 125.947 486.548 126.417 486.548 126.964C486.548 128.215 486.39 129.309 485.995 130.169C485.6 131.029 485.048 131.811 484.259 132.358C483.47 132.905 482.365 133.375 481.102 133.609C479.76 133.844 478.182 134 476.367 134C474.473 134 472.894 133.844 471.631 133.609C470.29 133.375 469.264 132.905 468.475 132.358C467.685 131.811 467.054 131.029 466.738 130.169C466.344 129.231 466.186 128.215 466.186 126.964C466.186 126.495 466.186 125.947 466.186 125.4C466.186 124.853 466.186 124.384 466.186 123.915C466.186 123.055 466.186 122.351 466.186 121.804C466.186 121.179 466.186 120.631 466.186 120.084H468.869C468.869 120.553 468.869 121.1 468.869 121.648C468.869 122.273 468.869 122.898 468.869 123.524C468.869 124.149 468.869 124.775 468.869 125.322C468.869 125.869 468.869 126.417 468.869 126.807C468.869 128.606 469.501 129.856 470.684 130.638C471.868 131.42 473.841 131.811 476.604 131.811C479.366 131.811 481.339 131.42 482.444 130.56C483.627 129.778 484.18 128.449 484.18 126.729C484.18 126.338 484.18 125.791 484.18 125.244C484.18 124.697 484.18 124.071 484.18 123.446C484.18 122.82 484.18 122.195 484.18 121.569C484.022 121.022 484.022 120.475 483.943 120.084ZM419.702 120.084H422.464C422.385 121.022 422.385 122.039 422.385 123.133C422.385 124.228 422.385 125.478 422.385 126.886C422.385 128.293 422.385 129.544 422.385 130.638C422.385 131.733 422.385 132.749 422.464 133.687H419.702C419.702 133.296 419.702 132.905 419.702 132.358C419.702 131.889 419.702 131.342 419.702 130.873C419.702 130.404 419.702 129.856 419.702 129.387V128.058C418.597 128.058 417.334 127.98 415.992 127.98C414.651 127.98 413.388 127.98 412.046 127.98C410.704 127.98 409.442 127.98 408.1 127.98C406.758 127.98 405.575 127.98 404.391 128.058V129.387C404.391 129.856 404.391 130.404 404.391 130.873C404.391 131.342 404.391 131.889 404.391 132.358C404.391 132.827 404.391 133.296 404.391 133.687H401.629C401.708 132.749 401.708 131.733 401.708 130.638C401.708 129.544 401.708 128.293 401.708 126.886C401.708 125.478 401.708 124.228 401.708 123.133C401.708 122.039 401.708 121.022 401.629 120.084H404.391C404.391 120.397 404.391 120.866 404.391 121.335C404.391 121.804 404.391 122.351 404.391 122.82C404.391 123.368 404.391 123.837 404.391 124.384V125.791C405.496 125.791 406.758 125.869 408.1 125.869H412.046H415.992C417.334 125.869 418.518 125.869 419.702 125.791V124.384C419.702 123.837 419.702 123.368 419.702 122.82C419.702 122.273 419.702 121.804 419.702 121.335C419.702 120.788 419.702 120.397 419.702 120.084ZM342.99 120.084H345.753C345.753 120.709 345.753 121.569 345.674 122.742C345.674 123.915 345.674 125.322 345.674 126.886V129.309C345.674 130.169 345.674 130.873 345.674 131.576H348.909H352.461C353.645 131.576 354.907 131.576 356.17 131.576C357.433 131.576 358.617 131.576 359.722 131.498C359.722 131.655 359.722 131.889 359.722 132.045V132.593V133.14C359.722 133.296 359.722 133.531 359.722 133.687H342.99C342.99 132.827 342.99 131.889 342.99 130.716C342.99 129.622 342.99 128.293 342.99 126.886C342.99 125.322 342.99 123.993 342.99 122.82C342.99 121.648 342.99 120.709 342.99 120.084ZM301.794 133.609H298.4C298.242 133.375 298.005 132.984 297.611 132.436C297.216 131.889 296.743 131.264 296.269 130.482C295.085 130.482 293.902 130.482 292.718 130.482C291.534 130.482 290.429 130.482 289.482 130.482H288.061H286.404C285.852 130.482 285.22 130.482 284.668 130.482C284.036 130.482 283.484 130.482 282.932 130.482C282.458 131.107 281.984 131.733 281.59 132.28C281.195 132.827 280.88 133.296 280.643 133.609H277.486C278.196 132.749 279.064 131.655 280.09 130.326C281.116 128.996 282.142 127.667 283.168 126.338C284.194 125.009 285.141 123.758 286.009 122.586C286.878 121.413 287.509 120.553 287.904 120.006H291.534C292.007 120.709 292.718 121.648 293.586 122.82C294.454 123.993 295.401 125.244 296.427 126.495C297.374 127.746 298.4 129.075 299.426 130.326C300.215 131.655 301.083 132.749 301.794 133.609ZM289.482 128.762H292.086C293.112 128.762 294.059 128.762 294.928 128.762C294.375 127.98 293.744 127.198 293.191 126.338C292.639 125.557 292.086 124.853 291.613 124.149C291.139 123.524 290.745 122.898 290.429 122.508C290.113 122.038 289.798 121.726 289.64 121.413C289.403 121.726 289.166 122.117 288.772 122.586C288.456 123.055 288.061 123.602 287.588 124.228C287.114 124.853 286.562 125.635 286.009 126.417C285.457 127.198 284.826 127.98 284.273 128.762C284.747 128.762 285.141 128.762 285.615 128.762C286.088 128.762 286.562 128.762 287.035 128.762H288.377H289.482ZM218.769 120.084H238.183C238.183 120.24 238.183 120.397 238.183 120.553V121.1V121.648C238.183 121.882 238.183 122.039 238.183 122.195C236.684 122.195 235.184 122.117 233.764 122.117C232.343 122.117 231.002 122.117 229.739 122.117V126.104C229.739 127.355 229.739 128.527 229.739 129.466C229.739 130.482 229.739 131.342 229.739 132.045C229.739 132.749 229.739 133.296 229.739 133.609C229.581 133.609 229.344 133.609 229.107 133.609H228.397H227.766C227.529 133.609 227.292 133.609 227.056 133.609C227.056 133.296 227.056 132.827 227.056 132.124C227.056 131.42 227.056 130.56 227.056 129.544C227.056 128.527 227.056 127.433 227.056 126.182V122.195C225.872 122.195 224.53 122.195 223.031 122.195C221.61 122.195 220.11 122.195 218.611 122.273V121.179V120.084H218.769ZM176.941 133.609H174.257C174.257 132.984 174.257 132.436 174.257 131.967C174.257 131.42 174.257 130.951 174.257 130.404C174.257 129.856 174.257 129.309 174.257 128.762V126.807V124.853C174.257 124.306 174.257 123.758 174.257 123.211C174.257 122.664 174.257 122.195 174.257 121.648C174.257 121.1 174.257 120.553 174.257 120.006H176.941C176.941 120.631 176.862 121.179 176.862 121.648C176.862 122.195 176.862 122.664 176.862 123.211V124.853V126.807V128.762V130.404C176.862 130.951 176.862 131.42 176.862 131.967C176.862 132.515 176.941 133.062 176.941 133.609ZM128.641 125.322V125.088C128.641 123.993 128.01 123.133 126.668 122.508C125.326 121.96 123.196 121.648 120.354 121.648C119.013 121.648 117.75 121.726 116.645 121.96C115.54 122.195 114.593 122.508 113.883 122.898C113.094 123.368 112.541 123.837 112.147 124.54C111.752 125.166 111.515 125.947 111.515 126.807C111.515 127.667 111.752 128.371 112.147 128.996C112.541 129.622 113.173 130.169 113.883 130.638C114.672 131.107 115.619 131.42 116.724 131.655C117.829 131.889 119.092 131.967 120.591 131.967C123.432 131.967 125.484 131.655 126.747 131.029C128.01 130.404 128.72 129.387 128.72 127.98H126.352C125.405 127.98 124.537 127.98 123.59 127.98C122.643 127.98 121.696 127.98 120.828 127.98C119.96 127.98 119.25 127.98 118.618 127.98C118.618 127.902 118.618 127.824 118.618 127.667V127.433V127.042C118.618 126.886 118.618 126.807 118.618 126.651C119.881 126.651 121.144 126.651 122.406 126.651H125.721H126.905H128.247H129.667C130.141 126.651 130.614 126.651 131.088 126.651C131.167 127.824 131.088 128.918 130.851 129.778C130.614 130.716 130.141 131.498 129.351 132.124C128.562 132.749 127.457 133.218 126.037 133.531C124.616 133.844 122.722 134 120.433 134C118.697 134 117.04 133.844 115.619 133.531C114.199 133.218 112.936 132.749 111.91 132.202C110.884 131.576 110.095 130.873 109.542 129.935C108.99 128.996 108.674 127.98 108.674 126.807C108.674 125.557 108.99 124.54 109.542 123.602C110.095 122.742 110.884 121.96 111.91 121.413C112.936 120.866 114.12 120.397 115.54 120.084C116.961 119.771 118.539 119.693 120.197 119.693C123.827 119.693 126.51 120.162 128.325 121.022C130.141 121.882 131.088 123.211 131.088 125.009V125.4C130.93 125.4 130.772 125.4 130.535 125.4H129.825H129.115C128.957 125.322 128.72 125.322 128.641 125.322ZM66.2147 133.609H63.5313C63.5313 132.984 63.5313 132.436 63.5313 131.967C63.5313 131.42 63.5313 130.951 63.5313 130.404C63.5313 129.856 63.5313 129.309 63.5313 128.762V126.807V124.853C63.5313 124.306 63.5313 123.758 63.5313 123.211C63.5313 122.664 63.5313 122.195 63.5313 121.648C63.5313 121.1 63.5313 120.553 63.5313 120.006H66.2147C66.2147 120.631 66.1357 121.179 66.1357 121.648C66.1357 122.195 66.1357 122.664 66.1357 123.211V124.853V126.807V128.762V130.404C66.1357 130.951 66.1357 131.42 66.1357 131.967C66.1357 132.515 66.2147 133.062 66.2147 133.609ZM0 120.084H11.0489C12.7852 120.084 14.2847 120.24 15.5474 120.475C16.8102 120.709 17.7572 121.179 18.5464 121.648C19.3356 122.195 19.8092 122.898 20.2038 123.68C20.5194 124.54 20.6773 125.478 20.6773 126.651C20.6773 127.824 20.5194 128.84 20.1248 129.7C19.8092 130.56 19.2567 131.264 18.4675 131.889C17.6783 132.436 16.7312 132.905 15.4685 133.14C14.2847 133.453 12.7852 133.531 11.0489 133.531H0C0 132.593 0.0789209 131.576 0.0789209 130.482C0.0789209 129.387 0.0789209 128.137 0.0789209 126.729C0.0789209 125.322 0.0789209 123.993 0.0789209 122.977C0.0789209 122.039 0 121.022 0 120.084ZM10.8911 131.655C13.3376 131.655 15.1528 131.264 16.2577 130.482C17.4415 129.7 17.994 128.449 17.994 126.729C17.994 125.009 17.4415 123.758 16.3366 123.055C15.2317 122.351 13.4166 121.96 10.8122 121.96C9.31267 121.96 7.89209 121.96 6.55044 121.96C5.20878 121.96 3.86713 121.96 2.68331 121.96C2.68331 122.351 2.68331 122.742 2.68331 123.133C2.68331 123.524 2.68331 123.993 2.68331 124.384C2.68331 124.775 2.68331 125.244 2.68331 125.635V126.807C2.68331 127.824 2.68331 128.684 2.68331 129.466C2.68331 130.247 2.68331 130.873 2.68331 131.498C3.47252 131.498 4.10389 131.576 4.81418 131.576C5.44554 131.576 6.07691 131.576 6.70828 131.576C7.33965 131.576 7.97101 131.576 8.6813 131.576C9.31267 131.655 10.1019 131.655 10.8911 131.655Z" fill="white"/>
</g>
<defs>
<clipPath id="clip0">
<rect width="550" height="134" fill="white"/>
</clipPath>
</defs>
</svg>
