<?xml version="1.0" encoding="utf-8"?>
<!-- Generator: Adobe Illustrator 25.4.1, SVG Export Plug-In . SVG Version: 6.00 Build 0)  -->
<svg version="1.1" id="Livello_1" xmlns="http://www.w3.org/2000/svg" xmlns:xlink="http://www.w3.org/1999/xlink" x="0px" y="0px"
	 viewBox="0 0 710.1 165" style="enable-background:new 0 0 710.1 165;" xml:space="preserve">
<style type="text/css">
	.st0{fill:none;stroke:#961115;stroke-width:3;stroke-miterlimit:10;}
	.st1{fill:none;stroke:url(#SVGID_1_);stroke-width:3;stroke-miterlimit:10;}
	.st2{fill:none;stroke:url(#SVGID_00000087404182127129628080000000454431589010939828_);stroke-width:3;stroke-miterlimit:10;}
	.st3{fill:none;stroke:url(#SVGID_00000057855359167693529910000000678403254067056024_);stroke-width:3;stroke-miterlimit:10;}
	.st4{fill:none;stroke:url(#SVGID_00000159453526931239609500000012757741314353713334_);stroke-width:3;stroke-miterlimit:10;}
	.st5{fill:none;stroke:url(#SVGID_00000179633431060859667660000001465106815880051368_);stroke-width:3;stroke-miterlimit:10;}
	.st6{fill:none;stroke:url(#SVGID_00000164507796400920515340000014841399032397934762_);stroke-width:3;stroke-miterlimit:10;}
	.st7{fill:none;stroke:url(#SVGID_00000099623608768240719700000001095567338286055329_);stroke-width:3;stroke-miterlimit:10;}
	.st8{fill:none;stroke:url(#SVGID_00000040556514952869955240000003913710828737298826_);stroke-width:3;stroke-miterlimit:10;}
	.st9{opacity:0.25;}
</style>
<g>
	<g>
		
			<image style="overflow:visible;opacity:0.75;" width="755" height="194" xlink:href="C58A86D6B87B2ED7.png"  transform="matrix(1 0 0 1 -30.3 -14.6238)">
		</image>
		<g>
			<g>
				<path class="st0" d="M159.9,17.1h-59.6c-1.8,0-3.3,1.5-3.3,3.2v48.3c0,1.8-1.5,3.3-3.2,3.3c-0.9,0-1.7-0.3-2.3-0.9l-54-53
					c-0.6-0.6-1.4-0.9-2.3-0.9H4.8c-1.8,0-3.3,1.5-3.3,3.2v55c0,1.8,1.5,3.2,3.2,3.2h69.8c2.1,0,3.8,1.7,3.8,3.8s-1.7,3.8-3.8,3.8
					H4.8c-1.8,0-3.2,1.5-3.2,3.2v55c0,1.8,1.5,3.2,3.2,3.2h89c1.8,0,3.2-1.5,3.2-3.2v-55c0-1.8-1.4-3.3-3.2-3.3c0,0,0,0-0.1,0h-4.5
					c-2.1,0-3.8-1.7-3.8-3.8c0-2.1,1.7-3.8,3.8-3.8l0,0h70.6c1.8,0,3.2-1.5,3.2-3.2l0,0v-55C163.1,18.5,161.7,17.1,159.9,17.1"/>
				<path class="st0" d="M619.4,78.6h70.2c1.8,0,3.2-1.5,3.2-3.2v-55c0-1.8-1.5-3.2-3.2-3.2H534.5c-1.8,0-3.2,1.4-3.2,3.2l0,0v55
					c0,1.8,1.5,3.2,3.2,3.2l0,0h70.2c2.1,0,3.8,1.7,3.8,3.8c0,2.1-1.7,3.8-3.8,3.8h-70.2c-1.8,0-3.2,1.5-3.2,3.2v54.9
					c0,1.8,1.4,3.3,3.2,3.3l0,0h155.1c1.8,0,3.2-1.5,3.2-3.3v-55c0-1.8-1.4-3.3-3.2-3.3l0,0h-70.2c-2.1,0-3.8-1.7-3.8-3.8
					C615.7,80.2,617.3,78.5,619.4,78.6"/>
				<path class="st0" d="M513.1,17.1h-30.2c-1,0-1.9,0.5-2.6,1.2l-42.2,52.3c-1.1,1.4-3.1,1.7-4.5,0.6c-0.2-0.2-0.4-0.4-0.6-0.6
					l-42.3-52.3c-0.6-0.7-1.5-1.2-2.5-1.2h-30.3c-1.8,0-3.3,1.5-3.3,3.2v124c0,1.8,1.5,3.3,3.3,3.2h70.5c1.8,0,3.2-1.5,3.2-3.2v-62
					l0,0c0.1-2.1,1.9-3.7,4-3.6c1.9,0.1,3.5,1.7,3.6,3.6l0,0v62c0,1.8,1.5,3.2,3.2,3.2h70.5c1.8,0,3.3-1.5,3.3-3.2v-124
					C516.3,18.6,514.8,17.1,513.1,17.1"/>
				<path class="st0" d="M258.9,27.6c30.2,0,54.7,24.5,54.7,54.7s-24.5,54.8-54.7,54.8c-30.2,0-54.7-24.5-54.7-54.7l0,0
					C204.3,52.2,228.7,27.7,258.9,27.6 M336.5,17.1H181.3c-1.8,0-3.2,1.5-3.2,3.2v124c0,1.8,1.5,3.2,3.2,3.2h155.1
					c1.8,0,3.2-1.5,3.2-3.2v-124C339.7,18.6,338.3,17.1,336.5,17.1"/>
			</g>
		</g>
	</g>
	<g>
		<path class="st0" d="M159.9,17.1h-59.6c-1.8,0-3.3,1.5-3.3,3.2v48.3c0,1.8-1.5,3.3-3.2,3.3c-0.9,0-1.7-0.3-2.3-0.9l-54-53
			c-0.6-0.6-1.4-0.9-2.3-0.9H4.8c-1.8,0-3.3,1.5-3.3,3.2v55c0,1.8,1.5,3.2,3.2,3.2h69.8c2.1,0,3.8,1.7,3.8,3.8s-1.7,3.8-3.8,3.8H4.8
			c-1.8,0-3.2,1.5-3.2,3.2v55c0,1.8,1.5,3.2,3.2,3.2h89c1.8,0,3.2-1.5,3.2-3.2v-55c0-1.8-1.4-3.3-3.2-3.3c0,0,0,0-0.1,0h-4.5
			c-2.1,0-3.8-1.7-3.8-3.8c0-2.1,1.7-3.8,3.8-3.8l0,0h70.6c1.8,0,3.2-1.5,3.2-3.2l0,0v-55C163.1,18.5,161.7,17.1,159.9,17.1"/>
		<path class="st0" d="M619.4,78.6h70.2c1.8,0,3.2-1.5,3.2-3.2v-55c0-1.8-1.5-3.2-3.2-3.2H534.5c-1.8,0-3.2,1.4-3.2,3.2l0,0v55
			c0,1.8,1.5,3.2,3.2,3.2l0,0h70.2c2.1,0,3.8,1.7,3.8,3.8c0,2.1-1.7,3.8-3.8,3.8h-70.2c-1.8,0-3.2,1.5-3.2,3.2v54.9
			c0,1.8,1.4,3.3,3.2,3.3l0,0h155.1c1.8,0,3.2-1.5,3.2-3.3v-55c0-1.8-1.4-3.3-3.2-3.3l0,0h-70.2c-2.1,0-3.8-1.7-3.8-3.8
			C615.7,80.2,617.3,78.5,619.4,78.6"/>
		<path class="st0" d="M513.1,17.1h-30.2c-1,0-1.9,0.5-2.6,1.2l-42.2,52.3c-1.1,1.4-3.1,1.7-4.5,0.6c-0.2-0.2-0.4-0.4-0.6-0.6
			l-42.3-52.3c-0.6-0.7-1.5-1.2-2.5-1.2h-30.3c-1.8,0-3.3,1.5-3.3,3.2v124c0,1.8,1.5,3.3,3.3,3.2h70.5c1.8,0,3.2-1.5,3.2-3.2v-62
			l0,0c0.1-2.1,1.9-3.7,4-3.6c1.9,0.1,3.5,1.7,3.6,3.6l0,0v62c0,1.8,1.5,3.2,3.2,3.2h70.5c1.8,0,3.3-1.5,3.3-3.2v-124
			C516.3,18.6,514.8,17.1,513.1,17.1"/>
		<path class="st0" d="M258.9,27.6c30.2,0,54.7,24.5,54.7,54.7s-24.5,54.8-54.7,54.8c-30.2,0-54.7-24.5-54.7-54.7l0,0
			C204.3,52.2,228.7,27.7,258.9,27.6 M336.5,17.1H181.3c-1.8,0-3.2,1.5-3.2,3.2v124c0,1.8,1.5,3.2,3.2,3.2h155.1
			c1.8,0,3.2-1.5,3.2-3.2v-124C339.7,18.6,338.3,17.1,336.5,17.1"/>
	</g>
	<g>
		
			<image style="overflow:visible;" width="690" height="164" xlink:href="C58A86D6B87B2ED5.png"  transform="matrix(1 0 0 1 19.7 0.3762)">
		</image>
		<g>
			<g>
				<radialGradient id="SVGID_1_" cx="124.2025" cy="82.3" r="55.1053" gradientUnits="userSpaceOnUse">
					<stop  offset="0" style="stop-color:#FF0000"/>
					<stop  offset="1" style="stop-color:#1A252D;stop-opacity:0"/>
				</radialGradient>
				<path class="st1" d="M93.8,147.5c1.8,0,3.2-1.5,3.2-3.2v-55c0-1.8-1.4-3.3-3.2-3.3c0,0,0,0-0.1,0h-4.5c-2.1,0-3.8-1.7-3.8-3.8
					c0-2.1,1.7-3.8,3.8-3.8l0,0h70.6c1.8,0,3.2-1.5,3.2-3.2l0,0v-55c0.1-1.7-1.3-3.1-3.1-3.1"/>
				
					<radialGradient id="SVGID_00000134946903501188366630000013708473410677343893_" cx="77.15" cy="82.3" r="4.19" gradientUnits="userSpaceOnUse">
					<stop  offset="0" style="stop-color:#FF0000"/>
					<stop  offset="1" style="stop-color:#1A252D;stop-opacity:0"/>
				</radialGradient>
				
					<path style="fill:none;stroke:url(#SVGID_00000134946903501188366630000013708473410677343893_);stroke-width:3;stroke-miterlimit:10;" d="
					M74.5,78.5c2.1,0,3.8,1.7,3.8,3.8s-1.7,3.8-3.8,3.8"/>
				
					<radialGradient id="SVGID_00000081606894493574196340000010636334362491704726_" cx="97.55" cy="44.5" r="48.5939" gradientUnits="userSpaceOnUse">
					<stop  offset="0" style="stop-color:#FF0000"/>
					<stop  offset="1" style="stop-color:#1A252D;stop-opacity:0"/>
				</radialGradient>
				
					<path style="fill:none;stroke:url(#SVGID_00000081606894493574196340000010636334362491704726_);stroke-width:3;stroke-miterlimit:10;" d="
					M159.9,17.1h-59.6c-1.8,0-3.3,1.5-3.3,3.2v48.3c0,1.8-1.5,3.3-3.2,3.3c-0.9,0-1.7-0.3-2.3-0.9l-54-53c-0.6-0.6-1.4-0.9-2.3-0.9"
					/>
				
					<radialGradient id="SVGID_00000050643716539840527640000007035057640038542773_" cx="654.2" cy="113.0979" r="38.1062" gradientUnits="userSpaceOnUse">
					<stop  offset="0" style="stop-color:#FF0000"/>
					<stop  offset="1" style="stop-color:#1A252D;stop-opacity:0"/>
				</radialGradient>
				
					<path style="fill:none;stroke:url(#SVGID_00000050643716539840527640000007035057640038542773_);stroke-width:3;stroke-miterlimit:10;" d="
					M689.6,147.6c1.8,0,3.2-1.5,3.2-3.3v-55c0-1.8-1.4-3.3-3.2-3.3l0,0h-70.2c-2.1,0-3.8-1.7-3.8-3.8c0.1-2,1.7-3.7,3.8-3.6"/>
				
					<radialGradient id="SVGID_00000085208215638794121890000015678134159553288356_" cx="612.05" cy="52.55" r="63.7299" gradientUnits="userSpaceOnUse">
					<stop  offset="0" style="stop-color:#FF0000"/>
					<stop  offset="1" style="stop-color:#1A252D;stop-opacity:0"/>
				</radialGradient>
				
					<path style="fill:none;stroke:url(#SVGID_00000085208215638794121890000015678134159553288356_);stroke-width:3;stroke-miterlimit:10;" d="
					M619.4,78.6h70.2c1.8,0,3.2-1.5,3.2-3.2v-55c0-1.8-1.5-3.2-3.2-3.2H534.5c-1.8,0-3.2,1.4-3.2,3.2l0,0v55c0,1.8,1.5,3.2,3.2,3.2
					l0,0h70.2c2.1,0,3.8,1.7,3.8,3.8c0,2.1-1.7,3.8-3.8,3.8h-70.2c-1.8,0-3.2,1.5-3.2,3.2"/>
				
					<radialGradient id="SVGID_00000044155445613613411680000014817358488919013293_" cx="473.0524" cy="82.3" r="56.757" gradientUnits="userSpaceOnUse">
					<stop  offset="0" style="stop-color:#FF0000"/>
					<stop  offset="1" style="stop-color:#1A252D;stop-opacity:0"/>
				</radialGradient>
				
					<path style="fill:none;stroke:url(#SVGID_00000044155445613613411680000014817358488919013293_);stroke-width:3;stroke-miterlimit:10;" d="
					M428.4,147.5c1.8,0,3.2-1.5,3.2-3.2v-62l0,0c0.1-2.1,1.9-3.7,4-3.6c1.9,0.1,3.5,1.7,3.6,3.6l0,0v62c0,1.8,1.5,3.2,3.2,3.2h70.5
					c1.8,0,3.3-1.5,3.3-3.2v-124c0.1-1.7-1.4-3.2-3.1-3.2"/>
				
					<radialGradient id="SVGID_00000174562170851089994700000016828759162373980348_" cx="450.65" cy="44.4838" r="48.6533" gradientUnits="userSpaceOnUse">
					<stop  offset="0" style="stop-color:#FF0000"/>
					<stop  offset="1" style="stop-color:#1A252D;stop-opacity:0"/>
				</radialGradient>
				
					<path style="fill:none;stroke:url(#SVGID_00000174562170851089994700000016828759162373980348_);stroke-width:3;stroke-miterlimit:10;" d="
					M513.1,17.1h-30.2c-1,0-1.9,0.5-2.6,1.2l-42.2,52.3c-1.1,1.4-3.1,1.7-4.5,0.6c-0.2-0.2-0.4-0.4-0.6-0.6l-42.3-52.3
					c-0.6-0.7-1.5-1.2-2.5-1.2"/>
				
					<radialGradient id="SVGID_00000120524784056209196280000003834512149351121575_" cx="271.9025" cy="82.3" r="67.9628" gradientUnits="userSpaceOnUse">
					<stop  offset="0" style="stop-color:#FF0000"/>
					<stop  offset="1" style="stop-color:#1A252D;stop-opacity:0"/>
				</radialGradient>
				
					<path style="fill:none;stroke:url(#SVGID_00000120524784056209196280000003834512149351121575_);stroke-width:3;stroke-miterlimit:10;" d="
					M258.9,27.6c30.2,0,54.7,24.5,54.7,54.7s-24.5,54.8-54.7,54.8c-30.2,0-54.7-24.5-54.7-54.7l0,0
					C204.3,52.2,228.7,27.7,258.9,27.6 M336.4,147.5c1.8,0,3.2-1.5,3.2-3.2v-124c0.1-1.7-1.3-3.2-3.1-3.2 M336.5,17.1"/>
			</g>
		</g>
	</g>
	<g class="st9">
		
			<image style="overflow:visible;" width="763" height="238" xlink:href="C58A86D6B87B2EDB.png"  transform="matrix(1 0 0 1 -16.3 -36.6238)">
		</image>
	</g>
</g>
</svg>
