<svg width="187" height="189" viewBox="0 0 187 189" fill="none" xmlns="http://www.w3.org/2000/svg">

<path d="M71.2848 158.756C61.9049 167.793 46.3888 159.457 48.7557 146.647C50.3336 138.048 43.4083 130.239 34.6421 130.765C21.6682 131.643 15.1812 115.322 25.1747 106.987C31.9246 101.371 31.6616 90.9294 24.561 85.7525C14.0416 78.0311 19.5643 61.3597 32.6259 61.4474C41.3921 61.5352 47.8791 53.2873 45.7752 44.7761C42.707 32.141 57.6095 22.8401 67.5153 31.3513C74.1776 37.0546 84.434 34.9488 88.2911 27.0518C94.0768 15.3819 111.434 17.9264 113.625 30.7371C115.116 39.4237 124.232 44.3374 132.297 40.8276C144.219 35.563 155.878 48.7246 149.304 59.9558C144.833 67.5018 148.69 77.2414 157.106 79.6982C169.641 83.3835 170.167 100.932 157.807 105.232C149.567 108.127 146.236 118.13 151.145 125.413C158.421 136.293 147.55 150.069 135.278 145.506C127.038 142.435 118.184 147.963 117.219 156.65C115.817 169.636 98.6352 173.146 92.1482 161.827C87.9405 154.193 77.5964 152.701 71.2848 158.756Z" stroke="white" stroke-width="0.4016" stroke-miterlimit="10"/>
<path d="M70.4958 161.125C60.7654 170.513 44.7233 161.827 47.1778 148.577C48.8434 139.628 41.6551 131.555 32.5383 132.169C19.0384 133.047 12.3761 116.112 22.7202 107.513C29.7331 101.722 29.3825 90.9297 22.1065 85.4895C11.2365 77.5048 16.9345 60.2192 30.4344 60.307C39.5512 60.3947 46.2135 51.8836 44.022 43.0214C40.7785 29.8598 56.2946 20.2957 66.551 29.0701C73.4763 34.949 84.0834 32.7554 88.0282 24.5952C93.9892 12.4865 111.96 15.1188 114.239 28.4559C115.729 37.4058 125.284 42.5827 133.612 38.8975C145.973 33.4573 158.07 47.0577 151.232 58.7276C146.674 66.5368 150.619 76.6274 159.385 79.172C172.446 83.0327 172.972 101.283 160.261 105.758C151.671 108.829 148.339 119.095 153.336 126.641C160.875 137.873 149.567 152.175 136.943 147.437C128.44 144.278 119.236 149.981 118.271 159.019C116.781 172.444 98.9859 176.129 92.3236 164.371C87.7652 156.474 77.0704 154.895 70.4958 161.125Z" stroke="white" stroke-width="0.4162" stroke-miterlimit="10"/>
<path d="M69.7945 163.582C59.7134 173.233 43.1453 164.284 45.6875 150.595C47.3531 141.382 39.9019 132.959 30.6097 133.573C16.6715 134.538 9.65855 116.99 20.5286 108.04C27.8045 102.073 27.4539 90.8418 19.8273 85.314C8.51895 77.066 14.48 59.1663 28.4182 59.254C37.798 59.3417 44.7232 50.5673 42.5317 41.442C39.2006 27.8416 55.2427 17.9266 65.8497 27.052C73.038 33.194 83.9957 30.9127 88.1158 22.4893C94.2521 9.94189 112.924 12.662 115.291 26.4378C116.869 35.7386 126.687 41.0033 135.278 37.2303C148.076 31.6146 160.612 45.6537 153.511 57.7624C148.778 65.8348 152.898 76.2763 161.927 78.9087C175.339 82.8571 175.865 101.634 162.716 106.373C153.862 109.531 150.356 120.148 155.528 127.958C163.33 139.628 151.583 154.368 138.521 149.455C129.755 146.208 120.2 152.087 119.148 161.388C117.658 175.339 99.1612 179.112 92.3236 166.916C87.6775 158.668 76.5444 157.089 69.7945 163.582Z" stroke="white" stroke-width="0.4308" stroke-miterlimit="10"/>
<path d="M69.0056 165.951C58.5738 175.953 41.4798 166.74 44.1096 152.526C45.8629 142.962 38.1486 134.275 28.5059 134.977C14.0417 135.942 6.85342 117.779 18.0741 108.566C25.5254 102.336 25.2624 90.7541 17.3728 85.0507C5.71381 76.5395 11.8501 58.0255 26.3143 58.1133C36.0448 58.201 43.233 49.0757 40.8662 39.687C37.4474 25.648 54.0154 15.382 64.9731 24.7706C72.3367 31.0881 83.7327 28.7191 88.0282 20.0324C94.4275 7.04629 113.713 9.8541 116.08 24.1564C117.658 33.7205 127.914 39.2483 136.768 35.2999C150.005 29.421 162.979 43.9865 155.615 56.5339C150.706 64.9573 155.002 75.6621 164.294 78.3822C178.144 82.3306 178.67 101.898 165.083 106.723C155.966 109.97 152.284 121.026 157.719 129.098C165.784 141.119 153.687 156.387 140.099 151.385C130.982 147.875 121.077 154.017 120.112 163.669C118.534 178.059 99.5118 182.008 92.3236 169.373C87.5022 160.949 76.0185 159.282 69.0056 165.951Z" stroke="white" stroke-width="0.4454" stroke-miterlimit="10"/>
<path d="M68.3042 168.407C57.5218 178.761 39.8142 169.197 42.5317 154.456C44.3726 144.541 36.3954 135.591 26.4019 136.293C11.4994 137.258 4.04818 118.569 15.6195 109.092C23.3338 102.687 22.9831 90.754 14.9182 84.7874C2.90858 75.9253 9.22023 56.8848 24.1227 56.9726C34.1162 57.0603 41.5674 47.6717 39.2005 37.9321C35.6064 23.4544 52.7881 12.8373 64.0965 22.5769C71.7231 29.07 83.4697 26.7009 87.8528 17.6633C94.4275 4.23845 114.327 7.13399 116.781 21.875C118.447 31.79 128.966 37.4934 138.171 33.3694C151.846 27.3151 165.17 42.4071 157.632 55.3054C152.547 63.9921 156.93 75.0478 166.573 77.8556C180.95 82.0674 181.476 102.161 167.45 107.162C157.982 110.496 154.213 121.903 159.823 130.239C168.151 142.698 155.703 158.405 141.677 153.228C132.297 149.718 122.129 156.036 120.989 165.951C119.411 180.867 99.6871 184.903 92.3236 171.917C87.4145 163.143 75.5802 161.388 68.3042 168.407Z" stroke="white" stroke-width="0.46" stroke-miterlimit="10"/>
<path d="M67.5152 170.777C56.3822 181.481 38.1486 171.566 40.9537 156.387C42.7946 146.208 34.6421 136.995 24.298 137.609C8.95721 138.662 1.24298 119.359 13.165 109.531C21.1422 102.951 20.7915 90.5787 12.4637 84.4366C0.0157142 75.3112 6.59035 55.5688 21.9312 55.7443C32.2752 55.832 39.9018 46.0925 37.4473 36.0897C33.7655 21.0854 51.4732 10.2052 63.1322 20.208C71.0217 26.9643 83.119 24.4197 87.6775 15.1188C94.5151 1.25529 115.028 4.32633 117.57 19.506C119.323 29.6843 130.193 35.5632 139.661 31.4392C153.774 25.2094 167.537 40.7401 159.735 53.9894C154.476 62.9393 159.034 74.4338 169.028 77.3293C183.842 81.6288 184.456 102.424 169.904 107.513C160.174 110.935 156.229 122.693 162.015 131.292C170.605 144.103 157.719 160.423 143.255 154.983C133.525 151.385 123.093 157.878 121.953 168.144C120.288 183.5 99.9501 187.711 92.4112 174.286C87.2391 165.424 75.0542 163.582 67.5152 170.777Z" stroke="white" stroke-width="0.4746" stroke-miterlimit="10"/>
<path d="M66.814 173.146C55.3303 184.114 36.4831 174.023 39.3759 158.317C41.3045 147.788 32.8889 138.311 22.1942 139.013C6.32742 140.066 -1.56214 120.148 10.7105 110.058C18.9507 103.301 18.6001 90.4907 9.92156 84.2609C-2.87706 74.8723 3.87289 54.5157 19.7397 54.6912C30.4344 54.7789 38.324 44.7761 35.7818 34.4223C32.0123 18.9794 50.1583 7.74817 62.2556 18.102C70.4082 25.0337 82.8561 22.4892 87.5899 12.8373C94.6028 -1.46495 115.729 1.69384 118.359 17.4C120.112 27.9293 131.333 33.9836 141.064 29.6842C155.615 23.2789 169.817 39.2483 161.752 52.9363C156.317 62.1494 161.05 73.9949 171.307 76.9782C186.56 81.4531 187.174 102.775 172.183 108.127C162.102 111.725 158.158 123.833 164.031 132.696C172.885 145.945 159.56 162.704 144.745 157.176C134.752 153.403 123.882 160.159 122.742 170.777C121.164 186.483 100.213 190.782 92.3236 176.919C87.0639 167.618 74.5282 165.775 66.814 173.146Z" stroke="white" stroke-width="0.4892" stroke-miterlimit="10"/>
<path d="M66.1127 175.603C54.2784 186.922 34.9051 176.48 37.8856 160.335C39.9018 149.543 31.1357 139.715 20.1779 140.417C3.87285 141.47 -4.27969 121.026 8.3436 110.584C16.8468 103.565 16.4085 90.4909 7.55466 83.9979C-5.68227 74.346 1.24301 53.3752 17.6358 53.5507C28.5935 53.6384 36.746 43.3724 34.1162 32.6676C30.2591 16.786 48.931 5.20376 61.379 15.8208C69.7068 22.9281 82.5931 20.2957 87.4145 10.4684C94.6028 -4.18484 116.431 -1.02606 119.148 15.1188C120.989 25.9991 132.473 32.2289 142.554 27.754C157.544 21.1732 172.183 37.5813 163.856 51.7081C158.245 61.1844 163.154 73.3809 173.674 76.4519C189.453 81.0146 190.066 103.038 174.726 108.566C164.381 112.251 160.261 124.711 166.398 133.836C175.515 147.437 161.839 164.722 146.498 159.019C136.242 155.158 125.021 162.09 123.882 172.97C122.129 189.203 100.564 193.678 92.4989 179.463C86.9762 169.899 74.0022 167.969 66.1127 175.603Z" stroke="white" stroke-width="0.5038" stroke-miterlimit="10"/>
<text style="color: white" x="50%" y="50%" dominant-baseline="middle" text-anchor="middle">TEXT</text>   
</svg>
