<svg width="1440" height="190" viewBox="0 0 1440 190" fill="none" xmlns="http://www.w3.org/2000/svg">
<path d="M179.158 81.7446C179.158 106.678 158.959 126.878 134.026 126.878C109.093 126.878 88.8945 106.678 88.8945 81.7446" stroke="black" stroke-width="0.5" stroke-miterlimit="10"/>
<path d="M-1.36877 81.7445C-1.36877 56.8109 18.83 36.6116 43.7629 36.6116C68.6957 36.6116 88.8945 56.8109 88.8945 81.7445" stroke="black" stroke-width="0.5" stroke-miterlimit="10"/>
<path d="M359.369 81.7446C359.369 106.678 339.17 126.878 314.237 126.878C289.304 126.878 269.105 106.678 269.105 81.7446" stroke="black" stroke-width="0.5" stroke-miterlimit="10"/>
<path d="M179.158 81.7445C179.158 56.8109 199.357 36.6116 224.289 36.6116C249.222 36.6116 269.105 56.8109 269.105 81.7445" stroke="black" stroke-width="0.5" stroke-miterlimit="10"/>
<path d="M179.158 99.4187C179.158 124.352 158.959 144.552 134.026 144.552C109.093 144.552 88.8945 124.352 88.8945 99.4187" stroke="black" stroke-width="0.5" stroke-miterlimit="10"/>
<path d="M-1.36877 99.4185C-1.36877 74.485 18.83 54.2856 43.7629 54.2856C68.6957 54.2856 88.8945 74.485 88.8945 99.4185" stroke="black" stroke-width="0.5" stroke-miterlimit="10"/>
<path d="M359.369 99.4187C359.369 124.352 339.17 144.552 314.237 144.552C289.304 144.552 269.105 124.352 269.105 99.4187" stroke="black" stroke-width="0.5" stroke-miterlimit="10"/>
<path d="M179.158 99.4185C179.158 74.485 199.357 54.2856 224.289 54.2856C249.222 54.2856 269.421 74.485 269.421 99.4185" stroke="black" stroke-width="0.5" stroke-miterlimit="10"/>
<path d="M179.158 117.409C179.158 142.342 158.959 162.542 134.026 162.542C109.093 162.542 88.8945 142.342 88.8945 117.409" stroke="black" stroke-width="0.5" stroke-miterlimit="10"/>
<path d="M-1.36877 117.408C-1.36877 92.475 18.83 72.2756 43.7629 72.2756C68.6957 72.2756 88.8945 92.475 88.8945 117.408" stroke="black" stroke-width="0.5" stroke-miterlimit="10"/>
<path d="M359.369 117.409C359.369 142.342 339.17 162.542 314.237 162.542C289.304 162.542 269.105 142.342 269.105 117.409" stroke="black" stroke-width="0.5" stroke-miterlimit="10"/>
<path d="M179.158 117.408C179.158 92.475 199.357 72.2756 224.289 72.2756C249.222 72.2756 269.421 92.475 269.421 117.408" stroke="black" stroke-width="0.5" stroke-miterlimit="10"/>
<path d="M179.158 126.246C179.158 151.179 158.959 171.379 134.026 171.379C109.093 171.379 88.8945 151.179 88.8945 126.246" stroke="black" stroke-width="0.5" stroke-miterlimit="10"/>
<path d="M-1.36877 126.246C-1.36877 101.312 18.83 81.1128 43.7629 81.1128C68.6957 81.1128 88.8945 101.628 88.8945 126.246" stroke="black" stroke-width="0.5" stroke-miterlimit="10"/>
<path d="M359.369 126.246C359.369 151.179 339.17 171.379 314.237 171.379C289.304 171.379 269.105 151.179 269.105 126.246" stroke="black" stroke-width="0.5" stroke-miterlimit="10"/>
<path d="M179.158 126.246C179.158 101.312 199.357 81.1128 224.289 81.1128C249.222 81.1128 269.105 101.628 269.105 126.246" stroke="black" stroke-width="0.5" stroke-miterlimit="10"/>
<path d="M179.158 135.399C179.158 160.332 158.959 180.532 134.026 180.532C109.093 180.532 88.8945 160.332 88.8945 135.399" stroke="black" stroke-width="0.5" stroke-miterlimit="10"/>
<path d="M-1.36877 135.399C-1.36877 110.465 18.83 90.2659 43.7629 90.2659C68.6957 90.2659 88.8945 110.465 88.8945 135.399" stroke="black" stroke-width="0.5" stroke-miterlimit="10"/>
<path d="M359.369 135.399C359.369 160.332 339.17 180.532 314.237 180.532C289.304 180.532 269.105 160.332 269.105 135.399" stroke="black" stroke-width="0.5" stroke-miterlimit="10"/>
<path d="M179.158 135.399C179.158 110.465 199.357 90.2659 224.289 90.2659C249.222 90.2659 269.105 110.465 269.105 135.399" stroke="black" stroke-width="0.5" stroke-miterlimit="10"/>
<path d="M179.158 144.236C179.158 169.169 158.959 189.369 134.026 189.369C109.093 189.369 88.8945 169.169 88.8945 144.236" stroke="black" stroke-width="0.5" stroke-miterlimit="10"/>
<path d="M-1.36877 144.236C-1.36877 119.302 18.83 99.1028 43.7629 99.1028C68.6957 99.1028 88.8945 119.302 88.8945 144.236" stroke="black" stroke-width="0.5" stroke-miterlimit="10"/>
<path d="M359.369 144.236C359.369 169.169 339.17 189.369 314.237 189.369C289.304 189.369 269.105 169.169 269.105 144.236" stroke="black" stroke-width="0.5" stroke-miterlimit="10"/>
<path d="M179.158 144.236C179.158 119.302 199.357 99.1028 224.289 99.1028C249.222 99.1028 269.421 119.302 269.421 144.236" stroke="black" stroke-width="0.5" stroke-miterlimit="10"/>
<path d="M179.158 45.7642C179.158 70.6977 158.959 90.897 134.026 90.897C109.093 90.897 88.8945 70.6977 88.8945 45.7642" stroke="black" stroke-width="0.5" stroke-miterlimit="10"/>
<path d="M-1.36877 45.7647C-1.36877 20.8312 18.83 0.631836 43.7629 0.631836C68.6957 0.631836 88.8945 20.8312 88.8945 45.7647" stroke="black" stroke-width="0.5" stroke-miterlimit="10"/>
<path d="M359.369 45.7642C359.369 70.6977 339.17 90.897 314.237 90.897C289.304 90.897 269.105 70.6977 269.105 45.7642" stroke="black" stroke-width="0.5" stroke-miterlimit="10"/>
<path d="M179.158 45.764C179.158 20.8304 199.357 0.631104 224.289 0.631104C249.222 0.631104 269.421 20.8304 269.421 45.764" stroke="black" stroke-width="0.5" stroke-miterlimit="10"/>
<path d="M179.158 54.9172C179.158 79.8508 158.959 100.05 134.026 100.05C109.093 100.05 88.8945 79.8508 88.8945 54.9172" stroke="black" stroke-width="0.5" stroke-miterlimit="10"/>
<path d="M-1.36877 54.9171C-1.36877 29.9835 18.83 9.78418 43.7629 9.78418C68.6957 9.78418 88.8945 29.9835 88.8945 54.9171" stroke="black" stroke-width="0.5" stroke-miterlimit="10"/>
<path d="M359.369 54.9172C359.369 79.8508 339.17 100.05 314.237 100.05C289.304 100.05 269.105 79.8508 269.105 54.9172" stroke="black" stroke-width="0.5" stroke-miterlimit="10"/>
<path d="M179.158 54.9171C179.158 29.9835 199.357 9.78418 224.289 9.78418C249.222 9.78418 269.421 29.9835 269.421 54.9171" stroke="black" stroke-width="0.5" stroke-miterlimit="10"/>
<path d="M179.158 63.7542C179.158 88.6877 158.959 108.887 134.026 108.887C109.093 108.887 88.8945 88.6877 88.8945 63.7542" stroke="black" stroke-width="0.5" stroke-miterlimit="10"/>
<path d="M-1.36877 63.754C-1.36877 38.8204 18.83 18.6211 43.7629 18.6211C68.6957 18.6211 88.8945 38.8204 88.8945 63.754" stroke="black" stroke-width="0.5" stroke-miterlimit="10"/>
<path d="M359.369 63.7542C359.369 88.6877 339.17 108.887 314.237 108.887C289.304 108.887 269.105 88.6877 269.105 63.7542" stroke="black" stroke-width="0.5" stroke-miterlimit="10"/>
<path d="M179.158 63.754C179.158 38.8204 199.357 18.6211 224.289 18.6211C249.222 18.6211 269.421 38.8204 269.421 63.754" stroke="black" stroke-width="0.5" stroke-miterlimit="10"/>
<path d="M179.158 72.5913C179.158 97.5249 158.959 117.724 134.026 117.724C109.093 117.724 88.8945 97.5249 88.8945 72.5913" stroke="black" stroke-width="0.5" stroke-miterlimit="10"/>
<path d="M-1.36877 72.5911C-1.36877 47.6576 18.83 27.4583 43.7629 27.4583C68.6957 27.4583 88.8945 47.6576 88.8945 72.5911" stroke="black" stroke-width="0.5" stroke-miterlimit="10"/>
<path d="M359.369 72.5913C359.369 97.5249 339.17 117.724 314.237 117.724C289.304 117.724 269.105 97.5249 269.105 72.5913" stroke="black" stroke-width="0.5" stroke-miterlimit="10"/>
<path d="M179.158 72.5911C179.158 47.6576 199.357 27.4583 224.289 27.4583C249.222 27.4583 269.105 47.6576 269.105 72.5911" stroke="black" stroke-width="0.5" stroke-miterlimit="10"/>
<path d="M179.158 90.5813C179.158 115.515 158.959 135.714 134.026 135.714C109.093 135.714 88.8945 115.515 88.8945 90.5813" stroke="black" stroke-width="0.5" stroke-miterlimit="10"/>
<path d="M-1.36877 90.5811C-1.36877 65.6476 18.83 45.4482 43.7629 45.4482C68.6957 45.4482 88.8945 65.6476 88.8945 90.5811" stroke="black" stroke-width="0.5" stroke-miterlimit="10"/>
<path d="M359.369 90.5813C359.369 115.515 339.17 135.714 314.237 135.714C289.304 135.714 269.105 115.515 269.105 90.5813" stroke="black" stroke-width="0.5" stroke-miterlimit="10"/>
<path d="M179.158 90.5811C179.158 65.6476 199.357 45.4482 224.289 45.4482C249.222 45.4482 269.421 65.6476 269.421 90.5811" stroke="black" stroke-width="0.5" stroke-miterlimit="10"/>
<path d="M179.158 108.572C179.158 133.505 158.959 153.705 134.026 153.705C109.093 153.705 88.8945 133.505 88.8945 108.572" stroke="black" stroke-width="0.5" stroke-miterlimit="10"/>
<path d="M-1.36877 108.572C-1.36877 83.6381 18.83 63.4387 43.7629 63.4387C68.6957 63.4387 88.8945 83.6381 88.8945 108.572" stroke="black" stroke-width="0.5" stroke-miterlimit="10"/>
<path d="M359.369 108.572C359.369 133.505 339.17 153.705 314.237 153.705C289.304 153.705 269.105 133.505 269.105 108.572" stroke="black" stroke-width="0.5" stroke-miterlimit="10"/>
<path d="M179.158 108.572C179.158 83.6381 199.357 63.4387 224.289 63.4387C249.222 63.4387 269.421 83.6381 269.421 108.572" stroke="black" stroke-width="0.5" stroke-miterlimit="10"/>
<path d="M540.158 81.7446C540.158 106.678 519.959 126.878 495.026 126.878C470.093 126.878 449.895 106.678 449.895 81.7446" stroke="black" stroke-width="0.5" stroke-miterlimit="10"/>
<path d="M359.631 81.7445C359.631 56.8109 379.83 36.6116 404.763 36.6116C429.696 36.6116 449.895 56.8109 449.895 81.7445" stroke="black" stroke-width="0.5" stroke-miterlimit="10"/>
<path d="M720.369 81.7446C720.369 106.678 700.17 126.878 675.237 126.878C650.304 126.878 630.106 106.678 630.106 81.7446" stroke="black" stroke-width="0.5" stroke-miterlimit="10"/>
<path d="M540.158 81.7445C540.158 56.8109 560.357 36.6116 585.289 36.6116C610.222 36.6116 630.106 56.8109 630.106 81.7445" stroke="black" stroke-width="0.5" stroke-miterlimit="10"/>
<path d="M540.158 99.4187C540.158 124.352 519.959 144.552 495.026 144.552C470.093 144.552 449.895 124.352 449.895 99.4187" stroke="black" stroke-width="0.5" stroke-miterlimit="10"/>
<path d="M359.631 99.4185C359.631 74.485 379.83 54.2856 404.763 54.2856C429.696 54.2856 449.895 74.485 449.895 99.4185" stroke="black" stroke-width="0.5" stroke-miterlimit="10"/>
<path d="M720.369 99.4187C720.369 124.352 700.17 144.552 675.237 144.552C650.304 144.552 630.106 124.352 630.106 99.4187" stroke="black" stroke-width="0.5" stroke-miterlimit="10"/>
<path d="M540.158 99.4185C540.158 74.485 560.357 54.2856 585.289 54.2856C610.222 54.2856 630.421 74.485 630.421 99.4185" stroke="black" stroke-width="0.5" stroke-miterlimit="10"/>
<path d="M540.158 117.409C540.158 142.342 519.959 162.542 495.026 162.542C470.093 162.542 449.895 142.342 449.895 117.409" stroke="black" stroke-width="0.5" stroke-miterlimit="10"/>
<path d="M359.631 117.408C359.631 92.475 379.83 72.2756 404.763 72.2756C429.696 72.2756 449.895 92.475 449.895 117.408" stroke="black" stroke-width="0.5" stroke-miterlimit="10"/>
<path d="M720.369 117.409C720.369 142.342 700.17 162.542 675.237 162.542C650.304 162.542 630.106 142.342 630.106 117.409" stroke="black" stroke-width="0.5" stroke-miterlimit="10"/>
<path d="M540.158 117.408C540.158 92.475 560.357 72.2756 585.289 72.2756C610.222 72.2756 630.421 92.475 630.421 117.408" stroke="black" stroke-width="0.5" stroke-miterlimit="10"/>
<path d="M540.158 126.246C540.158 151.179 519.959 171.379 495.026 171.379C470.093 171.379 449.895 151.179 449.895 126.246" stroke="black" stroke-width="0.5" stroke-miterlimit="10"/>
<path d="M359.631 126.246C359.631 101.312 379.83 81.1128 404.763 81.1128C429.696 81.1128 449.895 101.628 449.895 126.246" stroke="black" stroke-width="0.5" stroke-miterlimit="10"/>
<path d="M720.369 126.246C720.369 151.179 700.17 171.379 675.237 171.379C650.304 171.379 630.106 151.179 630.106 126.246" stroke="black" stroke-width="0.5" stroke-miterlimit="10"/>
<path d="M540.158 126.246C540.158 101.312 560.357 81.1128 585.289 81.1128C610.222 81.1128 630.106 101.628 630.106 126.246" stroke="black" stroke-width="0.5" stroke-miterlimit="10"/>
<path d="M540.158 135.399C540.158 160.332 519.959 180.532 495.026 180.532C470.093 180.532 449.895 160.332 449.895 135.399" stroke="black" stroke-width="0.5" stroke-miterlimit="10"/>
<path d="M359.631 135.399C359.631 110.465 379.83 90.2659 404.763 90.2659C429.696 90.2659 449.895 110.465 449.895 135.399" stroke="black" stroke-width="0.5" stroke-miterlimit="10"/>
<path d="M720.369 135.399C720.369 160.332 700.17 180.532 675.237 180.532C650.304 180.532 630.106 160.332 630.106 135.399" stroke="black" stroke-width="0.5" stroke-miterlimit="10"/>
<path d="M540.158 135.399C540.158 110.465 560.357 90.2659 585.289 90.2659C610.222 90.2659 630.106 110.465 630.106 135.399" stroke="black" stroke-width="0.5" stroke-miterlimit="10"/>
<path d="M540.158 144.236C540.158 169.169 519.959 189.369 495.026 189.369C470.093 189.369 449.895 169.169 449.895 144.236" stroke="black" stroke-width="0.5" stroke-miterlimit="10"/>
<path d="M359.631 144.236C359.631 119.302 379.83 99.1028 404.763 99.1028C429.696 99.1028 449.895 119.302 449.895 144.236" stroke="black" stroke-width="0.5" stroke-miterlimit="10"/>
<path d="M720.369 144.236C720.369 169.169 700.17 189.369 675.237 189.369C650.304 189.369 630.106 169.169 630.106 144.236" stroke="black" stroke-width="0.5" stroke-miterlimit="10"/>
<path d="M540.158 144.236C540.158 119.302 560.357 99.1028 585.289 99.1028C610.222 99.1028 630.421 119.302 630.421 144.236" stroke="black" stroke-width="0.5" stroke-miterlimit="10"/>
<path d="M540.158 45.7642C540.158 70.6977 519.959 90.897 495.026 90.897C470.093 90.897 449.895 70.6977 449.895 45.7642" stroke="black" stroke-width="0.5" stroke-miterlimit="10"/>
<path d="M359.631 45.7647C359.631 20.8312 379.83 0.631836 404.763 0.631836C429.696 0.631836 449.895 20.8312 449.895 45.7647" stroke="black" stroke-width="0.5" stroke-miterlimit="10"/>
<path d="M720.369 45.7642C720.369 70.6977 700.17 90.897 675.237 90.897C650.304 90.897 630.106 70.6977 630.106 45.7642" stroke="black" stroke-width="0.5" stroke-miterlimit="10"/>
<path d="M540.158 45.764C540.158 20.8304 560.357 0.631104 585.289 0.631104C610.222 0.631104 630.421 20.8304 630.421 45.764" stroke="black" stroke-width="0.5" stroke-miterlimit="10"/>
<path d="M540.158 54.9172C540.158 79.8508 519.959 100.05 495.026 100.05C470.093 100.05 449.895 79.8508 449.895 54.9172" stroke="black" stroke-width="0.5" stroke-miterlimit="10"/>
<path d="M359.631 54.9171C359.631 29.9835 379.83 9.78418 404.763 9.78418C429.696 9.78418 449.895 29.9835 449.895 54.9171" stroke="black" stroke-width="0.5" stroke-miterlimit="10"/>
<path d="M720.369 54.9172C720.369 79.8508 700.17 100.05 675.237 100.05C650.304 100.05 630.106 79.8508 630.106 54.9172" stroke="black" stroke-width="0.5" stroke-miterlimit="10"/>
<path d="M540.158 54.9171C540.158 29.9835 560.357 9.78418 585.289 9.78418C610.222 9.78418 630.421 29.9835 630.421 54.9171" stroke="black" stroke-width="0.5" stroke-miterlimit="10"/>
<path d="M540.158 63.7542C540.158 88.6877 519.959 108.887 495.026 108.887C470.093 108.887 449.895 88.6877 449.895 63.7542" stroke="black" stroke-width="0.5" stroke-miterlimit="10"/>
<path d="M359.631 63.754C359.631 38.8204 379.83 18.6211 404.763 18.6211C429.696 18.6211 449.895 38.8204 449.895 63.754" stroke="black" stroke-width="0.5" stroke-miterlimit="10"/>
<path d="M720.369 63.7542C720.369 88.6877 700.17 108.887 675.237 108.887C650.304 108.887 630.106 88.6877 630.106 63.7542" stroke="black" stroke-width="0.5" stroke-miterlimit="10"/>
<path d="M540.158 63.754C540.158 38.8204 560.357 18.6211 585.289 18.6211C610.222 18.6211 630.421 38.8204 630.421 63.754" stroke="black" stroke-width="0.5" stroke-miterlimit="10"/>
<path d="M540.158 72.5913C540.158 97.5249 519.959 117.724 495.026 117.724C470.093 117.724 449.895 97.5249 449.895 72.5913" stroke="black" stroke-width="0.5" stroke-miterlimit="10"/>
<path d="M359.631 72.5911C359.631 47.6576 379.83 27.4583 404.763 27.4583C429.696 27.4583 449.895 47.6576 449.895 72.5911" stroke="black" stroke-width="0.5" stroke-miterlimit="10"/>
<path d="M720.369 72.5913C720.369 97.5249 700.17 117.724 675.237 117.724C650.304 117.724 630.106 97.5249 630.106 72.5913" stroke="black" stroke-width="0.5" stroke-miterlimit="10"/>
<path d="M540.158 72.5911C540.158 47.6576 560.357 27.4583 585.289 27.4583C610.222 27.4583 630.106 47.6576 630.106 72.5911" stroke="black" stroke-width="0.5" stroke-miterlimit="10"/>
<path d="M540.158 90.5813C540.158 115.515 519.959 135.714 495.026 135.714C470.093 135.714 449.895 115.515 449.895 90.5813" stroke="black" stroke-width="0.5" stroke-miterlimit="10"/>
<path d="M359.631 90.5811C359.631 65.6476 379.83 45.4482 404.763 45.4482C429.696 45.4482 449.895 65.6476 449.895 90.5811" stroke="black" stroke-width="0.5" stroke-miterlimit="10"/>
<path d="M720.369 90.5813C720.369 115.515 700.17 135.714 675.237 135.714C650.304 135.714 630.106 115.515 630.106 90.5813" stroke="black" stroke-width="0.5" stroke-miterlimit="10"/>
<path d="M540.158 90.5811C540.158 65.6476 560.357 45.4482 585.289 45.4482C610.222 45.4482 630.421 65.6476 630.421 90.5811" stroke="black" stroke-width="0.5" stroke-miterlimit="10"/>
<path d="M540.158 108.572C540.158 133.505 519.959 153.705 495.026 153.705C470.093 153.705 449.895 133.505 449.895 108.572" stroke="black" stroke-width="0.5" stroke-miterlimit="10"/>
<path d="M359.631 108.572C359.631 83.6381 379.83 63.4387 404.763 63.4387C429.696 63.4387 449.895 83.6381 449.895 108.572" stroke="black" stroke-width="0.5" stroke-miterlimit="10"/>
<path d="M720.369 108.572C720.369 133.505 700.17 153.705 675.237 153.705C650.304 153.705 630.106 133.505 630.106 108.572" stroke="black" stroke-width="0.5" stroke-miterlimit="10"/>
<path d="M540.158 108.572C540.158 83.6381 560.357 63.4387 585.289 63.4387C610.222 63.4387 630.421 83.6381 630.421 108.572" stroke="black" stroke-width="0.5" stroke-miterlimit="10"/>
<path d="M900.158 81.7446C900.158 106.678 879.959 126.878 855.026 126.878C830.093 126.878 809.895 106.678 809.895 81.7446" stroke="black" stroke-width="0.5" stroke-miterlimit="10"/>
<path d="M719.631 81.7445C719.631 56.8109 739.83 36.6116 764.763 36.6116C789.696 36.6116 809.895 56.8109 809.895 81.7445" stroke="black" stroke-width="0.5" stroke-miterlimit="10"/>
<path d="M1080.37 81.7446C1080.37 106.678 1060.17 126.878 1035.24 126.878C1010.3 126.878 990.106 106.678 990.106 81.7446" stroke="black" stroke-width="0.5" stroke-miterlimit="10"/>
<path d="M900.158 81.7445C900.158 56.8109 920.357 36.6116 945.289 36.6116C970.222 36.6116 990.106 56.8109 990.106 81.7445" stroke="black" stroke-width="0.5" stroke-miterlimit="10"/>
<path d="M900.158 99.4187C900.158 124.352 879.959 144.552 855.026 144.552C830.093 144.552 809.895 124.352 809.895 99.4187" stroke="black" stroke-width="0.5" stroke-miterlimit="10"/>
<path d="M719.631 99.4185C719.631 74.485 739.83 54.2856 764.763 54.2856C789.696 54.2856 809.895 74.485 809.895 99.4185" stroke="black" stroke-width="0.5" stroke-miterlimit="10"/>
<path d="M1080.37 99.4187C1080.37 124.352 1060.17 144.552 1035.24 144.552C1010.3 144.552 990.106 124.352 990.106 99.4187" stroke="black" stroke-width="0.5" stroke-miterlimit="10"/>
<path d="M900.158 99.4185C900.158 74.485 920.357 54.2856 945.289 54.2856C970.222 54.2856 990.421 74.485 990.421 99.4185" stroke="black" stroke-width="0.5" stroke-miterlimit="10"/>
<path d="M900.158 117.409C900.158 142.342 879.959 162.542 855.026 162.542C830.093 162.542 809.895 142.342 809.895 117.409" stroke="black" stroke-width="0.5" stroke-miterlimit="10"/>
<path d="M719.631 117.408C719.631 92.475 739.83 72.2756 764.763 72.2756C789.696 72.2756 809.895 92.475 809.895 117.408" stroke="black" stroke-width="0.5" stroke-miterlimit="10"/>
<path d="M1080.37 117.409C1080.37 142.342 1060.17 162.542 1035.24 162.542C1010.3 162.542 990.106 142.342 990.106 117.409" stroke="black" stroke-width="0.5" stroke-miterlimit="10"/>
<path d="M900.158 117.408C900.158 92.475 920.357 72.2756 945.289 72.2756C970.222 72.2756 990.421 92.475 990.421 117.408" stroke="black" stroke-width="0.5" stroke-miterlimit="10"/>
<path d="M900.158 126.246C900.158 151.179 879.959 171.379 855.026 171.379C830.093 171.379 809.895 151.179 809.895 126.246" stroke="black" stroke-width="0.5" stroke-miterlimit="10"/>
<path d="M719.631 126.246C719.631 101.312 739.83 81.1128 764.763 81.1128C789.696 81.1128 809.895 101.628 809.895 126.246" stroke="black" stroke-width="0.5" stroke-miterlimit="10"/>
<path d="M1080.37 126.246C1080.37 151.179 1060.17 171.379 1035.24 171.379C1010.3 171.379 990.106 151.179 990.106 126.246" stroke="black" stroke-width="0.5" stroke-miterlimit="10"/>
<path d="M900.158 126.246C900.158 101.312 920.357 81.1128 945.289 81.1128C970.222 81.1128 990.106 101.628 990.106 126.246" stroke="black" stroke-width="0.5" stroke-miterlimit="10"/>
<path d="M900.158 135.399C900.158 160.332 879.959 180.532 855.026 180.532C830.093 180.532 809.895 160.332 809.895 135.399" stroke="black" stroke-width="0.5" stroke-miterlimit="10"/>
<path d="M719.631 135.399C719.631 110.465 739.83 90.2659 764.763 90.2659C789.696 90.2659 809.895 110.465 809.895 135.399" stroke="black" stroke-width="0.5" stroke-miterlimit="10"/>
<path d="M1080.37 135.399C1080.37 160.332 1060.17 180.532 1035.24 180.532C1010.3 180.532 990.106 160.332 990.106 135.399" stroke="black" stroke-width="0.5" stroke-miterlimit="10"/>
<path d="M900.158 135.399C900.158 110.465 920.357 90.2659 945.289 90.2659C970.222 90.2659 990.106 110.465 990.106 135.399" stroke="black" stroke-width="0.5" stroke-miterlimit="10"/>
<path d="M900.158 144.236C900.158 169.169 879.959 189.369 855.026 189.369C830.093 189.369 809.895 169.169 809.895 144.236" stroke="black" stroke-width="0.5" stroke-miterlimit="10"/>
<path d="M719.631 144.236C719.631 119.302 739.83 99.1028 764.763 99.1028C789.696 99.1028 809.895 119.302 809.895 144.236" stroke="black" stroke-width="0.5" stroke-miterlimit="10"/>
<path d="M1080.37 144.236C1080.37 169.169 1060.17 189.369 1035.24 189.369C1010.3 189.369 990.106 169.169 990.106 144.236" stroke="black" stroke-width="0.5" stroke-miterlimit="10"/>
<path d="M900.158 144.236C900.158 119.302 920.357 99.1028 945.289 99.1028C970.222 99.1028 990.421 119.302 990.421 144.236" stroke="black" stroke-width="0.5" stroke-miterlimit="10"/>
<path d="M900.158 45.7642C900.158 70.6977 879.959 90.897 855.026 90.897C830.093 90.897 809.895 70.6977 809.895 45.7642" stroke="black" stroke-width="0.5" stroke-miterlimit="10"/>
<path d="M719.631 45.7647C719.631 20.8312 739.83 0.631836 764.763 0.631836C789.696 0.631836 809.895 20.8312 809.895 45.7647" stroke="black" stroke-width="0.5" stroke-miterlimit="10"/>
<path d="M1080.37 45.7642C1080.37 70.6977 1060.17 90.897 1035.24 90.897C1010.3 90.897 990.106 70.6977 990.106 45.7642" stroke="black" stroke-width="0.5" stroke-miterlimit="10"/>
<path d="M900.158 45.764C900.158 20.8304 920.357 0.631104 945.289 0.631104C970.222 0.631104 990.421 20.8304 990.421 45.764" stroke="black" stroke-width="0.5" stroke-miterlimit="10"/>
<path d="M900.158 54.9172C900.158 79.8508 879.959 100.05 855.026 100.05C830.093 100.05 809.895 79.8508 809.895 54.9172" stroke="black" stroke-width="0.5" stroke-miterlimit="10"/>
<path d="M719.631 54.9171C719.631 29.9835 739.83 9.78418 764.763 9.78418C789.696 9.78418 809.895 29.9835 809.895 54.9171" stroke="black" stroke-width="0.5" stroke-miterlimit="10"/>
<path d="M1080.37 54.9172C1080.37 79.8508 1060.17 100.05 1035.24 100.05C1010.3 100.05 990.106 79.8508 990.106 54.9172" stroke="black" stroke-width="0.5" stroke-miterlimit="10"/>
<path d="M900.158 54.9171C900.158 29.9835 920.357 9.78418 945.289 9.78418C970.222 9.78418 990.421 29.9835 990.421 54.9171" stroke="black" stroke-width="0.5" stroke-miterlimit="10"/>
<path d="M900.158 63.7542C900.158 88.6877 879.959 108.887 855.026 108.887C830.093 108.887 809.895 88.6877 809.895 63.7542" stroke="black" stroke-width="0.5" stroke-miterlimit="10"/>
<path d="M719.631 63.754C719.631 38.8204 739.83 18.6211 764.763 18.6211C789.696 18.6211 809.895 38.8204 809.895 63.754" stroke="black" stroke-width="0.5" stroke-miterlimit="10"/>
<path d="M1080.37 63.7542C1080.37 88.6877 1060.17 108.887 1035.24 108.887C1010.3 108.887 990.106 88.6877 990.106 63.7542" stroke="black" stroke-width="0.5" stroke-miterlimit="10"/>
<path d="M900.158 63.754C900.158 38.8204 920.357 18.6211 945.289 18.6211C970.222 18.6211 990.421 38.8204 990.421 63.754" stroke="black" stroke-width="0.5" stroke-miterlimit="10"/>
<path d="M900.158 72.5913C900.158 97.5249 879.959 117.724 855.026 117.724C830.093 117.724 809.895 97.5249 809.895 72.5913" stroke="black" stroke-width="0.5" stroke-miterlimit="10"/>
<path d="M719.631 72.5911C719.631 47.6576 739.83 27.4583 764.763 27.4583C789.696 27.4583 809.895 47.6576 809.895 72.5911" stroke="black" stroke-width="0.5" stroke-miterlimit="10"/>
<path d="M1080.37 72.5913C1080.37 97.5249 1060.17 117.724 1035.24 117.724C1010.3 117.724 990.106 97.5249 990.106 72.5913" stroke="black" stroke-width="0.5" stroke-miterlimit="10"/>
<path d="M900.158 72.5911C900.158 47.6576 920.357 27.4583 945.289 27.4583C970.222 27.4583 990.106 47.6576 990.106 72.5911" stroke="black" stroke-width="0.5" stroke-miterlimit="10"/>
<path d="M900.158 90.5813C900.158 115.515 879.959 135.714 855.026 135.714C830.093 135.714 809.895 115.515 809.895 90.5813" stroke="black" stroke-width="0.5" stroke-miterlimit="10"/>
<path d="M719.631 90.5811C719.631 65.6476 739.83 45.4482 764.763 45.4482C789.696 45.4482 809.895 65.6476 809.895 90.5811" stroke="black" stroke-width="0.5" stroke-miterlimit="10"/>
<path d="M1080.37 90.5813C1080.37 115.515 1060.17 135.714 1035.24 135.714C1010.3 135.714 990.106 115.515 990.106 90.5813" stroke="black" stroke-width="0.5" stroke-miterlimit="10"/>
<path d="M900.158 90.5811C900.158 65.6476 920.357 45.4482 945.289 45.4482C970.222 45.4482 990.421 65.6476 990.421 90.5811" stroke="black" stroke-width="0.5" stroke-miterlimit="10"/>
<path d="M900.158 108.572C900.158 133.505 879.959 153.705 855.026 153.705C830.093 153.705 809.895 133.505 809.895 108.572" stroke="black" stroke-width="0.5" stroke-miterlimit="10"/>
<path d="M719.631 108.572C719.631 83.6381 739.83 63.4387 764.763 63.4387C789.696 63.4387 809.895 83.6381 809.895 108.572" stroke="black" stroke-width="0.5" stroke-miterlimit="10"/>
<path d="M1080.37 108.572C1080.37 133.505 1060.17 153.705 1035.24 153.705C1010.3 153.705 990.106 133.505 990.106 108.572" stroke="black" stroke-width="0.5" stroke-miterlimit="10"/>
<path d="M900.158 108.572C900.158 83.6381 920.357 63.4387 945.289 63.4387C970.222 63.4387 990.421 83.6381 990.421 108.572" stroke="black" stroke-width="0.5" stroke-miterlimit="10"/>
<path d="M1261.16 81.7446C1261.16 106.678 1240.96 126.878 1216.03 126.878C1191.09 126.878 1170.89 106.678 1170.89 81.7446" stroke="black" stroke-width="0.5" stroke-miterlimit="10"/>
<path d="M1080.63 81.7445C1080.63 56.8109 1100.83 36.6116 1125.76 36.6116C1150.7 36.6116 1170.89 56.8109 1170.89 81.7445" stroke="black" stroke-width="0.5" stroke-miterlimit="10"/>
<path d="M1441.37 81.7446C1441.37 106.678 1421.17 126.878 1396.24 126.878C1371.3 126.878 1351.11 106.678 1351.11 81.7446" stroke="black" stroke-width="0.5" stroke-miterlimit="10"/>
<path d="M1261.16 81.7445C1261.16 56.8109 1281.36 36.6116 1306.29 36.6116C1331.22 36.6116 1351.11 56.8109 1351.11 81.7445" stroke="black" stroke-width="0.5" stroke-miterlimit="10"/>
<path d="M1261.16 99.4187C1261.16 124.352 1240.96 144.552 1216.03 144.552C1191.09 144.552 1170.89 124.352 1170.89 99.4187" stroke="black" stroke-width="0.5" stroke-miterlimit="10"/>
<path d="M1080.63 99.4185C1080.63 74.485 1100.83 54.2856 1125.76 54.2856C1150.7 54.2856 1170.89 74.485 1170.89 99.4185" stroke="black" stroke-width="0.5" stroke-miterlimit="10"/>
<path d="M1441.37 99.4187C1441.37 124.352 1421.17 144.552 1396.24 144.552C1371.3 144.552 1351.11 124.352 1351.11 99.4187" stroke="black" stroke-width="0.5" stroke-miterlimit="10"/>
<path d="M1261.16 99.4185C1261.16 74.485 1281.36 54.2856 1306.29 54.2856C1331.22 54.2856 1351.42 74.485 1351.42 99.4185" stroke="black" stroke-width="0.5" stroke-miterlimit="10"/>
<path d="M1261.16 117.409C1261.16 142.342 1240.96 162.542 1216.03 162.542C1191.09 162.542 1170.89 142.342 1170.89 117.409" stroke="black" stroke-width="0.5" stroke-miterlimit="10"/>
<path d="M1080.63 117.408C1080.63 92.475 1100.83 72.2756 1125.76 72.2756C1150.7 72.2756 1170.89 92.475 1170.89 117.408" stroke="black" stroke-width="0.5" stroke-miterlimit="10"/>
<path d="M1441.37 117.409C1441.37 142.342 1421.17 162.542 1396.24 162.542C1371.3 162.542 1351.11 142.342 1351.11 117.409" stroke="black" stroke-width="0.5" stroke-miterlimit="10"/>
<path d="M1261.16 117.408C1261.16 92.475 1281.36 72.2756 1306.29 72.2756C1331.22 72.2756 1351.42 92.475 1351.42 117.408" stroke="black" stroke-width="0.5" stroke-miterlimit="10"/>
<path d="M1261.16 126.246C1261.16 151.179 1240.96 171.379 1216.03 171.379C1191.09 171.379 1170.89 151.179 1170.89 126.246" stroke="black" stroke-width="0.5" stroke-miterlimit="10"/>
<path d="M1080.63 126.246C1080.63 101.312 1100.83 81.1128 1125.76 81.1128C1150.7 81.1128 1170.89 101.628 1170.89 126.246" stroke="black" stroke-width="0.5" stroke-miterlimit="10"/>
<path d="M1441.37 126.246C1441.37 151.179 1421.17 171.379 1396.24 171.379C1371.3 171.379 1351.11 151.179 1351.11 126.246" stroke="black" stroke-width="0.5" stroke-miterlimit="10"/>
<path d="M1261.16 126.246C1261.16 101.312 1281.36 81.1128 1306.29 81.1128C1331.22 81.1128 1351.11 101.628 1351.11 126.246" stroke="black" stroke-width="0.5" stroke-miterlimit="10"/>
<path d="M1261.16 135.399C1261.16 160.332 1240.96 180.532 1216.03 180.532C1191.09 180.532 1170.89 160.332 1170.89 135.399" stroke="black" stroke-width="0.5" stroke-miterlimit="10"/>
<path d="M1080.63 135.399C1080.63 110.465 1100.83 90.2659 1125.76 90.2659C1150.7 90.2659 1170.89 110.465 1170.89 135.399" stroke="black" stroke-width="0.5" stroke-miterlimit="10"/>
<path d="M1441.37 135.399C1441.37 160.332 1421.17 180.532 1396.24 180.532C1371.3 180.532 1351.11 160.332 1351.11 135.399" stroke="black" stroke-width="0.5" stroke-miterlimit="10"/>
<path d="M1261.16 135.399C1261.16 110.465 1281.36 90.2659 1306.29 90.2659C1331.22 90.2659 1351.11 110.465 1351.11 135.399" stroke="black" stroke-width="0.5" stroke-miterlimit="10"/>
<path d="M1261.16 144.236C1261.16 169.169 1240.96 189.369 1216.03 189.369C1191.09 189.369 1170.89 169.169 1170.89 144.236" stroke="black" stroke-width="0.5" stroke-miterlimit="10"/>
<path d="M1080.63 144.236C1080.63 119.302 1100.83 99.1028 1125.76 99.1028C1150.7 99.1028 1170.89 119.302 1170.89 144.236" stroke="black" stroke-width="0.5" stroke-miterlimit="10"/>
<path d="M1441.37 144.236C1441.37 169.169 1421.17 189.369 1396.24 189.369C1371.3 189.369 1351.11 169.169 1351.11 144.236" stroke="black" stroke-width="0.5" stroke-miterlimit="10"/>
<path d="M1261.16 144.236C1261.16 119.302 1281.36 99.1028 1306.29 99.1028C1331.22 99.1028 1351.42 119.302 1351.42 144.236" stroke="black" stroke-width="0.5" stroke-miterlimit="10"/>
<path d="M1261.16 45.7642C1261.16 70.6977 1240.96 90.897 1216.03 90.897C1191.09 90.897 1170.89 70.6977 1170.89 45.7642" stroke="black" stroke-width="0.5" stroke-miterlimit="10"/>
<path d="M1080.63 45.7647C1080.63 20.8312 1100.83 0.631836 1125.76 0.631836C1150.7 0.631836 1170.89 20.8312 1170.89 45.7647" stroke="black" stroke-width="0.5" stroke-miterlimit="10"/>
<path d="M1441.37 45.7642C1441.37 70.6977 1421.17 90.897 1396.24 90.897C1371.3 90.897 1351.11 70.6977 1351.11 45.7642" stroke="black" stroke-width="0.5" stroke-miterlimit="10"/>
<path d="M1261.16 45.764C1261.16 20.8304 1281.36 0.631104 1306.29 0.631104C1331.22 0.631104 1351.42 20.8304 1351.42 45.764" stroke="black" stroke-width="0.5" stroke-miterlimit="10"/>
<path d="M1261.16 54.9172C1261.16 79.8508 1240.96 100.05 1216.03 100.05C1191.09 100.05 1170.89 79.8508 1170.89 54.9172" stroke="black" stroke-width="0.5" stroke-miterlimit="10"/>
<path d="M1080.63 54.9171C1080.63 29.9835 1100.83 9.78418 1125.76 9.78418C1150.7 9.78418 1170.89 29.9835 1170.89 54.9171" stroke="black" stroke-width="0.5" stroke-miterlimit="10"/>
<path d="M1441.37 54.9172C1441.37 79.8508 1421.17 100.05 1396.24 100.05C1371.3 100.05 1351.11 79.8508 1351.11 54.9172" stroke="black" stroke-width="0.5" stroke-miterlimit="10"/>
<path d="M1261.16 54.9171C1261.16 29.9835 1281.36 9.78418 1306.29 9.78418C1331.22 9.78418 1351.42 29.9835 1351.42 54.9171" stroke="black" stroke-width="0.5" stroke-miterlimit="10"/>
<path d="M1261.16 63.7542C1261.16 88.6877 1240.96 108.887 1216.03 108.887C1191.09 108.887 1170.89 88.6877 1170.89 63.7542" stroke="black" stroke-width="0.5" stroke-miterlimit="10"/>
<path d="M1080.63 63.754C1080.63 38.8204 1100.83 18.6211 1125.76 18.6211C1150.7 18.6211 1170.89 38.8204 1170.89 63.754" stroke="black" stroke-width="0.5" stroke-miterlimit="10"/>
<path d="M1441.37 63.7542C1441.37 88.6877 1421.17 108.887 1396.24 108.887C1371.3 108.887 1351.11 88.6877 1351.11 63.7542" stroke="black" stroke-width="0.5" stroke-miterlimit="10"/>
<path d="M1261.16 63.754C1261.16 38.8204 1281.36 18.6211 1306.29 18.6211C1331.22 18.6211 1351.42 38.8204 1351.42 63.754" stroke="black" stroke-width="0.5" stroke-miterlimit="10"/>
<path d="M1261.16 72.5913C1261.16 97.5249 1240.96 117.724 1216.03 117.724C1191.09 117.724 1170.89 97.5249 1170.89 72.5913" stroke="black" stroke-width="0.5" stroke-miterlimit="10"/>
<path d="M1080.63 72.5911C1080.63 47.6576 1100.83 27.4583 1125.76 27.4583C1150.7 27.4583 1170.89 47.6576 1170.89 72.5911" stroke="black" stroke-width="0.5" stroke-miterlimit="10"/>
<path d="M1441.37 72.5913C1441.37 97.5249 1421.17 117.724 1396.24 117.724C1371.3 117.724 1351.11 97.5249 1351.11 72.5913" stroke="black" stroke-width="0.5" stroke-miterlimit="10"/>
<path d="M1261.16 72.5911C1261.16 47.6576 1281.36 27.4583 1306.29 27.4583C1331.22 27.4583 1351.11 47.6576 1351.11 72.5911" stroke="black" stroke-width="0.5" stroke-miterlimit="10"/>
<path d="M1261.16 90.5813C1261.16 115.515 1240.96 135.714 1216.03 135.714C1191.09 135.714 1170.89 115.515 1170.89 90.5813" stroke="black" stroke-width="0.5" stroke-miterlimit="10"/>
<path d="M1080.63 90.5811C1080.63 65.6476 1100.83 45.4482 1125.76 45.4482C1150.7 45.4482 1170.89 65.6476 1170.89 90.5811" stroke="black" stroke-width="0.5" stroke-miterlimit="10"/>
<path d="M1441.37 90.5813C1441.37 115.515 1421.17 135.714 1396.24 135.714C1371.3 135.714 1351.11 115.515 1351.11 90.5813" stroke="black" stroke-width="0.5" stroke-miterlimit="10"/>
<path d="M1261.16 90.5811C1261.16 65.6476 1281.36 45.4482 1306.29 45.4482C1331.22 45.4482 1351.42 65.6476 1351.42 90.5811" stroke="black" stroke-width="0.5" stroke-miterlimit="10"/>
<path d="M1261.16 108.572C1261.16 133.505 1240.96 153.705 1216.03 153.705C1191.09 153.705 1170.89 133.505 1170.89 108.572" stroke="black" stroke-width="0.5" stroke-miterlimit="10"/>
<path d="M1080.63 108.572C1080.63 83.6381 1100.83 63.4387 1125.76 63.4387C1150.7 63.4387 1170.89 83.6381 1170.89 108.572" stroke="black" stroke-width="0.5" stroke-miterlimit="10"/>
<path d="M1441.37 108.572C1441.37 133.505 1421.17 153.705 1396.24 153.705C1371.3 153.705 1351.11 133.505 1351.11 108.572" stroke="black" stroke-width="0.5" stroke-miterlimit="10"/>
<path d="M1261.16 108.572C1261.16 83.6381 1281.36 63.4387 1306.29 63.4387C1331.22 63.4387 1351.42 83.6381 1351.42 108.572" stroke="black" stroke-width="0.5" stroke-miterlimit="10"/>
</svg>
