<svg xmlns="http://www.w3.org/2000/svg" viewBox="0 0 53.63 76.25"><defs><style>.cls-1{fill:#ffffff;}</style></defs><g id="Livello_2" data-name="Livello 2"><g id="Livello_1-2" data-name="Livello 1"><path class="cls-1" d="M26.81,30.84A29.58,29.58,0,0,1,40.1,33.65a30.05,30.05,0,0,0,13.53,2.86v-.6A29.55,29.55,0,0,1,40.34,33.1a30.05,30.05,0,0,0-13.53-2.86A30,30,0,0,0,13.29,33.1,29.62,29.62,0,0,1,0,35.91v.6a30.05,30.05,0,0,0,13.53-2.86A29.53,29.53,0,0,1,26.81,30.84Z"/><path class="cls-1" d="M26.81,22.24c6.6,0,9.81,2.72,13.22,5.6s6.78,5.74,13.6,5.74V33c-6.6,0-9.81-2.72-13.22-5.6s-6.78-5.74-13.6-5.74-10.26,2.92-13.6,5.74S6.6,33,0,33v.6c6.82,0,10.27-2.92,13.6-5.74S20.22,22.24,26.81,22.24Z"/><path class="cls-1" d="M26.75,46a30.14,30.14,0,0,0,13.52-2.86l.61-.26a29.26,29.26,0,0,1,12.73-2.55h0v-.6h-.07A30.05,30.05,0,0,0,40,42.6a29.53,29.53,0,0,1-13.28,2.81A29.55,29.55,0,0,1,13.46,42.6,30.12,30.12,0,0,0,0,39.74v.6a29.51,29.51,0,0,1,13.22,2.81A30.19,30.19,0,0,0,26.75,46Z"/><path class="cls-1" d="M26.75,54.61c6.81,0,10.26-2.92,13.59-5.74s6.62-5.6,13.28-5.6h0l-.07-.6c-6.82,0-10.27,2.92-13.6,5.74S33.34,54,26.75,54s-9.81-2.72-13.22-5.6S6.77,42.69,0,42.67v.6c6.55,0,9.75,2.73,13.14,5.6S19.93,54.61,26.75,54.61Z"/><path class="cls-1" d="M13.12,54.61c3.34,3.53,6.79,7.18,13.63,7.18S37,58.14,40.37,54.61c.5-.52,1-1,1.49-1.55,2.92-3,6.09-5.44,11.76-5.44h0l-.07-.6c-6.84,0-10.29,3.65-13.63,7.18s-6.61,7-13.18,7S17,57.8,13.56,54.2,6.79,47.05,0,47v.6C6.53,47.65,9.73,51,13.12,54.61Z"/><path class="cls-1" d="M39.92,60c-3.4,4.31-6.62,8.39-13.17,8.39S17,64.3,13.57,60,6.8,51.4,0,51.37V52c6.51,0,9.71,4.09,13.1,8.39S19.9,69,26.75,69s10.3-4.38,13.64-8.62l.9-1.14C44.38,55.36,47.58,52,53.61,52h0v-.6h-.07C46.71,51.37,43.25,55.75,39.92,60Z"/><path class="cls-1" d="M39.9,65.77c-3.4,5.08-6.61,9.88-13.15,9.88S17,70.85,13.59,65.78,6.82,55.67,0,55.64v.6c6.5,0,9.7,4.81,13.09,9.87s6.79,10.14,13.66,10.14S37.06,71.09,40.4,66.11,47,56.24,53.62,56.24h0l-.07-.6C46.69,55.64,43.24,60.79,39.9,65.77Z"/><path class="cls-1" d="M13.63,22.05c3.4-3.6,6.61-7,13.18-7s9.79,3.4,13.19,7,6.79,7.18,13.63,7.18v-.6c-6.58,0-9.79-3.4-13.19-7s-6.79-7.18-13.63-7.18S16.53,18.1,13.19,21.63s-6.61,7-13.19,7v.6C6.83,29.23,10.29,25.58,13.63,22.05Z"/><path class="cls-1" d="M13.66,10.47C17.06,5.4,20.27.6,26.81.6S36.57,5.4,40,10.47s6.79,10.14,13.66,10.14V20c-6.55,0-9.76-4.79-13.16-9.87S33.68,0,26.81,0,16.5,5.15,13.16,10.14,6.54,20,0,20v.6C6.87,20.61,10.32,15.46,13.66,10.47Z"/><path class="cls-1" d="M13.64,16.26c3.4-4.32,6.62-8.39,13.17-8.39S36.58,11.94,40,16.26s6.8,8.62,13.65,8.62v-.6c-6.56,0-9.77-4.08-13.17-8.39s-6.8-8.62-13.65-8.62-10.3,4.38-13.64,8.62S6.56,24.28,0,24.28v.6C6.85,24.88,10.3,20.5,13.64,16.26Z"/></g></g></svg>