<svg xmlns="http://www.w3.org/2000/svg" viewBox="0 0 55.88 64.96"><defs><style>.cls-1{fill:none;}.cls-2{fill:#ffffff;}</style></defs><g id="Livello_2" data-name="Livello 2"><g id="Livello_1-2" data-name="Livello 1"><path class="cls-1" d="M36.77,32.48c0-9.33-4.33-17.93-8.83-23.84-4.5,5.91-8.83,14.51-8.83,23.84s4.33,17.93,8.83,23.84C32.44,50.41,36.77,41.81,36.77,32.48Z"/><path class="cls-1" d="M30.36,60.14c-.79-.84-1.61-1.77-2.42-2.79a41.4,41.4,0,0,1-2.79,3.16,29,29,0,0,0,2.42,2.17A27.61,27.61,0,0,0,30.36,60.14Z"/><path class="cls-1" d="M27.57,2.28a27.35,27.35,0,0,0-2.42,2.17,41.4,41.4,0,0,1,2.79,3.16c.81-1,1.63-1.95,2.42-2.79A27.61,27.61,0,0,0,27.57,2.28Z"/><path class="cls-1" d="M18.51,32.48c0-9.69,4.41-18.4,9-24.36a41.48,41.48,0,0,0-2.81-3.24c-5.39,5.59-12,16-12,27.6s6.64,22,12,27.6a41.48,41.48,0,0,0,2.81-3.24C22.92,50.88,18.51,42.17,18.51,32.48Z"/><path class="cls-1" d="M24.31,4.45A25.42,25.42,0,0,0,21.53,2C16.08,6.05,6.28,18.44,6.28,32.48S16.08,58.91,21.53,63a25.42,25.42,0,0,0,2.78-2.45c-5.54-5.65-12.21-16.1-12.21-28S18.77,10.1,24.31,4.45Z"/><path class="cls-1" d="M30.78,4.39a28.88,28.88,0,0,1,2.73-2.47A5.67,5.67,0,0,0,30.78.6a5.67,5.67,0,0,0-2.73,1.32A28.88,28.88,0,0,1,30.78,4.39Z"/><path class="cls-1" d="M30.78,5.26c-.8.85-1.62,1.81-2.44,2.86,4.62,6,9,14.67,9,24.36s-4.41,18.4-9,24.36c.82,1,1.64,2,2.44,2.86C36.1,54,42.45,43.79,42.45,32.48S36.1,10.94,30.78,5.26Z"/><path class="cls-1" d="M37.19.6a5.75,5.75,0,0,0-2.73,1.32c5.75,4.52,15,16.52,15,30.56s-9.25,26-15,30.56a5.75,5.75,0,0,0,2.73,1.32c3.44,0,18.09-14.71,18.09-31.88S40.63.6,37.19.6Z"/><path class="cls-1" d="M34,62.68c5.51-4.32,14.87-16.47,14.87-30.2S39.5,6.59,34,2.28A27.61,27.61,0,0,0,31.2,4.82c5.46,5.73,11.85,16,11.85,27.66S36.66,54.41,31.2,60.14A27.61,27.61,0,0,0,34,62.68Z"/><path class="cls-1" d="M30.78,60.57A30.32,30.32,0,0,1,28.05,63a5.67,5.67,0,0,0,2.73,1.32A5.67,5.67,0,0,0,33.51,63,30.32,30.32,0,0,1,30.78,60.57Z"/><path class="cls-1" d="M24.73,60.94A26.64,26.64,0,0,1,22,63.31a5,5,0,0,0,2.36,1A5.71,5.71,0,0,0,27.1,63,29.66,29.66,0,0,1,24.73,60.94Z"/><path class="cls-1" d="M5.68,32.48C5.68,18.15,15.32,5.94,21,1.65a5,5,0,0,0-2.36-1C15.25.6.6,15.31.6,32.48S15.25,64.36,18.68,64.36a5,5,0,0,0,2.36-1C15.32,59,5.68,46.81,5.68,32.48Z"/><path class="cls-1" d="M24.73,4a29.66,29.66,0,0,1,2.37-2.1A5.71,5.71,0,0,0,24.37.6a5,5,0,0,0-2.36,1A26.64,26.64,0,0,1,24.73,4Z"/><path class="cls-2" d="M37.19,0A6.63,6.63,0,0,0,34,1.56,6.65,6.65,0,0,0,30.78,0a6.65,6.65,0,0,0-3.21,1.56A6.59,6.59,0,0,0,24.37,0a5.94,5.94,0,0,0-2.84,1.3A6,6,0,0,0,18.68,0C15,0,0,14.59,0,32.48S15,65,18.68,65a6,6,0,0,0,2.85-1.3A5.94,5.94,0,0,0,24.37,65a6.59,6.59,0,0,0,3.2-1.56A6.65,6.65,0,0,0,30.78,65,6.65,6.65,0,0,0,34,63.4,6.63,6.63,0,0,0,37.19,65c3.67,0,18.69-14.59,18.69-32.48S40.86,0,37.19,0ZM30.78.6a5.67,5.67,0,0,1,2.73,1.32,28.88,28.88,0,0,0-2.73,2.47,28.88,28.88,0,0,0-2.73-2.47A5.67,5.67,0,0,1,30.78.6ZM12.7,32.48c0-11.57,6.64-22,12-27.6a41.48,41.48,0,0,1,2.81,3.24c-4.62,6-9,14.67-9,24.36s4.41,18.4,9,24.36a41.48,41.48,0,0,1-2.81,3.24C19.34,54.49,12.7,44.05,12.7,32.48Zm11.61,28A25.42,25.42,0,0,1,21.53,63C16.08,58.91,6.28,46.52,6.28,32.48S16.08,6.05,21.53,2a25.42,25.42,0,0,1,2.78,2.45c-5.54,5.65-12.21,16.1-12.21,28S18.77,54.86,24.31,60.51Zm.84-56.06a27.35,27.35,0,0,1,2.42-2.17,27.61,27.61,0,0,1,2.79,2.54c-.79.84-1.61,1.77-2.42,2.79A41.4,41.4,0,0,0,25.15,4.45Zm2.79,4.19c4.5,5.91,8.83,14.51,8.83,23.84s-4.33,17.93-8.83,23.84c-4.5-5.91-8.83-14.51-8.83-23.84S23.44,14.55,27.94,8.64Zm0,48.71c.81,1,1.63,1.95,2.42,2.79a27.61,27.61,0,0,1-2.79,2.54,29,29,0,0,1-2.42-2.17A41.4,41.4,0,0,0,27.94,57.35Zm.4-.51c4.62-6,9-14.67,9-24.36s-4.41-18.4-9-24.36c.82-1,1.64-2,2.44-2.86,5.32,5.68,11.67,15.91,11.67,27.22S36.1,54,30.78,59.7C30,58.85,29.16,57.89,28.34,56.84ZM43.05,32.48c0-11.67-6.39-21.93-11.85-27.66A27.61,27.61,0,0,1,34,2.28c5.51,4.31,14.87,16.47,14.87,30.2S39.5,58.36,34,62.68a27.61,27.61,0,0,1-2.79-2.54C36.66,54.41,43.05,44.15,43.05,32.48ZM24.37.6A5.71,5.71,0,0,1,27.1,1.92,29.66,29.66,0,0,0,24.73,4,26.64,26.64,0,0,0,22,1.65,5,5,0,0,1,24.37.6ZM18.68,64.36C15.25,64.36.6,49.65.6,32.48S15.25.6,18.68.6a5,5,0,0,1,2.36,1C15.32,5.94,5.68,18.15,5.68,32.48S15.32,59,21,63.31A5,5,0,0,1,18.68,64.36Zm5.69,0a5,5,0,0,1-2.36-1,26.64,26.64,0,0,0,2.72-2.37A29.66,29.66,0,0,0,27.1,63,5.71,5.71,0,0,1,24.37,64.36Zm6.41,0A5.67,5.67,0,0,1,28.05,63a30.32,30.32,0,0,0,2.73-2.47A30.32,30.32,0,0,0,33.51,63,5.67,5.67,0,0,1,30.78,64.36Zm6.41,0A5.75,5.75,0,0,1,34.46,63c5.75-4.52,15-16.52,15-30.56s-9.25-26-15-30.56A5.75,5.75,0,0,1,37.19.6c3.44,0,18.09,14.71,18.09,31.88S40.63,64.36,37.19,64.36Z"/></g></g></svg>