<svg xmlns="http://www.w3.org/2000/svg" viewBox="0 0 45.59 72.42"><defs><style>.cls-1{fill:#ffffff;}</style></defs><g id="Livello_2" data-name="Livello 2"><g id="Livello_1-2" data-name="Livello 1"><path class="cls-1" d="M29.74,49.63c2.6-2.72,5-5.39,7.13-7.91,3.55,2.56,6.06,3.87,7.45,3.87a1.27,1.27,0,0,0,.94-.33c1-1-.34-4.06-4-9,3.67-5,5-8,4-9s-3.8.22-8.4,3.53c-2.12-2.51-4.52-5.18-7.12-7.9A144.8,144.8,0,0,0,41.11,9.57c3.78-5.1,5.18-8.21,4.15-9.24S41.12.69,36,4.48A146.16,146.16,0,0,0,22.79,15.85,144.8,144.8,0,0,0,9.57,4.48C4.47.7,1.36-.7.33.33S.7,4.47,4.48,9.57A144.8,144.8,0,0,0,15.85,22.79c-2.6,2.72-5,5.39-7.12,7.9-4.19-3-7.37-4.56-8.4-3.53s.33,4.06,4,9.05c-3.68,5-5,8-4,9a1.27,1.27,0,0,0,.94.33c1.39,0,3.89-1.31,7.45-3.87,2.12,2.52,4.53,5.19,7.13,7.91A144.8,144.8,0,0,0,4.48,62.85C.7,68-.7,71.06.33,72.09a1.27,1.27,0,0,0,.94.33c1.5,0,4.28-1.5,8.3-4.48A144.8,144.8,0,0,0,22.79,56.57,146.16,146.16,0,0,0,36,67.94c4,3,6.81,4.48,8.31,4.48a1.27,1.27,0,0,0,.94-.33c1-1-.37-4.14-4.15-9.24A144.8,144.8,0,0,0,29.74,49.63Zm-.41-.44c-1-1-2-2-3-3.08s-2-2-3.08-3c2.45-2.34,4.86-4.53,7.15-6.49,2,1.69,3.88,3.21,5.63,4.51l.37.26C34.28,43.86,31.89,46.5,29.33,49.19Zm-6.54-6.51C20.4,40.4,18,38.2,15.66,36.21c2.29-2,4.69-4.14,7.13-6.47,2.44,2.33,4.84,4.51,7.13,6.47C27.63,38.17,25.23,40.35,22.79,42.68Zm22,2.15c-.54.55-2.82-.14-7.58-3.56,1.33-1.6,2.55-3.12,3.62-4.56C44.63,41.84,45.39,44.27,44.83,44.83Zm-.52-17.41a.69.69,0,0,1,.52.17c.56.56-.2,3-4,8.12-1.07-1.43-2.29-3-3.62-4.55C41.07,28.42,43.3,27.42,44.31,27.42ZM40.5,36.21c-1.1,1.47-2.36,3.06-3.74,4.7l-.39-.29c-1.72-1.27-3.58-2.76-5.52-4.41,1.94-1.65,3.8-3.14,5.52-4.41l.4-.29C38.14,33.16,39.4,34.74,40.5,36.21Zm-4.12-5.16-.37.26c-1.75,1.3-3.64,2.82-5.63,4.51-2.29-2-4.7-4.15-7.15-6.49,1-1,2.05-2,3.08-3s2-2.06,3-3.08C31.89,25.92,34.27,28.56,36.38,31.05ZM36.37,5C40.74,1.72,43.23.59,44.31.59a.73.73,0,0,1,.52.16c.58.58-.23,3.1-4.21,8.47A147.09,147.09,0,0,1,29.33,22.36c-1-1-2-2.05-3-3.08s-2.06-2-3.08-3A144.59,144.59,0,0,1,36.37,5ZM25.89,19.7c1,1,2,2.07,3,3.09-1,1-2,2.06-3,3.1s-2.07,2-3.1,3c-1-1-2.06-2-3.09-3s-2-2.07-3-3.1c1-1,2-2.06,3-3.09s2.07-2,3.09-3Q24.34,18.15,25.89,19.7ZM5,9.22C1,3.85.18,1.33.75.75A.76.76,0,0,1,1.28.59C2.36.59,4.85,1.72,9.22,5a147.36,147.36,0,0,1,13.14,11.3c-1,1-2.05,2-3.08,3s-2,2-3,3.08A147.36,147.36,0,0,1,5,9.22Zm11.3,14q1.47,1.53,3,3.08c1,1,2.06,2,3.08,3-2.45,2.34-4.86,4.53-7.16,6.49-2.11-1.8-4.14-3.42-6-4.78C11.32,28.55,13.69,25.92,16.26,23.23ZM.75,27.59a.73.73,0,0,1,.56-.19c1.15,0,3.64,1.33,7,3.76C7,32.75,5.78,34.28,4.71,35.71,1,30.58.19,28.15.75,27.59Zm0,17.24c-.56-.56.21-3,4-8.12,1.07,1.44,2.29,3,3.63,4.56C3.57,44.69,1.29,45.38.75,44.83Zm4.33-8.62c1.1-1.47,2.36-3.05,3.74-4.7,1.76,1.29,3.75,2.87,5.92,4.7-2,1.65-3.81,3.14-5.52,4.41l-.4.29C7.44,39.27,6.18,37.68,5.08,36.21Zm4.13,5.16.36-.26c1.75-1.3,3.65-2.82,5.63-4.5,2.23,1.9,4.64,4.08,7.16,6.48-1,1-2.05,2-3.08,3s-2,2.06-3,3.08C13.69,46.5,11.31,43.86,9.21,41.37Zm0,26.09c-5.37,4-7.89,4.78-8.47,4.21S1,68.57,5,63.2a147.36,147.36,0,0,1,11.3-13.14c1,1,2,2,3,3.08s2.06,2,3.08,3A147.36,147.36,0,0,1,9.22,67.46ZM22.79,55.74c-1-1-2.06-2-3.09-3s-2-2.07-3-3.09q1.47-1.55,3-3.1c1-1,2.07-2,3.09-3,1,1,2.05,2,3.1,3s2,2.07,3,3.1c-1,1-2,2.06-3,3.09S23.82,54.76,22.79,55.74Zm22,15.93c-.57.57-3.09-.23-8.46-4.21a144.59,144.59,0,0,1-13.14-11.3c1-1,2.05-2,3.08-3s2-2,3-3.08A147.09,147.09,0,0,1,40.62,63.2C44.6,68.57,45.41,71.09,44.83,71.67Z"/></g></g></svg>