<?xml version="1.0" encoding="utf-8"?>
<!-- Generator: Adobe Illustrator 25.3.0, SVG Export Plug-In . SVG Version: 6.00 Build 0)  -->
<svg version="1.1" id="Livello_1" xmlns="http://www.w3.org/2000/svg" xmlns:xlink="http://www.w3.org/1999/xlink" x="0px" y="0px"
	 viewBox="0 0 114.8 60.3" style="enable-background:new 0 0 114.8 60.3;" xml:space="preserve">
<style type="text/css">
	.st0{fill:#FFFFFF;}
</style>
<g id="Livello_2_1_">
	<g id="Livello_1-2">
		<path class="st0" d="M113.6,18.1c0.2-0.9,0.3-1.8,0.3-2.8h-0.6c0,7.6-6.2,13.8-13.8,13.8s-13.8-6.2-13.8-13.8l0,0
			c0.2-7.9-6-14.5-14-14.7c-7.9-0.2-14.5,6-14.7,14c0,0.3,0,0.5,0,0.8c0,7.6-6.2,13.8-13.8,13.8s-13.8-6.2-13.8-13.8l0,0
			C30.1,7.4,24.1,0.6,16.2,0S1.5,5.4,0.9,13.3c0,0.7,0,1.3,0,2h0.3c-0.2,0.9-0.3,1.8-0.3,2.8h0.3C1,19,0.9,20,0.9,20.9h0.3
			c-0.2,0.9-0.3,1.8-0.3,2.8h0.3c-0.2,0.9-0.3,1.9-0.3,2.8h0.3c-0.2,0.9-0.3,1.8-0.3,2.8h0.3c-0.2,0.9-0.3,1.9-0.3,2.8h0.3
			C1,33,0.9,33.9,0.9,34.9h0.3c-0.2,0.9-0.3,1.8-0.3,2.8h0.3c-0.2,0.9-0.3,1.9-0.3,2.8h0.3c-0.2,0.9-0.3,1.8-0.3,2.8h0.3
			C1,44.1,0.9,45.1,0.9,46h0.6c0-7.6,6.2-13.8,13.8-13.8S29.1,38.4,29.1,46l0,0c0,7.9,6.4,14.3,14.3,14.3S57.7,53.9,57.7,46
			c0-7.6,6.2-13.8,13.8-13.8S85.3,38.4,85.3,46l0,0c0,7.9,6.4,14.3,14.3,14.3c7.9,0,14.3-6.4,14.3-14.3h-0.3
			c0.2-0.9,0.3-1.9,0.3-2.8h-0.3c0.2-0.9,0.3-1.8,0.3-2.8h-0.3c0.2-0.9,0.3-1.9,0.3-2.8h-0.3c0.2-0.9,0.3-1.8,0.3-2.8h-0.3
			c0.2-0.9,0.3-1.9,0.3-2.8h-0.3c0.2-0.9,0.3-1.9,0.3-2.8h-0.3c0.2-0.9,0.3-1.8,0.3-2.8h-0.3c0.2-0.9,0.3-1.9,0.3-2.8h-0.3
			c0.2-0.9,0.3-1.8,0.3-2.8h-0.3c0.2-0.9,0.3-1.9,0.3-2.8H113.6z M15.2,31.7c-6.2,0-11.7,4-13.6,10c1-7.5,7.9-12.8,15.5-11.8
			c6.1,0.8,11,5.7,11.8,11.8C27,35.7,21.5,31.7,15.2,31.7L15.2,31.7z M1.6,38.8C2.6,31.3,9.6,26,17.1,27c6.1,0.8,11,5.7,11.8,11.8
			c-2.4-7.5-10.5-11.7-18-9.3C6.5,31,3,34.4,1.6,38.8z M15.3,26.1c-6.2,0-11.8,4.1-13.7,10c1-7.5,7.9-12.8,15.5-11.8
			c6.1,0.8,11,5.7,11.8,11.8C27,30.1,21.5,26.1,15.3,26.1L15.3,26.1z M15.3,23.3c-6.2,0-11.8,4.1-13.7,10c1-7.5,7.9-12.8,15.5-11.8
			c6.1,0.8,11,5.7,11.8,11.8C27,27.3,21.5,23.3,15.3,23.3L15.3,23.3z M1.6,30.5c1-7.5,7.9-12.8,15.5-11.8c6.1,0.8,11,5.7,11.8,11.8
			c-2.4-7.5-10.5-11.7-18-9.3C6.5,22.6,3,26.1,1.6,30.5z M15.3,17.7c-6.2,0-11.7,4-13.7,10c1-7.5,7.9-12.8,15.5-11.8
			c6.1,0.8,11,5.7,11.8,11.8C27,21.8,21.5,17.7,15.3,17.7z M15.3,14.9c-6.2,0-11.7,4-13.7,10c1-7.5,7.9-12.8,15.5-11.8
			c6.1,0.8,11,5.7,11.8,11.8C27,19,21.5,14.9,15.3,14.9L15.3,14.9z M1.6,22.1c1-7.5,7.9-12.8,15.5-11.8c6.1,0.8,11,5.7,11.8,11.8
			c-2.4-7.5-10.5-11.7-18-9.3C6.5,14.2,3,17.7,1.6,22.1z M15.3,9.3c-6.2,0-11.8,4.1-13.7,10c1-7.5,7.9-12.8,15.5-11.8
			c6.1,0.8,11,5.7,11.8,11.8C27,13.4,21.5,9.4,15.3,9.3L15.3,9.3z M1.6,16.5C2.6,9,9.6,3.7,17.1,4.7c6.1,0.8,11,5.7,11.8,11.8
			C26.5,9,18.4,4.8,10.9,7.3C6.5,8.7,3,12.1,1.6,16.5z M15.3,3.7C9,3.8,3.5,7.8,1.6,13.8C2.6,6.2,9.6,1,17.1,2
			c6.1,0.8,11,5.7,11.8,11.8C27,7.8,21.5,3.8,15.3,3.7L15.3,3.7z M43.4,59.8c-7,0-12.8-5.2-13.7-12.2c2.4,7.5,10.5,11.7,18,9.3
			c4.4-1.4,7.9-4.9,9.3-9.3C56.2,54.5,50.3,59.7,43.4,59.8z M29.7,44.8c2.4,7.5,10.5,11.7,18,9.3c4.4-1.4,7.8-4.9,9.3-9.3
			c-1,7.5-7.9,12.8-15.5,11.9C35.4,55.8,30.5,51,29.7,44.8z M43.4,54.2c-7,0-12.8-5.2-13.7-12.2c2.4,7.5,10.5,11.7,18,9.3
			c4.4-1.4,7.9-4.9,9.3-9.3C56.2,48.9,50.3,54.2,43.4,54.2z M43.4,51.4c-7,0-12.8-5.2-13.7-12.2c2.4,7.5,10.5,11.7,18,9.3
			c4.4-1.4,7.8-4.9,9.3-9.3C56.2,46.2,50.3,51.4,43.4,51.4z M29.7,36.4c2.4,7.5,10.5,11.7,18,9.3c4.4-1.4,7.8-4.9,9.3-9.3
			c-1,7.5-7.9,12.8-15.5,11.9C35.4,47.4,30.5,42.6,29.7,36.4L29.7,36.4z M43.4,45.8c-7,0-12.8-5.2-13.7-12.1
			c2.4,7.5,10.5,11.7,18,9.3c4.4-1.4,7.8-4.9,9.3-9.3C56.2,40.6,50.3,45.8,43.4,45.8L43.4,45.8z M43.4,43c-7,0-12.8-5.2-13.7-12.1
			c2.4,7.5,10.5,11.7,18,9.3c4.4-1.4,7.9-4.9,9.3-9.3C56.2,37.8,50.3,43,43.4,43L43.4,43z M29.7,28.1c2.4,7.5,10.5,11.7,18,9.3
			c4.4-1.4,7.8-4.9,9.3-9.3c-1,7.5-7.9,12.8-15.5,11.9C35.4,39.1,30.5,34.2,29.7,28.1z M43.4,37.4c-7,0-12.8-5.2-13.7-12.2
			c2.4,7.5,10.5,11.7,18,9.3c4.4-1.4,7.8-4.9,9.3-9.3C56.2,32.2,50.3,37.4,43.4,37.4z M29.7,22.5c2.4,7.5,10.5,11.7,18,9.3
			c4.4-1.4,7.9-4.9,9.3-9.3c-1,7.5-7.9,12.8-15.5,11.9C35.4,33.5,30.5,28.7,29.7,22.5z M43.4,31.9c-7,0-12.8-5.3-13.7-12.2
			c2.4,7.5,10.5,11.7,18.1,9.2c4.4-1.4,7.8-4.8,9.2-9.2C56.2,26.6,50.3,31.8,43.4,31.9z M71.4,31.7c-6.2,0-11.7,4-13.7,10
			c1-7.5,7.9-12.8,15.5-11.8c6.1,0.8,11,5.7,11.8,11.8C83.2,35.7,77.7,31.7,71.4,31.7z M57.8,38.8c1-7.5,7.9-12.8,15.5-11.8
			c6.1,0.8,11,5.7,11.8,11.8c-2.4-7.5-10.5-11.7-18-9.3C62.7,31,59.2,34.4,57.8,38.8z M71.4,26.1c-6.2,0-11.8,4.1-13.7,10
			c1-7.5,7.9-12.8,15.5-11.8c6.1,0.8,11,5.7,11.8,11.8C83.2,30.1,77.7,26.1,71.4,26.1L71.4,26.1z M71.4,23.3
			c-6.2,0-11.8,4.1-13.7,10c1-7.5,7.9-12.8,15.5-11.8c6.1,0.8,11,5.7,11.8,11.8C83.2,27.3,77.7,23.3,71.4,23.3L71.4,23.3z
			 M57.8,30.5c1-7.5,7.9-12.8,15.5-11.8c6.1,0.8,11,5.7,11.8,11.8c-2.4-7.5-10.5-11.7-18-9.3C62.7,22.6,59.2,26.1,57.8,30.5z
			 M71.4,17.7c-6.2,0-11.8,4-13.7,10c1-7.5,7.9-12.8,15.5-11.8c6.1,0.8,11,5.7,11.8,11.8C83.2,21.8,77.7,17.7,71.4,17.7z M71.4,14.9
			c-6.2,0-11.7,4-13.7,10c1-7.5,7.9-12.8,15.5-11.8c6.1,0.8,11,5.7,11.8,11.8C83.2,19,77.7,14.9,71.4,14.9L71.4,14.9z M57.8,22.1
			c1-7.5,7.9-12.8,15.5-11.8c6.1,0.8,11,5.7,11.8,11.8c-2.4-7.5-10.5-11.7-18-9.3C62.7,14.2,59.2,17.7,57.8,22.1z M71.4,9.3
			c-6.2,0-11.8,4.1-13.7,10c1-7.5,7.9-12.8,15.5-11.8c6.1,0.8,11,5.7,11.8,11.8C83.2,13.4,77.7,9.4,71.4,9.3L71.4,9.3z M57.8,16.5
			c1-7.5,7.9-12.8,15.5-11.8c6.1,0.8,11,5.7,11.8,11.8C82.7,9,74.6,4.8,67.1,7.3C62.7,8.7,59.2,12.1,57.8,16.5z M71.4,3.7
			c-6.2,0-11.8,4.1-13.7,10C58.8,6.2,65.7,1,73.3,2c6.1,0.8,11,5.7,11.8,11.8C83.2,7.8,77.7,3.8,71.4,3.7L71.4,3.7z M99.5,59.7
			c-7,0-12.8-5.2-13.7-12.1c2.4,7.5,10.5,11.7,18,9.3c4.4-1.4,7.9-4.9,9.3-9.3C112.4,54.5,106.5,59.7,99.5,59.7L99.5,59.7z
			 M85.9,44.8c2.4,7.5,10.5,11.7,18,9.3c4.4-1.4,7.9-4.9,9.3-9.3c-1,7.5-7.9,12.8-15.5,11.8C91.5,55.8,86.7,51,85.9,44.8z
			 M99.5,54.2c-7,0-12.8-5.2-13.7-12.2c2.4,7.5,10.5,11.7,18,9.3c4.4-1.4,7.9-4.9,9.3-9.3C112.4,48.9,106.5,54.2,99.5,54.2z
			 M99.5,51.4c-7,0-12.8-5.2-13.7-12.2c2.4,7.5,10.5,11.7,18,9.3c4.4-1.4,7.9-4.9,9.3-9.3C112.4,46.2,106.5,51.4,99.5,51.4z
			 M85.9,36.4c2.4,7.5,10.5,11.7,18,9.3c4.4-1.4,7.9-4.9,9.3-9.3c-1,7.5-7.9,12.8-15.5,11.8C91.5,47.4,86.7,42.5,85.9,36.4z
			 M99.5,45.8c-7,0-12.8-5.2-13.7-12.1c2.4,7.5,10.5,11.7,18,9.3c4.4-1.4,7.9-4.9,9.3-9.3C112.4,40.6,106.5,45.8,99.5,45.8
			L99.5,45.8z M99.5,43c-7,0-12.8-5.2-13.7-12.1c2.4,7.5,10.5,11.7,18,9.3c4.4-1.4,7.9-4.9,9.3-9.3C112.4,37.8,106.5,43,99.5,43
			L99.5,43z M85.9,28.1c2.4,7.5,10.5,11.7,18,9.3c4.4-1.4,7.9-4.9,9.3-9.3c-1,7.5-7.9,12.8-15.5,11.8C91.5,39.1,86.7,34.2,85.9,28.1
			z M99.5,37.4c-7,0-12.8-5.2-13.7-12.2c2.4,7.5,10.5,11.7,18,9.3c4.4-1.4,7.9-4.9,9.3-9.3C112.4,32.2,106.5,37.4,99.5,37.4z
			 M85.9,22.5c2.4,7.5,10.5,11.7,18,9.3c4.4-1.4,7.9-4.9,9.3-9.3c-1,7.5-7.9,12.8-15.5,11.8C91.5,33.5,86.7,28.6,85.9,22.5z
			 M99.5,31.9c-7,0-12.8-5.3-13.7-12.2c2.4,7.5,10.5,11.7,18,9.3c4.4-1.4,7.9-4.9,9.3-9.3C112.4,26.6,106.5,31.8,99.5,31.9z"/>
	</g>
</g>
</svg>
