<svg xmlns="http://www.w3.org/2000/svg" viewBox="0 0 122.67 42.01"><defs><style>.cls-1{fill:none;}.cls-2{fill:#ffffff;}</style></defs><g id="Livello_2" data-name="Livello 2"><g id="Livello_1-2" data-name="Livello 1"><path class="cls-1" d="M101.52,12a49,49,0,0,0-8-2.27,110.29,110.29,0,0,0-10.27,7.7q1.9,1.58,4,3.2A62.36,62.36,0,0,1,101.52,12Z"/><path class="cls-1" d="M77.93,21a63.32,63.32,0,0,0-15.2-9.34A59.17,59.17,0,0,0,46.45,21a58.24,58.24,0,0,0,16.29,9.33A63.75,63.75,0,0,0,77.93,21Z"/><path class="cls-1" d="M52.71,33.28A102.62,102.62,0,0,1,41.52,25l-.26.21A122.33,122.33,0,0,1,30.57,33.3a61,61,0,0,0,11,1A61,61,0,0,0,52.71,33.28Z"/><path class="cls-1" d="M61.91,30.68A59.63,59.63,0,0,1,46,21.39c-1.37,1.08-2.69,2.15-4,3.19a98.22,98.22,0,0,0,11.6,8.54A49.53,49.53,0,0,0,61.91,30.68Z"/><path class="cls-1" d="M82.47,18.1,78.9,21q1.8,1.44,3.57,2.9l.34.28c1.28-1,2.59-2.11,4-3.18-1.37-1.08-2.68-2.15-4-3.19Z"/><path class="cls-1" d="M82.09,24.79l.25-.21-.25-.21c-1.22-1-2.43-2-3.68-3a65.19,65.19,0,0,1-14.8,9.25,49.76,49.76,0,0,0,8.17,2A121.91,121.91,0,0,0,82.09,24.79Z"/><path class="cls-1" d="M63.6,11.37a65.26,65.26,0,0,1,14.81,9.25c1.25-1,2.47-2,3.68-3l.25-.21-.25-.21A125.21,125.21,0,0,0,71.78,9.37,51.18,51.18,0,0,0,63.6,11.37Z"/><path class="cls-1" d="M72.68,9.25c3.49,2.35,6.66,4.94,9.79,7.51l.34.28a114.8,114.8,0,0,1,9.91-7.47,61.42,61.42,0,0,0-11-.94A63.33,63.33,0,0,0,72.68,9.25Z"/><path class="cls-1" d="M30.56,8.71a122.49,122.49,0,0,1,10.48,8l.48.38A105.25,105.25,0,0,1,52.75,8.73a61.44,61.44,0,0,0-11.16-1A60.94,60.94,0,0,0,30.56,8.71Z"/><path class="cls-1" d="M41.25,18q-1.8,1.49-3.66,3Q39.33,22.41,41,23.8l.49.39c1.27-1,2.59-2.11,3.95-3.18-1.37-1.07-2.68-2.14-3.95-3.19Z"/><path class="cls-1" d="M102.32,11.66a48.16,48.16,0,0,1,8.06-2.39,52.5,52.5,0,0,0-8.06-4.12,51.84,51.84,0,0,0-8,4.12A48.5,48.5,0,0,1,102.32,11.66Z"/><path class="cls-1" d="M61.93,11.34A49.13,49.13,0,0,0,53.62,8.9,100.31,100.31,0,0,0,42,17.43c1.28,1.05,2.6,2.13,4,3.2A60.83,60.83,0,0,1,61.93,11.34Z"/><path class="cls-1" d="M40.88,24.72l.16-.14-.39-.32q-1.74-1.43-3.54-2.87a65,65,0,0,1-15.32,9.49,49.91,49.91,0,0,0,7.93,2.27A119.76,119.76,0,0,0,40.88,24.72Z"/><path class="cls-1" d="M5.25,21A62.37,62.37,0,0,0,21,30.57,63.08,63.08,0,0,0,36.63,21,62.42,62.42,0,0,0,21,11.46,62.62,62.62,0,0,0,5.25,21Z"/><path class="cls-1" d="M21.75,11.15a63.88,63.88,0,0,1,15.36,9.48Q39,19.1,40.87,17.58l.17-.15-.38-.31a117.9,117.9,0,0,0-11-8.25A48.83,48.83,0,0,0,21.75,11.15Z"/><path class="cls-1" d="M92.72,32.44A113.07,113.07,0,0,1,82.82,25l-.35.28c-3.13,2.57-6.29,5.16-9.78,7.51a62.9,62.9,0,0,0,9,.62A61.65,61.65,0,0,0,92.72,32.44Z"/><path class="cls-1" d="M101.52,30a62.36,62.36,0,0,1-14.26-8.63q-2.07,1.62-4,3.2a107.25,107.25,0,0,0,10.27,7.69A48,48,0,0,0,101.52,30Z"/><path class="cls-1" d="M103.12,30a49.11,49.11,0,0,0,8,2.27,109.36,109.36,0,0,0,10.29-7.7q-1.92-1.57-4-3.2A62.29,62.29,0,0,1,103.12,30Z"/><path class="cls-1" d="M94.27,32.74a51.53,51.53,0,0,0,8,4.12,52.5,52.5,0,0,0,8.06-4.12,48.16,48.16,0,0,1-8.06-2.39A48.33,48.33,0,0,1,94.27,32.74Z"/><path class="cls-1" d="M81.67,34a64.38,64.38,0,0,1-9.74-.71,55,55,0,0,1-8.33,4.52,56.31,56.31,0,0,0,18.07,2.74,55.07,55.07,0,0,0,19.85-3.37,52.8,52.8,0,0,1-8.09-4.25A61.8,61.8,0,0,1,81.67,34Z"/><path class="cls-1" d="M62.76,31a49.24,49.24,0,0,1-8.4,2.58,48.9,48.9,0,0,0,8.37,3.92,52.69,52.69,0,0,0,8.32-4.37A51.37,51.37,0,0,1,62.76,31Z"/><path class="cls-1" d="M103.12,12a62.29,62.29,0,0,1,14.29,8.63q2.06-1.62,4-3.2a109.36,109.36,0,0,0-10.29-7.7A49.11,49.11,0,0,0,103.12,12Z"/><path class="cls-1" d="M116.91,21a60.8,60.8,0,0,0-14.59-8.7A60.5,60.5,0,0,0,87.75,21a60.8,60.8,0,0,0,14.57,8.7A60.5,60.5,0,0,0,116.91,21Z"/><path class="cls-1" d="M41.59,34.85a61.63,61.63,0,0,1-11.74-1.07A53,53,0,0,1,21.79,38a54.64,54.64,0,0,0,19.8,3.38,54.5,54.5,0,0,0,20.32-3.57,51.48,51.48,0,0,1-8.43-4.07A61.49,61.49,0,0,1,41.59,34.85Z"/><path class="cls-1" d="M29,8.4a50.91,50.91,0,0,0-8-4.09,51.75,51.75,0,0,0-8,4.09,48.79,48.79,0,0,1,8,2.4A50,50,0,0,1,29,8.4Z"/><path class="cls-1" d="M41.59,7.16A61.67,61.67,0,0,1,53.5,8.26a51.85,51.85,0,0,1,8.43-4.07A54.56,54.56,0,0,0,41.59.61,54.77,54.77,0,0,0,21.75,4a52.67,52.67,0,0,1,8.08,4.23A61.85,61.85,0,0,1,41.59,7.16Z"/><path class="cls-1" d="M21,31.22a49.55,49.55,0,0,1-8.07,2.4A51.79,51.79,0,0,0,21,37.72a51.83,51.83,0,0,0,8-4.11A49.52,49.52,0,0,1,21,31.22Z"/><path class="cls-1" d="M62.75,11a51.49,51.49,0,0,1,8.3-2.13,52.69,52.69,0,0,0-8.32-4.37A49.62,49.62,0,0,0,54.4,8.45,49.56,49.56,0,0,1,62.75,11Z"/><path class="cls-1" d="M4.76,21.39c-1.24,1-2.46,2-3.68,3l-.25.21.26.2a113,113,0,0,0,11.1,8.37,49.21,49.21,0,0,0,8-2.26A64.55,64.55,0,0,1,4.76,21.39Z"/><path class="cls-1" d="M20.13,11.14a48.89,48.89,0,0,0-7.95-2.28,117.45,117.45,0,0,0-11.1,8.36l-.25.21.25.2c1.22,1,2.44,2,3.68,3A64.43,64.43,0,0,1,20.13,11.14Z"/><path class="cls-1" d="M81.69,8A61.58,61.58,0,0,1,93.43,9.1a52.8,52.8,0,0,1,8.09-4.25A55,55,0,0,0,81.69,1.48,56.12,56.12,0,0,0,63.6,4.23a54.55,54.55,0,0,1,8.33,4.51A64.55,64.55,0,0,1,81.69,8Z"/><path class="cls-2" d="M122.67,8.33a.29.29,0,0,0-.3-.3h0a61.43,61.43,0,0,0-11.15,1.06,54.22,54.22,0,0,0-8.1-4.24,55,55,0,0,1,19.26-3.37.3.3,0,0,0,.29-.3.29.29,0,0,0-.3-.3h0a55,55,0,0,0-20.05,3.63A55.23,55.23,0,0,0,81.69.88a56.38,56.38,0,0,0-18.94,3A54.86,54.86,0,0,0,41.59,0,55,55,0,0,0,20.94,3.66,54.71,54.71,0,0,0,.3,0,.29.29,0,0,0,0,.3.29.29,0,0,0,.3.6,54.63,54.63,0,0,1,20.13,4a52.93,52.93,0,0,0-8.07,4.23A61.8,61.8,0,0,0,.3,7.15a.29.29,0,0,0-.3.3.3.3,0,0,0,.3.3,61.34,61.34,0,0,1,11,.94A122,122,0,0,0,.7,16.76l-.53.44a.28.28,0,0,0-.11.23.3.3,0,0,0,.11.23l.53.44c1.19,1,2.37,1.94,3.58,2.9Q2.47,22.46.7,23.91l-.53.43a.32.32,0,0,0-.11.24.3.3,0,0,0,.11.23l.54.44a122,122,0,0,0,10.63,8.08,62.41,62.41,0,0,1-11,.93.3.3,0,0,0-.3.3.29.29,0,0,0,.3.3,62,62,0,0,0,11.77-1.07A52.89,52.89,0,0,0,20.17,38,55,55,0,0,1,.3,41.41a.3.3,0,1,0,0,.6A55.32,55.32,0,0,0,21,38.37,55.19,55.19,0,0,0,41.59,42a54.86,54.86,0,0,0,21.16-3.86,56.34,56.34,0,0,0,18.92,3,55.3,55.3,0,0,0,20.65-3.63,54.87,54.87,0,0,0,20.05,3.63h0a.29.29,0,0,0,.3-.3.3.3,0,0,0-.29-.3,54.52,54.52,0,0,1-19.26-3.37,54.22,54.22,0,0,0,8.1-4.24A61.43,61.43,0,0,0,122.37,34h0a.29.29,0,0,0,.3-.3.3.3,0,0,0-.29-.3,61.73,61.73,0,0,1-10.45-.93A119,119,0,0,0,122,24.83s0,0,0,0l0,0a.29.29,0,0,0,0-.42c-1.33-1.09-2.7-2.22-4.14-3.35,1.43-1.12,2.8-2.24,4.12-3.32l0,0s0,0,0,0a.29.29,0,0,0,0-.42,115.85,115.85,0,0,0-10.11-7.64,61.73,61.73,0,0,1,10.45-.93A.3.3,0,0,0,122.67,8.33ZM102.32,5.15a52.5,52.5,0,0,1,8.06,4.12,48.16,48.16,0,0,0-8.06,2.39,48.5,48.5,0,0,0-8-2.39A51.84,51.84,0,0,1,102.32,5.15ZM42,17.43A100.31,100.31,0,0,1,53.62,8.9a49.13,49.13,0,0,1,8.31,2.44,60.83,60.83,0,0,0-16,9.29C44.59,19.56,43.27,18.48,42,17.43ZM45.47,21c-1.36,1.07-2.68,2.14-3.95,3.18L41,23.8q-1.7-1.39-3.44-2.79,1.86-1.49,3.66-3l.27-.22C42.79,18.87,44.1,19.94,45.47,21Zm-3.95-4L41,16.66A122.49,122.49,0,0,0,30.56,8.71a60.94,60.94,0,0,1,11-1,61.44,61.44,0,0,1,11.16,1A105.25,105.25,0,0,0,41.52,17Zm-.86.08.38.31-.17.15Q39,19.1,37.11,20.63a63.88,63.88,0,0,0-15.36-9.48,48.83,48.83,0,0,1,8-2.28A117.9,117.9,0,0,1,40.66,17.12Zm-4,3.89A63.08,63.08,0,0,1,21,30.57,62.37,62.37,0,0,1,5.25,21,62.62,62.62,0,0,1,21,11.46,62.42,62.42,0,0,1,36.63,21Zm.48.38q1.8,1.44,3.54,2.87l.39.32-.16.14a119.76,119.76,0,0,1-11.16,8.43,49.91,49.91,0,0,1-7.93-2.27A65,65,0,0,0,37.11,21.39Zm4.15,3.79.26-.21a102.62,102.62,0,0,0,11.19,8.31,61,61,0,0,1-11.12,1,61,61,0,0,1-11-1A122.33,122.33,0,0,0,41.26,25.18Zm.73-.6c1.28-1,2.6-2.11,4-3.19a59.63,59.63,0,0,0,15.95,9.29,49.53,49.53,0,0,1-8.32,2.44A98.22,98.22,0,0,1,42,24.58ZM46.45,21a59.17,59.17,0,0,1,16.28-9.34A63.32,63.32,0,0,1,77.93,21a63.75,63.75,0,0,1-15.19,9.33A58.24,58.24,0,0,1,46.45,21Zm36.84-3.58a110.29,110.29,0,0,1,10.27-7.7,49,49,0,0,1,8,2.27,62.36,62.36,0,0,0-14.26,8.63Q85.19,19,83.29,17.43ZM86.77,21c-1.37,1.07-2.68,2.14-4,3.18l-.34-.28Q80.7,22.46,78.9,21l3.57-2.91.35-.28C84.09,18.86,85.4,19.93,86.77,21Zm-4-4-.34-.28c-3.13-2.57-6.3-5.16-9.79-7.51a63.33,63.33,0,0,1,9-.62,61.42,61.42,0,0,1,11,.94A114.8,114.8,0,0,0,82.81,17Zm-.72.18.25.21-.25.21c-1.21,1-2.43,2-3.68,3A65.26,65.26,0,0,0,63.6,11.37a51.18,51.18,0,0,1,8.18-2A125.21,125.21,0,0,1,82.09,17.22Zm-3.68,4.17c1.25,1,2.46,2,3.68,3l.25.21-.25.21a121.91,121.91,0,0,1-10.31,7.85,49.76,49.76,0,0,1-8.17-2A65.19,65.19,0,0,0,78.41,21.39Zm4.06,3.86.35-.28a113.07,113.07,0,0,0,9.9,7.47,61.65,61.65,0,0,1-11,.94,62.9,62.9,0,0,1-9-.62C76.18,30.41,79.34,27.82,82.47,25.25Zm.82-.67q1.9-1.57,4-3.2A62.36,62.36,0,0,0,101.52,30a48,48,0,0,1-8,2.26A107.25,107.25,0,0,1,83.29,24.58ZM87.75,21a60.5,60.5,0,0,1,14.57-8.71A60.8,60.8,0,0,1,116.91,21a60.5,60.5,0,0,1-14.59,8.71A60.8,60.8,0,0,1,87.75,21ZM81.69,1.48a55,55,0,0,1,19.83,3.37A52.8,52.8,0,0,0,93.43,9.1,61.58,61.58,0,0,0,81.69,8a64.55,64.55,0,0,0-9.76.71A54.55,54.55,0,0,0,63.6,4.23,56.12,56.12,0,0,1,81.69,1.48ZM71.05,8.89A51.49,51.49,0,0,0,62.75,11,49.56,49.56,0,0,0,54.4,8.45a49.62,49.62,0,0,1,8.33-3.93A52.69,52.69,0,0,1,71.05,8.89ZM41.59.61A54.56,54.56,0,0,1,61.93,4.19,51.85,51.85,0,0,0,53.5,8.26a61.67,61.67,0,0,0-11.91-1.1A61.85,61.85,0,0,0,29.83,8.23,52.67,52.67,0,0,0,21.75,4,54.77,54.77,0,0,1,41.59.61ZM21,4.31A50.91,50.91,0,0,1,29,8.4a50,50,0,0,0-8,2.4,48.79,48.79,0,0,0-8-2.4A51.75,51.75,0,0,1,21,4.31ZM1.08,17.63l-.25-.2.25-.21a117.45,117.45,0,0,1,11.1-8.36,48.89,48.89,0,0,1,8,2.28A64.43,64.43,0,0,0,4.76,20.62C3.52,19.63,2.3,18.63,1.08,17.63Zm0,7.15-.26-.2.25-.21c1.22-1,2.44-2,3.68-3a64.55,64.55,0,0,0,15.41,9.5,49.21,49.21,0,0,1-8,2.26A113,113,0,0,1,1.09,24.78Zm11.83,8.84A49.55,49.55,0,0,0,21,31.22a49.52,49.52,0,0,0,8,2.39,51.83,51.83,0,0,1-8,4.11A51.79,51.79,0,0,1,12.92,33.62ZM41.59,41.4A54.64,54.64,0,0,1,21.79,38a53,53,0,0,0,8.06-4.24,61.63,61.63,0,0,0,11.74,1.07,61.49,61.49,0,0,0,11.89-1.09,51.48,51.48,0,0,0,8.43,4.07A54.5,54.5,0,0,1,41.59,41.4Zm21.14-3.91a48.9,48.9,0,0,1-8.37-3.92A49.24,49.24,0,0,0,62.76,31a51.37,51.37,0,0,0,8.29,2.13A52.69,52.69,0,0,1,62.73,37.49Zm18.94,3A56.31,56.31,0,0,1,63.6,37.79a55,55,0,0,0,8.33-4.52,64.38,64.38,0,0,0,9.74.71,61.8,61.8,0,0,0,11.76-1.07,52.8,52.8,0,0,0,8.09,4.25A55.07,55.07,0,0,1,81.67,40.53Zm20.65-3.67a51.53,51.53,0,0,1-8-4.12,48.33,48.33,0,0,0,8-2.39,48.16,48.16,0,0,0,8.06,2.39A52.5,52.5,0,0,1,102.32,36.86Zm19.06-12.28a109.36,109.36,0,0,1-10.29,7.7,49.11,49.11,0,0,1-8-2.27,62.29,62.29,0,0,0,14.29-8.63Q119.47,23,121.38,24.58Zm0-7.15q-1.92,1.58-4,3.2A62.29,62.29,0,0,0,103.12,12a49.11,49.11,0,0,1,8-2.27A109.36,109.36,0,0,1,121.38,17.43Z"/></g></g></svg>