<?xml version="1.0" encoding="utf-8"?>
<!-- Generator: Adobe Illustrator 25.3.0, SVG Export Plug-In . SVG Version: 6.00 Build 0)  -->
<svg version="1.1" id="Livello_1" xmlns="http://www.w3.org/2000/svg" xmlns:xlink="http://www.w3.org/1999/xlink" x="0px" y="0px"
	 viewBox="0 0 441.5 355.4" style="enable-background:new 0 0 441.5 355.4;" xml:space="preserve">
<g id="Livello_2_1_">
	<g id="Livello_1-2">
		<path d="M208.2,0h-78.3c-2.4,0-4.3,1.9-4.3,4.3v63.5c0,2.4-2,4.3-4.3,4.2c-1.1,0-2.2-0.5-3-1.2l-71-69.6c-0.8-0.8-1.9-1.2-3-1.2
			h-40C1.9,0,0,1.9,0,4.2c0,0,0,0,0,0v72.2c0,2.4,1.9,4.3,4.3,4.3c0,0,0,0,0,0h91.8c2.8,0,5,2.2,5,5s-2.2,5-5,5H4.3
			C1.9,90.8,0,92.7,0,95v72.2c0,2.4,1.9,4.3,4.3,4.3h117c2.4,0,4.3-1.9,4.3-4.3V95c0-2.4-1.9-4.3-4.3-4.3h-5.9c-2.8,0-5-2.2-5-5
			s2.2-5,5-5h92.8c2.4,0,4.3-1.9,4.3-4.3V4.3C212.4,1.9,210.5,0,208.2,0"/>
		<path d="M345,264.7h92.3c2.4,0,4.3-1.9,4.3-4.3v-72.2c0-2.4-1.9-4.3-4.3-4.3H233.4c-2.4,0-4.3,1.9-4.3,4.3v72.2
			c0,2.4,1.9,4.3,4.3,4.3h92.3c2.8,0,5,2.2,5,5s-2.2,5-5,5h-92.3c-2.4,0-4.3,1.9-4.3,4.3v72.2c0,2.4,1.9,4.3,4.3,4.3c0,0,0,0,0,0
			h203.9c2.4,0,4.3-1.9,4.3-4.3v-72.2c0-2.4-1.9-4.3-4.3-4.3H345c-2.8,0-5-2.2-5-5S342.2,264.6,345,264.7"/>
		<path d="M208.2,183.9h-39.7c-1.3,0-2.6,0.6-3.4,1.6l-55.5,68.8c-1.5,1.9-4.1,2.2-6,0.7c-0.3-0.2-0.5-0.5-0.7-0.7l-55.5-68.8
			c-0.8-1-2.1-1.6-3.4-1.6H4.3c-2.4,0-4.3,1.9-4.3,4.2c0,0,0,0,0,0v163c0,2.4,1.9,4.3,4.3,4.3H97c2.4,0,4.3-1.9,4.3-4.3v-81.5l0,0
			c0-2.8,2.2-5,5-5s5,2.2,5,5v81.5c0,2.4,1.9,4.3,4.3,4.3h92.7c2.4,0,4.3-1.9,4.3-4.3v-163C212.5,185.8,210.6,183.9,208.2,183.9
			C208.2,183.9,208.2,183.9,208.2,183.9"/>
		<path d="M335.3,13.9c39.7,0,71.9,32.2,71.9,71.9s-32.2,71.9-71.9,71.9c-39.7,0-71.9-32.2-71.9-71.9c0,0,0,0,0,0
			C263.5,46.1,295.6,13.9,335.3,13.9 M437.3,0H233.4c-2.4,0-4.3,1.9-4.3,4.3v163c0,2.4,1.9,4.3,4.3,4.3h203.9c2.4,0,4.3-1.9,4.3-4.3
			V4.3C441.5,1.9,439.6,0,437.3,0"/>
		<path d="M199.2,166.9c0,2.9-1.8,4.4-5.4,4.4h-8.1v-15.4h7.7c3.6,0,5.4,1.4,5.4,4.3c0.2,1.4-0.7,2.8-2,3.3
			C198.3,163.9,199.3,165.3,199.2,166.9 M196.9,160.2c0.1-0.8-0.4-1.6-1.1-2c-0.8-0.3-1.6-0.4-2.4-0.4h-5.8v4.8h5.8
			c0.8,0,1.6-0.1,2.4-0.4C196.5,161.8,196.9,161,196.9,160.2 M197.2,166.9c0.1-0.8-0.4-1.6-1.1-2c-0.8-0.3-1.6-0.4-2.4-0.4h-6.2v4.8
			h6.2c0.8,0,1.6-0.1,2.4-0.4C196.9,168.6,197.3,167.8,197.2,166.9 M175,163.6c0.1,2-0.5,3.9-1.7,5.4c-2.5,2.8-6.8,3-9.6,0.5
			c-0.2-0.2-0.4-0.3-0.5-0.5c-1.2-1.6-1.7-3.5-1.7-5.4v-7.7h1.9v7.7c-0.1,1.4,0.3,2.9,1.1,4.1c0.9,1.2,2.2,1.8,3.7,1.7
			c1.4,0.1,2.8-0.6,3.7-1.7c0.8-1.2,1.2-2.6,1.1-4.1v-7.7h1.9V163.6z M148.9,171.3v-6.8h-8.7v6.8h-1.9v-15.4h1.9v6.8h8.7v-6.8h1.9
			v15.4H148.9z M180,141.8v-15.4h1.9v13.5h8.7v1.9H180z M167.7,141.8l-1.4-3.9h-6.8l-1.4,3.9h-2l5.6-15.4h2.4l5.6,15.4H167.7z
			 M162.9,128.7l-2.7,7.3h5.4L162.9,128.7z M144.4,128.3v13.5h-1.9v-13.5h-4.8v-1.9h11.6v1.9H144.4z M199.1,96.9h1.9v15.4h-1.9
			L199.1,96.9z M186.5,112.4V110c-1.1,1.6-2.9,2.5-4.9,2.4c-1.9,0.1-3.8-0.8-5.1-2.3c-2.2-3.3-2.2-7.6,0-10.9
			c1.2-1.5,3.1-2.4,5.1-2.3c1.4-0.1,2.7,0.3,3.8,1c1.1,0.8,1.9,1.8,2.3,3.1l-1.9,0.5c-1.1-2.4-3.9-3.4-6.3-2.3
			c-0.6,0.3-1.2,0.7-1.7,1.3c-1.5,2.5-1.5,5.6,0,8.1c0.9,1.2,2.2,1.8,3.7,1.7c1.3,0.1,2.5-0.4,3.4-1.4c0.8-1,1.3-2.2,1.4-3.4h-4.8
			v-1.9h6.8v8.7L186.5,112.4z M162.4,96.9h1.9v15.4h-1.9V96.9z M151.8,104.7c0.1,1.9-0.5,3.9-1.7,5.4c-1.2,1.5-3.1,2.4-5.1,2.3h-6.7
			V96.9h6.7c2-0.1,3.8,0.8,5.1,2.3C151.3,100.8,151.9,102.7,151.8,104.7 M149.9,104.7c0.1-1.4-0.3-2.8-1.1-4
			c-0.9-1.2-2.2-1.8-3.7-1.7h-4.8v11.6h4.8c1.4,0.1,2.8-0.6,3.7-1.7C149.5,107.6,149.9,106.2,149.9,104.7"/>
	</g>
</g>
</svg>
