<svg xmlns="http://www.w3.org/2000/svg" viewBox="0 0 441.55 355.42"><defs><style>.cls-1{fill-rule:evenodd;}</style></defs><g id="Livello_2" data-name="Livello 2"><g id="Livello_1-2" data-name="Livello 1"><path d="M208.16,0H129.83a4.27,4.27,0,0,0-4.27,4.27V67.78a4.27,4.27,0,0,1-7.27,3l-71-69.61a4.24,4.24,0,0,0-3-1.22H4.27A4.28,4.28,0,0,0,0,4.27V76.49a4.28,4.28,0,0,0,4.27,4.29H96.05a5,5,0,1,1,0,10H4.27A4.27,4.27,0,0,0,0,95v72.23a4.28,4.28,0,0,0,4.27,4.28h117a4.28,4.28,0,0,0,4.28-4.28V95a4.28,4.28,0,0,0-4.28-4.27h-5.87a5,5,0,0,1,0-10h92.75a4.29,4.29,0,0,0,4.28-4.29V4.27A4.28,4.28,0,0,0,208.16,0"/><path d="M345,264.68h92.27a4.27,4.27,0,0,0,4.27-4.27V188.18a4.28,4.28,0,0,0-4.27-4.28H233.39a4.28,4.28,0,0,0-4.28,4.28v72.23a4.28,4.28,0,0,0,4.28,4.27h92.26a5,5,0,1,1,0,10H233.39a4.28,4.28,0,0,0-4.28,4.28v72.22a4.27,4.27,0,0,0,4.28,4.27H437.28a4.27,4.27,0,0,0,4.27-4.27V278.93a4.28,4.28,0,0,0-4.27-4.28H345a5,5,0,0,1,0-10"/><path d="M210.21,183.91H170.47a4.28,4.28,0,0,0-3.37,1.65l-55.47,68.8a4.28,4.28,0,0,1-6.74,0l-55.47-68.8a4.28,4.28,0,0,0-3.37-1.65H6.32A4.28,4.28,0,0,0,2,188.18v163a4.28,4.28,0,0,0,4.28,4.27H99a4.27,4.27,0,0,0,4.27-4.27V269.67h0a5,5,0,0,1,10,0v81.48a4.27,4.27,0,0,0,4.27,4.27h92.67a4.27,4.27,0,0,0,4.27-4.27v-163a4.27,4.27,0,0,0-4.27-4.27"/><path d="M333.29,13.85a71.91,71.91,0,1,1-71.9,71.91,72,72,0,0,1,71.9-71.91M435.23,0H231.34a4.28,4.28,0,0,0-4.27,4.27v163a4.28,4.28,0,0,0,4.27,4.28H435.23a4.28,4.28,0,0,0,4.28-4.28V4.27A4.28,4.28,0,0,0,435.23,0"/><path class="cls-1" d="M199.17,166.9c0,2.9-1.8,4.36-5.39,4.36h-8.09V155.83h7.7c3.6,0,5.39,1.45,5.39,4.34a3.18,3.18,0,0,1-2,3.32,3.15,3.15,0,0,1,2.38,3.41m-2.31-6.73a2.1,2.1,0,0,0-1.08-2,5.75,5.75,0,0,0-2.39-.37h-5.78v4.81h5.78a5.51,5.51,0,0,0,2.39-.4,2,2,0,0,0,1.08-2m.4,6.73a2.07,2.07,0,0,0-1.08-2,5.81,5.81,0,0,0-2.4-.4h-6.17v4.83h6.17a5.83,5.83,0,0,0,2.4-.39,2.09,2.09,0,0,0,1.08-2M175,163.55a8.43,8.43,0,0,1-1.68,5.44,6.81,6.81,0,0,1-10.15,0,8.58,8.58,0,0,1-1.66-5.44v-7.72h1.93v7.72a6.8,6.8,0,0,0,1.1,4.06,4.28,4.28,0,0,0,3.69,1.72,4.34,4.34,0,0,0,3.71-1.72,6.67,6.67,0,0,0,1.14-4.06v-7.72H175Zm-26.1,7.71V164.5h-8.68v6.76h-1.91V155.83h1.91v6.75h8.68v-6.75h1.93v15.43ZM180,141.8V126.38h1.92v13.51h8.67v1.91Zm-12.31,0-1.41-3.86h-6.77l-1.4,3.86h-2l5.6-15.42h2.45l5.59,15.42Zm-4.78-13.12L160.25,136h5.36Zm-18.51-.36V141.8h-1.95V128.32h-4.79v-1.94h11.56v1.94Zm54.67-31.39H201v15.43h-1.92Zm-12.55,15.43V110a5.45,5.45,0,0,1-4.86,2.39,6.16,6.16,0,0,1-5.05-2.27,9.73,9.73,0,0,1,0-10.87,6.11,6.11,0,0,1,5.05-2.29A6.57,6.57,0,0,1,185.49,98a6.29,6.29,0,0,1,2.33,3.09l-1.85.5a4.76,4.76,0,0,0-8-1,7.94,7.94,0,0,0,0,8.1,4.25,4.25,0,0,0,3.68,1.72,4.47,4.47,0,0,0,3.43-1.38,5.82,5.82,0,0,0,1.38-3.44h-4.81v-1.93h6.77v8.68ZM162.38,96.93h1.91v15.43h-1.91Zm-10.58,7.73a8.4,8.4,0,0,1-1.67,5.43,6.21,6.21,0,0,1-5.08,2.27h-6.73V96.93h6.73a6.17,6.17,0,0,1,5.08,2.29,8.34,8.34,0,0,1,1.67,5.44m-1.92,0a6.5,6.5,0,0,0-1.14-4,4.32,4.32,0,0,0-3.69-1.74h-4.82v11.56h4.82a4.33,4.33,0,0,0,3.69-1.72,6.58,6.58,0,0,0,1.14-4"/></g></g></svg>