<svg width="147" height="921" viewBox="0 0 147 921" fill="none" xmlns="http://www.w3.org/2000/svg">
<path d="M146.253 -10.9246C146.253 77.8593 76.611 77.8593 76.611 166.208C76.611 254.992 146.253 254.992 146.253 343.34C146.253 432.124 76.611 432.124 76.611 520.473C76.611 609.257 146.253 609.257 146.253 697.605C146.253 786.389 76.611 786.389 76.611 874.738C76.611 893.017 79.5956 907.379 84.0726 919.565" stroke="white" stroke-opacity="0.4" stroke-width="0.5" stroke-miterlimit="10"/>
<path d="M75.1187 -10.9246C75.1187 77.8593 144.76 77.8593 144.76 166.208C144.76 254.992 75.1187 254.992 75.1187 343.34C75.1187 432.124 144.76 432.124 144.76 520.473C144.76 609.257 75.1187 609.257 75.1187 697.605C75.1187 786.389 144.76 786.389 144.76 874.738C144.76 893.017 141.776 907.379 137.299 919.565" stroke="white" stroke-opacity="0.4" stroke-width="0.5" stroke-miterlimit="10"/>
<path d="M110.437 168.819C93.524 190.58 76.611 212.776 76.611 256.297C76.611 299.819 93.524 322.015 110.437 343.776C127.35 322.015 144.263 299.819 144.263 256.297C144.76 212.776 127.847 190.58 110.437 168.819Z" stroke="white" stroke-opacity="0.4" stroke-width="0.5" stroke-miterlimit="10"/>
<path d="M110.437 343.776C92.5291 366.407 74.6213 388.603 74.6213 433.43C74.6213 478.692 92.5291 500.453 110.437 523.084C128.345 500.453 146.253 478.257 146.253 433.43C146.253 388.168 128.345 365.972 110.437 343.776Z" stroke="white" stroke-opacity="0.4" stroke-width="0.5" stroke-miterlimit="10"/>
<path d="M110.437 523.084C93.524 544.845 76.611 567.041 76.611 610.562C76.611 654.084 93.524 676.28 110.437 698.04C127.35 676.28 144.263 654.084 144.263 610.562C144.76 567.041 127.847 544.845 110.437 523.084Z" stroke="white" stroke-opacity="0.4" stroke-width="0.5" stroke-miterlimit="10"/>
<path d="M110.437 -10.9246C92.5291 11.7066 74.6213 33.9026 74.6213 78.7297C74.6213 123.992 92.5291 145.753 110.437 168.384C128.345 145.753 146.253 123.557 146.253 78.7297C146.253 33.9026 128.345 11.7066 110.437 -10.9246Z" stroke="white" stroke-opacity="0.4" stroke-width="0.5" stroke-miterlimit="10"/>
<path d="M136.801 920C130.335 903.027 120.386 890.405 110.437 877.349C100.488 889.97 90.5393 902.591 84.0726 920" stroke="white" stroke-opacity="0.4" stroke-width="0.5" stroke-miterlimit="10"/>
<path d="M110.437 877.349C128.345 854.718 146.253 832.522 146.253 787.695C146.253 742.432 128.345 720.672 110.437 698.041C92.5291 720.672 74.6213 742.868 74.6212 787.695C75.1187 832.957 93.0265 855.153 110.437 877.349Z" stroke="white" stroke-opacity="0.4" stroke-width="0.5" stroke-miterlimit="10"/>
<path d="M72.6315 -10.9246C72.6315 77.8593 2.98981 77.8593 2.98981 166.208C2.9898 254.992 72.6315 254.992 72.6315 343.34C72.6315 432.124 2.98979 432.124 2.98979 520.473C2.98979 609.257 72.6315 609.257 72.6315 697.605C72.6315 786.389 2.98978 786.389 2.98977 874.738C2.98977 893.017 5.97441 907.379 10.4514 919.565" stroke="white" stroke-opacity="0.4" stroke-width="0.5" stroke-miterlimit="10"/>
<path d="M1.00004 -10.9246C1.00003 77.8593 70.6417 77.8593 70.6417 166.208C70.6417 254.992 1.00002 254.992 1.00002 343.34C1.00001 432.124 70.6417 432.124 70.6417 520.473C70.6417 609.257 1.00001 609.257 1 697.605C0.999997 786.389 70.6417 786.389 70.6417 874.738C70.6417 893.017 67.657 907.379 63.1801 919.565" stroke="white" stroke-opacity="0.4" stroke-width="0.5" stroke-miterlimit="10"/>
<path d="M36.8158 168.819C19.9028 190.58 2.98981 212.776 2.98981 256.297C2.98981 299.819 19.9028 322.015 36.8158 343.776C53.7287 322.015 70.6417 299.819 70.6417 256.297C70.6417 212.776 54.2262 190.58 36.8158 168.819Z" stroke="white" stroke-opacity="0.4" stroke-width="0.5" stroke-miterlimit="10"/>
<path d="M36.8158 343.776C18.9079 366.407 1.00006 388.603 1.00006 433.43C1.00006 478.692 18.9079 500.453 36.8158 523.084C54.7236 500.453 72.6315 478.257 72.6315 433.43C72.6315 388.168 54.7236 365.972 36.8158 343.776Z" stroke="white" stroke-opacity="0.4" stroke-width="0.5" stroke-miterlimit="10"/>
<path d="M36.8157 523.084C19.9028 544.845 2.98978 567.041 2.98978 610.562C2.98978 654.084 19.9028 676.28 36.8157 698.041C53.7287 676.28 70.6417 654.084 70.6417 610.562C70.6417 567.041 54.2262 544.845 36.8157 523.084Z" stroke="white" stroke-opacity="0.4" stroke-width="0.5" stroke-miterlimit="10"/>
<path d="M36.8158 -10.9246C18.9079 11.7066 1.00004 33.9026 1.00003 78.7297C1.00003 123.992 18.9079 145.753 36.8158 168.384C54.7236 145.753 72.6315 123.557 72.6315 78.7297C72.6315 33.9026 54.7236 11.7066 36.8158 -10.9246Z" stroke="white" stroke-opacity="0.4" stroke-width="0.5" stroke-miterlimit="10"/>
<path d="M63.1801 920C56.7134 903.027 46.7645 890.405 36.8157 877.349C26.8669 889.97 16.9181 902.591 10.4514 920" stroke="white" stroke-opacity="0.4" stroke-width="0.5" stroke-miterlimit="10"/>
<path d="M36.8157 877.349C54.7236 854.718 72.6315 832.522 72.6315 787.695C72.6315 742.432 54.7236 720.672 36.8157 698.041C18.9079 720.672 1.00001 742.868 1 787.695C1 832.957 19.4053 855.153 36.8157 877.349Z" stroke="white" stroke-opacity="0.4" stroke-width="0.5" stroke-miterlimit="10"/>
</svg>
