<svg width="234" height="922" viewBox="0 0 234 922" fill="none" xmlns="http://www.w3.org/2000/svg">
<g clip-path="url(#clip0)">
<path d="M233.027 24.1582C233.027 60.752 51.5676 60.752 51.5676 96.9762C51.5676 133.57 233.027 133.57 233.027 169.794C233.027 206.388 51.5676 206.388 51.5676 242.612C51.5676 279.206 233.027 279.206 233.027 315.43C233.027 352.024 51.5676 352.024 51.5676 388.248C51.5676 424.842 233.027 424.842 233.027 461.066C233.027 497.66 51.5676 497.66 51.5676 533.884C51.5676 570.478 233.027 570.478 233.027 606.702C233.027 643.296 51.5676 643.296 51.5676 679.52C51.5676 716.114 233.027 716.114 233.027 752.338C233.027 788.562 51.5676 788.931 51.5676 825.156" stroke="white" stroke-opacity="0.4" stroke-width="0.5" stroke-miterlimit="10"/>
<path d="M227.676 40.0525C227.676 76.6462 46.2163 76.6462 46.2163 112.87C46.2163 149.464 227.676 149.464 227.676 185.688C227.676 222.282 46.2163 222.282 46.2163 258.506C46.2163 295.1 227.676 295.1 227.676 331.694C227.676 368.288 46.2163 368.288 46.2163 404.512C46.2163 441.106 227.676 441.106 227.676 477.33C227.676 513.924 46.2162 513.923 46.2162 550.148C46.2162 586.741 227.676 586.741 227.676 622.966C227.676 659.559 46.2162 659.559 46.2162 695.784C46.2162 732.377 227.676 732.377 227.676 768.601C227.676 804.826 46.2162 805.195 46.2162 841.419" stroke="white" stroke-opacity="0.4" stroke-width="0.5" stroke-miterlimit="10"/>
<path d="M227.676 7.89429C227.676 44.4881 46.2163 44.4881 46.2163 80.7122C46.2162 117.306 227.676 117.306 227.676 153.53C227.676 190.124 46.2162 190.124 46.2162 226.348C46.2162 262.942 227.676 262.942 227.676 299.166C227.676 335.76 46.2162 335.76 46.2162 371.984C46.2162 408.578 227.676 408.578 227.676 444.802C227.676 481.396 46.2162 481.396 46.2162 517.62C46.2162 554.214 227.676 554.214 227.676 590.438C227.676 627.032 46.2162 627.032 46.2162 663.256C46.2162 699.85 227.676 699.85 227.676 736.074C227.676 772.298 46.2162 772.668 46.2162 808.892" stroke="white" stroke-opacity="0.4" stroke-width="0.5" stroke-miterlimit="10"/>
<path d="M216.973 -8C216.973 28.5938 35.5136 28.5938 35.5136 64.818C35.5136 101.412 216.973 101.412 216.973 137.636C216.973 174.23 35.5135 174.23 35.5135 210.454C35.5135 247.048 216.973 247.048 216.973 283.272C216.973 319.866 35.5135 319.866 35.5135 356.09C35.5135 392.684 216.973 392.684 216.973 428.908C216.973 465.502 35.5135 465.502 35.5135 501.726C35.5135 538.319 216.973 538.32 216.973 574.544C216.973 611.138 35.5135 611.137 35.5135 647.362C35.5135 683.955 216.973 683.955 216.973 720.18C216.973 756.404 35.5135 756.773 35.5135 792.998" stroke="white" stroke-opacity="0.4" stroke-width="0.5" stroke-miterlimit="10"/>
<path d="M207.243 72.2107C207.243 108.804 25.7838 108.804 25.7838 145.029C25.7838 181.622 207.243 181.622 207.243 217.847C207.243 254.44 25.7838 254.44 25.7838 290.665C25.7838 327.258 207.243 327.258 207.243 363.483C207.243 400.076 25.7838 400.076 25.7838 436.3C25.7838 472.894 207.243 472.894 207.243 509.118C207.243 545.712 25.7838 545.712 25.7838 581.936C25.7838 618.53 207.243 618.53 207.243 654.754C207.243 691.348 25.7838 691.348 25.7838 727.572C25.7837 764.166 207.243 764.166 207.243 800.39C207.243 836.984 25.7837 836.984 25.7837 873.208" stroke="white" stroke-opacity="0.4" stroke-width="0.5" stroke-miterlimit="10"/>
<path d="M191.676 120.263C191.676 156.857 10.2163 156.857 10.2163 193.081C10.2162 229.675 191.676 229.675 191.676 265.899C191.676 302.493 10.2162 302.493 10.2162 339.087C10.2162 375.68 191.676 375.68 191.676 411.905C191.676 448.498 10.2162 448.498 10.2162 484.723C10.2162 521.316 191.676 521.316 191.676 557.541C191.676 594.134 10.2162 594.134 10.2162 630.358C10.2162 666.952 191.676 666.952 191.676 703.176C191.676 739.77 10.2162 739.77 10.2162 775.994C10.2162 812.588 191.676 812.588 191.676 848.812C191.676 885.037 10.2162 885.406 10.2162 922" stroke="white" stroke-opacity="0.4" stroke-width="0.5" stroke-miterlimit="10"/>
<path d="M191.676 88.4746C191.676 125.068 10.2163 125.068 10.2163 161.293C10.2162 197.886 191.676 197.886 191.676 234.11C191.676 270.704 10.2162 270.704 10.2162 306.928C10.2162 343.153 191.676 343.153 191.676 379.746C191.676 416.34 10.2162 416.34 10.2162 452.564C10.2162 489.158 191.676 489.158 191.676 525.382C191.676 561.976 10.2162 561.976 10.2162 598.2C10.2162 634.794 191.676 634.794 191.676 671.018C191.676 707.612 10.2162 707.612 10.2162 743.836C10.2162 780.43 191.676 780.43 191.676 816.654C191.676 853.248 10.2162 853.248 10.2162 889.842" stroke="white" stroke-opacity="0.4" stroke-width="0.5" stroke-miterlimit="10"/>
<path d="M182.919 104.369C182.919 140.963 1.45951 140.963 1.45951 177.187C1.45951 213.781 182.919 213.781 182.919 250.005C182.919 286.599 1.4595 286.599 1.4595 322.823C1.4595 359.416 182.919 359.416 182.919 395.641C182.919 432.234 1.45949 432.234 1.45949 468.459C1.45949 505.052 182.919 505.052 182.919 541.277C182.919 577.87 1.45949 577.87 1.45948 614.094C1.45948 650.688 182.919 650.688 182.919 686.912C182.919 723.506 1.45948 723.506 1.45948 759.73C1.45947 796.324 182.919 796.324 182.919 832.548C182.919 869.142 1.45947 869.142 1.45947 905.366" stroke="white" stroke-opacity="0.4" stroke-width="0.5" stroke-miterlimit="10"/>
<path d="M216.973 56.3164C216.973 92.9101 35.5136 92.9101 35.5136 129.134C35.5136 165.728 216.973 165.728 216.973 201.952C216.973 238.546 35.5135 238.546 35.5135 274.77C35.5135 311.364 216.973 311.364 216.973 347.588C216.973 384.182 35.5135 384.182 35.5135 420.406C35.5135 457 216.973 457 216.973 493.224C216.973 529.818 35.5135 529.818 35.5135 566.042C35.5135 602.636 216.973 602.636 216.973 638.86C216.973 675.454 35.5135 675.454 35.5135 711.678C35.5135 748.272 216.973 748.272 216.973 784.496C216.973 821.09 35.5135 821.09 35.5135 857.314" stroke="white" stroke-opacity="0.4" stroke-width="0.5" stroke-miterlimit="10"/>
</g>
<defs>
<clipPath id="clip0">
<rect width="930" height="234" fill="white" transform="translate(234 -8) rotate(90)"/>
</clipPath>
</defs>
</svg>
