<svg width="162" height="923" viewBox="0 0 162 923" fill="none" xmlns="http://www.w3.org/2000/svg">
<path d="M129.111 -36.198C116.815 1.80548 29.23 -12.8447 23.3349 23.4181C17.7766 57.07 114.794 49.9625 112.604 83.0342C110.246 117.556 15.7554 107.403 14.5763 142.65C13.3973 177.463 108.393 167.599 110.415 202.266C112.436 236.644 15.9238 228.086 17.945 261.882C19.9662 296.695 113.952 285.816 117.994 321.499C121.868 355.586 25.0192 347.753 28.5563 381.115C32.0933 416.217 122.036 402.437 130.458 440.731" stroke="white" stroke-opacity="0.4" stroke-width="0.5" stroke-miterlimit="10"/>
<path d="M31.0828 -36.198C28.051 0.500003 120.689 -9.65358 116.141 23.4181C111.257 58.3755 17.945 47.2065 14.5764 82.8891C11.3761 117.121 107.046 108.273 107.383 142.505C107.72 177.172 11.713 168.034 12.3867 202.121C13.0605 236.644 107.551 226.345 110.751 261.737C113.783 296.115 17.1029 287.847 19.9662 321.353C22.998 356.311 116.647 345.142 121.363 380.97C125.742 414.912 32.4302 403.743 32.4302 440.586" stroke="white" stroke-opacity="0.4" stroke-width="0.5" stroke-miterlimit="10"/>
<path d="M69.4855 24.1434C51.9685 29.6553 21.3137 36.9079 19.461 53.5888C17.7766 69.2543 47.5892 78.5376 63.4219 83.0342C80.7705 78.2475 110.583 69.8345 112.436 53.5888C114.12 37.9232 85.1497 28.785 69.4855 24.1434Z" stroke="white" stroke-opacity="0.4" stroke-width="0.5" stroke-miterlimit="10"/>
<path d="M63.4219 83.0342C45.7365 88.5461 13.5658 96.2339 12.7236 113.205C12.0499 129.886 43.8837 137.864 60.727 143.376C78.244 137.719 109.741 130.176 110.583 113.205C111.425 96.9591 80.2652 87.8209 63.4219 83.0342Z" stroke="white" stroke-opacity="0.4" stroke-width="0.5" stroke-miterlimit="10"/>
<path d="M60.8954 143.376C44.3889 148.017 14.2395 156.865 14.4079 172.821C14.5763 188.777 44.7258 197.625 61.4007 202.266C77.9071 197.625 107.383 188.777 107.214 172.821C107.046 156.72 77.4018 148.017 60.8954 143.376Z" stroke="white" stroke-opacity="0.4" stroke-width="0.5" stroke-miterlimit="10"/>
<path d="M80.0967 -36.198C61.2323 -30.8311 28.3879 -22.9983 25.3561 -6.02731C22.4927 9.78328 53.8212 19.5017 69.6539 24.1434C87.8446 19.0666 120.352 10.5085 123.384 -6.0273C126.079 -21.9829 95.761 -31.4113 80.0967 -36.198Z" stroke="white" stroke-opacity="0.4" stroke-width="0.5" stroke-miterlimit="10"/>
<path d="M68.9802 321.209C52.6422 325.85 21.1453 335.279 22.8296 351.379C24.6824 368.495 56.6846 375.893 74.8753 381.55C91.2133 376.908 122.373 367.48 120.689 351.379C119.005 334.263 87.0025 326.866 68.9802 321.209Z" stroke="white" stroke-opacity="0.4" stroke-width="0.5" stroke-miterlimit="10"/>
<path d="M74.8753 381.55C59.2111 386.046 29.7353 395.33 31.5881 410.995C33.6093 427.676 63.7587 434.784 81.2758 440.441C96.94 435.944 126.247 426.661 124.563 410.995C122.542 394.169 92.3923 387.062 74.8753 381.55Z" stroke="white" stroke-opacity="0.4" stroke-width="0.5" stroke-miterlimit="10"/>
<path d="M64.264 262.463C48.2629 266.959 18.6188 276.097 19.9662 291.908C21.3137 308.009 51.6316 316.567 68.9802 321.353C84.9813 316.857 114.289 307.719 112.941 291.908C111.594 275.662 81.4442 267.104 64.264 262.463Z" stroke="white" stroke-opacity="0.4" stroke-width="0.5" stroke-miterlimit="10"/>
<path d="M61.4007 202.121C44.5574 207.633 12.7237 215.611 13.5658 232.292C14.408 249.263 46.5786 256.806 64.264 262.463C80.9389 257.676 112.267 248.538 111.425 232.292C110.583 215.321 78.9177 207.633 61.4007 202.121Z" stroke="white" stroke-opacity="0.4" stroke-width="0.5" stroke-miterlimit="10"/>
<path d="M130.29 440.296C132.311 476.994 37.9885 466.695 41.3572 499.912C44.8942 534.869 138.543 523.7 142.754 559.528C146.628 593.615 50.1157 585.637 51.9684 619.144C53.9896 653.666 148.48 643.367 150.333 678.76C152.017 713.427 56.853 703.854 55.3371 738.376C53.8212 772.753 150.502 764.195 148.144 797.992C145.785 832.949 52.4737 821.781 46.5786 857.608C41.0203 891.115 135.511 880.816 131.637 917.224" stroke="white" stroke-opacity="0.4" stroke-width="0.5" stroke-miterlimit="10"/>
<path d="M32.4302 440.296C40.8519 478.444 129.616 463.939 134.332 499.912C138.711 533.854 41.8625 526.166 44.8943 559.528C47.926 594.34 141.912 583.461 144.943 619.144C147.975 653.521 52.3053 644.528 52.4737 678.76C52.6422 713.572 148.649 704.144 148.312 738.376C148.144 772.753 53.6528 762.6 50.2841 797.992C47.0839 832.224 144.101 824.391 139.553 857.608C134.669 893.001 45.9048 879.221 33.7777 917.224" stroke="white" stroke-opacity="0.4" stroke-width="0.5" stroke-miterlimit="10"/>
<path d="M88.013 500.637C72.1803 505.133 42.873 514.417 44.5574 530.082C46.2417 546.328 76.3912 554.741 93.7397 559.528C109.572 555.031 139.048 545.748 137.364 530.082C135.68 513.401 105.362 506.294 88.013 500.637Z" stroke="white" stroke-opacity="0.4" stroke-width="0.5" stroke-miterlimit="10"/>
<path d="M93.7397 559.383C77.2333 564.169 46.0733 573.453 47.2523 589.553C48.5998 606.524 80.4336 614.067 98.4559 619.724C114.962 615.082 146.628 605.654 145.28 589.553C143.933 572.582 111.762 565.04 93.7397 559.383Z" stroke="white" stroke-opacity="0.4" stroke-width="0.5" stroke-miterlimit="10"/>
<path d="M98.4559 619.724C82.2864 624.366 52.8106 633.359 53.6528 649.169C54.495 665.27 84.3075 673.828 101.319 678.615C117.489 673.973 147.47 664.98 146.628 649.169C145.785 633.069 115.468 624.511 98.4559 619.724Z" stroke="white" stroke-opacity="0.4" stroke-width="0.5" stroke-miterlimit="10"/>
<path d="M81.2757 440.296C64.9378 444.937 33.7777 454.365 35.6305 470.466C37.6516 487.582 69.6539 494.98 87.8446 500.637C104.183 495.995 135.343 486.567 133.49 470.466C131.637 453.35 99.6349 446.098 81.2757 440.296Z" stroke="white" stroke-opacity="0.4" stroke-width="0.5" stroke-miterlimit="10"/>
<path d="M99.298 797.702C81.2757 803.359 49.6104 810.757 47.7576 827.873C46.0733 843.973 76.728 853.257 93.066 858.043C110.751 853.112 144.101 844.118 145.617 827.873C147.133 811.627 115.636 802.344 99.298 797.702Z" stroke="white" stroke-opacity="0.4" stroke-width="0.5" stroke-miterlimit="10"/>
<path d="M92.8976 858.043C74.8753 863.7 45.0627 870.518 41.8625 887.489C38.9991 902.864 67.4642 912.293 82.6232 916.789C100.982 911.132 131.637 904.315 134.837 887.344C137.701 871.968 108.225 862.395 92.8976 858.043Z" stroke="white" stroke-opacity="0.4" stroke-width="0.5" stroke-miterlimit="10"/>
<path d="M101.825 738.956C84.9813 743.598 55.1687 752.301 54.4949 768.402C53.8212 784.212 83.1285 793.205 99.298 797.847C116.31 793.06 146.628 784.357 147.301 768.256C148.144 752.446 118.162 743.453 101.825 738.956Z" stroke="white" stroke-opacity="0.4" stroke-width="0.5" stroke-miterlimit="10"/>
<path d="M101.319 678.615C84.3075 684.127 52.8106 691.959 52.9791 708.785C53.1475 725.611 84.6444 733.299 101.825 738.956C119.005 733.444 151.007 725.611 150.838 708.785C150.67 691.959 118.668 684.127 101.319 678.615Z" stroke="white" stroke-opacity="0.4" stroke-width="0.5" stroke-miterlimit="10"/>
<path d="M130.29 -42C63.4218 279.144 197.157 601.447 130.29 922.446" stroke="white" stroke-opacity="0.4" stroke-width="0.5" stroke-miterlimit="10"/>
<path d="M142.417 -42C75.549 279.144 209.285 601.447 142.417 922.446" stroke="white" stroke-opacity="0.4" stroke-width="0.5" stroke-miterlimit="10"/>
<path d="M20.3031 -42C-46.5647 279.144 87.1709 601.447 20.3031 922.446" stroke="white" stroke-opacity="0.4" stroke-width="0.5" stroke-miterlimit="10"/>
<path d="M32.4303 -42C-34.4376 279.144 99.2981 601.447 32.4302 922.446" stroke="white" stroke-opacity="0.4" stroke-width="0.5" stroke-miterlimit="10"/>
</svg>
