<svg xmlns="http://www.w3.org/2000/svg" viewBox="0 0 156.82 1080.09"><defs><style>.cls-1{fill:none;stroke:#FFFFFF;stroke-miterlimit:10;stroke-width:0.2px;}</style></defs><g id="Livello_2" data-name="Livello 2"><g id="Livello_1-2" data-name="Livello 1"><path class="cls-1" d="M124.53,6.5C115,49.12,27.41,31.22,22.22,73.18c-4.83,39.18,88.83,27.49,86.28,66.68-2.65,40.65-94.14,25.89-94.73,66.68-.58,40.44,91.69,26.36,92.7,66.69,1,39.51-92.62,26.54-89.48,66.69,3.28,41.89,93.42,25.61,96.78,66.69C117,446,23.41,434,27.21,473.3c4,41.22,94.29,24.07,98.53,66.7" transform="translate(0)"/><path class="cls-1" d="M29.86,6.5c-7,39.47,87.78,28,82.19,66.69-6,41.8-95.57,25.39-98.22,66.68-2.55,39.76,91.16,26.3,89.77,66.68-1.39,40.54-93.64,26.11-91.81,66.69,1.89,41.59,92.66,25.92,95,66.68,2.3,39.56-91,27.16-87.72,66.69,3.41,41.33,94,25.41,97.94,66.69,3.76,39.24-88.69,25.93-86,66.7" transform="translate(0)"/><path class="cls-1" d="M67,74.11c-15.15,5.12-45.92,13-48.3,32.91-2.31,19.37,29.8,28.1,42.45,32.9,15.09-5.19,45.66-13.55,47.38-32.9C110.25,87.9,81.05,79.54,67,74.11Z" transform="translate(0)"/><path class="cls-1" d="M61.17,139.92c-15,5.17-48.21,13.77-49,33.79-.78,19.77,32.17,28.72,46.49,33.77,15-5.24,47.39-13.82,48.18-33.79C107.62,154,75.46,145,61.17,139.92Z" transform="translate(0)"/><path class="cls-1" d="M58.66,207.48c-14.21,5-45.14,13.64-45,32.9s31.12,27.91,45.47,32.9c13.38-5,45.09-13.49,44.36-32.9C102.76,220.53,73.58,213,58.66,207.48Z" transform="translate(0)"/><path class="cls-1" d="M77.19,6.55c-16.3,5.58-49.06,12.88-53,33.79-3.7,19.77,30.38,29,42.81,33.77,16.2-5.46,48.73-13.62,51.86-33.78C121.91,20.83,91.11,12,77.19,6.55Z" transform="translate(0)"/><path class="cls-1" d="M66.44,406.66c-13.87,5-46.4,14.16-44.56,33.78,1.88,20.15,34.79,28.5,50.33,33.79,13.86-5,46.17-14.18,44.34-33.79C114.67,420.31,82,412,66.44,406.66Z" transform="translate(0)"/><path class="cls-1" d="M72.21,474.23c-14,5.37-43.66,13.77-41.85,32.91,1.84,19.39,32.86,27.74,48,32.9,12.59-4.83,44.21-13.63,41.79-32.91C117.69,487.26,87.39,479.39,72.21,474.23Z" transform="translate(0)"/><path class="cls-1" d="M62,340.85c-14.26,5.4-44.12,13.68-42.84,32.9s32.4,27.81,47.33,32.91c12.82-4.89,44.37-13.54,42.49-32.9C107,353.94,76.86,346,62,340.85Z" transform="translate(0)"/><path class="cls-1" d="M59.14,273.28c-14.27,5.05-47.1,14-46.19,33.79.92,20,33.91,28.59,49,33.78,14.25-5.1,46.57-14.05,45.67-33.79C106.7,287.08,74.2,278.52,59.14,273.28Z" transform="translate(0)"/><path class="cls-1" d="M125.74,540c2.66,40.78-89.77,27.45-86,66.69,4,41.29,94.57,25.37,97.94,66.68C140.93,712.77,46.86,700,50,740.09c3.24,41.51,94,25.9,95,66.69,1,40.17-92,25.89-91.81,66.69.19,40.11,93.17,26.62,89.78,66.69-3.55,42.06-93.37,24.5-98.22,66.69-4.48,39,90,27.69,82.19,66.7" transform="translate(0)"/><path class="cls-1" d="M31.07,540.05c5.85,42.72,94.56,25.28,98.53,66.69,3.77,39.32-89.81,27.33-86.56,66.68,3.4,41.08,94.39,25.57,96.78,66.68,2.31,39.71-91.29,26.26-89.47,66.68C52.2,847.88,143.66,833,143,873.47c-.62,40.8-92.11,26-94.72,66.69-2.51,39.18,91.15,27.51,86.28,66.69-5.23,42-92.78,24.05-102.31,66.69" transform="translate(0)"/><path class="cls-1" d="M84.76,607.66c-14.08,5.4-43.62,13.75-42,32.9,1.65,19.36,32.54,27.75,47.63,32.91,12.67-4.84,44.44-13.56,42.2-32.9C130.29,620.68,99.86,612.8,84.76,607.66Z" transform="translate(0)"/><path class="cls-1" d="M90.4,673.47c-14,5-46.33,14.12-44.88,33.78C47,727.32,79.61,735.75,95,741c14-5,46.7-14.11,45.24-33.79C138.71,687.15,105.75,678.71,90.4,673.47Z" transform="translate(0)"/><path class="cls-1" d="M95,741c-14.47,5.46-44,13.61-43.29,32.9s31.39,27.81,46,32.9c13.08-4.89,45.11-13.39,43.79-32.9C140.15,754.13,109.62,746.08,95,741Z" transform="translate(0)"/><path class="cls-1" d="M78.42,540.1c-13.79,5-46.14,14.19-44.13,33.78,2.08,20.16,34.85,28.47,50.47,33.78,13.79-5,46.22-14.19,44.21-33.78C126.89,553.72,94.05,545.4,78.42,540.1Z" transform="translate(0)"/><path class="cls-1" d="M95.66,940.21C80.11,945.55,47.73,953.87,45.77,974c-1.91,19.58,30,28.73,43.81,33.79,15.61-5.26,48.89-13.61,50.86-33.79C142.35,954.37,109.5,945.17,95.66,940.21Z" transform="translate(0)"/><path class="cls-1" d="M89.58,1007.78c-15.73,5.3-45.63,13.12-49.36,32.91-3.57,18.89,27.28,28.09,39.39,32.9,15.82-5.22,47.37-13.32,50.43-32.91C133,1021.7,103.16,1013,89.58,1007.78Z" transform="translate(0)"/><path class="cls-1" d="M98.11,874.4c-14.59,5.1-44.52,13.18-45.75,32.9-1.21,19.45,30.2,28,43.3,32.91,14.63-5,45.92-13.67,46.53-32.91S112.68,879.82,98.11,874.4Z" transform="translate(0)"/><path class="cls-1" d="M97.69,806.83C83.12,812,50.76,820.77,50.9,840.62s32.51,28.59,47.21,33.78c14.61-5.1,47.61-13.91,47.46-33.79S112.43,812,97.69,806.83Z" transform="translate(0)"/><path class="cls-1" d="M125.74.05c-66.08,359.26,66.09,720.73,0,1080" transform="translate(0)"/><path class="cls-1" d="M137.49.05c-66.09,359.26,66.09,720.73,0,1080" transform="translate(0)"/><path class="cls-1" d="M19.33.05c-66.09,359.26,66.09,720.73,0,1080" transform="translate(0)"/><path class="cls-1" d="M31.07.05c-66.09,359.26,66.09,720.73,0,1080" transform="translate(0)"/></g></g></svg>