<svg xmlns="http://www.w3.org/2000/svg" viewBox="0 0 102.84 49.32"><defs><style>.cls-1{fill:none;}.cls-2{fill:#272525;}</style></defs><g id="Livello_2" data-name="Livello 2"><g id="Livello_1-2" data-name="Livello 1"><polygon class="cls-1" points="99.16 9.29 99.03 9.36 99.16 9.42 99.16 9.29"/><path class="cls-2" d="M0,4.68H12L3,9.36l9.87,5.1L3,19.56l9.87,5.1L3,29.76l9.87,5.1L3,40,12,44.64H0v.59H102.84v-.59H90.57L99.64,40l-9.88-5.1,9.88-5.1-9.88-5.1,9.88-5.1-9.88-5.1,9.88-5.1-9-4.68h12.25v-.6H0ZM4.17,19.56l9-4.62,8.94,4.62-8.94,4.61Zm27.77,15.3-9.28,4.78-9.27-4.78,9.27-4.79ZM13.39,24.66l9.27-4.79,9.28,4.79-9.28,4.78Zm9.88,5.1,8.94-4.62,8.94,4.62-8.94,4.61Zm9.21-5.1,9.28-4.79L51,24.66l-9.27,4.78Zm9.28,5.41L51,34.86l-9.27,4.78-9.28-4.78Zm.6-.31,8.94-4.62,9,4.62-9,4.61Zm9.21-5.1,9.28-4.79,9.27,4.79-9.27,4.78Zm9.28,5.41,9.27,4.79-9.27,4.78-9.28-4.78Zm.6-.31,9-4.62,8.94,4.62L70.4,34.37Zm18.49.31,9.28,4.79-9.28,4.78-9.27-4.78Zm-9.27-5.41,9.27-4.79,9.28,4.79-9.28,4.78Zm0-10.2,9.27-4.79,9.28,4.79-9.28,4.78Zm8.67,5.1L70.4,24.17l-9-4.61,9-4.62Zm-18.49-.32-9.28-4.78,9.28-4.79,9.27,4.79Zm-.6.32-9,4.61-8.94-4.61,8.94-4.62Zm-18.49-.32-9.28-4.78,9.28-4.79L51,14.46Zm-.61.32-8.94,4.61-8.94-4.61,8.94-4.62Zm-18.49-.32-9.27-4.78,9.27-4.79,9.28,4.79ZM4.17,29.76l9-4.62,8.94,4.62-8.94,4.61Zm0,10.2,9-4.62L22.06,40l-8.94,4.61Zm10,4.68,8.46-4.37,8.46,4.37ZM23.27,40l8.94-4.62L41.15,40l-8.94,4.61Zm10,4.68,8.46-4.37,8.45,4.37ZM42.36,40l8.94-4.62,9,4.62-9,4.61Zm10,4.68,8.46-4.37,8.46,4.37ZM61.45,40l9-4.62L79.34,40,70.4,44.57Zm10,4.68,8.46-4.37,8.46,4.37Zm27-4.68-8.94,4.61L80.54,40l8.95-4.62Zm0-10.2-8.94,4.61-8.95-4.61,8.95-4.62Zm0-10.2-8.94,4.61-8.95-4.61,8.95-4.62Zm0-10.2L89.49,14,80.54,9.36l8.95-4.62Zm-10-4.68L79.94,9,71.49,4.68Zm-9,4.68L70.4,14l-9-4.61,9-4.62Zm-10-4.68L60.85,9,52.4,4.68Zm-9,4.68L51.3,14,42.36,9.36,51.3,4.74Zm-10-4.68L41.76,9,33.31,4.68ZM41.15,9.36,32.21,14,23.27,9.36l8.94-4.62Zm-10-4.68L22.66,9,14.21,4.68Zm-9,4.68L13.12,14,4.17,9.36l9-4.62Z"/><rect class="cls-2" y="48.72" width="102.84" height="0.6"/><rect class="cls-2" width="102.84" height="0.6"/></g></g></svg>