<svg xmlns="http://www.w3.org/2000/svg" viewBox="0 0 80.22 58.15"><defs><style>.cls-1{fill:none;}.cls-2{fill:#272525;}</style></defs><g id="Livello_2" data-name="Livello 2"><g id="Livello_1-2" data-name="Livello 1"><path class="cls-1" d="M19.19,29.44c0-.13.08-.26.11-.38s-.07-.26-.11-.39l-.17.39C19.08,29.18,19.13,29.31,19.19,29.44Z"/><path class="cls-1" d="M60.83,31.17c0,.13-.09.26-.12.4a3.64,3.64,0,0,0,.11.39l.2-.41Z"/><path class="cls-1" d="M19.58,30.3v-.05a.08.08,0,0,1,0,.05.14.14,0,0,1,0,.06Z"/><path class="cls-1" d="M19.57,27.86v-.1l0,0S19.57,27.84,19.57,27.86Z"/><path class="cls-1" d="M60.44,32.7c0,.15,0,.31-.07.46,0-.11.06-.24.11-.35A.49.49,0,0,1,60.44,32.7Z"/><path class="cls-1" d="M40,47.57c9.91,0,18.38-5.92,19.61-13.58C57.19,40.83,49.33,45.68,40,45.68S22.83,40.83,20.4,34C21.63,41.65,30.1,47.57,40,47.57Z"/><path class="cls-1" d="M40,10.58c-9.91,0-18.38,5.92-19.61,13.58C22.83,17.33,30.69,12.48,40,12.48s17.18,4.85,19.61,11.68C58.39,16.5,49.92,10.58,40,10.58Z"/><path class="cls-1" d="M40,15.57c-9.88,0-18.32,5.89-19.6,13.51,1.28,7.62,9.72,13.5,19.6,13.5s18.32-5.88,19.6-13.5C58.33,21.46,49.89,15.57,40,15.57Z"/><path class="cls-1" d="M40,13.08C30.1,13.08,21.63,19,20.4,26.66,22.83,19.82,30.69,15,40,15s17.18,4.85,19.61,11.69C58.39,19,49.92,13.08,40,13.08Z"/><path class="cls-1" d="M60.41,27.77l0,.17a.36.36,0,0,1,0-.11,3,3,0,0,1-.11-.32A2,2,0,0,0,60.41,27.77Z"/><path class="cls-1" d="M60.44,30.21a.36.36,0,0,0,0,.1.5.5,0,0,0,0,.12.36.36,0,0,1,0-.11A.76.76,0,0,1,60.44,30.21Z"/><polygon class="cls-1" points="59.9 27.19 59.78 27.21 59.79 27.22 59.9 27.19"/><path class="cls-1" d="M40,45.08c9.91,0,18.38-5.93,19.61-13.58C57.19,38.33,49.33,43.18,40,43.18S22.83,38.33,20.4,31.5C21.63,39.15,30.1,45.08,40,45.08Z"/><path class="cls-1" d="M19.3,31.55c0-.13-.07-.25-.11-.38-.06.12-.11.26-.17.38l.17.39C19.23,31.81,19.27,31.68,19.3,31.55Z"/><path class="cls-1" d="M19.57,32.75l0,0,.06.15A1.18,1.18,0,0,0,19.57,32.75Z"/><path class="cls-1" d="M40,50.07c9.91,0,18.38-5.93,19.61-13.58C57.19,43.32,49.33,48.17,40,48.17S22.83,43.32,20.4,36.49C21.63,44.14,30.1,50.07,40,50.07Z"/><path class="cls-1" d="M18.88,30.3c-.07-.18-.16-.36-.24-.55-.1.19-.2.37-.31.55.11.18.21.37.31.55C18.72,30.67,18.81,30.49,18.88,30.3Z"/><path class="cls-1" d="M60.83,33.67a12.17,12.17,0,0,0-.44,1.92A12.63,12.63,0,0,1,61,34.06Z"/><path class="cls-1" d="M17.94,29.71c.13-.22.26-.43.37-.65-.11-.22-.24-.44-.37-.65l-.46.65C17.64,29.27,17.79,29.49,17.94,29.71Z"/><path class="cls-1" d="M19.57,25.37a1.55,1.55,0,0,0,0-.21l-.06.15A.14.14,0,0,1,19.57,25.37Z"/><path class="cls-1" d="M40,8.09C30.1,8.09,21.63,14,20.4,21.67,22.83,14.83,30.69,10,40,10s17.18,4.85,19.61,11.69C58.39,14,49.92,8.09,40,8.09Z"/><path class="cls-1" d="M19.19,26.94c0-.12.08-.25.11-.38s-.07-.26-.11-.38c-.06.12-.11.26-.17.38S19.13,26.82,19.19,26.94Z"/><path class="cls-1" d="M60.36,25a10.82,10.82,0,0,0,.32,1.54c0,.17.09.33.14.49l.2-.41a11.94,11.94,0,0,1-.51-1.14C60.45,25.27,60.42,25.11,60.36,25Z"/><path class="cls-1" d="M18.64,28.36c.08-.18.17-.37.24-.55s-.16-.37-.24-.55c-.1.18-.2.37-.31.55C18.44,28,18.54,28.17,18.64,28.36Z"/><path class="cls-1" d="M16,28.28q-.39.41-.81.78c.28.24.54.51.81.77.23-.25.46-.51.68-.77C16.43,28.79,16.2,28.54,16,28.28Z"/><path class="cls-1" d="M67.05,28.17c-.41.28-.81.58-1.19.88.39.32.78.62,1.2.9.49-.33,1-.62,1.49-.89C68.05,28.79,67.55,28.5,67.05,28.17Z"/><path class="cls-1" d="M65.38,29.45c-.3.26-.61.54-.92.86.32.32.63.6.92.86.34-.28.72-.57,1.14-.86C66.13,30,65.75,29.75,65.38,29.45Z"/><path class="cls-1" d="M67.6,27.81c.53.34,1.06.65,1.59.92.68-.34,1.39-.64,2.12-.92a18.93,18.93,0,0,1-2.13-.91C68.61,27.19,68.09,27.5,67.6,27.81Z"/><path class="cls-1" d="M72.18,28.13a19.79,19.79,0,0,0-2.28.93,22.74,22.74,0,0,0,2.28.94,23.34,23.34,0,0,1,3.9-.94A23.55,23.55,0,0,1,72.18,28.13Z"/><path class="cls-1" d="M63,32c-.19.25-.37.5-.54.77.17.27.35.52.52.76.21-.26.44-.51.68-.77C63.4,32.55,63.18,32.3,63,32Z"/><path class="cls-1" d="M64.05,30.75q-.37.39-.72.81c.23.28.47.54.72.81q.44-.43.87-.81Q64.5,31.2,64.05,30.75Z"/><path class="cls-1" d="M16,27.33c.23-.25.46-.51.68-.77-.22-.26-.45-.52-.68-.77-.27.26-.53.52-.81.77C15.44,26.81,15.7,27.07,16,27.33Z"/><path class="cls-1" d="M64,24.89c.29-.29.59-.56.89-.82-.3-.25-.6-.53-.89-.82-.25.28-.49.55-.71.82C63.55,24.34,63.79,24.61,64,24.89Z"/><path class="cls-1" d="M63,34.54c-.17.23-.35.48-.52.76.17.26.35.51.53.75.23-.27.45-.52.67-.75C63.39,35,63.16,34.79,63,34.54Z"/><path class="cls-1" d="M16,30.78c-.27.26-.53.52-.81.77.28.25.54.51.81.77.23-.25.46-.5.68-.77C16.43,31.29,16.2,31,16,30.78Z"/><path class="cls-1" d="M62.07,33.36c-.14.24-.27.47-.38.69.11.22.24.45.38.69.17-.24.33-.47.5-.69C62.4,33.84,62.24,33.61,62.07,33.36Z"/><path class="cls-1" d="M64.05,28.25c-.25.26-.49.54-.72.81q.35.42.72.81.44-.44.87-.81A10.73,10.73,0,0,1,64.05,28.25Z"/><path class="cls-1" d="M61.37,32.2c-.09.21-.18.41-.25.6s.15.39.24.59l.35-.59C61.59,32.6,61.49,32.4,61.37,32.2Z"/><path class="cls-1" d="M61.37,28.4c.11-.21.22-.4.33-.58l-.34-.58c-.09.2-.17.39-.24.58S61.27,28.19,61.37,28.4Z"/><path class="cls-1" d="M63,28.58c.22-.26.45-.52.68-.77-.23-.25-.45-.5-.67-.76-.2.26-.38.52-.55.77C62.57,28.05,62.75,28.31,63,28.58Z"/><path class="cls-1" d="M61.36,29.73c-.09.2-.17.39-.24.58s.15.37.25.58c.11-.21.22-.4.33-.58Z"/><path class="cls-1" d="M62.07,30.87c-.13.21-.25.43-.38.68.12.23.26.46.4.69.16-.23.31-.46.48-.68C62.39,31.32,62.22,31.09,62.07,30.87Z"/><path class="cls-1" d="M62.07,29.75c.15-.22.31-.45.49-.69-.18-.24-.34-.46-.49-.68-.13.21-.25.44-.38.68C61.82,29.31,61.94,29.54,62.07,29.75Z"/><path class="cls-1" d="M64.05,27.38c.31-.31.6-.58.87-.82q-.44-.39-.87-.81c-.25.27-.49.54-.72.82C63.56,26.85,63.8,27.11,64.05,27.38Z"/><path class="cls-1" d="M62.07,27.26c.15-.23.32-.46.5-.7-.17-.22-.32-.45-.48-.68-.14.23-.28.46-.4.7C61.82,26.82,61.94,27.05,62.07,27.26Z"/><path class="cls-1" d="M63,29.54c-.2.27-.38.53-.54.77.17.24.35.5.55.77.22-.26.44-.52.67-.77C63.4,30.06,63.17,29.8,63,29.54Z"/><path class="cls-1" d="M60.82,29.47l.2-.41c-.07-.13-.13-.26-.19-.39,0,.13-.09.26-.12.4S60.78,29.34,60.82,29.47Z"/><path class="cls-1" d="M65.38,28.67c.36-.3.75-.58,1.14-.86-.41-.28-.79-.56-1.14-.85-.29.25-.6.53-.92.85C64.78,28.13,65.08,28.42,65.38,28.67Z"/><path class="cls-1" d="M17.57,30.3c-.16-.24-.34-.48-.51-.71-.2.24-.41.48-.63.71q.33.36.63.72C17.23,30.78,17.41,30.55,17.57,30.3Z"/><path class="cls-1" d="M19.61,17.68a14.35,14.35,0,0,1-2.13,3.89c.16.21.31.43.46.65A12.9,12.9,0,0,0,19.61,17.68Z"/><path class="cls-1" d="M40,2.5c9.32,0,17.18,4.85,19.61,11.68C58.39,6.52,49.92.6,40,.6S21.63,6.52,20.4,14.18C22.83,7.35,30.69,2.5,40,2.5Z"/><path class="cls-1" d="M62.32,22.66c.21.34.42.64.63.93.21-.25.44-.51.68-.77-.3-.31-.59-.64-.92-1.05l-.07-.09a14.6,14.6,0,0,1-2.25-4.1A12.8,12.8,0,0,0,62.32,22.66Z"/><path class="cls-1" d="M16.65,24.07c-.22-.27-.45-.52-.68-.78-.27.27-.53.53-.81.78.28.24.54.5.81.77C16.2,24.58,16.43,24.33,16.65,24.07Z"/><path class="cls-1" d="M69.19,29.4c-.53.27-1.06.58-1.59.91.49.32,1,.62,1.58.92a21,21,0,0,1,2.13-.92C70.59,30,69.88,29.74,69.19,29.4Z"/><path class="cls-1" d="M17.06,23.54c.17-.24.35-.48.51-.72-.16-.25-.34-.48-.51-.72q-.3.36-.63.72Q16.76,23.17,17.06,23.54Z"/><path class="cls-1" d="M67.05,30.67c-.44.3-.84.6-1.2.89.37.29.76.59,1.2.88.5-.32,1-.61,1.49-.88C68,31.27,67.51,31,67.05,30.67Z"/><path class="cls-1" d="M62.09,35.86a13,13,0,0,0-1.71,4.7,14.69,14.69,0,0,1,2.19-4C62.4,36.33,62.25,36.09,62.09,35.86Z"/><path class="cls-1" d="M15.5,25.31c-.28-.28-.56-.55-.87-.82-.35.29-.7.56-1.07.82.37.26.72.54,1.07.82C14.94,25.87,15.22,25.59,15.5,25.31Z"/><path class="cls-1" d="M40,55.06c9.91,0,18.38-5.92,19.61-13.58C57.19,48.31,49.33,53.16,40,53.16S22.83,48.31,20.4,41.48C21.63,49.14,30.1,55.06,40,55.06Z"/><path class="cls-1" d="M64,33.23c-.25.28-.49.55-.71.82.22.27.46.54.71.82.29-.29.59-.56.89-.82C64.63,33.8,64.33,33.52,64,33.23Z"/><path class="cls-1" d="M65.38,32c-.31.27-.61.55-.92.85.31.31.62.6.93.86.33-.28.71-.56,1.13-.86C66.11,32.52,65.73,32.24,65.38,32Z"/><path class="cls-1" d="M16.65,34.05c-.22-.27-.45-.52-.68-.77-.27.26-.53.52-.81.77.28.25.54.51.81.77C16.2,34.57,16.43,34.31,16.65,34.05Z"/><path class="cls-1" d="M14.09,26.56c-.37-.29-.74-.58-1.14-.85-.46.3-.94.58-1.43.85.49.27,1,.55,1.43.85C13.35,27.14,13.72,26.85,14.09,26.56Z"/><path class="cls-1" d="M17.06,34.58c-.2.24-.41.48-.63.71q.33.36.63.72c.17-.23.35-.47.51-.72C17.41,35.05,17.23,34.81,17.06,34.58Z"/><path class="cls-1" d="M18.64,34.74c-.1.19-.2.37-.31.55a14.36,14.36,0,0,1,1.28,2.65A12.45,12.45,0,0,0,18.64,34.74Z"/><path class="cls-1" d="M40,55.66c-9.32,0-17.18-4.85-19.61-11.69C21.63,51.63,30.1,57.55,40,57.55S58.39,51.63,59.62,44C57.19,50.81,49.33,55.66,40,55.66Z"/><path class="cls-1" d="M17.94,35.89c-.15.22-.3.44-.46.65a14.5,14.5,0,0,1,2.13,3.89A13,13,0,0,0,17.94,35.89Z"/><path class="cls-1" d="M14.63,32c-.35.28-.7.56-1.07.82.37.26.72.54,1.07.82.31-.26.59-.54.87-.82C15.22,32.52,14.94,32.24,14.63,32Z"/><path class="cls-1" d="M7.8,28.15A25.66,25.66,0,0,1,4,29.06,24.47,24.47,0,0,1,7.8,30a21.27,21.27,0,0,0,2.26-.9A21.32,21.32,0,0,0,7.8,28.15Z"/><path class="cls-1" d="M12.34,27.81c-.49-.31-1-.6-1.52-.87-.66.32-1.35.6-2.06.87a22.32,22.32,0,0,1,2.06.87C11.34,28.41,11.85,28.12,12.34,27.81Z"/><path class="cls-1" d="M13,30.7c-.46.3-.94.59-1.43.85.49.27,1,.55,1.43.85.4-.27.77-.55,1.14-.85C13.72,31.26,13.35,31,13,30.7Z"/><path class="cls-1" d="M10.82,29.43a19.87,19.87,0,0,1-2.06.87c.71.27,1.4.55,2.06.87.52-.27,1-.56,1.52-.87C11.85,30,11.34,29.7,10.82,29.43Z"/><path class="cls-1" d="M63,26.08q.31-.39.66-.75c-.24-.26-.46-.52-.68-.77-.17.23-.35.48-.52.76C62.6,25.58,62.78,25.83,63,26.08Z"/><path class="cls-1" d="M18.88,32.8c-.07-.19-.16-.37-.24-.55-.1.18-.2.37-.31.55.11.18.21.37.31.55C18.72,33.17,18.81,33,18.88,32.8Z"/><path class="cls-1" d="M19.19,33.66l-.17.39a14.13,14.13,0,0,1,.59,1.39A13.54,13.54,0,0,0,19.19,33.66Z"/><path class="cls-1" d="M18.31,31.55c-.11-.22-.24-.43-.37-.65-.15.22-.3.44-.46.65.16.21.31.43.46.65C18.07,32,18.2,31.77,18.31,31.55Z"/><path class="cls-1" d="M65.85,26.57c.37.29.76.59,1.2.88.46-.3,1-.6,1.49-.89-.49-.26-1-.55-1.49-.88C66.6,26,66.21,26.28,65.85,26.57Z"/><path class="cls-1" d="M61.37,34.73a12.86,12.86,0,0,0-1,3.33,13.18,13.18,0,0,1,1.34-2.75C61.59,35.11,61.47,34.91,61.37,34.73Z"/><path class="cls-1" d="M17.06,28.53c.17-.24.35-.48.51-.72-.16-.25-.34-.48-.51-.72q-.3.36-.63.72Q16.76,28.16,17.06,28.53Z"/><path class="cls-1" d="M40,52.56c9.91,0,18.38-5.92,19.61-13.58C57.19,45.82,49.33,50.67,40,50.67S22.83,45.82,20.4,39C21.63,46.64,30.1,52.56,40,52.56Z"/><path class="cls-1" d="M40,5.59c-9.91,0-18.38,5.92-19.61,13.58C22.83,12.34,30.69,7.49,40,7.49s17.18,4.85,19.61,11.68C58.39,11.51,49.92,5.59,40,5.59Z"/><path class="cls-1" d="M18.31,34.05c-.11-.22-.24-.44-.37-.65l-.46.65c.16.21.31.43.46.65C18.07,34.48,18.2,34.27,18.31,34.05Z"/><path class="cls-1" d="M17.94,27.21c.13-.21.26-.43.37-.65-.11-.22-.24-.43-.37-.65-.15.22-.3.44-.46.65C17.64,26.77,17.79,27,17.94,27.21Z"/><path class="cls-1" d="M19.19,24.45a13.54,13.54,0,0,0,.42-1.78c-.17.47-.37.94-.59,1.4C19.08,24.19,19.13,24.32,19.19,24.45Z"/><path class="cls-1" d="M18.64,25.86c.08-.18.17-.36.24-.55s-.16-.36-.24-.55c-.1.19-.2.37-.31.55C18.44,25.49,18.54,25.68,18.64,25.86Z"/><path class="cls-1" d="M60.38,20.07a13,13,0,0,0,1.24,3.87c.13.26.28.53.45.82.17-.24.33-.47.5-.69A10.91,10.91,0,0,1,61.81,23,14,14,0,0,1,60.38,20.07Z"/><path class="cls-1" d="M14.63,28.63c.31-.27.59-.54.87-.82-.28-.28-.56-.56-.87-.82-.35.28-.7.56-1.07.82C13.93,28.07,14.28,28.35,14.63,28.63Z"/><path class="cls-1" d="M64.47,25.32c.29.29.6.58.92.86a13.87,13.87,0,0,1,1.13-.86c-.42-.29-.79-.58-1.13-.86C65.08,24.73,64.77,25,64.47,25.32Z"/><path class="cls-1" d="M17.06,26c.17-.24.35-.47.51-.72-.16-.24-.34-.48-.51-.71-.2.24-.41.48-.63.71Q16.76,25.67,17.06,26Z"/><path class="cls-1" d="M15.5,30.3c-.28-.28-.56-.55-.87-.82-.35.29-.7.56-1.07.82.37.27.72.54,1.07.82C14.94,30.86,15.22,30.58,15.5,30.3Z"/><path class="cls-1" d="M17.94,24.71c.13-.21.26-.42.37-.64-.11-.22-.24-.44-.37-.65l-.46.65C17.64,24.28,17.79,24.5,17.94,24.71Z"/><path class="cls-1" d="M17.57,32.8c-.16-.25-.34-.48-.51-.72-.2.24-.41.49-.63.72q.33.35.63.72C17.23,33.28,17.41,33,17.57,32.8Z"/><path class="cls-1" d="M13,29.9c.4-.27.77-.55,1.14-.84-.37-.3-.74-.58-1.14-.85-.46.3-.94.58-1.43.85C12,29.32,12.49,29.6,13,29.9Z"/><path class="cls-1" d="M60.39,22.55a12.84,12.84,0,0,0,.68,2.66c.09.23.19.46.29.7.11-.2.23-.39.35-.59a12.15,12.15,0,0,1-.63-1.12A14,14,0,0,1,60.39,22.55Z"/><path class="cls-1" d="M40,3.1C30.1,3.1,21.63,9,20.4,16.68,22.83,9.84,30.69,5,40,5S57.19,9.84,59.62,16.68C58.39,9,49.92,3.1,40,3.1Z"/><path class="cls-1" d="M18.64,23.37a12.73,12.73,0,0,0,1-3.2,14.06,14.06,0,0,1-1.28,2.65C18.44,23,18.54,23.18,18.64,23.37Z"/><path class="cls-2" d="M79.92,34.36v-.6a24,24,0,0,1-10-2.2,21.69,21.69,0,0,1,2.3-.93,25.09,25.09,0,0,0,7.74,1.23v-.6a24.61,24.61,0,0,1-6.68-1,24.29,24.29,0,0,1,6.3-.95h.38v-.31h0v-.3h-.39a23.52,23.52,0,0,1-6.29-1,24.61,24.61,0,0,1,6.68-.95v-.6a24.8,24.8,0,0,0-7.74,1.24,19.82,19.82,0,0,1-2.3-.94,24,24,0,0,1,10-2.2v-.6a24.53,24.53,0,0,0-10.74,2.47c-.52-.27-1-.57-1.57-.91a23.4,23.4,0,0,1,12.31-3.45v-.6A23.84,23.84,0,0,0,67.06,25a14.18,14.18,0,0,1-1.19-.88,22.77,22.77,0,0,1,14-4.71v-.6A23,23,0,0,0,65.4,23.69c-.32-.27-.63-.56-.93-.86a22,22,0,0,1,15.45-5.95v-.6A22.59,22.59,0,0,0,64.05,22.4c-.26-.28-.52-.57-.81-.92l-.06-.09a13.51,13.51,0,0,1-2.87-6.76h0C59.34,6.29,50.62,0,40,0S20.68,6.28,19.71,14.63h0A13.22,13.22,0,0,1,17.06,21C13.42,16.63,7.14,13.78,0,13.78v.6c6.9,0,13.1,2.87,16.65,7.19-.22.26-.45.52-.68.77A22.63,22.63,0,0,0,0,16.27v.6a22.14,22.14,0,0,1,15.5,5.95c-.28.28-.56.55-.87.82A23.17,23.17,0,0,0,0,18.77v.6a22.65,22.65,0,0,1,14.09,4.7c-.37.29-.74.57-1.14.84A23.89,23.89,0,0,0,0,21.26v.6a23.26,23.26,0,0,1,12.34,3.45c-.49.31-1,.6-1.52.87A24.59,24.59,0,0,0,0,23.76v.6a23.81,23.81,0,0,1,10.06,2.2,23.68,23.68,0,0,1-2.26.91A25.33,25.33,0,0,0,0,26.26v.59a24.2,24.2,0,0,1,6.72,1,24.77,24.77,0,0,1-6.57,1H0v.59H.15a24.31,24.31,0,0,1,6.57.94,24.2,24.2,0,0,1-6.72,1v.6a25.29,25.29,0,0,0,7.8-1.22,23.68,23.68,0,0,1,2.26.91A23.81,23.81,0,0,1,0,33.75v.6a24.59,24.59,0,0,0,10.82-2.42c.53.27,1,.56,1.52.87A23.26,23.26,0,0,1,0,36.25v.6A23.89,23.89,0,0,0,13,33.2c.4.27.77.55,1.14.85A22.71,22.71,0,0,1,0,38.74v.6a23.17,23.17,0,0,0,14.63-4.87c.31.27.59.55.87.82a22.14,22.14,0,0,1-15.5,6v.6a22.63,22.63,0,0,0,16-6.07c.23.25.46.51.68.77C13.1,40.86,6.9,43.73,0,43.73v.6c7.14,0,13.42-2.85,17.06-7.26a13.22,13.22,0,0,1,2.65,6.42h0c.94,8.36,9.67,14.66,20.3,14.66s19.36-6.3,20.3-14.67h0A13.26,13.26,0,0,1,63,37c3.76,4.55,10.06,7.27,17,7.3v-.6c-6.77,0-13-2.71-16.59-7.19.25-.31.49-.58.72-.83a22.57,22.57,0,0,0,15.87,6.12v-.6a22,22,0,0,1-15.45-6,12.31,12.31,0,0,1,.93-.85,23,23,0,0,0,14.52,4.91v-.6a22.73,22.73,0,0,1-14-4.71c.35-.28.73-.57,1.18-.88a23.9,23.9,0,0,0,12.87,3.69v-.6A23.4,23.4,0,0,1,67.61,32.8a18,18,0,0,1,1.57-.9A24.52,24.52,0,0,0,79.92,34.36ZM63,36.05c-.18-.24-.36-.49-.53-.75.17-.28.35-.53.52-.76.21.25.44.5.68.76C63.41,35.53,63.19,35.78,63,36.05Zm-47.8-4.5c.28-.25.54-.51.81-.77.23.25.46.51.68.77-.22.27-.45.52-.68.77C15.7,32.06,15.44,31.8,15.16,31.55ZM16,25.79c.23.25.46.51.68.77-.22.26-.45.52-.68.77-.27-.26-.53-.52-.81-.77C15.44,26.31,15.7,26.05,16,25.79ZM64,23.25c.29.29.59.57.89.82-.3.26-.6.53-.89.82-.25-.28-.49-.55-.71-.82C63.55,23.8,63.79,23.53,64,23.25Zm5.86,5.81a19.79,19.79,0,0,1,2.28-.93,23.55,23.55,0,0,0,3.9.93,23.34,23.34,0,0,0-3.9.94A22.74,22.74,0,0,1,69.9,29.06Zm-.71-.33c-.53-.27-1.06-.58-1.59-.92.49-.31,1-.62,1.58-.91a18.93,18.93,0,0,0,2.13.91C70.58,28.09,69.87,28.39,69.19,28.73ZM67.06,30c-.42-.28-.81-.58-1.2-.9.38-.3.78-.6,1.19-.88.5.33,1,.62,1.5.89C68.05,29.33,67.55,29.62,67.06,30Zm-1.68,1.22c-.29-.26-.6-.54-.92-.86.31-.32.62-.6.92-.86.37.3.75.59,1.14.86C66.1,30.6,65.72,30.89,65.38,31.17Zm-1.33,1.2c-.25-.27-.49-.53-.72-.81q.35-.42.72-.81.45.45.87.81Q64.48,31.94,64.05,32.37ZM63,33.57c-.17-.24-.35-.49-.52-.76.17-.27.35-.52.54-.77.21.26.43.51.66.76C63.39,33.06,63.16,33.31,63,33.57Zm-.88,1.17c-.14-.24-.27-.47-.38-.69.11-.22.24-.45.38-.69.17.25.33.48.5.69C62.4,34.27,62.24,34.5,62.07,34.74ZM15.16,29.06q.42-.37.81-.78c.23.26.46.51.68.78-.22.26-.45.52-.68.77C15.7,29.57,15.44,29.3,15.16,29.06Zm47.41-2.5c-.18.24-.35.47-.5.7-.13-.21-.25-.44-.38-.68.12-.24.26-.47.4-.7C62.25,26.11,62.4,26.34,62.57,26.56Zm1.48-.81q.44.42.87.81c-.27.24-.56.51-.87.82-.25-.27-.49-.53-.72-.81C63.56,26.29,63.8,26,64.05,25.75Zm2.47,2.06c-.39.28-.78.56-1.14.86-.3-.25-.6-.54-.92-.86.32-.32.63-.6.92-.85C65.73,27.25,66.11,27.53,66.52,27.81Zm-2.47,2.06q-.37-.39-.72-.81c.23-.27.47-.55.72-.81a10.73,10.73,0,0,0,.87.81Q64.48,29.44,64.05,29.87ZM63,31.08c-.2-.27-.38-.53-.55-.77.16-.24.34-.5.54-.77.22.26.45.52.68.77C63.4,30.56,63.18,30.82,63,31.08Zm-.87,1.16c-.14-.23-.28-.46-.4-.69.13-.25.25-.47.38-.68.15.22.32.45.5.69C62.4,31.78,62.25,32,62.09,32.24Zm-.73,1.15c-.09-.2-.17-.4-.24-.59s.16-.39.25-.6c.12.2.22.4.34.6Zm.34-5.57c-.11.18-.22.37-.33.58-.1-.21-.18-.4-.25-.58s.15-.38.24-.58Zm.86,1.24c-.18.24-.34.47-.49.69-.13-.21-.25-.44-.38-.69.13-.24.25-.47.38-.68C62.22,28.6,62.38,28.82,62.56,29.06Zm-1.19,1.83c-.1-.21-.18-.4-.25-.58s.15-.38.24-.58l.34.58C61.59,30.49,61.48,30.68,61.37,30.89ZM61,29.06l-.2.41c0-.13-.08-.26-.11-.4s.08-.27.12-.4C60.89,28.8,61,28.93,61,29.06ZM59.9,27.19l-.11,0h0ZM40,15c-9.32,0-17.18,4.85-19.61,11.69C21.63,19,30.1,13.08,40,13.08S58.39,19,59.62,26.66C57.19,19.82,49.33,15,40,15Zm19.6,14.11c-1.28,7.62-9.72,13.5-19.6,13.5s-18.32-5.88-19.6-13.5c1.28-7.62,9.72-13.51,19.6-13.51S58.33,21.46,59.61,29.08ZM40,43.18c9.32,0,17.18-4.85,19.61-11.68C58.39,39.15,49.92,45.08,40,45.08S21.63,39.15,20.4,31.5C22.83,38.33,30.69,43.18,40,43.18ZM60.42,30.31a.36.36,0,0,1,0-.1.76.76,0,0,0,0,.11.36.36,0,0,0,0,.11A.5.5,0,0,1,60.42,30.31Zm0-2.37,0-.17a2,2,0,0,1,0-.26,3,3,0,0,0,.11.32A.36.36,0,0,0,60.44,27.94ZM40,12.48c-9.32,0-17.18,4.85-19.61,11.68C21.63,16.5,30.1,10.58,40,10.58S58.39,16.5,59.62,24.16C57.19,17.33,49.33,12.48,40,12.48ZM19.58,27.81v.05s0,0,0-.05l0,0Zm-.28,1.25c0,.12-.07.25-.11.38-.06-.13-.11-.26-.17-.38l.17-.39C19.23,28.8,19.27,28.93,19.3,29.06Zm.27,1.19v.11a.14.14,0,0,0,0-.06A.08.08,0,0,0,19.57,30.25ZM40,45.68c9.32,0,17.18-4.85,19.61-11.69C58.39,41.65,49.92,47.57,40,47.57S21.63,41.65,20.4,34C22.83,40.83,30.69,45.68,40,45.68Zm20.43-13a.49.49,0,0,0,0,.11c0,.11-.07.24-.11.35C60.39,33,60.41,32.85,60.44,32.7Zm.27-1.13c0-.14.08-.27.12-.4l.19.38-.2.41A3.64,3.64,0,0,1,60.71,31.57ZM60.82,27c0-.16-.1-.32-.14-.49A10.82,10.82,0,0,1,60.36,25c.06.16.09.32.15.48A11.94,11.94,0,0,0,61,26.57ZM40,10c-9.32,0-17.18,4.85-19.61,11.69C21.63,14,30.1,8.09,40,8.09S58.39,14,59.62,21.67C57.19,14.83,49.33,10,40,10ZM19.57,25.37a.14.14,0,0,0,0-.06l.06-.15A1.55,1.55,0,0,1,19.57,25.37Zm-.27,1.19c0,.13-.07.26-.11.38-.06-.12-.11-.25-.17-.38s.11-.26.17-.38C19.23,26.3,19.27,26.43,19.3,26.56Zm-.42,1.25c-.07.18-.16.37-.24.55-.1-.19-.2-.37-.31-.55.11-.18.21-.37.31-.55C18.72,27.44,18.81,27.62,18.88,27.81Zm-.57,1.25c-.11.22-.24.43-.37.65-.15-.22-.3-.44-.46-.65l.46-.65C18.07,28.62,18.2,28.84,18.31,29.06Zm.33.69c.08.19.17.37.24.55s-.16.37-.24.55c-.1-.18-.2-.37-.31-.55C18.44,30.12,18.54,29.94,18.64,29.75Zm.55,1.42c0,.13.08.25.11.38s-.07.26-.11.39L19,31.55C19.08,31.43,19.13,31.29,19.19,31.17Zm.38,1.58a1.18,1.18,0,0,1,0,.2l-.06-.15ZM40,48.17c9.32,0,17.18-4.85,19.61-11.68C58.39,44.14,49.92,50.07,40,50.07S21.63,44.14,20.4,36.49C22.83,43.32,30.69,48.17,40,48.17Zm20.82-14.5.19.39a12.63,12.63,0,0,0-.63,1.53A12.17,12.17,0,0,1,60.83,33.67Zm2.8-5.86c-.23.25-.46.51-.68.77-.2-.27-.38-.53-.54-.76.17-.25.35-.51.55-.77C63.18,27.31,63.4,27.56,63.63,27.81Zm-2.27-1.9c-.1-.24-.2-.47-.29-.7a12.84,12.84,0,0,1-.68-2.66,14,14,0,0,0,.69,1.65,12.15,12.15,0,0,0,.63,1.12C61.59,25.52,61.47,25.71,61.36,25.91ZM40,7.49c-9.32,0-17.18,4.85-19.61,11.68C21.63,11.51,30.1,5.59,40,5.59s18.38,5.92,19.61,13.58C57.19,12.34,49.33,7.49,40,7.49Zm-20.82,17c-.06-.13-.11-.26-.17-.38.22-.46.42-.93.59-1.4A13.54,13.54,0,0,1,19.19,24.45Zm-.31.86c-.07.19-.16.37-.24.55-.1-.18-.2-.37-.31-.55.11-.18.21-.36.31-.55C18.72,25,18.81,25.13,18.88,25.31Zm-.57,1.25c-.11.22-.24.44-.37.65-.15-.22-.3-.44-.46-.65.16-.21.31-.43.46-.65C18.07,26.13,18.2,26.34,18.31,26.56Zm-.74,1.25c-.16.24-.34.48-.51.72q-.3-.37-.63-.72.33-.36.63-.72C17.23,27.33,17.41,27.56,17.57,27.81Zm-.51,1.78c.17.23.35.47.51.71-.16.25-.34.48-.51.72q-.3-.36-.63-.72C16.65,30.07,16.86,29.83,17.06,29.59Zm.88,1.31c.13.22.26.43.37.65-.11.22-.24.44-.37.65-.15-.22-.3-.44-.46-.65C17.64,31.34,17.79,31.12,17.94,30.9Zm.7,1.35c.08.18.17.36.24.55s-.16.37-.24.55c-.1-.18-.2-.37-.31-.55C18.44,32.62,18.54,32.43,18.64,32.25Zm.55,1.41a13.54,13.54,0,0,1,.42,1.78A14.13,14.13,0,0,0,19,34.05ZM40,50.67c9.32,0,17.18-4.85,19.61-11.69C58.39,46.64,49.92,52.56,40,52.56S21.63,46.64,20.4,39C22.83,45.82,30.69,50.67,40,50.67ZM61.37,34.73c.1.18.22.38.35.58a13.18,13.18,0,0,0-1.34,2.75A12.86,12.86,0,0,1,61.37,34.73Zm5.68-7.28c-.44-.29-.83-.59-1.2-.88.36-.29.75-.59,1.2-.89.5.33,1,.62,1.49.88C68,26.85,67.51,27.15,67.05,27.45Zm-1.66-1.27c-.32-.28-.63-.57-.92-.86.3-.31.61-.59.92-.86.34.28.71.57,1.13.86A13.87,13.87,0,0,0,65.39,26.18Zm-1.76-.85q-.35.36-.66.75c-.19-.25-.37-.5-.54-.76.17-.28.35-.53.52-.76C63.17,24.81,63.39,25.07,63.63,25.33Zm-1.56-.57c-.17-.29-.32-.56-.45-.82a13,13,0,0,1-1.24-3.87A14,14,0,0,0,61.81,23a10.91,10.91,0,0,0,.76,1.09C62.4,24.29,62.24,24.52,62.07,24.76ZM40,5C30.69,5,22.83,9.84,20.4,16.68,21.63,9,30.1,3.1,40,3.1S58.39,9,59.62,16.68C57.19,9.84,49.33,5,40,5ZM18.64,23.37c-.1-.19-.2-.37-.31-.55a14.06,14.06,0,0,0,1.28-2.65A12.73,12.73,0,0,1,18.64,23.37Zm-.33.7c-.11.22-.24.43-.37.64-.15-.21-.3-.43-.46-.64l.46-.65C18.07,23.63,18.2,23.85,18.31,24.07Zm-.74,1.24c-.16.25-.34.48-.51.72q-.3-.36-.63-.72c.22-.23.43-.47.63-.71C17.23,24.83,17.41,25.07,17.57,25.31Zm-2.07,2.5c-.28.28-.56.55-.87.82-.35-.28-.7-.56-1.07-.82.37-.26.72-.54,1.07-.82C14.94,27.25,15.22,27.53,15.5,27.81Zm-1.41,1.25c-.37.29-.74.57-1.14.84-.46-.3-.94-.58-1.43-.84.49-.27,1-.55,1.43-.85C13.35,28.48,13.72,28.76,14.09,29.06Zm.54.42c.31.27.59.54.87.82-.28.28-.56.56-.87.82-.35-.28-.7-.55-1.07-.82C13.93,30,14.28,29.77,14.63,29.48Zm2.43,2.6c.17.24.35.47.51.72-.16.24-.34.48-.51.72q-.3-.37-.63-.72C16.65,32.57,16.86,32.32,17.06,32.08Zm.88,1.32c.13.21.26.43.37.65-.11.22-.24.43-.37.65-.15-.22-.3-.44-.46-.65Zm.7,1.34a12.45,12.45,0,0,1,1,3.2,14.36,14.36,0,0,0-1.28-2.65C18.44,35.11,18.54,34.93,18.64,34.74ZM40,53.16c9.32,0,17.18-4.85,19.61-11.68C58.39,49.14,49.92,55.06,40,55.06S21.63,49.14,20.4,41.48C22.83,48.31,30.69,53.16,40,53.16Zm22.08-17.3c.16.23.31.47.48.69a14.69,14.69,0,0,0-2.19,4A13,13,0,0,1,62.09,35.86Zm1.24-1.81c.22-.27.46-.54.71-.82.29.29.59.57.89.82-.3.26-.6.53-.89.82C63.79,34.59,63.55,34.32,63.33,34.05Zm1.13-1.25c.31-.3.61-.58.92-.85.35.29.73.57,1.14.85-.42.3-.8.58-1.13.86C65.08,33.4,64.77,33.11,64.46,32.8Zm1.39-1.24c.36-.29.76-.59,1.2-.89.46.31,1,.6,1.49.89-.5.27-1,.56-1.49.88C66.61,32.15,66.22,31.85,65.85,31.56Zm1.75-1.25c.53-.33,1.06-.64,1.59-.91.69.34,1.4.64,2.12.91a21,21,0,0,0-2.13.92C68.61,30.93,68.09,30.63,67.6,30.31Zm-4.89-8.54c.33.41.62.74.92,1.05-.24.26-.47.52-.68.77-.21-.29-.42-.59-.63-.93a12.8,12.8,0,0,1-1.93-5.08,14.6,14.6,0,0,0,2.25,4.1ZM40,.6c9.91,0,18.38,5.92,19.61,13.58C57.19,7.35,49.33,2.5,40,2.5S22.83,7.35,20.4,14.18C21.63,6.52,30.1.6,40,.6ZM19.61,17.68a12.9,12.9,0,0,1-1.67,4.54c-.15-.22-.3-.44-.46-.65A14.35,14.35,0,0,0,19.61,17.68Zm-2,5.14c-.16.24-.34.48-.51.72q-.3-.37-.63-.72.33-.36.63-.72C17.23,22.34,17.41,22.57,17.57,22.82Zm-1.6.47c.23.26.46.51.68.78-.22.26-.45.51-.68.77-.27-.27-.53-.53-.81-.77C15.44,23.82,15.7,23.56,16,23.29Zm-1.34,1.2c.31.27.59.54.87.82-.28.28-.56.56-.87.82-.35-.28-.7-.56-1.07-.82C13.93,25.05,14.28,24.78,14.63,24.49ZM13,25.71c.4.27.77.56,1.14.85-.37.29-.74.58-1.14.85-.46-.3-.94-.58-1.43-.85C12,26.29,12.49,26,13,25.71Zm-2.13,1.23c.52.27,1,.56,1.52.87-.49.31-1,.6-1.52.87a22.32,22.32,0,0,0-2.06-.87C9.47,27.54,10.16,27.26,10.82,26.94ZM4,29.06a25.66,25.66,0,0,0,3.82-.91,21.32,21.32,0,0,1,2.26.91A21.27,21.27,0,0,1,7.8,30,24.47,24.47,0,0,0,4,29.06ZM8.76,30.3a19.87,19.87,0,0,0,2.06-.87c.52.27,1,.57,1.52.87-.49.31-1,.6-1.52.87C10.16,30.85,9.47,30.57,8.76,30.3Zm2.76,1.25c.49-.26,1-.55,1.43-.85.4.27.77.56,1.14.85-.37.3-.74.58-1.14.85C12.49,32.1,12,31.82,11.52,31.55Zm2,1.25c.37-.26.72-.54,1.07-.82.31.26.59.54.87.82-.28.28-.56.56-.87.82C14.28,33.34,13.93,33.06,13.56,32.8Zm2.41.48c.23.25.46.5.68.77-.22.26-.45.52-.68.77-.27-.26-.53-.52-.81-.77C15.44,33.8,15.7,33.54,16,33.28Zm.46,2c.22-.23.43-.47.63-.71.17.23.35.47.51.71-.16.25-.34.49-.51.72Q16.76,35.65,16.43,35.29Zm1.51.6a13,13,0,0,1,1.67,4.54,14.5,14.5,0,0,0-2.13-3.89C17.64,36.33,17.79,36.11,17.94,35.89ZM40,57.55C30.1,57.55,21.63,51.63,20.4,44,22.83,50.81,30.69,55.66,40,55.66S57.19,50.81,59.62,44C58.39,51.63,49.92,57.55,40,57.55Z"/></g></g></svg>