<svg xmlns="http://www.w3.org/2000/svg" viewBox="0 0 52.68 66.53"><defs><style>.cls-1{fill:#272525;}</style></defs><g id="Livello_2" data-name="Livello 2"><g id="Livello_1-2" data-name="Livello 1"><path class="cls-1" d="M52.68,23.58C52.61,7.38,47.87,0,43.48,0c-2.39,0-4.3,1.8-5.74,4.66C36.08,1.52,34,0,32.05,0c-2.39,0-4.3,1.8-5.74,4.66C24.65,1.52,22.6,0,20.62,0c-2.39,0-4.3,1.8-5.73,4.66C13.22,1.52,11.17,0,9.2,0,2.94,0,.05,12.22,0,23.58v.54c0,17.18,3.43,33.28,8.94,42l.26.4.25-.4a49.85,49.85,0,0,0,5.46-13.39,49.85,49.85,0,0,0,5.46,13.39l.25.4.26-.4a49.85,49.85,0,0,0,5.46-13.39A49.85,49.85,0,0,0,31.8,66.13l.25.4.26-.4a49.85,49.85,0,0,0,5.46-13.39,49.85,49.85,0,0,0,5.46,13.39l.25.4.26-.4c5.51-8.73,8.94-24.83,8.94-42ZM9.2,65.4C3.89,56.68.6,40.93.6,24.12v-.54c.05-11.42,3-23,8.6-23,2.2,0,4,1.81,5.37,4.71-2.1,4.62-3.11,11.59-3.14,18.27v.54A114.47,114.47,0,0,0,14.6,51.57,51.94,51.94,0,0,1,9.2,65.4ZM12,24.12v-.54c0-6.52,1-13.08,2.88-17.52,1.87,4.44,2.85,11,2.88,17.52v.54a114.78,114.78,0,0,1-2.88,26.24A114.78,114.78,0,0,1,12,24.12ZM20.62,65.4a51.94,51.94,0,0,1-5.4-13.83,114.47,114.47,0,0,0,3.17-27.45v-.54c0-8.37-1.32-14.37-3.16-18.23C16.6,2.43,18.41.6,20.62.6s4,1.81,5.38,4.71c-2.1,4.62-3.11,11.59-3.14,18.27v.54A114.47,114.47,0,0,0,26,51.57,51.59,51.59,0,0,1,20.62,65.4Zm2.84-41.28v-.54c0-6.52,1-13.08,2.88-17.52,1.87,4.44,2.85,11,2.88,17.52v.54a114.78,114.78,0,0,1-2.88,26.24A114.78,114.78,0,0,1,23.46,24.12ZM32.05,65.4a51.94,51.94,0,0,1-5.4-13.83,114.47,114.47,0,0,0,3.17-27.45v-.54c0-8.37-1.32-14.37-3.16-18.23C28,2.43,29.84.6,32.05.6s4,1.81,5.38,4.71c-2.1,4.62-3.11,11.59-3.14,18.27v.54a114.47,114.47,0,0,0,3.17,27.45A51.59,51.59,0,0,1,32.05,65.4Zm2.84-41.28v-.54c0-6.52,1-13.08,2.88-17.52,1.87,4.44,2.85,11,2.88,17.52v.54a114.78,114.78,0,0,1-2.88,26.24A114.78,114.78,0,0,1,34.89,24.12ZM43.48,65.4a51.94,51.94,0,0,1-5.4-13.83,114.47,114.47,0,0,0,3.17-27.45v-.54c0-8.37-1.32-14.37-3.16-18.23C39.46,2.43,41.27.6,43.48.6c5.59,0,8.55,11.56,8.6,23v.54C52.08,40.93,48.79,56.68,43.48,65.4Z"/></g></g></svg>