<svg xmlns="http://www.w3.org/2000/svg" viewBox="0 0 43.96 94.06"><defs><style>.cls-1{fill:none;}.cls-2{fill:#272525;}</style></defs><g id="Livello_2" data-name="Livello 2"><g id="Livello_1-2" data-name="Livello 1"><path class="cls-1" d="M28.26,74.3c-.92-2-1.92-4.15-3-6.22-1.05,2.07-2.06,4.17-3,6.22a71.92,71.92,0,0,1,3,7.81A71.92,71.92,0,0,1,28.26,74.3Z"/><path class="cls-1" d="M24.94,67.39c-1-1.9-2-3.77-3-5.56-1,1.79-2,3.66-2.95,5.56,1,2,2,4.12,2.95,6.16C22.9,71.51,23.9,69.43,24.94,67.39Z"/><path class="cls-1" d="M25.29,12a71.92,71.92,0,0,1-3,7.81c.91,2,1.92,4.15,3,6.22,1.05-2.07,2.05-4.17,3-6.22A71.92,71.92,0,0,1,25.29,12Z"/><path class="cls-1" d="M25.29,27.36c-1,1.89-2,3.75-2.95,5.53,4.28,7.73,8.2,13.83,8.3,14l.1.16-.1.16c-.1.15-4,6.26-8.3,14,1,1.77,2,3.63,2.95,5.53C30.18,57.18,35.71,48.48,36.64,47,35.71,45.58,30.18,36.88,25.29,27.36Z"/><path class="cls-1" d="M18.68,82.11a71.92,71.92,0,0,1,3-7.81c-.92-2-1.93-4.15-3-6.22-1.05,2.07-2.06,4.17-3,6.22A76.33,76.33,0,0,1,18.68,82.11Z"/><ellipse class="cls-1" cx="21.98" cy="47.03" rx="8.05" ry="13.5"/><path class="cls-1" d="M25.59,10.91a68.48,68.48,0,0,0,3,8.08c3.12-7.14,5-13.66,3.36-16.68A3.47,3.47,0,0,0,28.59.6a3.74,3.74,0,0,0-2.92,1.11,3.28,3.28,0,0,1,.2.31C26.91,3.94,26.65,7.11,25.59,10.91Z"/><path class="cls-1" d="M15.71,19.76c.91,2,1.92,4.15,3,6.22,1-2.07,2.05-4.17,3-6.22a71.92,71.92,0,0,1-3-7.81A76.33,76.33,0,0,1,15.71,19.76Z"/><path class="cls-1" d="M22,20.51c-.91,2-1.91,4.12-2.95,6.16,1,1.9,2,3.77,2.95,5.57,1-1.8,2-3.67,3-5.57C23.9,24.63,22.9,22.56,22,20.51Z"/><path class="cls-1" d="M25.29,9.76c.79-3.19.94-5.83.05-7.45,0,0,0-.05-.05-.08l-.06.08C24.35,3.93,24.49,6.57,25.29,9.76Z"/><path class="cls-1" d="M18.68,66.7c1-1.89,2-3.75,2.95-5.52-4.28-7.73-8.21-13.84-8.3-14L13.22,47l.11-.16c.09-.15,4-6.25,8.3-14-1-1.78-2-3.64-2.95-5.53C13.79,36.88,8.26,45.58,7.33,47,8.26,48.48,13.79,57.18,18.68,66.7Z"/><path class="cls-1" d="M25.59,83.16c1.06,3.79,1.32,7,.28,8.88a3.28,3.28,0,0,1-.2.31,3.71,3.71,0,0,0,2.92,1.11A3.46,3.46,0,0,0,32,91.76c1.65-3-.24-9.55-3.36-16.69A67.94,67.94,0,0,0,25.59,83.16Z"/><path class="cls-1" d="M25.29,84.3c-.8,3.2-.94,5.83-.06,7.46l.06.07s0,0,.05-.07C26.23,90.13,26.08,87.5,25.29,84.3Z"/><path class="cls-1" d="M25,83.16a64.62,64.62,0,0,0-3-8.09,67.94,67.94,0,0,0-3,8.09C20,87,20.3,90.13,19.26,92a3.28,3.28,0,0,1-.2.31A3.71,3.71,0,0,0,22,93.46a3.7,3.7,0,0,0,2.92-1.11,2,2,0,0,1-.19-.31C23.66,90.13,23.93,87,25,83.16Z"/><path class="cls-1" d="M25.64,26.67c5.32,10.41,11.49,20,11.61,20.2l.1.16-.1.16c-.12.19-6.29,9.79-11.61,20.2,1,2,2,4.12,2.95,6.16A234.85,234.85,0,0,1,43.25,47,233.89,233.89,0,0,1,28.59,20.51C27.68,22.56,26.68,24.63,25.64,26.67Z"/><path class="cls-1" d="M19,10.91A68.48,68.48,0,0,0,22,19a65.11,65.11,0,0,0,3-8.08c-1.05-3.8-1.32-7-.27-8.89a2,2,0,0,1,.19-.31A3.73,3.73,0,0,0,22,.6a3.74,3.74,0,0,0-2.92,1.11,3.28,3.28,0,0,1,.2.31C20.3,3.94,20,7.11,19,10.91Z"/><path class="cls-1" d="M18.37,10.91c-1.05-3.8-1.32-7-.28-8.89a3.28,3.28,0,0,1,.2-.31A3.73,3.73,0,0,0,15.37.6,3.47,3.47,0,0,0,12,2.31c-1.64,3,.25,9.54,3.36,16.68A65.11,65.11,0,0,0,18.37,10.91Z"/><path class="cls-1" d="M18.32,67.39C13,57,6.84,47.38,6.72,47.19L6.61,47l.11-.16c.12-.19,6.28-9.79,11.6-20.2-1-2-2-4.11-3-6.16A232.24,232.24,0,0,1,.71,47,233.18,233.18,0,0,1,15.37,73.55C16.29,71.51,17.29,69.43,18.32,67.39Z"/><path class="cls-1" d="M18.68,9.76c.79-3.19.94-5.83.05-7.45,0,0,0-.05-.05-.08l-.06.08C17.74,3.93,17.88,6.57,18.68,9.76Z"/><path class="cls-1" d="M18.68,84.3c-.8,3.2-.94,5.83-.06,7.46l.06.07s0,0,.05-.07C19.62,90.13,19.47,87.5,18.68,84.3Z"/><path class="cls-1" d="M18.37,83.16a64.62,64.62,0,0,0-3-8.09c-3.11,7.14-5,13.66-3.36,16.69a3.46,3.46,0,0,0,3.36,1.7,3.7,3.7,0,0,0,2.92-1.11,3.28,3.28,0,0,1-.2-.31C17.05,90.13,17.32,87,18.37,83.16Z"/><path class="cls-2" d="M44,47l-.1-.16c-.15-.23-9.31-14.48-14.93-27.11C32.22,12.26,34.27,5.3,32.48,2a4,4,0,0,0-3.86-2h-.05a4.37,4.37,0,0,0-3.28,1.22A4.37,4.37,0,0,0,22,0H22a4.32,4.32,0,0,0-3.28,1.23A4.33,4.33,0,0,0,15.4,0h-.05a4.08,4.08,0,0,0-3.87,2C9.7,5.3,11.74,12.26,15,19.76,9.41,32.39.25,46.64.11,46.87L0,47l.11.16C.25,47.42,9.41,61.67,15,74.3,11.74,81.8,9.7,88.76,11.48,92a4.08,4.08,0,0,0,3.87,2h.05a4.37,4.37,0,0,0,3.28-1.22A4.35,4.35,0,0,0,22,94.06H22a4.37,4.37,0,0,0,3.28-1.22,4.37,4.37,0,0,0,3.28,1.22h.05a4,4,0,0,0,3.86-2c1.79-3.28-.26-10.24-3.55-17.74,5.62-12.63,14.78-26.88,14.93-27.11ZM28.59.6A3.47,3.47,0,0,1,32,2.31c1.65,3-.24,9.54-3.36,16.68a68.48,68.48,0,0,1-3-8.08c1.06-3.8,1.32-7,.28-8.89a3.28,3.28,0,0,0-.2-.31A3.74,3.74,0,0,1,28.59.6ZM19,26.67c1-2,2-4.11,2.95-6.16.92,2,1.92,4.12,3,6.16-1,1.9-2,3.77-3,5.57C21,30.44,20,28.57,19,26.67ZM30,47c-.73,1.13-4.23,6.63-8,13.5-3.82-6.87-7.32-12.37-8-13.5.72-1.13,4.22-6.63,8-13.5C25.8,40.4,29.3,45.9,30,47ZM18.68,26c-1.05-2.07-2.06-4.17-3-6.22a76.33,76.33,0,0,0,3-7.81,71.92,71.92,0,0,0,3,7.81C20.73,21.81,19.72,23.91,18.68,26Zm2.95,6.91c-4.28,7.73-8.21,13.83-8.3,14l-.11.16.11.16c.09.15,4,6.26,8.3,14-1,1.77-2,3.63-2.95,5.52C13.79,57.18,8.26,48.48,7.33,47c.93-1.45,6.46-10.15,11.35-19.67C19.65,29.25,20.64,31.11,21.63,32.89ZM18.68,68.08c1,2.07,2.05,4.17,3,6.22a71.92,71.92,0,0,0-3,7.81,76.33,76.33,0,0,0-3-7.81C16.62,72.25,17.63,70.15,18.68,68.08Zm.35-.69c1-1.9,2-3.77,2.95-5.56,1,1.79,2,3.66,3,5.56-1,2-2,4.12-3,6.16C21.07,71.51,20.07,69.43,19,67.39Zm6.26.69c1.05,2.07,2.05,4.17,3,6.22a71.92,71.92,0,0,0-3,7.81,71.92,71.92,0,0,0-3-7.81C23.23,72.25,24.24,70.15,25.29,68.08Zm0-1.37c-1-1.9-2-3.76-2.95-5.53,4.28-7.73,8.2-13.84,8.3-14l.1-.16-.1-.16c-.1-.15-4-6.25-8.3-14,1-1.78,2-3.64,2.95-5.53C30.18,36.88,35.71,45.58,36.64,47,35.71,48.48,30.18,57.18,25.29,66.71Zm-3-46.95a71.92,71.92,0,0,0,3-7.81,71.92,71.92,0,0,0,3,7.81c-.92,2-1.92,4.15-3,6.22C24.24,23.91,23.23,21.81,22.32,19.76Zm3-17.53s0,0,.05.08c.89,1.62.74,4.26-.05,7.45-.8-3.19-.94-5.83-.06-7.45ZM22,.6A3.73,3.73,0,0,1,24.9,1.71a2,2,0,0,0-.19.31c-1.05,1.92-.78,5.09.27,8.89A65.11,65.11,0,0,1,22,19a68.48,68.48,0,0,1-3-8.08c1.05-3.8,1.32-7,.28-8.89a3.28,3.28,0,0,0-.2-.31A3.74,3.74,0,0,1,22,.6Zm-3.3,1.63s0,0,.05.08c.89,1.62.74,4.26-.05,7.45-.8-3.19-.94-5.83-.06-7.45ZM12,2.31A3.47,3.47,0,0,1,15.37.6a3.73,3.73,0,0,1,2.92,1.11,3.28,3.28,0,0,0-.2.31c-1,1.92-.77,5.09.28,8.89a65.11,65.11,0,0,1-3,8.08C12.26,11.85,10.37,5.33,12,2.31ZM.71,47A232.24,232.24,0,0,0,15.37,20.51c.92,2,1.92,4.12,3,6.16C13,37.08,6.84,46.68,6.72,46.87L6.61,47l.11.16c.12.19,6.28,9.79,11.6,20.2-1,2-2,4.12-3,6.16A233.18,233.18,0,0,0,.71,47ZM15.37,93.46A3.46,3.46,0,0,1,12,91.76c-1.64-3,.25-9.55,3.36-16.69a64.62,64.62,0,0,1,3,8.09c-1.05,3.79-1.32,7-.28,8.88a3.28,3.28,0,0,0,.2.31A3.7,3.7,0,0,1,15.37,93.46Zm3.31-1.63-.06-.07c-.88-1.63-.74-4.26.06-7.46.79,3.2.94,5.83.05,7.46C18.72,91.78,18.69,91.8,18.68,91.83ZM22,93.46a3.71,3.71,0,0,1-2.92-1.11,3.28,3.28,0,0,0,.2-.31c1-1.91.77-5.09-.28-8.88a67.94,67.94,0,0,1,3-8.09,64.62,64.62,0,0,1,3,8.09c-1.05,3.79-1.32,7-.27,8.88a2,2,0,0,0,.19.31A3.7,3.7,0,0,1,22,93.46Zm3.31-1.63-.06-.07c-.88-1.63-.74-4.26.06-7.46.79,3.2.94,5.83.05,7.46C25.33,91.78,25.3,91.8,25.29,91.83ZM32,91.76a3.46,3.46,0,0,1-3.36,1.7,3.71,3.71,0,0,1-2.92-1.11,3.28,3.28,0,0,0,.2-.31c1-1.91.78-5.09-.28-8.88a67.94,67.94,0,0,1,3-8.09C31.71,82.21,33.6,88.73,32,91.76ZM28.59,73.55c-.91-2-1.91-4.12-2.95-6.16C31,57,37.13,47.38,37.25,47.19l.1-.16-.1-.16c-.12-.19-6.29-9.79-11.61-20.2,1-2,2-4.11,2.95-6.16A233.89,233.89,0,0,0,43.25,47,234.85,234.85,0,0,0,28.59,73.55Z"/></g></g></svg>