<svg width="50" height="39" viewBox="0 0 50 39" fill="none" xmlns="http://www.w3.org/2000/svg">
<g clip-path="url(#clip0_841_1540)">
<path d="M6.30156 16.2L7.10156 16.7H11.4016L14.9016 11.1V17.6H0.101562L2.20156 16.2V1.5L0.101562 0H8.30156L6.30156 1.5V16.2Z" fill="white"/>
<path d="M7.60156 19.7002C6.90156 19.7002 6.40156 20.1002 6.10156 20.7002L0.301563 36.4002C0.201563 36.8002 0.201563 37.2002 0.301563 37.6002C0.501563 38.0002 0.801563 38.3002 1.20156 38.4002C1.40156 38.5002 1.60156 38.5002 1.70156 38.5002C2.40156 38.5002 2.90156 38.1002 3.20156 37.5002L7.60156 25.7002L8.50156 28.1002C8.80156 28.9002 9.70156 29.3002 10.5016 29.0002C10.9016 28.9002 11.2016 28.6002 11.4016 28.2002C11.6016 27.8002 11.6016 27.4002 11.4016 27.0002L9.00156 20.7002C8.80156 20.1002 8.20156 19.7002 7.60156 19.7002Z" fill="white"/>
<path d="M8.00234 30C7.10234 30 6.40234 30.7 6.40234 31.6C6.40234 32.5 7.10234 33.2 8.00234 33.2H10.3023L11.9023 37.6C12.1023 38.2 12.7023 38.6 13.4023 38.6C13.6023 38.6 13.8023 38.6 13.9023 38.5C14.7023 38.2 15.1023 37.2 14.8023 36.4L12.8023 31.1C12.6023 30.5 12.0023 30.1 11.3023 30.1H8.00234V30Z" fill="white"/>
<path d="M22.7 23.3998H25.5C27.8 23.3998 28.1 24.8998 28.1 25.4998C28.1 26.1998 28.1 27.5998 25 27.8998C24.6 27.8998 24.2 28.0998 23.9 28.4998C23.6 28.7998 23.5 29.1998 23.5 29.5998C23.6 30.4998 24.3 31.0998 25.2 30.9998C30.3 30.4998 31.1 27.3998 31.1 25.4998C31.1 21.8998 28.1 20.2998 25.4 20.2998H21.1C20.2 20.2998 19.5 20.9998 19.5 21.8998V25.7998C19.5 26.6998 20.2 27.3998 21.1 27.3998C22 27.3998 22.7 26.6998 22.7 25.7998V23.3998Z" fill="white"/>
<path d="M21.1 28.5996C20.2 28.5996 19.5 29.2996 19.5 30.1996V36.9996C19.5 37.8996 20.2 38.5996 21.1 38.5996C22 38.5996 22.7 37.8996 22.7 36.9996V30.1996C22.7 29.2996 22 28.5996 21.1 28.5996Z" fill="white"/>
<path d="M28.3004 31C28.0004 31 27.7004 31.1 27.4004 31.3C26.7004 31.8 26.5004 32.8 27.0004 33.5L30.0004 37.9C30.3004 38.3 30.8004 38.6 31.3004 38.6C31.6004 38.6 31.9004 38.5 32.2004 38.3C32.9004 37.8 33.1004 36.8 32.6004 36.1L29.6004 31.7C29.3004 31.3 28.8004 31 28.3004 31Z" fill="white"/>
<path d="M36.0023 20.2002C35.1023 20.2002 34.4023 20.9002 34.4023 21.8002C34.4023 22.7002 35.1023 23.4002 36.0023 23.4002H48.4023C49.3023 23.4002 50.0023 22.7002 50.0023 21.8002C50.0023 20.9002 49.3023 20.2002 48.4023 20.2002H36.0023Z" fill="white"/>
<path d="M42.2016 24.6001C41.3016 24.6001 40.6016 25.3001 40.6016 26.2001V37.0001C40.6016 37.9001 41.3016 38.6001 42.2016 38.6001C43.1016 38.6001 43.8016 37.9001 43.8016 37.0001V26.2001C43.8016 25.3001 43.1016 24.6001 42.2016 24.6001Z" fill="white"/>
<path d="M32.8023 6.5L29.3023 0.9H27.1023V16.2L29.6023 17.6H20.6023L23.1023 16.2V0.9H20.9023L17.4023 6.5V0H32.8023V6.5Z" fill="white"/>
</g>
<defs>
<clipPath id="clip0_841_1540">
<rect width="50" height="38.5" fill="white"/>
</clipPath>
</defs>
</svg>
