<svg width="304" height="918" viewBox="0 0 304 918" fill="none" xmlns="http://www.w3.org/2000/svg">
<path d="M159.376 168.018C159.376 121.166 182.179 121.166 182.179 74.3147C182.179 27.4632 159.376 27.4632 159.376 -19.3883" stroke="white" stroke-opacity="0.4" stroke-width="0.5" stroke-miterlimit="10"/>
<path d="M144.173 -19.3883C144.173 27.1135 121.369 27.4632 121.369 73.9651C121.369 120.817 144.173 120.817 144.173 167.668C144.173 167.668 144.173 167.668 144.173 168.018" stroke="white" stroke-opacity="0.4" stroke-width="0.5" stroke-miterlimit="10"/>
<path d="M171.378 168.018C171.378 121.166 216.585 121.166 216.585 74.3147C216.585 27.4632 171.378 27.4632 171.378 -19.3883" stroke="white" stroke-opacity="0.4" stroke-width="0.5" stroke-miterlimit="10"/>
<path d="M159.376 -19.3883C159.376 27.4632 182.179 27.4632 182.179 74.3147C182.179 121.166 159.376 121.166 159.376 168.018" stroke="white" stroke-opacity="0.4" stroke-width="0.5" stroke-miterlimit="10"/>
<path d="M188.581 168.018C188.581 121.166 245.39 121.166 245.39 74.3147C245.39 27.4632 188.581 27.4632 188.581 -19.3883" stroke="white" stroke-opacity="0.4" stroke-width="0.5" stroke-miterlimit="10"/>
<path d="M171.378 -19.3883C171.378 27.4632 216.585 27.4632 216.585 74.3147C216.585 121.166 171.378 121.166 171.378 168.018" stroke="white" stroke-opacity="0.4" stroke-width="0.5" stroke-miterlimit="10"/>
<path d="M114.968 168.018C114.968 120.817 58.1584 120.817 58.1584 73.9651C58.5585 27.4632 114.968 27.1135 114.968 -19.3883" stroke="white" stroke-opacity="0.4" stroke-width="0.5" stroke-miterlimit="10"/>
<path d="M97.7651 -19.3883C97.365 27.1135 29.7535 27.4632 29.7535 73.9651C29.7535 120.817 97.7651 120.817 97.7651 167.668C97.7651 167.668 97.7651 167.668 97.7651 168.018" stroke="white" stroke-opacity="0.4" stroke-width="0.5" stroke-miterlimit="10"/>
<path d="M144.173 168.018C144.173 120.817 121.369 120.817 121.369 73.9651C121.369 27.4632 144.173 27.1135 144.173 -19.3883" stroke="white" stroke-opacity="0.4" stroke-width="0.5" stroke-miterlimit="10"/>
<path d="M132.571 -19.3883C132.571 27.1135 87.3634 27.4632 87.3634 73.9651C87.3634 120.817 132.571 120.817 132.571 167.668C132.571 167.668 132.571 167.668 132.571 168.018" stroke="white" stroke-opacity="0.4" stroke-width="0.5" stroke-miterlimit="10"/>
<path d="M132.571 168.018C132.571 120.817 87.3635 120.817 87.3635 73.9651C86.9634 27.4632 132.171 27.1135 132.571 -19.3883" stroke="white" stroke-opacity="0.4" stroke-width="0.5" stroke-miterlimit="10"/>
<path d="M114.968 -19.3883C114.968 27.1135 58.1584 27.4632 58.1584 73.9651C58.1584 120.817 114.968 120.817 114.968 167.668C114.968 167.668 114.968 167.668 114.968 168.018" stroke="white" stroke-opacity="0.4" stroke-width="0.5" stroke-miterlimit="10"/>
<path d="M97.7651 168.018C97.7651 120.817 29.7535 120.817 29.7535 73.9651C29.7535 27.1135 97.365 27.1135 97.7651 -19.3883" stroke="white" stroke-opacity="0.4" stroke-width="0.5" stroke-miterlimit="10"/>
<path d="M80.5622 -19.3883C80.1621 27.1135 0.54865 27.4632 0.548648 73.9651C0.548646 120.817 80.5622 120.817 80.5622 167.668C80.5622 167.668 80.5622 167.668 80.5622 168.018" stroke="white" stroke-opacity="0.4" stroke-width="0.5" stroke-miterlimit="10"/>
<path d="M206.184 168.018C206.184 121.166 274.195 121.166 274.195 74.3147C274.195 27.4632 206.184 27.4632 206.184 -19.3883" stroke="white" stroke-opacity="0.4" stroke-width="0.5" stroke-miterlimit="10"/>
<path d="M188.581 -19.3883C188.581 27.4632 245.39 27.4632 245.39 74.3147C245.39 121.166 188.581 121.166 188.581 168.018" stroke="white" stroke-opacity="0.4" stroke-width="0.5" stroke-miterlimit="10"/>
<path d="M222.986 168.018C222.986 121.166 303 121.166 303 74.3147C303 27.4632 222.986 27.4632 222.986 -19.3883" stroke="white" stroke-opacity="0.4" stroke-width="0.5" stroke-miterlimit="10"/>
<path d="M206.184 -19.3883C206.184 27.4632 274.195 27.4632 274.195 74.3147C274.195 121.166 206.184 121.166 206.184 168.018" stroke="white" stroke-opacity="0.4" stroke-width="0.5" stroke-miterlimit="10"/>
<path d="M159.375 543.181C159.375 496.329 182.179 496.329 182.179 449.478C182.179 402.626 159.375 402.626 159.375 355.775" stroke="white" stroke-opacity="0.4" stroke-width="0.5" stroke-miterlimit="10"/>
<path d="M144.173 355.424C144.173 401.926 121.369 402.275 121.369 448.777C121.369 495.629 144.173 495.629 144.173 542.48C144.173 542.48 144.173 542.48 144.173 542.83" stroke="white" stroke-opacity="0.4" stroke-width="0.5" stroke-miterlimit="10"/>
<path d="M171.378 543.181C171.378 496.329 216.585 496.329 216.585 449.478C216.585 402.626 171.378 402.626 171.378 355.775" stroke="white" stroke-opacity="0.4" stroke-width="0.5" stroke-miterlimit="10"/>
<path d="M159.375 355.424C159.375 402.275 182.179 402.275 182.179 449.127C182.179 495.978 159.375 495.978 159.375 542.83" stroke="white" stroke-opacity="0.4" stroke-width="0.5" stroke-miterlimit="10"/>
<path d="M188.58 543.181C188.58 496.329 245.39 496.329 245.39 449.478C245.39 402.626 188.58 402.626 188.58 355.775" stroke="white" stroke-opacity="0.4" stroke-width="0.5" stroke-miterlimit="10"/>
<path d="M171.378 355.424C171.378 402.275 216.585 402.275 216.585 449.127C216.585 495.978 171.378 495.978 171.378 542.83" stroke="white" stroke-opacity="0.4" stroke-width="0.5" stroke-miterlimit="10"/>
<path d="M114.968 543.181C114.968 542.831 114.968 542.831 114.968 543.181C114.968 495.98 58.1583 495.98 58.1583 449.128C58.1583 402.277 114.568 402.277 114.968 355.775" stroke="white" stroke-opacity="0.4" stroke-width="0.5" stroke-miterlimit="10"/>
<path d="M97.7651 355.424C97.365 401.926 29.7535 402.275 29.7535 448.777C29.7535 495.629 97.7651 495.629 97.7651 542.48C97.7651 542.48 97.7651 542.48 97.7651 542.83" stroke="white" stroke-opacity="0.4" stroke-width="0.5" stroke-miterlimit="10"/>
<path d="M144.173 543.181C144.173 542.831 144.173 542.831 144.173 543.181C144.173 495.98 121.369 495.98 121.369 449.128C121.369 402.277 143.773 402.277 144.173 355.775" stroke="white" stroke-opacity="0.4" stroke-width="0.5" stroke-miterlimit="10"/>
<path d="M132.571 355.424C132.571 401.926 87.3633 402.275 87.3633 448.777C87.3633 495.629 132.571 495.629 132.571 542.48C132.571 542.48 132.571 542.48 132.571 542.83" stroke="white" stroke-opacity="0.4" stroke-width="0.5" stroke-miterlimit="10"/>
<path d="M132.571 543.181C132.571 542.831 132.571 542.831 132.571 543.181C132.571 495.98 87.3633 495.98 87.3633 449.128C87.3633 402.277 132.571 402.277 132.571 355.775" stroke="white" stroke-opacity="0.4" stroke-width="0.5" stroke-miterlimit="10"/>
<path d="M114.968 355.424C114.968 401.926 58.1583 402.275 58.1583 448.777C58.1583 495.629 114.968 495.629 114.968 542.48C114.968 542.48 114.968 542.48 114.968 542.83" stroke="white" stroke-opacity="0.4" stroke-width="0.5" stroke-miterlimit="10"/>
<path d="M97.765 543.181C97.765 542.831 97.765 542.831 97.765 543.181C97.765 495.98 29.7535 495.98 29.7535 449.128C29.7535 402.277 97.3649 402.277 97.765 355.775" stroke="white" stroke-opacity="0.4" stroke-width="0.5" stroke-miterlimit="10"/>
<path d="M80.5622 355.424C80.1621 401.926 0.548622 402.275 0.548619 448.777C0.548617 495.629 80.5622 495.629 80.5622 542.48C80.5622 542.48 80.5622 542.48 80.5622 542.83" stroke="white" stroke-opacity="0.4" stroke-width="0.5" stroke-miterlimit="10"/>
<path d="M206.183 543.181C206.183 496.329 274.195 496.329 274.195 449.478C274.195 402.626 206.183 402.626 206.183 355.775" stroke="white" stroke-opacity="0.4" stroke-width="0.5" stroke-miterlimit="10"/>
<path d="M188.58 355.424C188.58 402.275 245.39 402.275 245.39 449.127C245.39 495.978 188.58 495.978 188.58 542.83" stroke="white" stroke-opacity="0.4" stroke-width="0.5" stroke-miterlimit="10"/>
<path d="M222.986 543.181C222.986 496.329 303 496.329 303 449.478C303 402.626 222.986 402.626 222.986 355.775" stroke="white" stroke-opacity="0.4" stroke-width="0.5" stroke-miterlimit="10"/>
<path d="M206.183 355.424C206.183 402.275 274.195 402.275 274.195 449.127C274.195 495.978 206.183 495.978 206.183 542.83" stroke="white" stroke-opacity="0.4" stroke-width="0.5" stroke-miterlimit="10"/>
<path d="M159.375 917.992C159.375 871.14 182.179 871.14 182.179 824.289C182.179 777.437 159.375 777.437 159.375 730.586" stroke="white" stroke-opacity="0.4" stroke-width="0.5" stroke-miterlimit="10"/>
<path d="M144.173 730.586C144.173 777.088 121.369 777.437 121.369 823.939C121.369 870.791 144.173 870.791 144.173 917.642C144.173 917.642 144.173 917.642 144.173 917.992" stroke="white" stroke-opacity="0.4" stroke-width="0.5" stroke-miterlimit="10"/>
<path d="M171.378 917.992C171.378 871.14 216.585 871.14 216.585 824.289C216.585 777.437 171.378 777.437 171.378 730.586" stroke="white" stroke-opacity="0.4" stroke-width="0.5" stroke-miterlimit="10"/>
<path d="M159.375 730.586C159.375 777.437 182.179 777.437 182.179 824.289C182.179 871.14 159.375 871.14 159.375 917.992" stroke="white" stroke-opacity="0.4" stroke-width="0.5" stroke-miterlimit="10"/>
<path d="M188.58 917.992C188.58 871.14 245.39 871.14 245.39 824.289C245.39 777.437 188.58 777.437 188.58 730.586" stroke="white" stroke-opacity="0.4" stroke-width="0.5" stroke-miterlimit="10"/>
<path d="M171.378 730.586C171.378 777.437 216.585 777.437 216.585 824.289C216.585 871.14 171.378 871.14 171.378 917.992" stroke="white" stroke-opacity="0.4" stroke-width="0.5" stroke-miterlimit="10"/>
<path d="M114.968 917.992C114.968 870.791 58.1583 870.791 58.1583 823.939C58.1583 777.088 114.568 777.088 114.968 730.586" stroke="white" stroke-opacity="0.4" stroke-width="0.5" stroke-miterlimit="10"/>
<path d="M97.7651 730.586C97.365 777.088 29.7535 777.437 29.7535 823.939C29.7535 870.791 97.7651 870.791 97.7651 917.642C97.7651 917.642 97.7651 917.642 97.7651 917.992" stroke="white" stroke-opacity="0.4" stroke-width="0.5" stroke-miterlimit="10"/>
<path d="M144.173 917.992C144.173 870.791 121.369 870.791 121.369 823.939C121.369 777.088 143.773 777.088 144.173 730.586" stroke="white" stroke-opacity="0.4" stroke-width="0.5" stroke-miterlimit="10"/>
<path d="M132.571 730.586C132.571 777.088 87.3633 777.437 87.3633 823.939C87.3633 870.791 132.571 870.791 132.571 917.642C132.571 917.642 132.571 917.642 132.571 917.992" stroke="white" stroke-opacity="0.4" stroke-width="0.5" stroke-miterlimit="10"/>
<path d="M132.571 917.992C132.571 870.791 87.3633 870.791 87.3633 823.939C87.3633 777.088 132.571 777.088 132.571 730.586" stroke="white" stroke-opacity="0.4" stroke-width="0.5" stroke-miterlimit="10"/>
<path d="M114.968 730.586C114.968 777.088 58.1583 777.437 58.1583 823.939C58.1583 870.791 114.968 870.791 114.968 917.642C114.968 917.642 114.968 917.642 114.968 917.992" stroke="white" stroke-opacity="0.4" stroke-width="0.5" stroke-miterlimit="10"/>
<path d="M97.7651 917.992C97.7651 870.791 29.7535 870.791 29.7535 823.939C29.7535 777.088 97.365 777.088 97.7651 730.586" stroke="white" stroke-opacity="0.4" stroke-width="0.5" stroke-miterlimit="10"/>
<path d="M80.5621 730.586C80.162 777.088 0.548528 777.437 0.548526 823.939C0.548524 870.791 80.5621 870.791 80.5621 917.642C80.5621 917.642 80.5621 917.642 80.5621 917.992" stroke="white" stroke-opacity="0.4" stroke-width="0.5" stroke-miterlimit="10"/>
<path d="M206.183 917.992C206.183 871.14 274.195 871.14 274.195 824.289C274.195 777.437 206.183 777.437 206.183 730.586" stroke="white" stroke-opacity="0.4" stroke-width="0.5" stroke-miterlimit="10"/>
<path d="M188.58 730.586C188.58 777.437 245.39 777.437 245.39 824.289C245.39 871.14 188.58 871.14 188.58 917.992" stroke="white" stroke-opacity="0.4" stroke-width="0.5" stroke-miterlimit="10"/>
<path d="M222.986 917.992C222.986 871.14 303 871.14 303 824.289C303 777.437 222.986 777.437 222.986 730.586" stroke="white" stroke-opacity="0.4" stroke-width="0.5" stroke-miterlimit="10"/>
<path d="M206.183 730.586C206.183 777.437 274.195 777.437 274.195 824.289C274.195 871.14 206.183 871.14 206.183 917.992" stroke="white" stroke-opacity="0.4" stroke-width="0.5" stroke-miterlimit="10"/>
<path d="M159.375 730.586C159.375 683.734 182.179 683.734 182.179 636.883C182.179 590.031 159.375 590.031 159.375 543.18" stroke="white" stroke-opacity="0.4" stroke-width="0.5" stroke-miterlimit="10"/>
<path d="M144.173 543.18C144.173 589.681 121.369 590.031 121.369 636.533C121.369 683.384 144.173 683.384 144.173 730.236C144.173 730.236 144.173 730.236 144.173 730.586" stroke="white" stroke-opacity="0.4" stroke-width="0.5" stroke-miterlimit="10"/>
<path d="M171.378 730.586C171.378 683.734 216.585 683.734 216.585 636.883C216.585 590.031 171.378 590.031 171.378 543.18" stroke="white" stroke-opacity="0.4" stroke-width="0.5" stroke-miterlimit="10"/>
<path d="M159.375 543.18C159.375 590.031 182.179 590.031 182.179 636.883C182.179 683.734 159.375 683.734 159.375 730.586" stroke="white" stroke-opacity="0.4" stroke-width="0.5" stroke-miterlimit="10"/>
<path d="M188.58 730.586C188.58 683.734 245.39 683.734 245.39 636.883C245.39 590.031 188.58 590.031 188.58 543.18" stroke="white" stroke-opacity="0.4" stroke-width="0.5" stroke-miterlimit="10"/>
<path d="M171.378 543.18C171.378 590.031 216.585 590.031 216.585 636.883C216.585 683.734 171.378 683.734 171.378 730.586" stroke="white" stroke-opacity="0.4" stroke-width="0.5" stroke-miterlimit="10"/>
<path d="M114.968 730.586C114.968 683.384 58.1583 683.384 58.1583 636.533C58.1583 589.681 114.568 589.681 114.968 543.18" stroke="white" stroke-opacity="0.4" stroke-width="0.5" stroke-miterlimit="10"/>
<path d="M97.7651 543.18C97.365 589.681 29.7535 590.031 29.7535 636.533C29.7535 683.384 97.7651 683.384 97.7651 730.236C97.7651 730.236 97.7651 730.236 97.7651 730.586" stroke="white" stroke-opacity="0.4" stroke-width="0.5" stroke-miterlimit="10"/>
<path d="M144.173 730.586C144.173 683.384 121.369 683.384 121.369 636.533C121.369 589.681 143.773 589.681 144.173 543.18" stroke="white" stroke-opacity="0.4" stroke-width="0.5" stroke-miterlimit="10"/>
<path d="M132.571 543.18C132.571 589.681 87.3633 590.031 87.3633 636.533C87.3633 683.384 132.571 683.384 132.571 730.236C132.571 730.236 132.571 730.236 132.571 730.586" stroke="white" stroke-opacity="0.4" stroke-width="0.5" stroke-miterlimit="10"/>
<path d="M132.571 730.586C132.571 683.384 87.3633 683.384 87.3633 636.533C87.3633 589.681 132.571 589.681 132.571 543.18" stroke="white" stroke-opacity="0.4" stroke-width="0.5" stroke-miterlimit="10"/>
<path d="M114.968 543.18C114.968 589.681 58.1583 590.031 58.1583 636.533C58.1583 683.384 114.968 683.384 114.968 730.236C114.968 730.236 114.968 730.236 114.968 730.586" stroke="white" stroke-opacity="0.4" stroke-width="0.5" stroke-miterlimit="10"/>
<path d="M97.7651 730.586C97.7651 683.384 29.7535 683.384 29.7535 636.533C29.7535 589.681 97.365 589.681 97.7651 543.18" stroke="white" stroke-opacity="0.4" stroke-width="0.5" stroke-miterlimit="10"/>
<path d="M80.5621 543.18C80.162 589.681 0.5485 590.031 0.548497 636.533C0.548495 683.384 80.5621 683.384 80.5621 730.236C80.5621 730.236 80.5621 730.236 80.5621 730.586" stroke="white" stroke-opacity="0.4" stroke-width="0.5" stroke-miterlimit="10"/>
<path d="M206.183 730.586C206.183 683.734 274.195 683.734 274.195 636.883C274.195 590.031 206.183 590.031 206.183 543.18" stroke="white" stroke-opacity="0.4" stroke-width="0.5" stroke-miterlimit="10"/>
<path d="M188.58 543.18C188.58 590.031 245.39 590.031 245.39 636.883C245.39 683.734 188.58 683.734 188.58 730.586" stroke="white" stroke-opacity="0.4" stroke-width="0.5" stroke-miterlimit="10"/>
<path d="M222.986 730.586C222.986 683.734 303 683.734 303 636.883C303 590.031 222.986 590.031 222.986 543.179" stroke="white" stroke-opacity="0.4" stroke-width="0.5" stroke-miterlimit="10"/>
<path d="M206.183 543.18C206.183 590.031 274.195 590.031 274.195 636.883C274.195 683.734 206.183 683.734 206.183 730.586" stroke="white" stroke-opacity="0.4" stroke-width="0.5" stroke-miterlimit="10"/>
<path d="M159.376 355.424C159.376 308.572 182.179 308.572 182.179 261.721C182.179 214.869 159.376 214.869 159.376 168.018" stroke="white" stroke-opacity="0.4" stroke-width="0.5" stroke-miterlimit="10"/>
<path d="M144.173 168.018C144.173 214.869 121.369 214.869 121.369 261.721C121.369 308.572 144.173 308.572 144.173 355.424C144.173 355.424 144.173 355.424 144.173 355.774" stroke="white" stroke-opacity="0.4" stroke-width="0.5" stroke-miterlimit="10"/>
<path d="M171.378 355.424C171.378 308.572 216.585 308.572 216.585 261.721C216.585 214.869 171.378 214.869 171.378 168.018" stroke="white" stroke-opacity="0.4" stroke-width="0.5" stroke-miterlimit="10"/>
<path d="M159.376 168.018C159.376 214.869 182.179 214.869 182.179 261.721C182.179 308.572 159.376 308.572 159.376 355.424" stroke="white" stroke-opacity="0.4" stroke-width="0.5" stroke-miterlimit="10"/>
<path d="M188.581 355.424C188.581 308.572 245.39 308.572 245.39 261.721C245.39 214.869 188.581 214.869 188.581 168.018" stroke="white" stroke-opacity="0.4" stroke-width="0.5" stroke-miterlimit="10"/>
<path d="M171.378 168.018C171.378 214.869 216.585 214.869 216.585 261.721C216.585 308.572 171.378 308.572 171.378 355.424" stroke="white" stroke-opacity="0.4" stroke-width="0.5" stroke-miterlimit="10"/>
<path d="M114.968 355.424C114.968 308.223 58.1584 308.223 58.1584 261.371C58.5585 214.869 114.968 214.869 114.968 168.018" stroke="white" stroke-opacity="0.4" stroke-width="0.5" stroke-miterlimit="10"/>
<path d="M97.7651 168.018C97.3651 214.52 29.7536 214.869 29.7536 261.371C29.7536 308.223 97.7651 308.223 97.7651 355.074C97.7651 355.074 97.7651 355.074 97.7651 355.424" stroke="white" stroke-opacity="0.4" stroke-width="0.5" stroke-miterlimit="10"/>
<path d="M144.173 355.424C144.173 308.223 121.369 308.223 121.369 261.371C121.369 214.869 144.173 214.869 144.173 168.018" stroke="white" stroke-opacity="0.4" stroke-width="0.5" stroke-miterlimit="10"/>
<path d="M132.571 168.018C132.171 214.869 86.9634 214.869 86.9634 261.721C86.9634 308.572 132.171 308.572 132.171 355.424C132.171 355.424 132.171 355.424 132.171 355.774" stroke="white" stroke-opacity="0.4" stroke-width="0.5" stroke-miterlimit="10"/>
<path d="M132.571 355.424C132.571 308.223 87.3635 308.223 87.3635 261.371C86.9634 214.869 132.171 214.869 132.571 168.018" stroke="white" stroke-opacity="0.4" stroke-width="0.5" stroke-miterlimit="10"/>
<path d="M114.968 168.018C114.968 214.869 58.5584 214.869 58.5584 261.721C58.5584 308.572 115.368 308.572 115.368 355.424C115.368 355.424 115.368 355.424 115.368 355.774" stroke="white" stroke-opacity="0.4" stroke-width="0.5" stroke-miterlimit="10"/>
<path d="M97.7651 355.424C97.7651 308.223 29.7536 308.223 29.7536 261.371C29.7536 214.52 97.3651 214.52 97.7651 168.018" stroke="white" stroke-opacity="0.4" stroke-width="0.5" stroke-miterlimit="10"/>
<path d="M80.5622 168.018C80.1621 214.869 0.548622 214.869 0.548619 261.721C0.548617 308.572 80.5622 308.572 80.5622 355.424C80.5622 355.424 80.5622 355.424 80.5622 355.774" stroke="white" stroke-opacity="0.4" stroke-width="0.5" stroke-miterlimit="10"/>
<path d="M206.184 355.424C206.184 308.572 274.195 308.572 274.195 261.721C274.195 214.869 206.184 214.869 206.184 168.018" stroke="white" stroke-opacity="0.4" stroke-width="0.5" stroke-miterlimit="10"/>
<path d="M188.581 168.018C188.581 214.869 245.39 214.869 245.39 261.721C245.39 308.572 188.581 308.572 188.581 355.424" stroke="white" stroke-opacity="0.4" stroke-width="0.5" stroke-miterlimit="10"/>
<path d="M222.986 355.424C222.986 308.572 303 308.572 303 261.721C303 214.869 222.986 214.869 222.986 168.018" stroke="white" stroke-opacity="0.4" stroke-width="0.5" stroke-miterlimit="10"/>
<path d="M206.184 168.018C206.184 214.869 274.195 214.869 274.195 261.721C274.195 308.572 206.184 308.572 206.184 355.424" stroke="white" stroke-opacity="0.4" stroke-width="0.5" stroke-miterlimit="10"/>
</svg>
